G04 #@! TF.GenerationSoftware,KiCad,Pcbnew,5.1.7-a382d34a8~87~ubuntu18.04.1*
G04 #@! TF.CreationDate,2021-02-18T22:44:55+00:00*
G04 #@! TF.ProjectId,Laser-Driver-v3,4c617365-722d-4447-9269-7665722d7633,rev?*
G04 #@! TF.SameCoordinates,Original*
G04 #@! TF.FileFunction,Soldermask,Bot*
G04 #@! TF.FilePolarity,Negative*
%FSLAX46Y46*%
G04 Gerber Fmt 4.6, Leading zero omitted, Abs format (unit mm)*
G04 Created by KiCad (PCBNEW 5.1.7-a382d34a8~87~ubuntu18.04.1) date 2021-02-18 22:44:55*
%MOMM*%
%LPD*%
G01*
G04 APERTURE LIST*
%ADD10C,7.000000*%
%ADD11C,0.800000*%
%ADD12C,6.400000*%
%ADD13C,1.404000*%
%ADD14C,1.304000*%
%ADD15C,0.804000*%
%ADD16R,2.000000X2.600000*%
%ADD17R,1.800000X4.400000*%
%ADD18O,1.800000X4.000000*%
%ADD19O,4.000000X1.800000*%
%ADD20O,2.500000X4.500000*%
%ADD21R,2.500000X4.500000*%
%ADD22C,3.000000*%
%ADD23R,3.000000X3.000000*%
G04 APERTURE END LIST*
D10*
G04 #@! TO.C,HS1*
X111400000Y-73100000D03*
X158600000Y-73100000D03*
X158600000Y-46900000D03*
X111400000Y-46900000D03*
G04 #@! TD*
D11*
G04 #@! TO.C,H4*
X96697056Y-43302944D03*
X95000000Y-42600000D03*
X93302944Y-43302944D03*
X92600000Y-45000000D03*
X93302944Y-46697056D03*
X95000000Y-47400000D03*
X96697056Y-46697056D03*
X97400000Y-45000000D03*
D12*
X95000000Y-45000000D03*
G04 #@! TD*
D11*
G04 #@! TO.C,H3*
X176697056Y-43302944D03*
X175000000Y-42600000D03*
X173302944Y-43302944D03*
X172600000Y-45000000D03*
X173302944Y-46697056D03*
X175000000Y-47400000D03*
X176697056Y-46697056D03*
X177400000Y-45000000D03*
D12*
X175000000Y-45000000D03*
G04 #@! TD*
D11*
G04 #@! TO.C,H2*
X96697056Y-113302944D03*
X95000000Y-112600000D03*
X93302944Y-113302944D03*
X92600000Y-115000000D03*
X93302944Y-116697056D03*
X95000000Y-117400000D03*
X96697056Y-116697056D03*
X97400000Y-115000000D03*
D12*
X95000000Y-115000000D03*
G04 #@! TD*
D11*
G04 #@! TO.C,H1*
X176697056Y-113302944D03*
X175000000Y-112600000D03*
X173302944Y-113302944D03*
X172600000Y-115000000D03*
X173302944Y-116697056D03*
X175000000Y-117400000D03*
X176697056Y-116697056D03*
X177400000Y-115000000D03*
D12*
X175000000Y-115000000D03*
G04 #@! TD*
D13*
G04 #@! TO.C,U2*
X176410000Y-93530000D03*
X173870000Y-93530000D03*
D14*
X148470000Y-106230000D03*
X151010000Y-106230000D03*
X148470000Y-103690000D03*
X151010000Y-103690000D03*
X148470000Y-101150000D03*
X151010000Y-101150000D03*
X148470000Y-98610000D03*
X151010000Y-98610000D03*
X148470000Y-96070000D03*
X151010000Y-96070000D03*
D15*
X169271600Y-104650000D03*
X169271600Y-103650000D03*
X169271600Y-102650000D03*
X169271600Y-101650000D03*
X169271600Y-100650000D03*
X169271600Y-99650000D03*
X169271600Y-98650000D03*
X169271600Y-97650000D03*
D14*
X175140000Y-102420000D03*
X175140000Y-99880000D03*
D13*
X171330000Y-93530000D03*
X168790000Y-93530000D03*
X166250000Y-93530000D03*
X163710000Y-93530000D03*
X161170000Y-93530000D03*
X158630000Y-93530000D03*
X156090000Y-93530000D03*
X153550000Y-93530000D03*
X151010000Y-93530000D03*
X148470000Y-93530000D03*
X143390000Y-93530000D03*
X143390000Y-96070000D03*
X143390000Y-98610000D03*
X143390000Y-101150000D03*
X143390000Y-103690000D03*
X143390000Y-106230000D03*
X143390000Y-108770000D03*
X145930000Y-108770000D03*
X148470000Y-108770000D03*
X151010000Y-108770000D03*
X153550000Y-108770000D03*
X156090000Y-108770000D03*
X158630000Y-108770000D03*
X161170000Y-108770000D03*
X163710000Y-108770000D03*
X166250000Y-108770000D03*
X168790000Y-108770000D03*
X171330000Y-108770000D03*
X173870000Y-108770000D03*
X173870000Y-106230000D03*
X176410000Y-108770000D03*
X145930000Y-93530000D03*
G04 #@! TD*
D16*
G04 #@! TO.C,J5*
X100810000Y-62540000D03*
X98270000Y-62540000D03*
X95730000Y-62540000D03*
X93190000Y-62540000D03*
X100810000Y-54920000D03*
X98270000Y-54920000D03*
X93190000Y-54920000D03*
X95730000Y-54920000D03*
G04 #@! TD*
G04 #@! TO.C,J2*
X176810000Y-62540000D03*
X174270000Y-62540000D03*
X171730000Y-62540000D03*
X169190000Y-62540000D03*
X176810000Y-54920000D03*
X174270000Y-54920000D03*
X169190000Y-54920000D03*
X171730000Y-54920000D03*
G04 #@! TD*
D17*
G04 #@! TO.C,J6*
X105900000Y-82800000D03*
D18*
X100100000Y-82800000D03*
D19*
X102900000Y-87600000D03*
G04 #@! TD*
D20*
G04 #@! TO.C,Q1*
X129550000Y-45500000D03*
X135000000Y-45500000D03*
D21*
X140450000Y-45500000D03*
G04 #@! TD*
D22*
G04 #@! TO.C,J1*
X162930000Y-115000000D03*
D23*
X157850000Y-115000000D03*
G04 #@! TD*
M02*
