G04 #@! TF.GenerationSoftware,KiCad,Pcbnew,5.1.7-a382d34a8~87~ubuntu18.04.1*
G04 #@! TF.CreationDate,2021-02-18T22:44:55+00:00*
G04 #@! TF.ProjectId,Laser-Driver-v3,4c617365-722d-4447-9269-7665722d7633,rev?*
G04 #@! TF.SameCoordinates,Original*
G04 #@! TF.FileFunction,Legend,Bot*
G04 #@! TF.FilePolarity,Positive*
%FSLAX46Y46*%
G04 Gerber Fmt 4.6, Leading zero omitted, Abs format (unit mm)*
G04 Created by KiCad (PCBNEW 5.1.7-a382d34a8~87~ubuntu18.04.1) date 2021-02-18 22:44:55*
%MOMM*%
%LPD*%
G01*
G04 APERTURE LIST*
%ADD10C,0.120000*%
%ADD11C,0.150000*%
G04 APERTURE END LIST*
D10*
G04 #@! TO.C,Q1*
X143070000Y-43049000D02*
X126930000Y-43049000D01*
X143070000Y-48320000D02*
X126930000Y-48320000D01*
X143070000Y-43049000D02*
X143070000Y-48320000D01*
X126930000Y-43049000D02*
X126930000Y-48320000D01*
X136804000Y-43049000D02*
X136804000Y-48320000D01*
X133195000Y-43049000D02*
X133195000Y-48320000D01*
G04 #@! TO.C,HS1*
D11*
X136238095Y-60952380D02*
X136238095Y-59952380D01*
X136238095Y-60428571D02*
X135666666Y-60428571D01*
X135666666Y-60952380D02*
X135666666Y-59952380D01*
X135238095Y-60904761D02*
X135095238Y-60952380D01*
X134857142Y-60952380D01*
X134761904Y-60904761D01*
X134714285Y-60857142D01*
X134666666Y-60761904D01*
X134666666Y-60666666D01*
X134714285Y-60571428D01*
X134761904Y-60523809D01*
X134857142Y-60476190D01*
X135047619Y-60428571D01*
X135142857Y-60380952D01*
X135190476Y-60333333D01*
X135238095Y-60238095D01*
X135238095Y-60142857D01*
X135190476Y-60047619D01*
X135142857Y-60000000D01*
X135047619Y-59952380D01*
X134809523Y-59952380D01*
X134666666Y-60000000D01*
X133714285Y-60952380D02*
X134285714Y-60952380D01*
X134000000Y-60952380D02*
X134000000Y-59952380D01*
X134095238Y-60095238D01*
X134190476Y-60190476D01*
X134285714Y-60238095D01*
G04 #@! TO.C,Q1*
X140595238Y-50347619D02*
X140690476Y-50300000D01*
X140785714Y-50204761D01*
X140928571Y-50061904D01*
X141023809Y-50014285D01*
X141119047Y-50014285D01*
X141071428Y-50252380D02*
X141166666Y-50204761D01*
X141261904Y-50109523D01*
X141309523Y-49919047D01*
X141309523Y-49585714D01*
X141261904Y-49395238D01*
X141166666Y-49300000D01*
X141071428Y-49252380D01*
X140880952Y-49252380D01*
X140785714Y-49300000D01*
X140690476Y-49395238D01*
X140642857Y-49585714D01*
X140642857Y-49919047D01*
X140690476Y-50109523D01*
X140785714Y-50204761D01*
X140880952Y-50252380D01*
X141071428Y-50252380D01*
X139690476Y-50252380D02*
X140261904Y-50252380D01*
X139976190Y-50252380D02*
X139976190Y-49252380D01*
X140071428Y-49395238D01*
X140166666Y-49490476D01*
X140261904Y-49538095D01*
G04 #@! TD*
M02*
