G04 #@! TF.GenerationSoftware,KiCad,Pcbnew,5.1.7-a382d34a8~87~ubuntu18.04.1*
G04 #@! TF.CreationDate,2021-02-18T22:44:55+00:00*
G04 #@! TF.ProjectId,Laser-Driver-v3,4c617365-722d-4447-9269-7665722d7633,rev?*
G04 #@! TF.SameCoordinates,Original*
G04 #@! TF.FileFunction,Paste,Top*
G04 #@! TF.FilePolarity,Positive*
%FSLAX46Y46*%
G04 Gerber Fmt 4.6, Leading zero omitted, Abs format (unit mm)*
G04 Created by KiCad (PCBNEW 5.1.7-a382d34a8~87~ubuntu18.04.1) date 2021-02-18 22:44:55*
%MOMM*%
%LPD*%
G01*
G04 APERTURE LIST*
%ADD10R,1.300000X1.300000*%
%ADD11R,1.300000X2.000000*%
%ADD12R,1.100000X1.100000*%
%ADD13R,1.200000X3.900000*%
%ADD14R,1.500000X4.200000*%
%ADD15R,4.200000X1.500000*%
%ADD16R,3.200000X15.200000*%
%ADD17R,0.300000X1.600000*%
%ADD18R,0.400000X0.650000*%
%ADD19R,0.650000X1.560000*%
%ADD20R,1.600000X1.400000*%
%ADD21R,0.650000X1.060000*%
%ADD22R,1.200000X0.900000*%
%ADD23R,1.220000X0.650000*%
%ADD24R,0.900000X0.800000*%
%ADD25R,0.600000X0.900000*%
%ADD26R,0.900000X0.600000*%
%ADD27R,1.050000X0.600000*%
%ADD28R,0.800000X0.900000*%
G04 APERTURE END LIST*
G04 #@! TO.C,R37*
G36*
G01*
X175525000Y-77275000D02*
X175525000Y-76725000D01*
G75*
G02*
X175725000Y-76525000I200000J0D01*
G01*
X176125000Y-76525000D01*
G75*
G02*
X176325000Y-76725000I0J-200000D01*
G01*
X176325000Y-77275000D01*
G75*
G02*
X176125000Y-77475000I-200000J0D01*
G01*
X175725000Y-77475000D01*
G75*
G02*
X175525000Y-77275000I0J200000D01*
G01*
G37*
G36*
G01*
X173875000Y-77275000D02*
X173875000Y-76725000D01*
G75*
G02*
X174075000Y-76525000I200000J0D01*
G01*
X174475000Y-76525000D01*
G75*
G02*
X174675000Y-76725000I0J-200000D01*
G01*
X174675000Y-77275000D01*
G75*
G02*
X174475000Y-77475000I-200000J0D01*
G01*
X174075000Y-77475000D01*
G75*
G02*
X173875000Y-77275000I0J200000D01*
G01*
G37*
G04 #@! TD*
G04 #@! TO.C,C9*
G36*
G01*
X175325000Y-75550000D02*
X175325000Y-75050000D01*
G75*
G02*
X175550000Y-74825000I225000J0D01*
G01*
X176000000Y-74825000D01*
G75*
G02*
X176225000Y-75050000I0J-225000D01*
G01*
X176225000Y-75550000D01*
G75*
G02*
X176000000Y-75775000I-225000J0D01*
G01*
X175550000Y-75775000D01*
G75*
G02*
X175325000Y-75550000I0J225000D01*
G01*
G37*
G36*
G01*
X173775000Y-75550000D02*
X173775000Y-75050000D01*
G75*
G02*
X174000000Y-74825000I225000J0D01*
G01*
X174450000Y-74825000D01*
G75*
G02*
X174675000Y-75050000I0J-225000D01*
G01*
X174675000Y-75550000D01*
G75*
G02*
X174450000Y-75775000I-225000J0D01*
G01*
X174000000Y-75775000D01*
G75*
G02*
X173775000Y-75550000I0J225000D01*
G01*
G37*
G04 #@! TD*
G04 #@! TO.C,C8*
G36*
G01*
X163925000Y-80000000D02*
X163925000Y-79500000D01*
G75*
G02*
X164150000Y-79275000I225000J0D01*
G01*
X164600000Y-79275000D01*
G75*
G02*
X164825000Y-79500000I0J-225000D01*
G01*
X164825000Y-80000000D01*
G75*
G02*
X164600000Y-80225000I-225000J0D01*
G01*
X164150000Y-80225000D01*
G75*
G02*
X163925000Y-80000000I0J225000D01*
G01*
G37*
G36*
G01*
X162375000Y-80000000D02*
X162375000Y-79500000D01*
G75*
G02*
X162600000Y-79275000I225000J0D01*
G01*
X163050000Y-79275000D01*
G75*
G02*
X163275000Y-79500000I0J-225000D01*
G01*
X163275000Y-80000000D01*
G75*
G02*
X163050000Y-80225000I-225000J0D01*
G01*
X162600000Y-80225000D01*
G75*
G02*
X162375000Y-80000000I0J225000D01*
G01*
G37*
G04 #@! TD*
G04 #@! TO.C,C7*
G36*
G01*
X160150000Y-81975000D02*
X159650000Y-81975000D01*
G75*
G02*
X159425000Y-81750000I0J225000D01*
G01*
X159425000Y-81300000D01*
G75*
G02*
X159650000Y-81075000I225000J0D01*
G01*
X160150000Y-81075000D01*
G75*
G02*
X160375000Y-81300000I0J-225000D01*
G01*
X160375000Y-81750000D01*
G75*
G02*
X160150000Y-81975000I-225000J0D01*
G01*
G37*
G36*
G01*
X160150000Y-83525000D02*
X159650000Y-83525000D01*
G75*
G02*
X159425000Y-83300000I0J225000D01*
G01*
X159425000Y-82850000D01*
G75*
G02*
X159650000Y-82625000I225000J0D01*
G01*
X160150000Y-82625000D01*
G75*
G02*
X160375000Y-82850000I0J-225000D01*
G01*
X160375000Y-83300000D01*
G75*
G02*
X160150000Y-83525000I-225000J0D01*
G01*
G37*
G04 #@! TD*
G04 #@! TO.C,R36*
G36*
G01*
X132375000Y-113075000D02*
X131825000Y-113075000D01*
G75*
G02*
X131625000Y-112875000I0J200000D01*
G01*
X131625000Y-112475000D01*
G75*
G02*
X131825000Y-112275000I200000J0D01*
G01*
X132375000Y-112275000D01*
G75*
G02*
X132575000Y-112475000I0J-200000D01*
G01*
X132575000Y-112875000D01*
G75*
G02*
X132375000Y-113075000I-200000J0D01*
G01*
G37*
G36*
G01*
X132375000Y-114725000D02*
X131825000Y-114725000D01*
G75*
G02*
X131625000Y-114525000I0J200000D01*
G01*
X131625000Y-114125000D01*
G75*
G02*
X131825000Y-113925000I200000J0D01*
G01*
X132375000Y-113925000D01*
G75*
G02*
X132575000Y-114125000I0J-200000D01*
G01*
X132575000Y-114525000D01*
G75*
G02*
X132375000Y-114725000I-200000J0D01*
G01*
G37*
G04 #@! TD*
G04 #@! TO.C,D8*
G36*
G01*
X132356250Y-116450000D02*
X131843750Y-116450000D01*
G75*
G02*
X131625000Y-116231250I0J218750D01*
G01*
X131625000Y-115793750D01*
G75*
G02*
X131843750Y-115575000I218750J0D01*
G01*
X132356250Y-115575000D01*
G75*
G02*
X132575000Y-115793750I0J-218750D01*
G01*
X132575000Y-116231250D01*
G75*
G02*
X132356250Y-116450000I-218750J0D01*
G01*
G37*
G36*
G01*
X132356250Y-118025000D02*
X131843750Y-118025000D01*
G75*
G02*
X131625000Y-117806250I0J218750D01*
G01*
X131625000Y-117368750D01*
G75*
G02*
X131843750Y-117150000I218750J0D01*
G01*
X132356250Y-117150000D01*
G75*
G02*
X132575000Y-117368750I0J-218750D01*
G01*
X132575000Y-117806250D01*
G75*
G02*
X132356250Y-118025000I-218750J0D01*
G01*
G37*
G04 #@! TD*
G04 #@! TO.C,D6*
G36*
G01*
X134356250Y-116450000D02*
X133843750Y-116450000D01*
G75*
G02*
X133625000Y-116231250I0J218750D01*
G01*
X133625000Y-115793750D01*
G75*
G02*
X133843750Y-115575000I218750J0D01*
G01*
X134356250Y-115575000D01*
G75*
G02*
X134575000Y-115793750I0J-218750D01*
G01*
X134575000Y-116231250D01*
G75*
G02*
X134356250Y-116450000I-218750J0D01*
G01*
G37*
G36*
G01*
X134356250Y-118025000D02*
X133843750Y-118025000D01*
G75*
G02*
X133625000Y-117806250I0J218750D01*
G01*
X133625000Y-117368750D01*
G75*
G02*
X133843750Y-117150000I218750J0D01*
G01*
X134356250Y-117150000D01*
G75*
G02*
X134575000Y-117368750I0J-218750D01*
G01*
X134575000Y-117806250D01*
G75*
G02*
X134356250Y-118025000I-218750J0D01*
G01*
G37*
G04 #@! TD*
G04 #@! TO.C,C6*
G36*
G01*
X110450000Y-89675000D02*
X109950000Y-89675000D01*
G75*
G02*
X109725000Y-89450000I0J225000D01*
G01*
X109725000Y-89000000D01*
G75*
G02*
X109950000Y-88775000I225000J0D01*
G01*
X110450000Y-88775000D01*
G75*
G02*
X110675000Y-89000000I0J-225000D01*
G01*
X110675000Y-89450000D01*
G75*
G02*
X110450000Y-89675000I-225000J0D01*
G01*
G37*
G36*
G01*
X110450000Y-91225000D02*
X109950000Y-91225000D01*
G75*
G02*
X109725000Y-91000000I0J225000D01*
G01*
X109725000Y-90550000D01*
G75*
G02*
X109950000Y-90325000I225000J0D01*
G01*
X110450000Y-90325000D01*
G75*
G02*
X110675000Y-90550000I0J-225000D01*
G01*
X110675000Y-91000000D01*
G75*
G02*
X110450000Y-91225000I-225000J0D01*
G01*
G37*
G04 #@! TD*
D10*
G04 #@! TO.C,RV1*
X125550000Y-98050000D03*
D11*
X120050000Y-99200000D03*
D10*
X125550000Y-100350000D03*
G04 #@! TD*
D12*
G04 #@! TO.C,D4*
X103700000Y-109400000D03*
X106500000Y-109400000D03*
G04 #@! TD*
G04 #@! TO.C,D2*
X120500000Y-111500000D03*
X123300000Y-111500000D03*
G04 #@! TD*
D13*
G04 #@! TO.C,L1*
X123300000Y-115300000D03*
X120500000Y-115300000D03*
G04 #@! TD*
D14*
G04 #@! TO.C,L2*
X108900000Y-113600000D03*
X105300000Y-113600000D03*
G04 #@! TD*
G04 #@! TO.C,L4*
X97000000Y-100400000D03*
X100600000Y-100400000D03*
G04 #@! TD*
D15*
G04 #@! TO.C,L3*
X95200000Y-91600000D03*
X95200000Y-95200000D03*
G04 #@! TD*
G04 #@! TO.C,C21*
G36*
G01*
X119725000Y-108550000D02*
X120675000Y-108550000D01*
G75*
G02*
X120925000Y-108800000I0J-250000D01*
G01*
X120925000Y-109300000D01*
G75*
G02*
X120675000Y-109550000I-250000J0D01*
G01*
X119725000Y-109550000D01*
G75*
G02*
X119475000Y-109300000I0J250000D01*
G01*
X119475000Y-108800000D01*
G75*
G02*
X119725000Y-108550000I250000J0D01*
G01*
G37*
G36*
G01*
X119725000Y-106650000D02*
X120675000Y-106650000D01*
G75*
G02*
X120925000Y-106900000I0J-250000D01*
G01*
X120925000Y-107400000D01*
G75*
G02*
X120675000Y-107650000I-250000J0D01*
G01*
X119725000Y-107650000D01*
G75*
G02*
X119475000Y-107400000I0J250000D01*
G01*
X119475000Y-106900000D01*
G75*
G02*
X119725000Y-106650000I250000J0D01*
G01*
G37*
G04 #@! TD*
G04 #@! TO.C,C27*
G36*
G01*
X101650000Y-111725000D02*
X101650000Y-112675000D01*
G75*
G02*
X101400000Y-112925000I-250000J0D01*
G01*
X100900000Y-112925000D01*
G75*
G02*
X100650000Y-112675000I0J250000D01*
G01*
X100650000Y-111725000D01*
G75*
G02*
X100900000Y-111475000I250000J0D01*
G01*
X101400000Y-111475000D01*
G75*
G02*
X101650000Y-111725000I0J-250000D01*
G01*
G37*
G36*
G01*
X103550000Y-111725000D02*
X103550000Y-112675000D01*
G75*
G02*
X103300000Y-112925000I-250000J0D01*
G01*
X102800000Y-112925000D01*
G75*
G02*
X102550000Y-112675000I0J250000D01*
G01*
X102550000Y-111725000D01*
G75*
G02*
X102800000Y-111475000I250000J0D01*
G01*
X103300000Y-111475000D01*
G75*
G02*
X103550000Y-111725000I0J-250000D01*
G01*
G37*
G04 #@! TD*
G04 #@! TO.C,C23*
G36*
G01*
X118550001Y-114200000D02*
X117249999Y-114200000D01*
G75*
G02*
X117000000Y-113950001I0J249999D01*
G01*
X117000000Y-113299999D01*
G75*
G02*
X117249999Y-113050000I249999J0D01*
G01*
X118550001Y-113050000D01*
G75*
G02*
X118800000Y-113299999I0J-249999D01*
G01*
X118800000Y-113950001D01*
G75*
G02*
X118550001Y-114200000I-249999J0D01*
G01*
G37*
G36*
G01*
X118550001Y-117150000D02*
X117249999Y-117150000D01*
G75*
G02*
X117000000Y-116900001I0J249999D01*
G01*
X117000000Y-116249999D01*
G75*
G02*
X117249999Y-116000000I249999J0D01*
G01*
X118550001Y-116000000D01*
G75*
G02*
X118800000Y-116249999I0J-249999D01*
G01*
X118800000Y-116900001D01*
G75*
G02*
X118550001Y-117150000I-249999J0D01*
G01*
G37*
G04 #@! TD*
G04 #@! TO.C,C5*
G36*
G01*
X103500000Y-98649999D02*
X103500000Y-99950001D01*
G75*
G02*
X103250001Y-100200000I-249999J0D01*
G01*
X102599999Y-100200000D01*
G75*
G02*
X102350000Y-99950001I0J249999D01*
G01*
X102350000Y-98649999D01*
G75*
G02*
X102599999Y-98400000I249999J0D01*
G01*
X103250001Y-98400000D01*
G75*
G02*
X103500000Y-98649999I0J-249999D01*
G01*
G37*
G36*
G01*
X106450000Y-98649999D02*
X106450000Y-99950001D01*
G75*
G02*
X106200001Y-100200000I-249999J0D01*
G01*
X105549999Y-100200000D01*
G75*
G02*
X105300000Y-99950001I0J249999D01*
G01*
X105300000Y-98649999D01*
G75*
G02*
X105549999Y-98400000I249999J0D01*
G01*
X106200001Y-98400000D01*
G75*
G02*
X106450000Y-98649999I0J-249999D01*
G01*
G37*
G04 #@! TD*
G04 #@! TO.C,C3*
G36*
G01*
X99700000Y-90949999D02*
X99700000Y-92250001D01*
G75*
G02*
X99450001Y-92500000I-249999J0D01*
G01*
X98799999Y-92500000D01*
G75*
G02*
X98550000Y-92250001I0J249999D01*
G01*
X98550000Y-90949999D01*
G75*
G02*
X98799999Y-90700000I249999J0D01*
G01*
X99450001Y-90700000D01*
G75*
G02*
X99700000Y-90949999I0J-249999D01*
G01*
G37*
G36*
G01*
X102650000Y-90949999D02*
X102650000Y-92250001D01*
G75*
G02*
X102400001Y-92500000I-249999J0D01*
G01*
X101749999Y-92500000D01*
G75*
G02*
X101500000Y-92250001I0J249999D01*
G01*
X101500000Y-90949999D01*
G75*
G02*
X101749999Y-90700000I249999J0D01*
G01*
X102400001Y-90700000D01*
G75*
G02*
X102650000Y-90949999I0J-249999D01*
G01*
G37*
G04 #@! TD*
G04 #@! TO.C,R35*
G36*
G01*
X135225000Y-92975000D02*
X135225000Y-92425000D01*
G75*
G02*
X135425000Y-92225000I200000J0D01*
G01*
X135825000Y-92225000D01*
G75*
G02*
X136025000Y-92425000I0J-200000D01*
G01*
X136025000Y-92975000D01*
G75*
G02*
X135825000Y-93175000I-200000J0D01*
G01*
X135425000Y-93175000D01*
G75*
G02*
X135225000Y-92975000I0J200000D01*
G01*
G37*
G36*
G01*
X133575000Y-92975000D02*
X133575000Y-92425000D01*
G75*
G02*
X133775000Y-92225000I200000J0D01*
G01*
X134175000Y-92225000D01*
G75*
G02*
X134375000Y-92425000I0J-200000D01*
G01*
X134375000Y-92975000D01*
G75*
G02*
X134175000Y-93175000I-200000J0D01*
G01*
X133775000Y-93175000D01*
G75*
G02*
X133575000Y-92975000I0J200000D01*
G01*
G37*
G04 #@! TD*
G04 #@! TO.C,R9*
G36*
G01*
X135225000Y-94575000D02*
X135225000Y-94025000D01*
G75*
G02*
X135425000Y-93825000I200000J0D01*
G01*
X135825000Y-93825000D01*
G75*
G02*
X136025000Y-94025000I0J-200000D01*
G01*
X136025000Y-94575000D01*
G75*
G02*
X135825000Y-94775000I-200000J0D01*
G01*
X135425000Y-94775000D01*
G75*
G02*
X135225000Y-94575000I0J200000D01*
G01*
G37*
G36*
G01*
X133575000Y-94575000D02*
X133575000Y-94025000D01*
G75*
G02*
X133775000Y-93825000I200000J0D01*
G01*
X134175000Y-93825000D01*
G75*
G02*
X134375000Y-94025000I0J-200000D01*
G01*
X134375000Y-94575000D01*
G75*
G02*
X134175000Y-94775000I-200000J0D01*
G01*
X133775000Y-94775000D01*
G75*
G02*
X133575000Y-94575000I0J200000D01*
G01*
G37*
G04 #@! TD*
D16*
G04 #@! TO.C,R7*
X105800000Y-59300000D03*
X111000000Y-59300000D03*
G04 #@! TD*
D17*
G04 #@! TO.C,U15*
X133725000Y-105600000D03*
X134375000Y-105600000D03*
X135025000Y-105600000D03*
X135675000Y-105600000D03*
X135675000Y-109000000D03*
X135025000Y-109000000D03*
X134375000Y-109000000D03*
X133725000Y-109000000D03*
G04 #@! TD*
D18*
G04 #@! TO.C,U14*
X120150000Y-91250000D03*
X121450000Y-91250000D03*
X120800000Y-93150000D03*
X121450000Y-93150000D03*
X120150000Y-93150000D03*
G04 #@! TD*
D19*
G04 #@! TO.C,U13*
X138950000Y-114350000D03*
X140850000Y-114350000D03*
X140850000Y-117050000D03*
X139900000Y-117050000D03*
X138950000Y-117050000D03*
G04 #@! TD*
G04 #@! TO.C,U12*
X134500000Y-97850000D03*
X133550000Y-97850000D03*
X135450000Y-97850000D03*
X135450000Y-100550000D03*
X134500000Y-100550000D03*
X133550000Y-100550000D03*
G04 #@! TD*
G04 #@! TO.C,U1*
G36*
G01*
X115275000Y-92160000D02*
X114525000Y-92160000D01*
G75*
G02*
X114295000Y-91930000I0J230000D01*
G01*
X114295000Y-91470000D01*
G75*
G02*
X114525000Y-91240000I230000J0D01*
G01*
X115275000Y-91240000D01*
G75*
G02*
X115505000Y-91470000I0J-230000D01*
G01*
X115505000Y-91930000D01*
G75*
G02*
X115275000Y-92160000I-230000J0D01*
G01*
G37*
G36*
G01*
X113775000Y-92160000D02*
X113025000Y-92160000D01*
G75*
G02*
X112795000Y-91930000I0J230000D01*
G01*
X112795000Y-91470000D01*
G75*
G02*
X113025000Y-91240000I230000J0D01*
G01*
X113775000Y-91240000D01*
G75*
G02*
X114005000Y-91470000I0J-230000D01*
G01*
X114005000Y-91930000D01*
G75*
G02*
X113775000Y-92160000I-230000J0D01*
G01*
G37*
G36*
G01*
X115275000Y-93300000D02*
X114525000Y-93300000D01*
G75*
G02*
X114295000Y-93070000I0J230000D01*
G01*
X114295000Y-92610000D01*
G75*
G02*
X114525000Y-92380000I230000J0D01*
G01*
X115275000Y-92380000D01*
G75*
G02*
X115505000Y-92610000I0J-230000D01*
G01*
X115505000Y-93070000D01*
G75*
G02*
X115275000Y-93300000I-230000J0D01*
G01*
G37*
G36*
G01*
X113775000Y-93300000D02*
X113025000Y-93300000D01*
G75*
G02*
X112795000Y-93070000I0J230000D01*
G01*
X112795000Y-92610000D01*
G75*
G02*
X113025000Y-92380000I230000J0D01*
G01*
X113775000Y-92380000D01*
G75*
G02*
X114005000Y-92610000I0J-230000D01*
G01*
X114005000Y-93070000D01*
G75*
G02*
X113775000Y-93300000I-230000J0D01*
G01*
G37*
G36*
G01*
X112395000Y-90770000D02*
X112095000Y-90770000D01*
G75*
G02*
X111945000Y-90620000I0J150000D01*
G01*
X111945000Y-88970000D01*
G75*
G02*
X112095000Y-88820000I150000J0D01*
G01*
X112395000Y-88820000D01*
G75*
G02*
X112545000Y-88970000I0J-150000D01*
G01*
X112545000Y-90620000D01*
G75*
G02*
X112395000Y-90770000I-150000J0D01*
G01*
G37*
G36*
G01*
X113665000Y-90770000D02*
X113365000Y-90770000D01*
G75*
G02*
X113215000Y-90620000I0J150000D01*
G01*
X113215000Y-88970000D01*
G75*
G02*
X113365000Y-88820000I150000J0D01*
G01*
X113665000Y-88820000D01*
G75*
G02*
X113815000Y-88970000I0J-150000D01*
G01*
X113815000Y-90620000D01*
G75*
G02*
X113665000Y-90770000I-150000J0D01*
G01*
G37*
G36*
G01*
X114935000Y-90770000D02*
X114635000Y-90770000D01*
G75*
G02*
X114485000Y-90620000I0J150000D01*
G01*
X114485000Y-88970000D01*
G75*
G02*
X114635000Y-88820000I150000J0D01*
G01*
X114935000Y-88820000D01*
G75*
G02*
X115085000Y-88970000I0J-150000D01*
G01*
X115085000Y-90620000D01*
G75*
G02*
X114935000Y-90770000I-150000J0D01*
G01*
G37*
G36*
G01*
X116205000Y-90770000D02*
X115905000Y-90770000D01*
G75*
G02*
X115755000Y-90620000I0J150000D01*
G01*
X115755000Y-88970000D01*
G75*
G02*
X115905000Y-88820000I150000J0D01*
G01*
X116205000Y-88820000D01*
G75*
G02*
X116355000Y-88970000I0J-150000D01*
G01*
X116355000Y-90620000D01*
G75*
G02*
X116205000Y-90770000I-150000J0D01*
G01*
G37*
G36*
G01*
X116205000Y-95720000D02*
X115905000Y-95720000D01*
G75*
G02*
X115755000Y-95570000I0J150000D01*
G01*
X115755000Y-93920000D01*
G75*
G02*
X115905000Y-93770000I150000J0D01*
G01*
X116205000Y-93770000D01*
G75*
G02*
X116355000Y-93920000I0J-150000D01*
G01*
X116355000Y-95570000D01*
G75*
G02*
X116205000Y-95720000I-150000J0D01*
G01*
G37*
G36*
G01*
X114935000Y-95720000D02*
X114635000Y-95720000D01*
G75*
G02*
X114485000Y-95570000I0J150000D01*
G01*
X114485000Y-93920000D01*
G75*
G02*
X114635000Y-93770000I150000J0D01*
G01*
X114935000Y-93770000D01*
G75*
G02*
X115085000Y-93920000I0J-150000D01*
G01*
X115085000Y-95570000D01*
G75*
G02*
X114935000Y-95720000I-150000J0D01*
G01*
G37*
G36*
G01*
X113665000Y-95720000D02*
X113365000Y-95720000D01*
G75*
G02*
X113215000Y-95570000I0J150000D01*
G01*
X113215000Y-93920000D01*
G75*
G02*
X113365000Y-93770000I150000J0D01*
G01*
X113665000Y-93770000D01*
G75*
G02*
X113815000Y-93920000I0J-150000D01*
G01*
X113815000Y-95570000D01*
G75*
G02*
X113665000Y-95720000I-150000J0D01*
G01*
G37*
G36*
G01*
X112395000Y-95720000D02*
X112095000Y-95720000D01*
G75*
G02*
X111945000Y-95570000I0J150000D01*
G01*
X111945000Y-93920000D01*
G75*
G02*
X112095000Y-93770000I150000J0D01*
G01*
X112395000Y-93770000D01*
G75*
G02*
X112545000Y-93920000I0J-150000D01*
G01*
X112545000Y-95570000D01*
G75*
G02*
X112395000Y-95720000I-150000J0D01*
G01*
G37*
G04 #@! TD*
D20*
G04 #@! TO.C,SW1*
X151300000Y-114100000D03*
X144100000Y-114100000D03*
X151300000Y-117100000D03*
X144100000Y-117100000D03*
G04 #@! TD*
G04 #@! TO.C,U6*
G36*
G01*
X130945000Y-79100000D02*
X130645000Y-79100000D01*
G75*
G02*
X130495000Y-78950000I0J150000D01*
G01*
X130495000Y-77300000D01*
G75*
G02*
X130645000Y-77150000I150000J0D01*
G01*
X130945000Y-77150000D01*
G75*
G02*
X131095000Y-77300000I0J-150000D01*
G01*
X131095000Y-78950000D01*
G75*
G02*
X130945000Y-79100000I-150000J0D01*
G01*
G37*
G36*
G01*
X132215000Y-79100000D02*
X131915000Y-79100000D01*
G75*
G02*
X131765000Y-78950000I0J150000D01*
G01*
X131765000Y-77300000D01*
G75*
G02*
X131915000Y-77150000I150000J0D01*
G01*
X132215000Y-77150000D01*
G75*
G02*
X132365000Y-77300000I0J-150000D01*
G01*
X132365000Y-78950000D01*
G75*
G02*
X132215000Y-79100000I-150000J0D01*
G01*
G37*
G36*
G01*
X133485000Y-79100000D02*
X133185000Y-79100000D01*
G75*
G02*
X133035000Y-78950000I0J150000D01*
G01*
X133035000Y-77300000D01*
G75*
G02*
X133185000Y-77150000I150000J0D01*
G01*
X133485000Y-77150000D01*
G75*
G02*
X133635000Y-77300000I0J-150000D01*
G01*
X133635000Y-78950000D01*
G75*
G02*
X133485000Y-79100000I-150000J0D01*
G01*
G37*
G36*
G01*
X134755000Y-79100000D02*
X134455000Y-79100000D01*
G75*
G02*
X134305000Y-78950000I0J150000D01*
G01*
X134305000Y-77300000D01*
G75*
G02*
X134455000Y-77150000I150000J0D01*
G01*
X134755000Y-77150000D01*
G75*
G02*
X134905000Y-77300000I0J-150000D01*
G01*
X134905000Y-78950000D01*
G75*
G02*
X134755000Y-79100000I-150000J0D01*
G01*
G37*
G36*
G01*
X134755000Y-84050000D02*
X134455000Y-84050000D01*
G75*
G02*
X134305000Y-83900000I0J150000D01*
G01*
X134305000Y-82250000D01*
G75*
G02*
X134455000Y-82100000I150000J0D01*
G01*
X134755000Y-82100000D01*
G75*
G02*
X134905000Y-82250000I0J-150000D01*
G01*
X134905000Y-83900000D01*
G75*
G02*
X134755000Y-84050000I-150000J0D01*
G01*
G37*
G36*
G01*
X133485000Y-84050000D02*
X133185000Y-84050000D01*
G75*
G02*
X133035000Y-83900000I0J150000D01*
G01*
X133035000Y-82250000D01*
G75*
G02*
X133185000Y-82100000I150000J0D01*
G01*
X133485000Y-82100000D01*
G75*
G02*
X133635000Y-82250000I0J-150000D01*
G01*
X133635000Y-83900000D01*
G75*
G02*
X133485000Y-84050000I-150000J0D01*
G01*
G37*
G36*
G01*
X132215000Y-84050000D02*
X131915000Y-84050000D01*
G75*
G02*
X131765000Y-83900000I0J150000D01*
G01*
X131765000Y-82250000D01*
G75*
G02*
X131915000Y-82100000I150000J0D01*
G01*
X132215000Y-82100000D01*
G75*
G02*
X132365000Y-82250000I0J-150000D01*
G01*
X132365000Y-83900000D01*
G75*
G02*
X132215000Y-84050000I-150000J0D01*
G01*
G37*
G36*
G01*
X130945000Y-84050000D02*
X130645000Y-84050000D01*
G75*
G02*
X130495000Y-83900000I0J150000D01*
G01*
X130495000Y-82250000D01*
G75*
G02*
X130645000Y-82100000I150000J0D01*
G01*
X130945000Y-82100000D01*
G75*
G02*
X131095000Y-82250000I0J-150000D01*
G01*
X131095000Y-83900000D01*
G75*
G02*
X130945000Y-84050000I-150000J0D01*
G01*
G37*
G04 #@! TD*
G04 #@! TO.C,U5*
G36*
G01*
X140250000Y-83355000D02*
X140250000Y-83655000D01*
G75*
G02*
X140100000Y-83805000I-150000J0D01*
G01*
X138450000Y-83805000D01*
G75*
G02*
X138300000Y-83655000I0J150000D01*
G01*
X138300000Y-83355000D01*
G75*
G02*
X138450000Y-83205000I150000J0D01*
G01*
X140100000Y-83205000D01*
G75*
G02*
X140250000Y-83355000I0J-150000D01*
G01*
G37*
G36*
G01*
X140250000Y-82085000D02*
X140250000Y-82385000D01*
G75*
G02*
X140100000Y-82535000I-150000J0D01*
G01*
X138450000Y-82535000D01*
G75*
G02*
X138300000Y-82385000I0J150000D01*
G01*
X138300000Y-82085000D01*
G75*
G02*
X138450000Y-81935000I150000J0D01*
G01*
X140100000Y-81935000D01*
G75*
G02*
X140250000Y-82085000I0J-150000D01*
G01*
G37*
G36*
G01*
X140250000Y-80815000D02*
X140250000Y-81115000D01*
G75*
G02*
X140100000Y-81265000I-150000J0D01*
G01*
X138450000Y-81265000D01*
G75*
G02*
X138300000Y-81115000I0J150000D01*
G01*
X138300000Y-80815000D01*
G75*
G02*
X138450000Y-80665000I150000J0D01*
G01*
X140100000Y-80665000D01*
G75*
G02*
X140250000Y-80815000I0J-150000D01*
G01*
G37*
G36*
G01*
X140250000Y-79545000D02*
X140250000Y-79845000D01*
G75*
G02*
X140100000Y-79995000I-150000J0D01*
G01*
X138450000Y-79995000D01*
G75*
G02*
X138300000Y-79845000I0J150000D01*
G01*
X138300000Y-79545000D01*
G75*
G02*
X138450000Y-79395000I150000J0D01*
G01*
X140100000Y-79395000D01*
G75*
G02*
X140250000Y-79545000I0J-150000D01*
G01*
G37*
G36*
G01*
X145200000Y-79545000D02*
X145200000Y-79845000D01*
G75*
G02*
X145050000Y-79995000I-150000J0D01*
G01*
X143400000Y-79995000D01*
G75*
G02*
X143250000Y-79845000I0J150000D01*
G01*
X143250000Y-79545000D01*
G75*
G02*
X143400000Y-79395000I150000J0D01*
G01*
X145050000Y-79395000D01*
G75*
G02*
X145200000Y-79545000I0J-150000D01*
G01*
G37*
G36*
G01*
X145200000Y-80815000D02*
X145200000Y-81115000D01*
G75*
G02*
X145050000Y-81265000I-150000J0D01*
G01*
X143400000Y-81265000D01*
G75*
G02*
X143250000Y-81115000I0J150000D01*
G01*
X143250000Y-80815000D01*
G75*
G02*
X143400000Y-80665000I150000J0D01*
G01*
X145050000Y-80665000D01*
G75*
G02*
X145200000Y-80815000I0J-150000D01*
G01*
G37*
G36*
G01*
X145200000Y-82085000D02*
X145200000Y-82385000D01*
G75*
G02*
X145050000Y-82535000I-150000J0D01*
G01*
X143400000Y-82535000D01*
G75*
G02*
X143250000Y-82385000I0J150000D01*
G01*
X143250000Y-82085000D01*
G75*
G02*
X143400000Y-81935000I150000J0D01*
G01*
X145050000Y-81935000D01*
G75*
G02*
X145200000Y-82085000I0J-150000D01*
G01*
G37*
G36*
G01*
X145200000Y-83355000D02*
X145200000Y-83655000D01*
G75*
G02*
X145050000Y-83805000I-150000J0D01*
G01*
X143400000Y-83805000D01*
G75*
G02*
X143250000Y-83655000I0J150000D01*
G01*
X143250000Y-83355000D01*
G75*
G02*
X143400000Y-83205000I150000J0D01*
G01*
X145050000Y-83205000D01*
G75*
G02*
X145200000Y-83355000I0J-150000D01*
G01*
G37*
G04 #@! TD*
G04 #@! TO.C,C18*
G36*
G01*
X152050000Y-81825000D02*
X152550000Y-81825000D01*
G75*
G02*
X152775000Y-82050000I0J-225000D01*
G01*
X152775000Y-82500000D01*
G75*
G02*
X152550000Y-82725000I-225000J0D01*
G01*
X152050000Y-82725000D01*
G75*
G02*
X151825000Y-82500000I0J225000D01*
G01*
X151825000Y-82050000D01*
G75*
G02*
X152050000Y-81825000I225000J0D01*
G01*
G37*
G36*
G01*
X152050000Y-80275000D02*
X152550000Y-80275000D01*
G75*
G02*
X152775000Y-80500000I0J-225000D01*
G01*
X152775000Y-80950000D01*
G75*
G02*
X152550000Y-81175000I-225000J0D01*
G01*
X152050000Y-81175000D01*
G75*
G02*
X151825000Y-80950000I0J225000D01*
G01*
X151825000Y-80500000D01*
G75*
G02*
X152050000Y-80275000I225000J0D01*
G01*
G37*
G04 #@! TD*
G04 #@! TO.C,C4*
G36*
G01*
X105550000Y-96125000D02*
X106050000Y-96125000D01*
G75*
G02*
X106275000Y-96350000I0J-225000D01*
G01*
X106275000Y-96800000D01*
G75*
G02*
X106050000Y-97025000I-225000J0D01*
G01*
X105550000Y-97025000D01*
G75*
G02*
X105325000Y-96800000I0J225000D01*
G01*
X105325000Y-96350000D01*
G75*
G02*
X105550000Y-96125000I225000J0D01*
G01*
G37*
G36*
G01*
X105550000Y-94575000D02*
X106050000Y-94575000D01*
G75*
G02*
X106275000Y-94800000I0J-225000D01*
G01*
X106275000Y-95250000D01*
G75*
G02*
X106050000Y-95475000I-225000J0D01*
G01*
X105550000Y-95475000D01*
G75*
G02*
X105325000Y-95250000I0J225000D01*
G01*
X105325000Y-94800000D01*
G75*
G02*
X105550000Y-94575000I225000J0D01*
G01*
G37*
G04 #@! TD*
G04 #@! TO.C,C2*
G36*
G01*
X94325000Y-97650000D02*
X94325000Y-97150000D01*
G75*
G02*
X94550000Y-96925000I225000J0D01*
G01*
X95000000Y-96925000D01*
G75*
G02*
X95225000Y-97150000I0J-225000D01*
G01*
X95225000Y-97650000D01*
G75*
G02*
X95000000Y-97875000I-225000J0D01*
G01*
X94550000Y-97875000D01*
G75*
G02*
X94325000Y-97650000I0J225000D01*
G01*
G37*
G36*
G01*
X92775000Y-97650000D02*
X92775000Y-97150000D01*
G75*
G02*
X93000000Y-96925000I225000J0D01*
G01*
X93450000Y-96925000D01*
G75*
G02*
X93675000Y-97150000I0J-225000D01*
G01*
X93675000Y-97650000D01*
G75*
G02*
X93450000Y-97875000I-225000J0D01*
G01*
X93000000Y-97875000D01*
G75*
G02*
X92775000Y-97650000I0J225000D01*
G01*
G37*
G04 #@! TD*
D21*
G04 #@! TO.C,U9*
X99250000Y-94100000D03*
X101150000Y-94100000D03*
X101150000Y-96300000D03*
X100200000Y-96300000D03*
X99250000Y-96300000D03*
G04 #@! TD*
G04 #@! TO.C,R17*
G36*
G01*
X104475000Y-92175000D02*
X103925000Y-92175000D01*
G75*
G02*
X103725000Y-91975000I0J200000D01*
G01*
X103725000Y-91575000D01*
G75*
G02*
X103925000Y-91375000I200000J0D01*
G01*
X104475000Y-91375000D01*
G75*
G02*
X104675000Y-91575000I0J-200000D01*
G01*
X104675000Y-91975000D01*
G75*
G02*
X104475000Y-92175000I-200000J0D01*
G01*
G37*
G36*
G01*
X104475000Y-93825000D02*
X103925000Y-93825000D01*
G75*
G02*
X103725000Y-93625000I0J200000D01*
G01*
X103725000Y-93225000D01*
G75*
G02*
X103925000Y-93025000I200000J0D01*
G01*
X104475000Y-93025000D01*
G75*
G02*
X104675000Y-93225000I0J-200000D01*
G01*
X104675000Y-93625000D01*
G75*
G02*
X104475000Y-93825000I-200000J0D01*
G01*
G37*
G04 #@! TD*
G04 #@! TO.C,R16*
G36*
G01*
X104475000Y-95375000D02*
X103925000Y-95375000D01*
G75*
G02*
X103725000Y-95175000I0J200000D01*
G01*
X103725000Y-94775000D01*
G75*
G02*
X103925000Y-94575000I200000J0D01*
G01*
X104475000Y-94575000D01*
G75*
G02*
X104675000Y-94775000I0J-200000D01*
G01*
X104675000Y-95175000D01*
G75*
G02*
X104475000Y-95375000I-200000J0D01*
G01*
G37*
G36*
G01*
X104475000Y-97025000D02*
X103925000Y-97025000D01*
G75*
G02*
X103725000Y-96825000I0J200000D01*
G01*
X103725000Y-96425000D01*
G75*
G02*
X103925000Y-96225000I200000J0D01*
G01*
X104475000Y-96225000D01*
G75*
G02*
X104675000Y-96425000I0J-200000D01*
G01*
X104675000Y-96825000D01*
G75*
G02*
X104475000Y-97025000I-200000J0D01*
G01*
G37*
G04 #@! TD*
D22*
G04 #@! TO.C,D7*
X94400000Y-99150000D03*
X94400000Y-102450000D03*
G04 #@! TD*
G04 #@! TO.C,U16*
G36*
G01*
X123145000Y-79200000D02*
X122845000Y-79200000D01*
G75*
G02*
X122695000Y-79050000I0J150000D01*
G01*
X122695000Y-77400000D01*
G75*
G02*
X122845000Y-77250000I150000J0D01*
G01*
X123145000Y-77250000D01*
G75*
G02*
X123295000Y-77400000I0J-150000D01*
G01*
X123295000Y-79050000D01*
G75*
G02*
X123145000Y-79200000I-150000J0D01*
G01*
G37*
G36*
G01*
X124415000Y-79200000D02*
X124115000Y-79200000D01*
G75*
G02*
X123965000Y-79050000I0J150000D01*
G01*
X123965000Y-77400000D01*
G75*
G02*
X124115000Y-77250000I150000J0D01*
G01*
X124415000Y-77250000D01*
G75*
G02*
X124565000Y-77400000I0J-150000D01*
G01*
X124565000Y-79050000D01*
G75*
G02*
X124415000Y-79200000I-150000J0D01*
G01*
G37*
G36*
G01*
X125685000Y-79200000D02*
X125385000Y-79200000D01*
G75*
G02*
X125235000Y-79050000I0J150000D01*
G01*
X125235000Y-77400000D01*
G75*
G02*
X125385000Y-77250000I150000J0D01*
G01*
X125685000Y-77250000D01*
G75*
G02*
X125835000Y-77400000I0J-150000D01*
G01*
X125835000Y-79050000D01*
G75*
G02*
X125685000Y-79200000I-150000J0D01*
G01*
G37*
G36*
G01*
X126955000Y-79200000D02*
X126655000Y-79200000D01*
G75*
G02*
X126505000Y-79050000I0J150000D01*
G01*
X126505000Y-77400000D01*
G75*
G02*
X126655000Y-77250000I150000J0D01*
G01*
X126955000Y-77250000D01*
G75*
G02*
X127105000Y-77400000I0J-150000D01*
G01*
X127105000Y-79050000D01*
G75*
G02*
X126955000Y-79200000I-150000J0D01*
G01*
G37*
G36*
G01*
X126955000Y-84150000D02*
X126655000Y-84150000D01*
G75*
G02*
X126505000Y-84000000I0J150000D01*
G01*
X126505000Y-82350000D01*
G75*
G02*
X126655000Y-82200000I150000J0D01*
G01*
X126955000Y-82200000D01*
G75*
G02*
X127105000Y-82350000I0J-150000D01*
G01*
X127105000Y-84000000D01*
G75*
G02*
X126955000Y-84150000I-150000J0D01*
G01*
G37*
G36*
G01*
X125685000Y-84150000D02*
X125385000Y-84150000D01*
G75*
G02*
X125235000Y-84000000I0J150000D01*
G01*
X125235000Y-82350000D01*
G75*
G02*
X125385000Y-82200000I150000J0D01*
G01*
X125685000Y-82200000D01*
G75*
G02*
X125835000Y-82350000I0J-150000D01*
G01*
X125835000Y-84000000D01*
G75*
G02*
X125685000Y-84150000I-150000J0D01*
G01*
G37*
G36*
G01*
X124415000Y-84150000D02*
X124115000Y-84150000D01*
G75*
G02*
X123965000Y-84000000I0J150000D01*
G01*
X123965000Y-82350000D01*
G75*
G02*
X124115000Y-82200000I150000J0D01*
G01*
X124415000Y-82200000D01*
G75*
G02*
X124565000Y-82350000I0J-150000D01*
G01*
X124565000Y-84000000D01*
G75*
G02*
X124415000Y-84150000I-150000J0D01*
G01*
G37*
G36*
G01*
X123145000Y-84150000D02*
X122845000Y-84150000D01*
G75*
G02*
X122695000Y-84000000I0J150000D01*
G01*
X122695000Y-82350000D01*
G75*
G02*
X122845000Y-82200000I150000J0D01*
G01*
X123145000Y-82200000D01*
G75*
G02*
X123295000Y-82350000I0J-150000D01*
G01*
X123295000Y-84000000D01*
G75*
G02*
X123145000Y-84150000I-150000J0D01*
G01*
G37*
G04 #@! TD*
G04 #@! TO.C,U11*
G36*
G01*
X127055000Y-93700000D02*
X127355000Y-93700000D01*
G75*
G02*
X127505000Y-93850000I0J-150000D01*
G01*
X127505000Y-95500000D01*
G75*
G02*
X127355000Y-95650000I-150000J0D01*
G01*
X127055000Y-95650000D01*
G75*
G02*
X126905000Y-95500000I0J150000D01*
G01*
X126905000Y-93850000D01*
G75*
G02*
X127055000Y-93700000I150000J0D01*
G01*
G37*
G36*
G01*
X125785000Y-93700000D02*
X126085000Y-93700000D01*
G75*
G02*
X126235000Y-93850000I0J-150000D01*
G01*
X126235000Y-95500000D01*
G75*
G02*
X126085000Y-95650000I-150000J0D01*
G01*
X125785000Y-95650000D01*
G75*
G02*
X125635000Y-95500000I0J150000D01*
G01*
X125635000Y-93850000D01*
G75*
G02*
X125785000Y-93700000I150000J0D01*
G01*
G37*
G36*
G01*
X124515000Y-93700000D02*
X124815000Y-93700000D01*
G75*
G02*
X124965000Y-93850000I0J-150000D01*
G01*
X124965000Y-95500000D01*
G75*
G02*
X124815000Y-95650000I-150000J0D01*
G01*
X124515000Y-95650000D01*
G75*
G02*
X124365000Y-95500000I0J150000D01*
G01*
X124365000Y-93850000D01*
G75*
G02*
X124515000Y-93700000I150000J0D01*
G01*
G37*
G36*
G01*
X123245000Y-93700000D02*
X123545000Y-93700000D01*
G75*
G02*
X123695000Y-93850000I0J-150000D01*
G01*
X123695000Y-95500000D01*
G75*
G02*
X123545000Y-95650000I-150000J0D01*
G01*
X123245000Y-95650000D01*
G75*
G02*
X123095000Y-95500000I0J150000D01*
G01*
X123095000Y-93850000D01*
G75*
G02*
X123245000Y-93700000I150000J0D01*
G01*
G37*
G36*
G01*
X123245000Y-88750000D02*
X123545000Y-88750000D01*
G75*
G02*
X123695000Y-88900000I0J-150000D01*
G01*
X123695000Y-90550000D01*
G75*
G02*
X123545000Y-90700000I-150000J0D01*
G01*
X123245000Y-90700000D01*
G75*
G02*
X123095000Y-90550000I0J150000D01*
G01*
X123095000Y-88900000D01*
G75*
G02*
X123245000Y-88750000I150000J0D01*
G01*
G37*
G36*
G01*
X124515000Y-88750000D02*
X124815000Y-88750000D01*
G75*
G02*
X124965000Y-88900000I0J-150000D01*
G01*
X124965000Y-90550000D01*
G75*
G02*
X124815000Y-90700000I-150000J0D01*
G01*
X124515000Y-90700000D01*
G75*
G02*
X124365000Y-90550000I0J150000D01*
G01*
X124365000Y-88900000D01*
G75*
G02*
X124515000Y-88750000I150000J0D01*
G01*
G37*
G36*
G01*
X125785000Y-88750000D02*
X126085000Y-88750000D01*
G75*
G02*
X126235000Y-88900000I0J-150000D01*
G01*
X126235000Y-90550000D01*
G75*
G02*
X126085000Y-90700000I-150000J0D01*
G01*
X125785000Y-90700000D01*
G75*
G02*
X125635000Y-90550000I0J150000D01*
G01*
X125635000Y-88900000D01*
G75*
G02*
X125785000Y-88750000I150000J0D01*
G01*
G37*
G36*
G01*
X127055000Y-88750000D02*
X127355000Y-88750000D01*
G75*
G02*
X127505000Y-88900000I0J-150000D01*
G01*
X127505000Y-90550000D01*
G75*
G02*
X127355000Y-90700000I-150000J0D01*
G01*
X127055000Y-90700000D01*
G75*
G02*
X126905000Y-90550000I0J150000D01*
G01*
X126905000Y-88900000D01*
G75*
G02*
X127055000Y-88750000I150000J0D01*
G01*
G37*
G04 #@! TD*
D23*
G04 #@! TO.C,U10*
X106840000Y-107150000D03*
X106840000Y-106200000D03*
X106840000Y-105250000D03*
X109460000Y-105250000D03*
X109460000Y-106200000D03*
X109460000Y-107150000D03*
G04 #@! TD*
G04 #@! TO.C,U8*
X122990000Y-109050000D03*
X122990000Y-108100000D03*
X122990000Y-107150000D03*
X125610000Y-107150000D03*
X125610000Y-108100000D03*
X125610000Y-109050000D03*
G04 #@! TD*
G04 #@! TO.C,U7*
G36*
G01*
X143300000Y-73645000D02*
X143300000Y-73345000D01*
G75*
G02*
X143450000Y-73195000I150000J0D01*
G01*
X145100000Y-73195000D01*
G75*
G02*
X145250000Y-73345000I0J-150000D01*
G01*
X145250000Y-73645000D01*
G75*
G02*
X145100000Y-73795000I-150000J0D01*
G01*
X143450000Y-73795000D01*
G75*
G02*
X143300000Y-73645000I0J150000D01*
G01*
G37*
G36*
G01*
X143300000Y-74915000D02*
X143300000Y-74615000D01*
G75*
G02*
X143450000Y-74465000I150000J0D01*
G01*
X145100000Y-74465000D01*
G75*
G02*
X145250000Y-74615000I0J-150000D01*
G01*
X145250000Y-74915000D01*
G75*
G02*
X145100000Y-75065000I-150000J0D01*
G01*
X143450000Y-75065000D01*
G75*
G02*
X143300000Y-74915000I0J150000D01*
G01*
G37*
G36*
G01*
X143300000Y-76185000D02*
X143300000Y-75885000D01*
G75*
G02*
X143450000Y-75735000I150000J0D01*
G01*
X145100000Y-75735000D01*
G75*
G02*
X145250000Y-75885000I0J-150000D01*
G01*
X145250000Y-76185000D01*
G75*
G02*
X145100000Y-76335000I-150000J0D01*
G01*
X143450000Y-76335000D01*
G75*
G02*
X143300000Y-76185000I0J150000D01*
G01*
G37*
G36*
G01*
X143300000Y-77455000D02*
X143300000Y-77155000D01*
G75*
G02*
X143450000Y-77005000I150000J0D01*
G01*
X145100000Y-77005000D01*
G75*
G02*
X145250000Y-77155000I0J-150000D01*
G01*
X145250000Y-77455000D01*
G75*
G02*
X145100000Y-77605000I-150000J0D01*
G01*
X143450000Y-77605000D01*
G75*
G02*
X143300000Y-77455000I0J150000D01*
G01*
G37*
G36*
G01*
X138350000Y-77455000D02*
X138350000Y-77155000D01*
G75*
G02*
X138500000Y-77005000I150000J0D01*
G01*
X140150000Y-77005000D01*
G75*
G02*
X140300000Y-77155000I0J-150000D01*
G01*
X140300000Y-77455000D01*
G75*
G02*
X140150000Y-77605000I-150000J0D01*
G01*
X138500000Y-77605000D01*
G75*
G02*
X138350000Y-77455000I0J150000D01*
G01*
G37*
G36*
G01*
X138350000Y-76185000D02*
X138350000Y-75885000D01*
G75*
G02*
X138500000Y-75735000I150000J0D01*
G01*
X140150000Y-75735000D01*
G75*
G02*
X140300000Y-75885000I0J-150000D01*
G01*
X140300000Y-76185000D01*
G75*
G02*
X140150000Y-76335000I-150000J0D01*
G01*
X138500000Y-76335000D01*
G75*
G02*
X138350000Y-76185000I0J150000D01*
G01*
G37*
G36*
G01*
X138350000Y-74915000D02*
X138350000Y-74615000D01*
G75*
G02*
X138500000Y-74465000I150000J0D01*
G01*
X140150000Y-74465000D01*
G75*
G02*
X140300000Y-74615000I0J-150000D01*
G01*
X140300000Y-74915000D01*
G75*
G02*
X140150000Y-75065000I-150000J0D01*
G01*
X138500000Y-75065000D01*
G75*
G02*
X138350000Y-74915000I0J150000D01*
G01*
G37*
G36*
G01*
X138350000Y-73645000D02*
X138350000Y-73345000D01*
G75*
G02*
X138500000Y-73195000I150000J0D01*
G01*
X140150000Y-73195000D01*
G75*
G02*
X140300000Y-73345000I0J-150000D01*
G01*
X140300000Y-73645000D01*
G75*
G02*
X140150000Y-73795000I-150000J0D01*
G01*
X138500000Y-73795000D01*
G75*
G02*
X138350000Y-73645000I0J150000D01*
G01*
G37*
G04 #@! TD*
G04 #@! TO.C,U4*
G36*
G01*
X161975000Y-82575000D02*
X161775000Y-82575000D01*
G75*
G02*
X161675000Y-82475000I0J100000D01*
G01*
X161675000Y-81200000D01*
G75*
G02*
X161775000Y-81100000I100000J0D01*
G01*
X161975000Y-81100000D01*
G75*
G02*
X162075000Y-81200000I0J-100000D01*
G01*
X162075000Y-82475000D01*
G75*
G02*
X161975000Y-82575000I-100000J0D01*
G01*
G37*
G36*
G01*
X162625000Y-82575000D02*
X162425000Y-82575000D01*
G75*
G02*
X162325000Y-82475000I0J100000D01*
G01*
X162325000Y-81200000D01*
G75*
G02*
X162425000Y-81100000I100000J0D01*
G01*
X162625000Y-81100000D01*
G75*
G02*
X162725000Y-81200000I0J-100000D01*
G01*
X162725000Y-82475000D01*
G75*
G02*
X162625000Y-82575000I-100000J0D01*
G01*
G37*
G36*
G01*
X163275000Y-82575000D02*
X163075000Y-82575000D01*
G75*
G02*
X162975000Y-82475000I0J100000D01*
G01*
X162975000Y-81200000D01*
G75*
G02*
X163075000Y-81100000I100000J0D01*
G01*
X163275000Y-81100000D01*
G75*
G02*
X163375000Y-81200000I0J-100000D01*
G01*
X163375000Y-82475000D01*
G75*
G02*
X163275000Y-82575000I-100000J0D01*
G01*
G37*
G36*
G01*
X163925000Y-82575000D02*
X163725000Y-82575000D01*
G75*
G02*
X163625000Y-82475000I0J100000D01*
G01*
X163625000Y-81200000D01*
G75*
G02*
X163725000Y-81100000I100000J0D01*
G01*
X163925000Y-81100000D01*
G75*
G02*
X164025000Y-81200000I0J-100000D01*
G01*
X164025000Y-82475000D01*
G75*
G02*
X163925000Y-82575000I-100000J0D01*
G01*
G37*
G36*
G01*
X164575000Y-82575000D02*
X164375000Y-82575000D01*
G75*
G02*
X164275000Y-82475000I0J100000D01*
G01*
X164275000Y-81200000D01*
G75*
G02*
X164375000Y-81100000I100000J0D01*
G01*
X164575000Y-81100000D01*
G75*
G02*
X164675000Y-81200000I0J-100000D01*
G01*
X164675000Y-82475000D01*
G75*
G02*
X164575000Y-82575000I-100000J0D01*
G01*
G37*
G36*
G01*
X165225000Y-82575000D02*
X165025000Y-82575000D01*
G75*
G02*
X164925000Y-82475000I0J100000D01*
G01*
X164925000Y-81200000D01*
G75*
G02*
X165025000Y-81100000I100000J0D01*
G01*
X165225000Y-81100000D01*
G75*
G02*
X165325000Y-81200000I0J-100000D01*
G01*
X165325000Y-82475000D01*
G75*
G02*
X165225000Y-82575000I-100000J0D01*
G01*
G37*
G36*
G01*
X165875000Y-82575000D02*
X165675000Y-82575000D01*
G75*
G02*
X165575000Y-82475000I0J100000D01*
G01*
X165575000Y-81200000D01*
G75*
G02*
X165675000Y-81100000I100000J0D01*
G01*
X165875000Y-81100000D01*
G75*
G02*
X165975000Y-81200000I0J-100000D01*
G01*
X165975000Y-82475000D01*
G75*
G02*
X165875000Y-82575000I-100000J0D01*
G01*
G37*
G36*
G01*
X166525000Y-82575000D02*
X166325000Y-82575000D01*
G75*
G02*
X166225000Y-82475000I0J100000D01*
G01*
X166225000Y-81200000D01*
G75*
G02*
X166325000Y-81100000I100000J0D01*
G01*
X166525000Y-81100000D01*
G75*
G02*
X166625000Y-81200000I0J-100000D01*
G01*
X166625000Y-82475000D01*
G75*
G02*
X166525000Y-82575000I-100000J0D01*
G01*
G37*
G36*
G01*
X167175000Y-82575000D02*
X166975000Y-82575000D01*
G75*
G02*
X166875000Y-82475000I0J100000D01*
G01*
X166875000Y-81200000D01*
G75*
G02*
X166975000Y-81100000I100000J0D01*
G01*
X167175000Y-81100000D01*
G75*
G02*
X167275000Y-81200000I0J-100000D01*
G01*
X167275000Y-82475000D01*
G75*
G02*
X167175000Y-82575000I-100000J0D01*
G01*
G37*
G36*
G01*
X167825000Y-82575000D02*
X167625000Y-82575000D01*
G75*
G02*
X167525000Y-82475000I0J100000D01*
G01*
X167525000Y-81200000D01*
G75*
G02*
X167625000Y-81100000I100000J0D01*
G01*
X167825000Y-81100000D01*
G75*
G02*
X167925000Y-81200000I0J-100000D01*
G01*
X167925000Y-82475000D01*
G75*
G02*
X167825000Y-82575000I-100000J0D01*
G01*
G37*
G36*
G01*
X168475000Y-82575000D02*
X168275000Y-82575000D01*
G75*
G02*
X168175000Y-82475000I0J100000D01*
G01*
X168175000Y-81200000D01*
G75*
G02*
X168275000Y-81100000I100000J0D01*
G01*
X168475000Y-81100000D01*
G75*
G02*
X168575000Y-81200000I0J-100000D01*
G01*
X168575000Y-82475000D01*
G75*
G02*
X168475000Y-82575000I-100000J0D01*
G01*
G37*
G36*
G01*
X169125000Y-82575000D02*
X168925000Y-82575000D01*
G75*
G02*
X168825000Y-82475000I0J100000D01*
G01*
X168825000Y-81200000D01*
G75*
G02*
X168925000Y-81100000I100000J0D01*
G01*
X169125000Y-81100000D01*
G75*
G02*
X169225000Y-81200000I0J-100000D01*
G01*
X169225000Y-82475000D01*
G75*
G02*
X169125000Y-82575000I-100000J0D01*
G01*
G37*
G36*
G01*
X169775000Y-82575000D02*
X169575000Y-82575000D01*
G75*
G02*
X169475000Y-82475000I0J100000D01*
G01*
X169475000Y-81200000D01*
G75*
G02*
X169575000Y-81100000I100000J0D01*
G01*
X169775000Y-81100000D01*
G75*
G02*
X169875000Y-81200000I0J-100000D01*
G01*
X169875000Y-82475000D01*
G75*
G02*
X169775000Y-82575000I-100000J0D01*
G01*
G37*
G36*
G01*
X170425000Y-82575000D02*
X170225000Y-82575000D01*
G75*
G02*
X170125000Y-82475000I0J100000D01*
G01*
X170125000Y-81200000D01*
G75*
G02*
X170225000Y-81100000I100000J0D01*
G01*
X170425000Y-81100000D01*
G75*
G02*
X170525000Y-81200000I0J-100000D01*
G01*
X170525000Y-82475000D01*
G75*
G02*
X170425000Y-82575000I-100000J0D01*
G01*
G37*
G36*
G01*
X170425000Y-88300000D02*
X170225000Y-88300000D01*
G75*
G02*
X170125000Y-88200000I0J100000D01*
G01*
X170125000Y-86925000D01*
G75*
G02*
X170225000Y-86825000I100000J0D01*
G01*
X170425000Y-86825000D01*
G75*
G02*
X170525000Y-86925000I0J-100000D01*
G01*
X170525000Y-88200000D01*
G75*
G02*
X170425000Y-88300000I-100000J0D01*
G01*
G37*
G36*
G01*
X169775000Y-88300000D02*
X169575000Y-88300000D01*
G75*
G02*
X169475000Y-88200000I0J100000D01*
G01*
X169475000Y-86925000D01*
G75*
G02*
X169575000Y-86825000I100000J0D01*
G01*
X169775000Y-86825000D01*
G75*
G02*
X169875000Y-86925000I0J-100000D01*
G01*
X169875000Y-88200000D01*
G75*
G02*
X169775000Y-88300000I-100000J0D01*
G01*
G37*
G36*
G01*
X169125000Y-88300000D02*
X168925000Y-88300000D01*
G75*
G02*
X168825000Y-88200000I0J100000D01*
G01*
X168825000Y-86925000D01*
G75*
G02*
X168925000Y-86825000I100000J0D01*
G01*
X169125000Y-86825000D01*
G75*
G02*
X169225000Y-86925000I0J-100000D01*
G01*
X169225000Y-88200000D01*
G75*
G02*
X169125000Y-88300000I-100000J0D01*
G01*
G37*
G36*
G01*
X168475000Y-88300000D02*
X168275000Y-88300000D01*
G75*
G02*
X168175000Y-88200000I0J100000D01*
G01*
X168175000Y-86925000D01*
G75*
G02*
X168275000Y-86825000I100000J0D01*
G01*
X168475000Y-86825000D01*
G75*
G02*
X168575000Y-86925000I0J-100000D01*
G01*
X168575000Y-88200000D01*
G75*
G02*
X168475000Y-88300000I-100000J0D01*
G01*
G37*
G36*
G01*
X167825000Y-88300000D02*
X167625000Y-88300000D01*
G75*
G02*
X167525000Y-88200000I0J100000D01*
G01*
X167525000Y-86925000D01*
G75*
G02*
X167625000Y-86825000I100000J0D01*
G01*
X167825000Y-86825000D01*
G75*
G02*
X167925000Y-86925000I0J-100000D01*
G01*
X167925000Y-88200000D01*
G75*
G02*
X167825000Y-88300000I-100000J0D01*
G01*
G37*
G36*
G01*
X167175000Y-88300000D02*
X166975000Y-88300000D01*
G75*
G02*
X166875000Y-88200000I0J100000D01*
G01*
X166875000Y-86925000D01*
G75*
G02*
X166975000Y-86825000I100000J0D01*
G01*
X167175000Y-86825000D01*
G75*
G02*
X167275000Y-86925000I0J-100000D01*
G01*
X167275000Y-88200000D01*
G75*
G02*
X167175000Y-88300000I-100000J0D01*
G01*
G37*
G36*
G01*
X166525000Y-88300000D02*
X166325000Y-88300000D01*
G75*
G02*
X166225000Y-88200000I0J100000D01*
G01*
X166225000Y-86925000D01*
G75*
G02*
X166325000Y-86825000I100000J0D01*
G01*
X166525000Y-86825000D01*
G75*
G02*
X166625000Y-86925000I0J-100000D01*
G01*
X166625000Y-88200000D01*
G75*
G02*
X166525000Y-88300000I-100000J0D01*
G01*
G37*
G36*
G01*
X165875000Y-88300000D02*
X165675000Y-88300000D01*
G75*
G02*
X165575000Y-88200000I0J100000D01*
G01*
X165575000Y-86925000D01*
G75*
G02*
X165675000Y-86825000I100000J0D01*
G01*
X165875000Y-86825000D01*
G75*
G02*
X165975000Y-86925000I0J-100000D01*
G01*
X165975000Y-88200000D01*
G75*
G02*
X165875000Y-88300000I-100000J0D01*
G01*
G37*
G36*
G01*
X165225000Y-88300000D02*
X165025000Y-88300000D01*
G75*
G02*
X164925000Y-88200000I0J100000D01*
G01*
X164925000Y-86925000D01*
G75*
G02*
X165025000Y-86825000I100000J0D01*
G01*
X165225000Y-86825000D01*
G75*
G02*
X165325000Y-86925000I0J-100000D01*
G01*
X165325000Y-88200000D01*
G75*
G02*
X165225000Y-88300000I-100000J0D01*
G01*
G37*
G36*
G01*
X164575000Y-88300000D02*
X164375000Y-88300000D01*
G75*
G02*
X164275000Y-88200000I0J100000D01*
G01*
X164275000Y-86925000D01*
G75*
G02*
X164375000Y-86825000I100000J0D01*
G01*
X164575000Y-86825000D01*
G75*
G02*
X164675000Y-86925000I0J-100000D01*
G01*
X164675000Y-88200000D01*
G75*
G02*
X164575000Y-88300000I-100000J0D01*
G01*
G37*
G36*
G01*
X163925000Y-88300000D02*
X163725000Y-88300000D01*
G75*
G02*
X163625000Y-88200000I0J100000D01*
G01*
X163625000Y-86925000D01*
G75*
G02*
X163725000Y-86825000I100000J0D01*
G01*
X163925000Y-86825000D01*
G75*
G02*
X164025000Y-86925000I0J-100000D01*
G01*
X164025000Y-88200000D01*
G75*
G02*
X163925000Y-88300000I-100000J0D01*
G01*
G37*
G36*
G01*
X163275000Y-88300000D02*
X163075000Y-88300000D01*
G75*
G02*
X162975000Y-88200000I0J100000D01*
G01*
X162975000Y-86925000D01*
G75*
G02*
X163075000Y-86825000I100000J0D01*
G01*
X163275000Y-86825000D01*
G75*
G02*
X163375000Y-86925000I0J-100000D01*
G01*
X163375000Y-88200000D01*
G75*
G02*
X163275000Y-88300000I-100000J0D01*
G01*
G37*
G36*
G01*
X162625000Y-88300000D02*
X162425000Y-88300000D01*
G75*
G02*
X162325000Y-88200000I0J100000D01*
G01*
X162325000Y-86925000D01*
G75*
G02*
X162425000Y-86825000I100000J0D01*
G01*
X162625000Y-86825000D01*
G75*
G02*
X162725000Y-86925000I0J-100000D01*
G01*
X162725000Y-88200000D01*
G75*
G02*
X162625000Y-88300000I-100000J0D01*
G01*
G37*
G36*
G01*
X161975000Y-88300000D02*
X161775000Y-88300000D01*
G75*
G02*
X161675000Y-88200000I0J100000D01*
G01*
X161675000Y-86925000D01*
G75*
G02*
X161775000Y-86825000I100000J0D01*
G01*
X161975000Y-86825000D01*
G75*
G02*
X162075000Y-86925000I0J-100000D01*
G01*
X162075000Y-88200000D01*
G75*
G02*
X161975000Y-88300000I-100000J0D01*
G01*
G37*
G04 #@! TD*
G04 #@! TO.C,U3*
X148310000Y-88050000D03*
X148310000Y-89000000D03*
X148310000Y-89950000D03*
X145690000Y-89950000D03*
X145690000Y-89000000D03*
X145690000Y-88050000D03*
G04 #@! TD*
G04 #@! TO.C,R34*
G36*
G01*
X131425000Y-88925000D02*
X131975000Y-88925000D01*
G75*
G02*
X132175000Y-89125000I0J-200000D01*
G01*
X132175000Y-89525000D01*
G75*
G02*
X131975000Y-89725000I-200000J0D01*
G01*
X131425000Y-89725000D01*
G75*
G02*
X131225000Y-89525000I0J200000D01*
G01*
X131225000Y-89125000D01*
G75*
G02*
X131425000Y-88925000I200000J0D01*
G01*
G37*
G36*
G01*
X131425000Y-87275000D02*
X131975000Y-87275000D01*
G75*
G02*
X132175000Y-87475000I0J-200000D01*
G01*
X132175000Y-87875000D01*
G75*
G02*
X131975000Y-88075000I-200000J0D01*
G01*
X131425000Y-88075000D01*
G75*
G02*
X131225000Y-87875000I0J200000D01*
G01*
X131225000Y-87475000D01*
G75*
G02*
X131425000Y-87275000I200000J0D01*
G01*
G37*
G04 #@! TD*
G04 #@! TO.C,R33*
G36*
G01*
X137875000Y-88075000D02*
X137325000Y-88075000D01*
G75*
G02*
X137125000Y-87875000I0J200000D01*
G01*
X137125000Y-87475000D01*
G75*
G02*
X137325000Y-87275000I200000J0D01*
G01*
X137875000Y-87275000D01*
G75*
G02*
X138075000Y-87475000I0J-200000D01*
G01*
X138075000Y-87875000D01*
G75*
G02*
X137875000Y-88075000I-200000J0D01*
G01*
G37*
G36*
G01*
X137875000Y-89725000D02*
X137325000Y-89725000D01*
G75*
G02*
X137125000Y-89525000I0J200000D01*
G01*
X137125000Y-89125000D01*
G75*
G02*
X137325000Y-88925000I200000J0D01*
G01*
X137875000Y-88925000D01*
G75*
G02*
X138075000Y-89125000I0J-200000D01*
G01*
X138075000Y-89525000D01*
G75*
G02*
X137875000Y-89725000I-200000J0D01*
G01*
G37*
G04 #@! TD*
G04 #@! TO.C,R32*
G36*
G01*
X138925000Y-88925000D02*
X139475000Y-88925000D01*
G75*
G02*
X139675000Y-89125000I0J-200000D01*
G01*
X139675000Y-89525000D01*
G75*
G02*
X139475000Y-89725000I-200000J0D01*
G01*
X138925000Y-89725000D01*
G75*
G02*
X138725000Y-89525000I0J200000D01*
G01*
X138725000Y-89125000D01*
G75*
G02*
X138925000Y-88925000I200000J0D01*
G01*
G37*
G36*
G01*
X138925000Y-87275000D02*
X139475000Y-87275000D01*
G75*
G02*
X139675000Y-87475000I0J-200000D01*
G01*
X139675000Y-87875000D01*
G75*
G02*
X139475000Y-88075000I-200000J0D01*
G01*
X138925000Y-88075000D01*
G75*
G02*
X138725000Y-87875000I0J200000D01*
G01*
X138725000Y-87475000D01*
G75*
G02*
X138925000Y-87275000I200000J0D01*
G01*
G37*
G04 #@! TD*
G04 #@! TO.C,R31*
G36*
G01*
X134375000Y-113075000D02*
X133825000Y-113075000D01*
G75*
G02*
X133625000Y-112875000I0J200000D01*
G01*
X133625000Y-112475000D01*
G75*
G02*
X133825000Y-112275000I200000J0D01*
G01*
X134375000Y-112275000D01*
G75*
G02*
X134575000Y-112475000I0J-200000D01*
G01*
X134575000Y-112875000D01*
G75*
G02*
X134375000Y-113075000I-200000J0D01*
G01*
G37*
G36*
G01*
X134375000Y-114725000D02*
X133825000Y-114725000D01*
G75*
G02*
X133625000Y-114525000I0J200000D01*
G01*
X133625000Y-114125000D01*
G75*
G02*
X133825000Y-113925000I200000J0D01*
G01*
X134375000Y-113925000D01*
G75*
G02*
X134575000Y-114125000I0J-200000D01*
G01*
X134575000Y-114525000D01*
G75*
G02*
X134375000Y-114725000I-200000J0D01*
G01*
G37*
G04 #@! TD*
G04 #@! TO.C,R30*
G36*
G01*
X153975000Y-114875000D02*
X153425000Y-114875000D01*
G75*
G02*
X153225000Y-114675000I0J200000D01*
G01*
X153225000Y-114275000D01*
G75*
G02*
X153425000Y-114075000I200000J0D01*
G01*
X153975000Y-114075000D01*
G75*
G02*
X154175000Y-114275000I0J-200000D01*
G01*
X154175000Y-114675000D01*
G75*
G02*
X153975000Y-114875000I-200000J0D01*
G01*
G37*
G36*
G01*
X153975000Y-116525000D02*
X153425000Y-116525000D01*
G75*
G02*
X153225000Y-116325000I0J200000D01*
G01*
X153225000Y-115925000D01*
G75*
G02*
X153425000Y-115725000I200000J0D01*
G01*
X153975000Y-115725000D01*
G75*
G02*
X154175000Y-115925000I0J-200000D01*
G01*
X154175000Y-116325000D01*
G75*
G02*
X153975000Y-116525000I-200000J0D01*
G01*
G37*
G04 #@! TD*
G04 #@! TO.C,R29*
G36*
G01*
X128075000Y-98775000D02*
X127525000Y-98775000D01*
G75*
G02*
X127325000Y-98575000I0J200000D01*
G01*
X127325000Y-98175000D01*
G75*
G02*
X127525000Y-97975000I200000J0D01*
G01*
X128075000Y-97975000D01*
G75*
G02*
X128275000Y-98175000I0J-200000D01*
G01*
X128275000Y-98575000D01*
G75*
G02*
X128075000Y-98775000I-200000J0D01*
G01*
G37*
G36*
G01*
X128075000Y-100425000D02*
X127525000Y-100425000D01*
G75*
G02*
X127325000Y-100225000I0J200000D01*
G01*
X127325000Y-99825000D01*
G75*
G02*
X127525000Y-99625000I200000J0D01*
G01*
X128075000Y-99625000D01*
G75*
G02*
X128275000Y-99825000I0J-200000D01*
G01*
X128275000Y-100225000D01*
G75*
G02*
X128075000Y-100425000I-200000J0D01*
G01*
G37*
G04 #@! TD*
G04 #@! TO.C,R28*
G36*
G01*
X129575000Y-93775000D02*
X129025000Y-93775000D01*
G75*
G02*
X128825000Y-93575000I0J200000D01*
G01*
X128825000Y-93175000D01*
G75*
G02*
X129025000Y-92975000I200000J0D01*
G01*
X129575000Y-92975000D01*
G75*
G02*
X129775000Y-93175000I0J-200000D01*
G01*
X129775000Y-93575000D01*
G75*
G02*
X129575000Y-93775000I-200000J0D01*
G01*
G37*
G36*
G01*
X129575000Y-95425000D02*
X129025000Y-95425000D01*
G75*
G02*
X128825000Y-95225000I0J200000D01*
G01*
X128825000Y-94825000D01*
G75*
G02*
X129025000Y-94625000I200000J0D01*
G01*
X129575000Y-94625000D01*
G75*
G02*
X129775000Y-94825000I0J-200000D01*
G01*
X129775000Y-95225000D01*
G75*
G02*
X129575000Y-95425000I-200000J0D01*
G01*
G37*
G04 #@! TD*
G04 #@! TO.C,R27*
G36*
G01*
X112825000Y-105475000D02*
X112825000Y-104925000D01*
G75*
G02*
X113025000Y-104725000I200000J0D01*
G01*
X113425000Y-104725000D01*
G75*
G02*
X113625000Y-104925000I0J-200000D01*
G01*
X113625000Y-105475000D01*
G75*
G02*
X113425000Y-105675000I-200000J0D01*
G01*
X113025000Y-105675000D01*
G75*
G02*
X112825000Y-105475000I0J200000D01*
G01*
G37*
G36*
G01*
X111175000Y-105475000D02*
X111175000Y-104925000D01*
G75*
G02*
X111375000Y-104725000I200000J0D01*
G01*
X111775000Y-104725000D01*
G75*
G02*
X111975000Y-104925000I0J-200000D01*
G01*
X111975000Y-105475000D01*
G75*
G02*
X111775000Y-105675000I-200000J0D01*
G01*
X111375000Y-105675000D01*
G75*
G02*
X111175000Y-105475000I0J200000D01*
G01*
G37*
G04 #@! TD*
G04 #@! TO.C,R26*
G36*
G01*
X111975000Y-106525000D02*
X111975000Y-107075000D01*
G75*
G02*
X111775000Y-107275000I-200000J0D01*
G01*
X111375000Y-107275000D01*
G75*
G02*
X111175000Y-107075000I0J200000D01*
G01*
X111175000Y-106525000D01*
G75*
G02*
X111375000Y-106325000I200000J0D01*
G01*
X111775000Y-106325000D01*
G75*
G02*
X111975000Y-106525000I0J-200000D01*
G01*
G37*
G36*
G01*
X113625000Y-106525000D02*
X113625000Y-107075000D01*
G75*
G02*
X113425000Y-107275000I-200000J0D01*
G01*
X113025000Y-107275000D01*
G75*
G02*
X112825000Y-107075000I0J200000D01*
G01*
X112825000Y-106525000D01*
G75*
G02*
X113025000Y-106325000I200000J0D01*
G01*
X113425000Y-106325000D01*
G75*
G02*
X113625000Y-106525000I0J-200000D01*
G01*
G37*
G04 #@! TD*
G04 #@! TO.C,R25*
G36*
G01*
X108925000Y-103675000D02*
X108925000Y-103125000D01*
G75*
G02*
X109125000Y-102925000I200000J0D01*
G01*
X109525000Y-102925000D01*
G75*
G02*
X109725000Y-103125000I0J-200000D01*
G01*
X109725000Y-103675000D01*
G75*
G02*
X109525000Y-103875000I-200000J0D01*
G01*
X109125000Y-103875000D01*
G75*
G02*
X108925000Y-103675000I0J200000D01*
G01*
G37*
G36*
G01*
X107275000Y-103675000D02*
X107275000Y-103125000D01*
G75*
G02*
X107475000Y-102925000I200000J0D01*
G01*
X107875000Y-102925000D01*
G75*
G02*
X108075000Y-103125000I0J-200000D01*
G01*
X108075000Y-103675000D01*
G75*
G02*
X107875000Y-103875000I-200000J0D01*
G01*
X107475000Y-103875000D01*
G75*
G02*
X107275000Y-103675000I0J200000D01*
G01*
G37*
G04 #@! TD*
G04 #@! TO.C,R24*
G36*
G01*
X129225000Y-107625000D02*
X129225000Y-107075000D01*
G75*
G02*
X129425000Y-106875000I200000J0D01*
G01*
X129825000Y-106875000D01*
G75*
G02*
X130025000Y-107075000I0J-200000D01*
G01*
X130025000Y-107625000D01*
G75*
G02*
X129825000Y-107825000I-200000J0D01*
G01*
X129425000Y-107825000D01*
G75*
G02*
X129225000Y-107625000I0J200000D01*
G01*
G37*
G36*
G01*
X127575000Y-107625000D02*
X127575000Y-107075000D01*
G75*
G02*
X127775000Y-106875000I200000J0D01*
G01*
X128175000Y-106875000D01*
G75*
G02*
X128375000Y-107075000I0J-200000D01*
G01*
X128375000Y-107625000D01*
G75*
G02*
X128175000Y-107825000I-200000J0D01*
G01*
X127775000Y-107825000D01*
G75*
G02*
X127575000Y-107625000I0J200000D01*
G01*
G37*
G04 #@! TD*
G04 #@! TO.C,R23*
G36*
G01*
X128375000Y-108825000D02*
X128375000Y-109375000D01*
G75*
G02*
X128175000Y-109575000I-200000J0D01*
G01*
X127775000Y-109575000D01*
G75*
G02*
X127575000Y-109375000I0J200000D01*
G01*
X127575000Y-108825000D01*
G75*
G02*
X127775000Y-108625000I200000J0D01*
G01*
X128175000Y-108625000D01*
G75*
G02*
X128375000Y-108825000I0J-200000D01*
G01*
G37*
G36*
G01*
X130025000Y-108825000D02*
X130025000Y-109375000D01*
G75*
G02*
X129825000Y-109575000I-200000J0D01*
G01*
X129425000Y-109575000D01*
G75*
G02*
X129225000Y-109375000I0J200000D01*
G01*
X129225000Y-108825000D01*
G75*
G02*
X129425000Y-108625000I200000J0D01*
G01*
X129825000Y-108625000D01*
G75*
G02*
X130025000Y-108825000I0J-200000D01*
G01*
G37*
G04 #@! TD*
G04 #@! TO.C,R22*
G36*
G01*
X122425000Y-105675000D02*
X122425000Y-105125000D01*
G75*
G02*
X122625000Y-104925000I200000J0D01*
G01*
X123025000Y-104925000D01*
G75*
G02*
X123225000Y-105125000I0J-200000D01*
G01*
X123225000Y-105675000D01*
G75*
G02*
X123025000Y-105875000I-200000J0D01*
G01*
X122625000Y-105875000D01*
G75*
G02*
X122425000Y-105675000I0J200000D01*
G01*
G37*
G36*
G01*
X120775000Y-105675000D02*
X120775000Y-105125000D01*
G75*
G02*
X120975000Y-104925000I200000J0D01*
G01*
X121375000Y-104925000D01*
G75*
G02*
X121575000Y-105125000I0J-200000D01*
G01*
X121575000Y-105675000D01*
G75*
G02*
X121375000Y-105875000I-200000J0D01*
G01*
X120975000Y-105875000D01*
G75*
G02*
X120775000Y-105675000I0J200000D01*
G01*
G37*
G04 #@! TD*
G04 #@! TO.C,R21*
G36*
G01*
X150425000Y-77825000D02*
X150425000Y-77275000D01*
G75*
G02*
X150625000Y-77075000I200000J0D01*
G01*
X151025000Y-77075000D01*
G75*
G02*
X151225000Y-77275000I0J-200000D01*
G01*
X151225000Y-77825000D01*
G75*
G02*
X151025000Y-78025000I-200000J0D01*
G01*
X150625000Y-78025000D01*
G75*
G02*
X150425000Y-77825000I0J200000D01*
G01*
G37*
G36*
G01*
X148775000Y-77825000D02*
X148775000Y-77275000D01*
G75*
G02*
X148975000Y-77075000I200000J0D01*
G01*
X149375000Y-77075000D01*
G75*
G02*
X149575000Y-77275000I0J-200000D01*
G01*
X149575000Y-77825000D01*
G75*
G02*
X149375000Y-78025000I-200000J0D01*
G01*
X148975000Y-78025000D01*
G75*
G02*
X148775000Y-77825000I0J200000D01*
G01*
G37*
G04 #@! TD*
G04 #@! TO.C,R20*
G36*
G01*
X148925000Y-75675000D02*
X149475000Y-75675000D01*
G75*
G02*
X149675000Y-75875000I0J-200000D01*
G01*
X149675000Y-76275000D01*
G75*
G02*
X149475000Y-76475000I-200000J0D01*
G01*
X148925000Y-76475000D01*
G75*
G02*
X148725000Y-76275000I0J200000D01*
G01*
X148725000Y-75875000D01*
G75*
G02*
X148925000Y-75675000I200000J0D01*
G01*
G37*
G36*
G01*
X148925000Y-74025000D02*
X149475000Y-74025000D01*
G75*
G02*
X149675000Y-74225000I0J-200000D01*
G01*
X149675000Y-74625000D01*
G75*
G02*
X149475000Y-74825000I-200000J0D01*
G01*
X148925000Y-74825000D01*
G75*
G02*
X148725000Y-74625000I0J200000D01*
G01*
X148725000Y-74225000D01*
G75*
G02*
X148925000Y-74025000I200000J0D01*
G01*
G37*
G04 #@! TD*
G04 #@! TO.C,R19*
G36*
G01*
X151025000Y-74825000D02*
X150475000Y-74825000D01*
G75*
G02*
X150275000Y-74625000I0J200000D01*
G01*
X150275000Y-74225000D01*
G75*
G02*
X150475000Y-74025000I200000J0D01*
G01*
X151025000Y-74025000D01*
G75*
G02*
X151225000Y-74225000I0J-200000D01*
G01*
X151225000Y-74625000D01*
G75*
G02*
X151025000Y-74825000I-200000J0D01*
G01*
G37*
G36*
G01*
X151025000Y-76475000D02*
X150475000Y-76475000D01*
G75*
G02*
X150275000Y-76275000I0J200000D01*
G01*
X150275000Y-75875000D01*
G75*
G02*
X150475000Y-75675000I200000J0D01*
G01*
X151025000Y-75675000D01*
G75*
G02*
X151225000Y-75875000I0J-200000D01*
G01*
X151225000Y-76275000D01*
G75*
G02*
X151025000Y-76475000I-200000J0D01*
G01*
G37*
G04 #@! TD*
G04 #@! TO.C,R18*
G36*
G01*
X150425000Y-79375000D02*
X150425000Y-78825000D01*
G75*
G02*
X150625000Y-78625000I200000J0D01*
G01*
X151025000Y-78625000D01*
G75*
G02*
X151225000Y-78825000I0J-200000D01*
G01*
X151225000Y-79375000D01*
G75*
G02*
X151025000Y-79575000I-200000J0D01*
G01*
X150625000Y-79575000D01*
G75*
G02*
X150425000Y-79375000I0J200000D01*
G01*
G37*
G36*
G01*
X148775000Y-79375000D02*
X148775000Y-78825000D01*
G75*
G02*
X148975000Y-78625000I200000J0D01*
G01*
X149375000Y-78625000D01*
G75*
G02*
X149575000Y-78825000I0J-200000D01*
G01*
X149575000Y-79375000D01*
G75*
G02*
X149375000Y-79575000I-200000J0D01*
G01*
X148975000Y-79575000D01*
G75*
G02*
X148775000Y-79375000I0J200000D01*
G01*
G37*
G04 #@! TD*
G04 #@! TO.C,R15*
G36*
G01*
X141175000Y-85125000D02*
X141175000Y-85675000D01*
G75*
G02*
X140975000Y-85875000I-200000J0D01*
G01*
X140575000Y-85875000D01*
G75*
G02*
X140375000Y-85675000I0J200000D01*
G01*
X140375000Y-85125000D01*
G75*
G02*
X140575000Y-84925000I200000J0D01*
G01*
X140975000Y-84925000D01*
G75*
G02*
X141175000Y-85125000I0J-200000D01*
G01*
G37*
G36*
G01*
X142825000Y-85125000D02*
X142825000Y-85675000D01*
G75*
G02*
X142625000Y-85875000I-200000J0D01*
G01*
X142225000Y-85875000D01*
G75*
G02*
X142025000Y-85675000I0J200000D01*
G01*
X142025000Y-85125000D01*
G75*
G02*
X142225000Y-84925000I200000J0D01*
G01*
X142625000Y-84925000D01*
G75*
G02*
X142825000Y-85125000I0J-200000D01*
G01*
G37*
G04 #@! TD*
G04 #@! TO.C,R14*
G36*
G01*
X149575000Y-80425000D02*
X149575000Y-80975000D01*
G75*
G02*
X149375000Y-81175000I-200000J0D01*
G01*
X148975000Y-81175000D01*
G75*
G02*
X148775000Y-80975000I0J200000D01*
G01*
X148775000Y-80425000D01*
G75*
G02*
X148975000Y-80225000I200000J0D01*
G01*
X149375000Y-80225000D01*
G75*
G02*
X149575000Y-80425000I0J-200000D01*
G01*
G37*
G36*
G01*
X151225000Y-80425000D02*
X151225000Y-80975000D01*
G75*
G02*
X151025000Y-81175000I-200000J0D01*
G01*
X150625000Y-81175000D01*
G75*
G02*
X150425000Y-80975000I0J200000D01*
G01*
X150425000Y-80425000D01*
G75*
G02*
X150625000Y-80225000I200000J0D01*
G01*
X151025000Y-80225000D01*
G75*
G02*
X151225000Y-80425000I0J-200000D01*
G01*
G37*
G04 #@! TD*
G04 #@! TO.C,R13*
G36*
G01*
X149550000Y-81975000D02*
X149550000Y-82525000D01*
G75*
G02*
X149350000Y-82725000I-200000J0D01*
G01*
X148950000Y-82725000D01*
G75*
G02*
X148750000Y-82525000I0J200000D01*
G01*
X148750000Y-81975000D01*
G75*
G02*
X148950000Y-81775000I200000J0D01*
G01*
X149350000Y-81775000D01*
G75*
G02*
X149550000Y-81975000I0J-200000D01*
G01*
G37*
G36*
G01*
X151200000Y-81975000D02*
X151200000Y-82525000D01*
G75*
G02*
X151000000Y-82725000I-200000J0D01*
G01*
X150600000Y-82725000D01*
G75*
G02*
X150400000Y-82525000I0J200000D01*
G01*
X150400000Y-81975000D01*
G75*
G02*
X150600000Y-81775000I200000J0D01*
G01*
X151000000Y-81775000D01*
G75*
G02*
X151200000Y-81975000I0J-200000D01*
G01*
G37*
G04 #@! TD*
G04 #@! TO.C,R12*
G36*
G01*
X150400000Y-84150000D02*
X150400000Y-83600000D01*
G75*
G02*
X150600000Y-83400000I200000J0D01*
G01*
X151000000Y-83400000D01*
G75*
G02*
X151200000Y-83600000I0J-200000D01*
G01*
X151200000Y-84150000D01*
G75*
G02*
X151000000Y-84350000I-200000J0D01*
G01*
X150600000Y-84350000D01*
G75*
G02*
X150400000Y-84150000I0J200000D01*
G01*
G37*
G36*
G01*
X148750000Y-84150000D02*
X148750000Y-83600000D01*
G75*
G02*
X148950000Y-83400000I200000J0D01*
G01*
X149350000Y-83400000D01*
G75*
G02*
X149550000Y-83600000I0J-200000D01*
G01*
X149550000Y-84150000D01*
G75*
G02*
X149350000Y-84350000I-200000J0D01*
G01*
X148950000Y-84350000D01*
G75*
G02*
X148750000Y-84150000I0J200000D01*
G01*
G37*
G04 #@! TD*
G04 #@! TO.C,R11*
G36*
G01*
X152050000Y-78800000D02*
X152600000Y-78800000D01*
G75*
G02*
X152800000Y-79000000I0J-200000D01*
G01*
X152800000Y-79400000D01*
G75*
G02*
X152600000Y-79600000I-200000J0D01*
G01*
X152050000Y-79600000D01*
G75*
G02*
X151850000Y-79400000I0J200000D01*
G01*
X151850000Y-79000000D01*
G75*
G02*
X152050000Y-78800000I200000J0D01*
G01*
G37*
G36*
G01*
X152050000Y-77150000D02*
X152600000Y-77150000D01*
G75*
G02*
X152800000Y-77350000I0J-200000D01*
G01*
X152800000Y-77750000D01*
G75*
G02*
X152600000Y-77950000I-200000J0D01*
G01*
X152050000Y-77950000D01*
G75*
G02*
X151850000Y-77750000I0J200000D01*
G01*
X151850000Y-77350000D01*
G75*
G02*
X152050000Y-77150000I200000J0D01*
G01*
G37*
G04 #@! TD*
G04 #@! TO.C,R10*
G36*
G01*
X167925000Y-79125000D02*
X168475000Y-79125000D01*
G75*
G02*
X168675000Y-79325000I0J-200000D01*
G01*
X168675000Y-79725000D01*
G75*
G02*
X168475000Y-79925000I-200000J0D01*
G01*
X167925000Y-79925000D01*
G75*
G02*
X167725000Y-79725000I0J200000D01*
G01*
X167725000Y-79325000D01*
G75*
G02*
X167925000Y-79125000I200000J0D01*
G01*
G37*
G36*
G01*
X167925000Y-77475000D02*
X168475000Y-77475000D01*
G75*
G02*
X168675000Y-77675000I0J-200000D01*
G01*
X168675000Y-78075000D01*
G75*
G02*
X168475000Y-78275000I-200000J0D01*
G01*
X167925000Y-78275000D01*
G75*
G02*
X167725000Y-78075000I0J200000D01*
G01*
X167725000Y-77675000D01*
G75*
G02*
X167925000Y-77475000I200000J0D01*
G01*
G37*
G04 #@! TD*
G04 #@! TO.C,R8*
G36*
G01*
X112375000Y-98925000D02*
X112375000Y-99475000D01*
G75*
G02*
X112175000Y-99675000I-200000J0D01*
G01*
X111775000Y-99675000D01*
G75*
G02*
X111575000Y-99475000I0J200000D01*
G01*
X111575000Y-98925000D01*
G75*
G02*
X111775000Y-98725000I200000J0D01*
G01*
X112175000Y-98725000D01*
G75*
G02*
X112375000Y-98925000I0J-200000D01*
G01*
G37*
G36*
G01*
X114025000Y-98925000D02*
X114025000Y-99475000D01*
G75*
G02*
X113825000Y-99675000I-200000J0D01*
G01*
X113425000Y-99675000D01*
G75*
G02*
X113225000Y-99475000I0J200000D01*
G01*
X113225000Y-98925000D01*
G75*
G02*
X113425000Y-98725000I200000J0D01*
G01*
X113825000Y-98725000D01*
G75*
G02*
X114025000Y-98925000I0J-200000D01*
G01*
G37*
G04 #@! TD*
G04 #@! TO.C,R6*
G36*
G01*
X114325000Y-87775000D02*
X114325000Y-87225000D01*
G75*
G02*
X114525000Y-87025000I200000J0D01*
G01*
X114925000Y-87025000D01*
G75*
G02*
X115125000Y-87225000I0J-200000D01*
G01*
X115125000Y-87775000D01*
G75*
G02*
X114925000Y-87975000I-200000J0D01*
G01*
X114525000Y-87975000D01*
G75*
G02*
X114325000Y-87775000I0J200000D01*
G01*
G37*
G36*
G01*
X112675000Y-87775000D02*
X112675000Y-87225000D01*
G75*
G02*
X112875000Y-87025000I200000J0D01*
G01*
X113275000Y-87025000D01*
G75*
G02*
X113475000Y-87225000I0J-200000D01*
G01*
X113475000Y-87775000D01*
G75*
G02*
X113275000Y-87975000I-200000J0D01*
G01*
X112875000Y-87975000D01*
G75*
G02*
X112675000Y-87775000I0J200000D01*
G01*
G37*
G04 #@! TD*
G04 #@! TO.C,R5*
G36*
G01*
X111075000Y-79875000D02*
X111075000Y-80425000D01*
G75*
G02*
X110875000Y-80625000I-200000J0D01*
G01*
X110475000Y-80625000D01*
G75*
G02*
X110275000Y-80425000I0J200000D01*
G01*
X110275000Y-79875000D01*
G75*
G02*
X110475000Y-79675000I200000J0D01*
G01*
X110875000Y-79675000D01*
G75*
G02*
X111075000Y-79875000I0J-200000D01*
G01*
G37*
G36*
G01*
X112725000Y-79875000D02*
X112725000Y-80425000D01*
G75*
G02*
X112525000Y-80625000I-200000J0D01*
G01*
X112125000Y-80625000D01*
G75*
G02*
X111925000Y-80425000I0J200000D01*
G01*
X111925000Y-79875000D01*
G75*
G02*
X112125000Y-79675000I200000J0D01*
G01*
X112525000Y-79675000D01*
G75*
G02*
X112725000Y-79875000I0J-200000D01*
G01*
G37*
G04 #@! TD*
G04 #@! TO.C,R4*
G36*
G01*
X111925000Y-78825000D02*
X111925000Y-78275000D01*
G75*
G02*
X112125000Y-78075000I200000J0D01*
G01*
X112525000Y-78075000D01*
G75*
G02*
X112725000Y-78275000I0J-200000D01*
G01*
X112725000Y-78825000D01*
G75*
G02*
X112525000Y-79025000I-200000J0D01*
G01*
X112125000Y-79025000D01*
G75*
G02*
X111925000Y-78825000I0J200000D01*
G01*
G37*
G36*
G01*
X110275000Y-78825000D02*
X110275000Y-78275000D01*
G75*
G02*
X110475000Y-78075000I200000J0D01*
G01*
X110875000Y-78075000D01*
G75*
G02*
X111075000Y-78275000I0J-200000D01*
G01*
X111075000Y-78825000D01*
G75*
G02*
X110875000Y-79025000I-200000J0D01*
G01*
X110475000Y-79025000D01*
G75*
G02*
X110275000Y-78825000I0J200000D01*
G01*
G37*
G04 #@! TD*
G04 #@! TO.C,R3*
G36*
G01*
X113225000Y-97875000D02*
X113225000Y-97325000D01*
G75*
G02*
X113425000Y-97125000I200000J0D01*
G01*
X113825000Y-97125000D01*
G75*
G02*
X114025000Y-97325000I0J-200000D01*
G01*
X114025000Y-97875000D01*
G75*
G02*
X113825000Y-98075000I-200000J0D01*
G01*
X113425000Y-98075000D01*
G75*
G02*
X113225000Y-97875000I0J200000D01*
G01*
G37*
G36*
G01*
X111575000Y-97875000D02*
X111575000Y-97325000D01*
G75*
G02*
X111775000Y-97125000I200000J0D01*
G01*
X112175000Y-97125000D01*
G75*
G02*
X112375000Y-97325000I0J-200000D01*
G01*
X112375000Y-97875000D01*
G75*
G02*
X112175000Y-98075000I-200000J0D01*
G01*
X111775000Y-98075000D01*
G75*
G02*
X111575000Y-97875000I0J200000D01*
G01*
G37*
G04 #@! TD*
G04 #@! TO.C,R2*
G36*
G01*
X115575000Y-97975000D02*
X115025000Y-97975000D01*
G75*
G02*
X114825000Y-97775000I0J200000D01*
G01*
X114825000Y-97375000D01*
G75*
G02*
X115025000Y-97175000I200000J0D01*
G01*
X115575000Y-97175000D01*
G75*
G02*
X115775000Y-97375000I0J-200000D01*
G01*
X115775000Y-97775000D01*
G75*
G02*
X115575000Y-97975000I-200000J0D01*
G01*
G37*
G36*
G01*
X115575000Y-99625000D02*
X115025000Y-99625000D01*
G75*
G02*
X114825000Y-99425000I0J200000D01*
G01*
X114825000Y-99025000D01*
G75*
G02*
X115025000Y-98825000I200000J0D01*
G01*
X115575000Y-98825000D01*
G75*
G02*
X115775000Y-99025000I0J-200000D01*
G01*
X115775000Y-99425000D01*
G75*
G02*
X115575000Y-99625000I-200000J0D01*
G01*
G37*
G04 #@! TD*
G04 #@! TO.C,R1*
G36*
G01*
X168975000Y-116675000D02*
X168425000Y-116675000D01*
G75*
G02*
X168225000Y-116475000I0J200000D01*
G01*
X168225000Y-116075000D01*
G75*
G02*
X168425000Y-115875000I200000J0D01*
G01*
X168975000Y-115875000D01*
G75*
G02*
X169175000Y-116075000I0J-200000D01*
G01*
X169175000Y-116475000D01*
G75*
G02*
X168975000Y-116675000I-200000J0D01*
G01*
G37*
G36*
G01*
X168975000Y-118325000D02*
X168425000Y-118325000D01*
G75*
G02*
X168225000Y-118125000I0J200000D01*
G01*
X168225000Y-117725000D01*
G75*
G02*
X168425000Y-117525000I200000J0D01*
G01*
X168975000Y-117525000D01*
G75*
G02*
X169175000Y-117725000I0J-200000D01*
G01*
X169175000Y-118125000D01*
G75*
G02*
X168975000Y-118325000I-200000J0D01*
G01*
G37*
G04 #@! TD*
D24*
G04 #@! TO.C,Q3*
X135730000Y-88700000D03*
X133730000Y-89650000D03*
X133730000Y-87750000D03*
G04 #@! TD*
D25*
G04 #@! TO.C,Q2*
X117950000Y-57550000D03*
X117100000Y-57550000D03*
X118800000Y-57550000D03*
X117950000Y-59850000D03*
X117100000Y-59850000D03*
X118800000Y-59850000D03*
X118800000Y-58700000D03*
X117100000Y-58700000D03*
D26*
X120650000Y-56820000D03*
X120650000Y-60580000D03*
X120650000Y-58100000D03*
D27*
X114930000Y-58060000D03*
X114930000Y-56790000D03*
X114930000Y-59340000D03*
X114930000Y-60610000D03*
D26*
X120650000Y-59300000D03*
D25*
X117950000Y-58700000D03*
G04 #@! TD*
D28*
G04 #@! TO.C,D5*
X112500000Y-116100000D03*
X111550000Y-114100000D03*
X113450000Y-114100000D03*
G04 #@! TD*
D22*
G04 #@! TO.C,D3*
X112300000Y-111750000D03*
X112300000Y-108450000D03*
G04 #@! TD*
G04 #@! TO.C,D1*
G36*
G01*
X125175000Y-115975000D02*
X126425000Y-115975000D01*
G75*
G02*
X126675000Y-116225000I0J-250000D01*
G01*
X126675000Y-116975000D01*
G75*
G02*
X126425000Y-117225000I-250000J0D01*
G01*
X125175000Y-117225000D01*
G75*
G02*
X124925000Y-116975000I0J250000D01*
G01*
X124925000Y-116225000D01*
G75*
G02*
X125175000Y-115975000I250000J0D01*
G01*
G37*
G36*
G01*
X125175000Y-113175000D02*
X126425000Y-113175000D01*
G75*
G02*
X126675000Y-113425000I0J-250000D01*
G01*
X126675000Y-114175000D01*
G75*
G02*
X126425000Y-114425000I-250000J0D01*
G01*
X125175000Y-114425000D01*
G75*
G02*
X124925000Y-114175000I0J250000D01*
G01*
X124925000Y-113425000D01*
G75*
G02*
X125175000Y-113175000I250000J0D01*
G01*
G37*
G04 #@! TD*
G04 #@! TO.C,C30*
G36*
G01*
X121450000Y-82675000D02*
X120950000Y-82675000D01*
G75*
G02*
X120725000Y-82450000I0J225000D01*
G01*
X120725000Y-82000000D01*
G75*
G02*
X120950000Y-81775000I225000J0D01*
G01*
X121450000Y-81775000D01*
G75*
G02*
X121675000Y-82000000I0J-225000D01*
G01*
X121675000Y-82450000D01*
G75*
G02*
X121450000Y-82675000I-225000J0D01*
G01*
G37*
G36*
G01*
X121450000Y-84225000D02*
X120950000Y-84225000D01*
G75*
G02*
X120725000Y-84000000I0J225000D01*
G01*
X120725000Y-83550000D01*
G75*
G02*
X120950000Y-83325000I225000J0D01*
G01*
X121450000Y-83325000D01*
G75*
G02*
X121675000Y-83550000I0J-225000D01*
G01*
X121675000Y-84000000D01*
G75*
G02*
X121450000Y-84225000I-225000J0D01*
G01*
G37*
G04 #@! TD*
G04 #@! TO.C,C29*
G36*
G01*
X120475000Y-88950000D02*
X120475000Y-89450000D01*
G75*
G02*
X120250000Y-89675000I-225000J0D01*
G01*
X119800000Y-89675000D01*
G75*
G02*
X119575000Y-89450000I0J225000D01*
G01*
X119575000Y-88950000D01*
G75*
G02*
X119800000Y-88725000I225000J0D01*
G01*
X120250000Y-88725000D01*
G75*
G02*
X120475000Y-88950000I0J-225000D01*
G01*
G37*
G36*
G01*
X122025000Y-88950000D02*
X122025000Y-89450000D01*
G75*
G02*
X121800000Y-89675000I-225000J0D01*
G01*
X121350000Y-89675000D01*
G75*
G02*
X121125000Y-89450000I0J225000D01*
G01*
X121125000Y-88950000D01*
G75*
G02*
X121350000Y-88725000I225000J0D01*
G01*
X121800000Y-88725000D01*
G75*
G02*
X122025000Y-88950000I0J-225000D01*
G01*
G37*
G04 #@! TD*
G04 #@! TO.C,C28*
G36*
G01*
X120475000Y-94950000D02*
X120475000Y-95450000D01*
G75*
G02*
X120250000Y-95675000I-225000J0D01*
G01*
X119800000Y-95675000D01*
G75*
G02*
X119575000Y-95450000I0J225000D01*
G01*
X119575000Y-94950000D01*
G75*
G02*
X119800000Y-94725000I225000J0D01*
G01*
X120250000Y-94725000D01*
G75*
G02*
X120475000Y-94950000I0J-225000D01*
G01*
G37*
G36*
G01*
X122025000Y-94950000D02*
X122025000Y-95450000D01*
G75*
G02*
X121800000Y-95675000I-225000J0D01*
G01*
X121350000Y-95675000D01*
G75*
G02*
X121125000Y-95450000I0J225000D01*
G01*
X121125000Y-94950000D01*
G75*
G02*
X121350000Y-94725000I225000J0D01*
G01*
X121800000Y-94725000D01*
G75*
G02*
X122025000Y-94950000I0J-225000D01*
G01*
G37*
G04 #@! TD*
G04 #@! TO.C,C26*
G36*
G01*
X108975000Y-109150000D02*
X108975000Y-109650000D01*
G75*
G02*
X108750000Y-109875000I-225000J0D01*
G01*
X108300000Y-109875000D01*
G75*
G02*
X108075000Y-109650000I0J225000D01*
G01*
X108075000Y-109150000D01*
G75*
G02*
X108300000Y-108925000I225000J0D01*
G01*
X108750000Y-108925000D01*
G75*
G02*
X108975000Y-109150000I0J-225000D01*
G01*
G37*
G36*
G01*
X110525000Y-109150000D02*
X110525000Y-109650000D01*
G75*
G02*
X110300000Y-109875000I-225000J0D01*
G01*
X109850000Y-109875000D01*
G75*
G02*
X109625000Y-109650000I0J225000D01*
G01*
X109625000Y-109150000D01*
G75*
G02*
X109850000Y-108925000I225000J0D01*
G01*
X110300000Y-108925000D01*
G75*
G02*
X110525000Y-109150000I0J-225000D01*
G01*
G37*
G04 #@! TD*
G04 #@! TO.C,C25*
G36*
G01*
X104550000Y-105875000D02*
X104050000Y-105875000D01*
G75*
G02*
X103825000Y-105650000I0J225000D01*
G01*
X103825000Y-105200000D01*
G75*
G02*
X104050000Y-104975000I225000J0D01*
G01*
X104550000Y-104975000D01*
G75*
G02*
X104775000Y-105200000I0J-225000D01*
G01*
X104775000Y-105650000D01*
G75*
G02*
X104550000Y-105875000I-225000J0D01*
G01*
G37*
G36*
G01*
X104550000Y-107425000D02*
X104050000Y-107425000D01*
G75*
G02*
X103825000Y-107200000I0J225000D01*
G01*
X103825000Y-106750000D01*
G75*
G02*
X104050000Y-106525000I225000J0D01*
G01*
X104550000Y-106525000D01*
G75*
G02*
X104775000Y-106750000I0J-225000D01*
G01*
X104775000Y-107200000D01*
G75*
G02*
X104550000Y-107425000I-225000J0D01*
G01*
G37*
G04 #@! TD*
G04 #@! TO.C,C22*
G36*
G01*
X125575000Y-111150000D02*
X125575000Y-111650000D01*
G75*
G02*
X125350000Y-111875000I-225000J0D01*
G01*
X124900000Y-111875000D01*
G75*
G02*
X124675000Y-111650000I0J225000D01*
G01*
X124675000Y-111150000D01*
G75*
G02*
X124900000Y-110925000I225000J0D01*
G01*
X125350000Y-110925000D01*
G75*
G02*
X125575000Y-111150000I0J-225000D01*
G01*
G37*
G36*
G01*
X127125000Y-111150000D02*
X127125000Y-111650000D01*
G75*
G02*
X126900000Y-111875000I-225000J0D01*
G01*
X126450000Y-111875000D01*
G75*
G02*
X126225000Y-111650000I0J225000D01*
G01*
X126225000Y-111150000D01*
G75*
G02*
X126450000Y-110925000I225000J0D01*
G01*
X126900000Y-110925000D01*
G75*
G02*
X127125000Y-111150000I0J-225000D01*
G01*
G37*
G04 #@! TD*
G04 #@! TO.C,C20*
G36*
G01*
X137250000Y-84175000D02*
X136750000Y-84175000D01*
G75*
G02*
X136525000Y-83950000I0J225000D01*
G01*
X136525000Y-83500000D01*
G75*
G02*
X136750000Y-83275000I225000J0D01*
G01*
X137250000Y-83275000D01*
G75*
G02*
X137475000Y-83500000I0J-225000D01*
G01*
X137475000Y-83950000D01*
G75*
G02*
X137250000Y-84175000I-225000J0D01*
G01*
G37*
G36*
G01*
X137250000Y-85725000D02*
X136750000Y-85725000D01*
G75*
G02*
X136525000Y-85500000I0J225000D01*
G01*
X136525000Y-85050000D01*
G75*
G02*
X136750000Y-84825000I225000J0D01*
G01*
X137250000Y-84825000D01*
G75*
G02*
X137475000Y-85050000I0J-225000D01*
G01*
X137475000Y-85500000D01*
G75*
G02*
X137250000Y-85725000I-225000J0D01*
G01*
G37*
G04 #@! TD*
G04 #@! TO.C,C19*
G36*
G01*
X131725000Y-75850000D02*
X131725000Y-75350000D01*
G75*
G02*
X131950000Y-75125000I225000J0D01*
G01*
X132400000Y-75125000D01*
G75*
G02*
X132625000Y-75350000I0J-225000D01*
G01*
X132625000Y-75850000D01*
G75*
G02*
X132400000Y-76075000I-225000J0D01*
G01*
X131950000Y-76075000D01*
G75*
G02*
X131725000Y-75850000I0J225000D01*
G01*
G37*
G36*
G01*
X130175000Y-75850000D02*
X130175000Y-75350000D01*
G75*
G02*
X130400000Y-75125000I225000J0D01*
G01*
X130850000Y-75125000D01*
G75*
G02*
X131075000Y-75350000I0J-225000D01*
G01*
X131075000Y-75850000D01*
G75*
G02*
X130850000Y-76075000I-225000J0D01*
G01*
X130400000Y-76075000D01*
G75*
G02*
X130175000Y-75850000I0J225000D01*
G01*
G37*
G04 #@! TD*
G04 #@! TO.C,C17*
G36*
G01*
X169550000Y-79025000D02*
X170050000Y-79025000D01*
G75*
G02*
X170275000Y-79250000I0J-225000D01*
G01*
X170275000Y-79700000D01*
G75*
G02*
X170050000Y-79925000I-225000J0D01*
G01*
X169550000Y-79925000D01*
G75*
G02*
X169325000Y-79700000I0J225000D01*
G01*
X169325000Y-79250000D01*
G75*
G02*
X169550000Y-79025000I225000J0D01*
G01*
G37*
G36*
G01*
X169550000Y-77475000D02*
X170050000Y-77475000D01*
G75*
G02*
X170275000Y-77700000I0J-225000D01*
G01*
X170275000Y-78150000D01*
G75*
G02*
X170050000Y-78375000I-225000J0D01*
G01*
X169550000Y-78375000D01*
G75*
G02*
X169325000Y-78150000I0J225000D01*
G01*
X169325000Y-77700000D01*
G75*
G02*
X169550000Y-77475000I225000J0D01*
G01*
G37*
G04 #@! TD*
G04 #@! TO.C,C16*
G36*
G01*
X168925000Y-113850000D02*
X168925000Y-113350000D01*
G75*
G02*
X169150000Y-113125000I225000J0D01*
G01*
X169600000Y-113125000D01*
G75*
G02*
X169825000Y-113350000I0J-225000D01*
G01*
X169825000Y-113850000D01*
G75*
G02*
X169600000Y-114075000I-225000J0D01*
G01*
X169150000Y-114075000D01*
G75*
G02*
X168925000Y-113850000I0J225000D01*
G01*
G37*
G36*
G01*
X167375000Y-113850000D02*
X167375000Y-113350000D01*
G75*
G02*
X167600000Y-113125000I225000J0D01*
G01*
X168050000Y-113125000D01*
G75*
G02*
X168275000Y-113350000I0J-225000D01*
G01*
X168275000Y-113850000D01*
G75*
G02*
X168050000Y-114075000I-225000J0D01*
G01*
X167600000Y-114075000D01*
G75*
G02*
X167375000Y-113850000I0J225000D01*
G01*
G37*
G04 #@! TD*
G04 #@! TO.C,C15*
G36*
G01*
X168925000Y-112250000D02*
X168925000Y-111750000D01*
G75*
G02*
X169150000Y-111525000I225000J0D01*
G01*
X169600000Y-111525000D01*
G75*
G02*
X169825000Y-111750000I0J-225000D01*
G01*
X169825000Y-112250000D01*
G75*
G02*
X169600000Y-112475000I-225000J0D01*
G01*
X169150000Y-112475000D01*
G75*
G02*
X168925000Y-112250000I0J225000D01*
G01*
G37*
G36*
G01*
X167375000Y-112250000D02*
X167375000Y-111750000D01*
G75*
G02*
X167600000Y-111525000I225000J0D01*
G01*
X168050000Y-111525000D01*
G75*
G02*
X168275000Y-111750000I0J-225000D01*
G01*
X168275000Y-112250000D01*
G75*
G02*
X168050000Y-112475000I-225000J0D01*
G01*
X167600000Y-112475000D01*
G75*
G02*
X167375000Y-112250000I0J225000D01*
G01*
G37*
G04 #@! TD*
G04 #@! TO.C,C1*
G36*
G01*
X166850000Y-117425000D02*
X167350000Y-117425000D01*
G75*
G02*
X167575000Y-117650000I0J-225000D01*
G01*
X167575000Y-118100000D01*
G75*
G02*
X167350000Y-118325000I-225000J0D01*
G01*
X166850000Y-118325000D01*
G75*
G02*
X166625000Y-118100000I0J225000D01*
G01*
X166625000Y-117650000D01*
G75*
G02*
X166850000Y-117425000I225000J0D01*
G01*
G37*
G36*
G01*
X166850000Y-115875000D02*
X167350000Y-115875000D01*
G75*
G02*
X167575000Y-116100000I0J-225000D01*
G01*
X167575000Y-116550000D01*
G75*
G02*
X167350000Y-116775000I-225000J0D01*
G01*
X166850000Y-116775000D01*
G75*
G02*
X166625000Y-116550000I0J225000D01*
G01*
X166625000Y-116100000D01*
G75*
G02*
X166850000Y-115875000I225000J0D01*
G01*
G37*
G04 #@! TD*
M02*
