G04 #@! TF.GenerationSoftware,KiCad,Pcbnew,5.1.7-a382d34a8~87~ubuntu18.04.1*
G04 #@! TF.CreationDate,2021-02-18T22:44:55+00:00*
G04 #@! TF.ProjectId,Laser-Driver-v3,4c617365-722d-4447-9269-7665722d7633,rev?*
G04 #@! TF.SameCoordinates,Original*
G04 #@! TF.FileFunction,Copper,L1,Top*
G04 #@! TF.FilePolarity,Positive*
%FSLAX46Y46*%
G04 Gerber Fmt 4.6, Leading zero omitted, Abs format (unit mm)*
G04 Created by KiCad (PCBNEW 5.1.7-a382d34a8~87~ubuntu18.04.1) date 2021-02-18 22:44:55*
%MOMM*%
%LPD*%
G01*
G04 APERTURE LIST*
G04 #@! TA.AperFunction,ComponentPad*
%ADD10C,7.000000*%
G04 #@! TD*
G04 #@! TA.AperFunction,SMDPad,CuDef*
%ADD11R,1.300000X1.300000*%
G04 #@! TD*
G04 #@! TA.AperFunction,SMDPad,CuDef*
%ADD12R,1.300000X2.000000*%
G04 #@! TD*
G04 #@! TA.AperFunction,ComponentPad*
%ADD13C,0.800000*%
G04 #@! TD*
G04 #@! TA.AperFunction,ComponentPad*
%ADD14C,6.400000*%
G04 #@! TD*
G04 #@! TA.AperFunction,SMDPad,CuDef*
%ADD15R,1.100000X1.100000*%
G04 #@! TD*
G04 #@! TA.AperFunction,SMDPad,CuDef*
%ADD16R,1.200000X3.900000*%
G04 #@! TD*
G04 #@! TA.AperFunction,SMDPad,CuDef*
%ADD17R,1.500000X4.200000*%
G04 #@! TD*
G04 #@! TA.AperFunction,SMDPad,CuDef*
%ADD18R,4.200000X1.500000*%
G04 #@! TD*
G04 #@! TA.AperFunction,ComponentPad*
%ADD19C,1.404000*%
G04 #@! TD*
G04 #@! TA.AperFunction,ComponentPad*
%ADD20C,1.304000*%
G04 #@! TD*
G04 #@! TA.AperFunction,ComponentPad*
%ADD21C,0.804000*%
G04 #@! TD*
G04 #@! TA.AperFunction,SMDPad,CuDef*
%ADD22R,3.200000X15.200000*%
G04 #@! TD*
G04 #@! TA.AperFunction,ComponentPad*
%ADD23R,2.000000X2.600000*%
G04 #@! TD*
G04 #@! TA.AperFunction,SMDPad,CuDef*
%ADD24R,0.300000X1.600000*%
G04 #@! TD*
G04 #@! TA.AperFunction,SMDPad,CuDef*
%ADD25R,0.400000X0.650000*%
G04 #@! TD*
G04 #@! TA.AperFunction,SMDPad,CuDef*
%ADD26R,0.650000X1.560000*%
G04 #@! TD*
G04 #@! TA.AperFunction,SMDPad,CuDef*
%ADD27R,3.000000X2.290000*%
G04 #@! TD*
G04 #@! TA.AperFunction,SMDPad,CuDef*
%ADD28R,1.600000X1.400000*%
G04 #@! TD*
G04 #@! TA.AperFunction,ComponentPad*
%ADD29R,1.800000X4.400000*%
G04 #@! TD*
G04 #@! TA.AperFunction,ComponentPad*
%ADD30O,1.800000X4.000000*%
G04 #@! TD*
G04 #@! TA.AperFunction,ComponentPad*
%ADD31O,4.000000X1.800000*%
G04 #@! TD*
G04 #@! TA.AperFunction,SMDPad,CuDef*
%ADD32R,0.650000X1.060000*%
G04 #@! TD*
G04 #@! TA.AperFunction,SMDPad,CuDef*
%ADD33R,1.200000X0.900000*%
G04 #@! TD*
G04 #@! TA.AperFunction,SMDPad,CuDef*
%ADD34R,1.220000X0.650000*%
G04 #@! TD*
G04 #@! TA.AperFunction,SMDPad,CuDef*
%ADD35R,0.900000X0.800000*%
G04 #@! TD*
G04 #@! TA.AperFunction,SMDPad,CuDef*
%ADD36R,1.150000X0.700000*%
G04 #@! TD*
G04 #@! TA.AperFunction,SMDPad,CuDef*
%ADD37C,0.100000*%
G04 #@! TD*
G04 #@! TA.AperFunction,ComponentPad*
%ADD38O,2.500000X4.500000*%
G04 #@! TD*
G04 #@! TA.AperFunction,ComponentPad*
%ADD39R,2.500000X4.500000*%
G04 #@! TD*
G04 #@! TA.AperFunction,ComponentPad*
%ADD40C,3.000000*%
G04 #@! TD*
G04 #@! TA.AperFunction,ComponentPad*
%ADD41R,3.000000X3.000000*%
G04 #@! TD*
G04 #@! TA.AperFunction,SMDPad,CuDef*
%ADD42R,0.800000X0.900000*%
G04 #@! TD*
G04 #@! TA.AperFunction,ViaPad*
%ADD43C,0.800000*%
G04 #@! TD*
G04 #@! TA.AperFunction,Conductor*
%ADD44C,0.400000*%
G04 #@! TD*
G04 #@! TA.AperFunction,Conductor*
%ADD45C,0.200000*%
G04 #@! TD*
G04 #@! TA.AperFunction,Conductor*
%ADD46C,0.600000*%
G04 #@! TD*
G04 #@! TA.AperFunction,Conductor*
%ADD47C,1.000000*%
G04 #@! TD*
G04 #@! TA.AperFunction,Conductor*
%ADD48C,0.300000*%
G04 #@! TD*
G04 #@! TA.AperFunction,Conductor*
%ADD49C,0.800000*%
G04 #@! TD*
G04 #@! TA.AperFunction,Conductor*
%ADD50C,0.250000*%
G04 #@! TD*
G04 #@! TA.AperFunction,Conductor*
%ADD51C,1.400000*%
G04 #@! TD*
G04 #@! TA.AperFunction,Conductor*
%ADD52C,0.254000*%
G04 #@! TD*
G04 #@! TA.AperFunction,Conductor*
%ADD53C,0.100000*%
G04 #@! TD*
G04 APERTURE END LIST*
D10*
G04 #@! TO.P,HS1,1*
G04 #@! TO.N,N/C*
X111400000Y-73100000D03*
X158600000Y-73100000D03*
G04 #@! TO.N,Earth*
X158600000Y-46900000D03*
X111400000Y-46900000D03*
G04 #@! TD*
G04 #@! TO.P,R37,2*
G04 #@! TO.N,Earth*
G04 #@! TA.AperFunction,SMDPad,CuDef*
G36*
G01*
X175525000Y-77275000D02*
X175525000Y-76725000D01*
G75*
G02*
X175725000Y-76525000I200000J0D01*
G01*
X176125000Y-76525000D01*
G75*
G02*
X176325000Y-76725000I0J-200000D01*
G01*
X176325000Y-77275000D01*
G75*
G02*
X176125000Y-77475000I-200000J0D01*
G01*
X175725000Y-77475000D01*
G75*
G02*
X175525000Y-77275000I0J200000D01*
G01*
G37*
G04 #@! TD.AperFunction*
G04 #@! TO.P,R37,1*
G04 #@! TO.N,GND*
G04 #@! TA.AperFunction,SMDPad,CuDef*
G36*
G01*
X173875000Y-77275000D02*
X173875000Y-76725000D01*
G75*
G02*
X174075000Y-76525000I200000J0D01*
G01*
X174475000Y-76525000D01*
G75*
G02*
X174675000Y-76725000I0J-200000D01*
G01*
X174675000Y-77275000D01*
G75*
G02*
X174475000Y-77475000I-200000J0D01*
G01*
X174075000Y-77475000D01*
G75*
G02*
X173875000Y-77275000I0J200000D01*
G01*
G37*
G04 #@! TD.AperFunction*
G04 #@! TD*
G04 #@! TO.P,C9,2*
G04 #@! TO.N,Earth*
G04 #@! TA.AperFunction,SMDPad,CuDef*
G36*
G01*
X175325000Y-75550000D02*
X175325000Y-75050000D01*
G75*
G02*
X175550000Y-74825000I225000J0D01*
G01*
X176000000Y-74825000D01*
G75*
G02*
X176225000Y-75050000I0J-225000D01*
G01*
X176225000Y-75550000D01*
G75*
G02*
X176000000Y-75775000I-225000J0D01*
G01*
X175550000Y-75775000D01*
G75*
G02*
X175325000Y-75550000I0J225000D01*
G01*
G37*
G04 #@! TD.AperFunction*
G04 #@! TO.P,C9,1*
G04 #@! TO.N,GND*
G04 #@! TA.AperFunction,SMDPad,CuDef*
G36*
G01*
X173775000Y-75550000D02*
X173775000Y-75050000D01*
G75*
G02*
X174000000Y-74825000I225000J0D01*
G01*
X174450000Y-74825000D01*
G75*
G02*
X174675000Y-75050000I0J-225000D01*
G01*
X174675000Y-75550000D01*
G75*
G02*
X174450000Y-75775000I-225000J0D01*
G01*
X174000000Y-75775000D01*
G75*
G02*
X173775000Y-75550000I0J225000D01*
G01*
G37*
G04 #@! TD.AperFunction*
G04 #@! TD*
G04 #@! TO.P,C8,2*
G04 #@! TO.N,+3V3*
G04 #@! TA.AperFunction,SMDPad,CuDef*
G36*
G01*
X163925000Y-80000000D02*
X163925000Y-79500000D01*
G75*
G02*
X164150000Y-79275000I225000J0D01*
G01*
X164600000Y-79275000D01*
G75*
G02*
X164825000Y-79500000I0J-225000D01*
G01*
X164825000Y-80000000D01*
G75*
G02*
X164600000Y-80225000I-225000J0D01*
G01*
X164150000Y-80225000D01*
G75*
G02*
X163925000Y-80000000I0J225000D01*
G01*
G37*
G04 #@! TD.AperFunction*
G04 #@! TO.P,C8,1*
G04 #@! TO.N,GND*
G04 #@! TA.AperFunction,SMDPad,CuDef*
G36*
G01*
X162375000Y-80000000D02*
X162375000Y-79500000D01*
G75*
G02*
X162600000Y-79275000I225000J0D01*
G01*
X163050000Y-79275000D01*
G75*
G02*
X163275000Y-79500000I0J-225000D01*
G01*
X163275000Y-80000000D01*
G75*
G02*
X163050000Y-80225000I-225000J0D01*
G01*
X162600000Y-80225000D01*
G75*
G02*
X162375000Y-80000000I0J225000D01*
G01*
G37*
G04 #@! TD.AperFunction*
G04 #@! TD*
G04 #@! TO.P,C7,2*
G04 #@! TO.N,+3V3*
G04 #@! TA.AperFunction,SMDPad,CuDef*
G36*
G01*
X160150000Y-81975000D02*
X159650000Y-81975000D01*
G75*
G02*
X159425000Y-81750000I0J225000D01*
G01*
X159425000Y-81300000D01*
G75*
G02*
X159650000Y-81075000I225000J0D01*
G01*
X160150000Y-81075000D01*
G75*
G02*
X160375000Y-81300000I0J-225000D01*
G01*
X160375000Y-81750000D01*
G75*
G02*
X160150000Y-81975000I-225000J0D01*
G01*
G37*
G04 #@! TD.AperFunction*
G04 #@! TO.P,C7,1*
G04 #@! TO.N,GND*
G04 #@! TA.AperFunction,SMDPad,CuDef*
G36*
G01*
X160150000Y-83525000D02*
X159650000Y-83525000D01*
G75*
G02*
X159425000Y-83300000I0J225000D01*
G01*
X159425000Y-82850000D01*
G75*
G02*
X159650000Y-82625000I225000J0D01*
G01*
X160150000Y-82625000D01*
G75*
G02*
X160375000Y-82850000I0J-225000D01*
G01*
X160375000Y-83300000D01*
G75*
G02*
X160150000Y-83525000I-225000J0D01*
G01*
G37*
G04 #@! TD.AperFunction*
G04 #@! TD*
G04 #@! TO.P,R36,2*
G04 #@! TO.N,Net-(R36-Pad2)*
G04 #@! TA.AperFunction,SMDPad,CuDef*
G36*
G01*
X132375000Y-113075000D02*
X131825000Y-113075000D01*
G75*
G02*
X131625000Y-112875000I0J200000D01*
G01*
X131625000Y-112475000D01*
G75*
G02*
X131825000Y-112275000I200000J0D01*
G01*
X132375000Y-112275000D01*
G75*
G02*
X132575000Y-112475000I0J-200000D01*
G01*
X132575000Y-112875000D01*
G75*
G02*
X132375000Y-113075000I-200000J0D01*
G01*
G37*
G04 #@! TD.AperFunction*
G04 #@! TO.P,R36,1*
G04 #@! TO.N,Net-(D8-Pad2)*
G04 #@! TA.AperFunction,SMDPad,CuDef*
G36*
G01*
X132375000Y-114725000D02*
X131825000Y-114725000D01*
G75*
G02*
X131625000Y-114525000I0J200000D01*
G01*
X131625000Y-114125000D01*
G75*
G02*
X131825000Y-113925000I200000J0D01*
G01*
X132375000Y-113925000D01*
G75*
G02*
X132575000Y-114125000I0J-200000D01*
G01*
X132575000Y-114525000D01*
G75*
G02*
X132375000Y-114725000I-200000J0D01*
G01*
G37*
G04 #@! TD.AperFunction*
G04 #@! TD*
G04 #@! TO.P,D8,2*
G04 #@! TO.N,Net-(D8-Pad2)*
G04 #@! TA.AperFunction,SMDPad,CuDef*
G36*
G01*
X132356250Y-116450000D02*
X131843750Y-116450000D01*
G75*
G02*
X131625000Y-116231250I0J218750D01*
G01*
X131625000Y-115793750D01*
G75*
G02*
X131843750Y-115575000I218750J0D01*
G01*
X132356250Y-115575000D01*
G75*
G02*
X132575000Y-115793750I0J-218750D01*
G01*
X132575000Y-116231250D01*
G75*
G02*
X132356250Y-116450000I-218750J0D01*
G01*
G37*
G04 #@! TD.AperFunction*
G04 #@! TO.P,D8,1*
G04 #@! TO.N,GND*
G04 #@! TA.AperFunction,SMDPad,CuDef*
G36*
G01*
X132356250Y-118025000D02*
X131843750Y-118025000D01*
G75*
G02*
X131625000Y-117806250I0J218750D01*
G01*
X131625000Y-117368750D01*
G75*
G02*
X131843750Y-117150000I218750J0D01*
G01*
X132356250Y-117150000D01*
G75*
G02*
X132575000Y-117368750I0J-218750D01*
G01*
X132575000Y-117806250D01*
G75*
G02*
X132356250Y-118025000I-218750J0D01*
G01*
G37*
G04 #@! TD.AperFunction*
G04 #@! TD*
G04 #@! TO.P,D6,2*
G04 #@! TO.N,Net-(D6-Pad2)*
G04 #@! TA.AperFunction,SMDPad,CuDef*
G36*
G01*
X134356250Y-116450000D02*
X133843750Y-116450000D01*
G75*
G02*
X133625000Y-116231250I0J218750D01*
G01*
X133625000Y-115793750D01*
G75*
G02*
X133843750Y-115575000I218750J0D01*
G01*
X134356250Y-115575000D01*
G75*
G02*
X134575000Y-115793750I0J-218750D01*
G01*
X134575000Y-116231250D01*
G75*
G02*
X134356250Y-116450000I-218750J0D01*
G01*
G37*
G04 #@! TD.AperFunction*
G04 #@! TO.P,D6,1*
G04 #@! TO.N,GND*
G04 #@! TA.AperFunction,SMDPad,CuDef*
G36*
G01*
X134356250Y-118025000D02*
X133843750Y-118025000D01*
G75*
G02*
X133625000Y-117806250I0J218750D01*
G01*
X133625000Y-117368750D01*
G75*
G02*
X133843750Y-117150000I218750J0D01*
G01*
X134356250Y-117150000D01*
G75*
G02*
X134575000Y-117368750I0J-218750D01*
G01*
X134575000Y-117806250D01*
G75*
G02*
X134356250Y-118025000I-218750J0D01*
G01*
G37*
G04 #@! TD.AperFunction*
G04 #@! TD*
G04 #@! TO.P,C6,2*
G04 #@! TO.N,+3V3*
G04 #@! TA.AperFunction,SMDPad,CuDef*
G36*
G01*
X110450000Y-89675000D02*
X109950000Y-89675000D01*
G75*
G02*
X109725000Y-89450000I0J225000D01*
G01*
X109725000Y-89000000D01*
G75*
G02*
X109950000Y-88775000I225000J0D01*
G01*
X110450000Y-88775000D01*
G75*
G02*
X110675000Y-89000000I0J-225000D01*
G01*
X110675000Y-89450000D01*
G75*
G02*
X110450000Y-89675000I-225000J0D01*
G01*
G37*
G04 #@! TD.AperFunction*
G04 #@! TO.P,C6,1*
G04 #@! TO.N,GND*
G04 #@! TA.AperFunction,SMDPad,CuDef*
G36*
G01*
X110450000Y-91225000D02*
X109950000Y-91225000D01*
G75*
G02*
X109725000Y-91000000I0J225000D01*
G01*
X109725000Y-90550000D01*
G75*
G02*
X109950000Y-90325000I225000J0D01*
G01*
X110450000Y-90325000D01*
G75*
G02*
X110675000Y-90550000I0J-225000D01*
G01*
X110675000Y-91000000D01*
G75*
G02*
X110450000Y-91225000I-225000J0D01*
G01*
G37*
G04 #@! TD.AperFunction*
G04 #@! TD*
D11*
G04 #@! TO.P,RV1,3*
G04 #@! TO.N,GND*
X125550000Y-98050000D03*
D12*
G04 #@! TO.P,RV1,2*
G04 #@! TO.N,/Overcurrent Protection/Vref*
X120050000Y-99200000D03*
D11*
G04 #@! TO.P,RV1,1*
G04 #@! TO.N,Net-(R29-Pad1)*
X125550000Y-100350000D03*
G04 #@! TD*
D13*
G04 #@! TO.P,H4,1*
G04 #@! TO.N,Earth*
X96697056Y-43302944D03*
X95000000Y-42600000D03*
X93302944Y-43302944D03*
X92600000Y-45000000D03*
X93302944Y-46697056D03*
X95000000Y-47400000D03*
X96697056Y-46697056D03*
X97400000Y-45000000D03*
D14*
X95000000Y-45000000D03*
G04 #@! TD*
D13*
G04 #@! TO.P,H3,1*
G04 #@! TO.N,Earth*
X176697056Y-43302944D03*
X175000000Y-42600000D03*
X173302944Y-43302944D03*
X172600000Y-45000000D03*
X173302944Y-46697056D03*
X175000000Y-47400000D03*
X176697056Y-46697056D03*
X177400000Y-45000000D03*
D14*
X175000000Y-45000000D03*
G04 #@! TD*
D13*
G04 #@! TO.P,H2,1*
G04 #@! TO.N,Earth*
X96697056Y-113302944D03*
X95000000Y-112600000D03*
X93302944Y-113302944D03*
X92600000Y-115000000D03*
X93302944Y-116697056D03*
X95000000Y-117400000D03*
X96697056Y-116697056D03*
X97400000Y-115000000D03*
D14*
X95000000Y-115000000D03*
G04 #@! TD*
D13*
G04 #@! TO.P,H1,1*
G04 #@! TO.N,Earth*
X176697056Y-113302944D03*
X175000000Y-112600000D03*
X173302944Y-113302944D03*
X172600000Y-115000000D03*
X173302944Y-116697056D03*
X175000000Y-117400000D03*
X176697056Y-116697056D03*
X177400000Y-115000000D03*
D14*
X175000000Y-115000000D03*
G04 #@! TD*
D15*
G04 #@! TO.P,D4,2*
G04 #@! TO.N,GND*
X103700000Y-109400000D03*
G04 #@! TO.P,D4,1*
G04 #@! TO.N,Net-(C26-Pad2)*
X106500000Y-109400000D03*
G04 #@! TD*
G04 #@! TO.P,D2,2*
G04 #@! TO.N,GND*
X120500000Y-111500000D03*
G04 #@! TO.P,D2,1*
G04 #@! TO.N,Net-(C22-Pad2)*
X123300000Y-111500000D03*
G04 #@! TD*
D16*
G04 #@! TO.P,L1,2*
G04 #@! TO.N,Net-(C22-Pad2)*
X123300000Y-115300000D03*
G04 #@! TO.P,L1,1*
G04 #@! TO.N,+5V*
X120500000Y-115300000D03*
G04 #@! TD*
D17*
G04 #@! TO.P,L2,2*
G04 #@! TO.N,Net-(C26-Pad2)*
X108900000Y-113600000D03*
G04 #@! TO.P,L2,1*
G04 #@! TO.N,+9V*
X105300000Y-113600000D03*
G04 #@! TD*
G04 #@! TO.P,L4,2*
G04 #@! TO.N,Net-(C2-Pad2)*
X97000000Y-100400000D03*
G04 #@! TO.P,L4,1*
G04 #@! TO.N,-3V3*
X100600000Y-100400000D03*
G04 #@! TD*
D18*
G04 #@! TO.P,L3,2*
G04 #@! TO.N,+12V*
X95200000Y-91600000D03*
G04 #@! TO.P,L3,1*
G04 #@! TO.N,Net-(C2-Pad1)*
X95200000Y-95200000D03*
G04 #@! TD*
G04 #@! TO.P,C21,2*
G04 #@! TO.N,GND*
G04 #@! TA.AperFunction,SMDPad,CuDef*
G36*
G01*
X119725000Y-108550000D02*
X120675000Y-108550000D01*
G75*
G02*
X120925000Y-108800000I0J-250000D01*
G01*
X120925000Y-109300000D01*
G75*
G02*
X120675000Y-109550000I-250000J0D01*
G01*
X119725000Y-109550000D01*
G75*
G02*
X119475000Y-109300000I0J250000D01*
G01*
X119475000Y-108800000D01*
G75*
G02*
X119725000Y-108550000I250000J0D01*
G01*
G37*
G04 #@! TD.AperFunction*
G04 #@! TO.P,C21,1*
G04 #@! TO.N,+12V*
G04 #@! TA.AperFunction,SMDPad,CuDef*
G36*
G01*
X119725000Y-106650000D02*
X120675000Y-106650000D01*
G75*
G02*
X120925000Y-106900000I0J-250000D01*
G01*
X120925000Y-107400000D01*
G75*
G02*
X120675000Y-107650000I-250000J0D01*
G01*
X119725000Y-107650000D01*
G75*
G02*
X119475000Y-107400000I0J250000D01*
G01*
X119475000Y-106900000D01*
G75*
G02*
X119725000Y-106650000I250000J0D01*
G01*
G37*
G04 #@! TD.AperFunction*
G04 #@! TD*
G04 #@! TO.P,C27,2*
G04 #@! TO.N,GND*
G04 #@! TA.AperFunction,SMDPad,CuDef*
G36*
G01*
X101650000Y-111725000D02*
X101650000Y-112675000D01*
G75*
G02*
X101400000Y-112925000I-250000J0D01*
G01*
X100900000Y-112925000D01*
G75*
G02*
X100650000Y-112675000I0J250000D01*
G01*
X100650000Y-111725000D01*
G75*
G02*
X100900000Y-111475000I250000J0D01*
G01*
X101400000Y-111475000D01*
G75*
G02*
X101650000Y-111725000I0J-250000D01*
G01*
G37*
G04 #@! TD.AperFunction*
G04 #@! TO.P,C27,1*
G04 #@! TO.N,+9V*
G04 #@! TA.AperFunction,SMDPad,CuDef*
G36*
G01*
X103550000Y-111725000D02*
X103550000Y-112675000D01*
G75*
G02*
X103300000Y-112925000I-250000J0D01*
G01*
X102800000Y-112925000D01*
G75*
G02*
X102550000Y-112675000I0J250000D01*
G01*
X102550000Y-111725000D01*
G75*
G02*
X102800000Y-111475000I250000J0D01*
G01*
X103300000Y-111475000D01*
G75*
G02*
X103550000Y-111725000I0J-250000D01*
G01*
G37*
G04 #@! TD.AperFunction*
G04 #@! TD*
G04 #@! TO.P,C23,2*
G04 #@! TO.N,GND*
G04 #@! TA.AperFunction,SMDPad,CuDef*
G36*
G01*
X118550001Y-114200000D02*
X117249999Y-114200000D01*
G75*
G02*
X117000000Y-113950001I0J249999D01*
G01*
X117000000Y-113299999D01*
G75*
G02*
X117249999Y-113050000I249999J0D01*
G01*
X118550001Y-113050000D01*
G75*
G02*
X118800000Y-113299999I0J-249999D01*
G01*
X118800000Y-113950001D01*
G75*
G02*
X118550001Y-114200000I-249999J0D01*
G01*
G37*
G04 #@! TD.AperFunction*
G04 #@! TO.P,C23,1*
G04 #@! TO.N,+5V*
G04 #@! TA.AperFunction,SMDPad,CuDef*
G36*
G01*
X118550001Y-117150000D02*
X117249999Y-117150000D01*
G75*
G02*
X117000000Y-116900001I0J249999D01*
G01*
X117000000Y-116249999D01*
G75*
G02*
X117249999Y-116000000I249999J0D01*
G01*
X118550001Y-116000000D01*
G75*
G02*
X118800000Y-116249999I0J-249999D01*
G01*
X118800000Y-116900001D01*
G75*
G02*
X118550001Y-117150000I-249999J0D01*
G01*
G37*
G04 #@! TD.AperFunction*
G04 #@! TD*
G04 #@! TO.P,C5,2*
G04 #@! TO.N,-3V3*
G04 #@! TA.AperFunction,SMDPad,CuDef*
G36*
G01*
X103500000Y-98649999D02*
X103500000Y-99950001D01*
G75*
G02*
X103250001Y-100200000I-249999J0D01*
G01*
X102599999Y-100200000D01*
G75*
G02*
X102350000Y-99950001I0J249999D01*
G01*
X102350000Y-98649999D01*
G75*
G02*
X102599999Y-98400000I249999J0D01*
G01*
X103250001Y-98400000D01*
G75*
G02*
X103500000Y-98649999I0J-249999D01*
G01*
G37*
G04 #@! TD.AperFunction*
G04 #@! TO.P,C5,1*
G04 #@! TO.N,GND*
G04 #@! TA.AperFunction,SMDPad,CuDef*
G36*
G01*
X106450000Y-98649999D02*
X106450000Y-99950001D01*
G75*
G02*
X106200001Y-100200000I-249999J0D01*
G01*
X105549999Y-100200000D01*
G75*
G02*
X105300000Y-99950001I0J249999D01*
G01*
X105300000Y-98649999D01*
G75*
G02*
X105549999Y-98400000I249999J0D01*
G01*
X106200001Y-98400000D01*
G75*
G02*
X106450000Y-98649999I0J-249999D01*
G01*
G37*
G04 #@! TD.AperFunction*
G04 #@! TD*
G04 #@! TO.P,C3,2*
G04 #@! TO.N,+12V*
G04 #@! TA.AperFunction,SMDPad,CuDef*
G36*
G01*
X99700000Y-90949999D02*
X99700000Y-92250001D01*
G75*
G02*
X99450001Y-92500000I-249999J0D01*
G01*
X98799999Y-92500000D01*
G75*
G02*
X98550000Y-92250001I0J249999D01*
G01*
X98550000Y-90949999D01*
G75*
G02*
X98799999Y-90700000I249999J0D01*
G01*
X99450001Y-90700000D01*
G75*
G02*
X99700000Y-90949999I0J-249999D01*
G01*
G37*
G04 #@! TD.AperFunction*
G04 #@! TO.P,C3,1*
G04 #@! TO.N,GND*
G04 #@! TA.AperFunction,SMDPad,CuDef*
G36*
G01*
X102650000Y-90949999D02*
X102650000Y-92250001D01*
G75*
G02*
X102400001Y-92500000I-249999J0D01*
G01*
X101749999Y-92500000D01*
G75*
G02*
X101500000Y-92250001I0J249999D01*
G01*
X101500000Y-90949999D01*
G75*
G02*
X101749999Y-90700000I249999J0D01*
G01*
X102400001Y-90700000D01*
G75*
G02*
X102650000Y-90949999I0J-249999D01*
G01*
G37*
G04 #@! TD.AperFunction*
G04 #@! TD*
G04 #@! TO.P,R35,2*
G04 #@! TO.N,Net-(R35-Pad2)*
G04 #@! TA.AperFunction,SMDPad,CuDef*
G36*
G01*
X135225000Y-92975000D02*
X135225000Y-92425000D01*
G75*
G02*
X135425000Y-92225000I200000J0D01*
G01*
X135825000Y-92225000D01*
G75*
G02*
X136025000Y-92425000I0J-200000D01*
G01*
X136025000Y-92975000D01*
G75*
G02*
X135825000Y-93175000I-200000J0D01*
G01*
X135425000Y-93175000D01*
G75*
G02*
X135225000Y-92975000I0J200000D01*
G01*
G37*
G04 #@! TD.AperFunction*
G04 #@! TO.P,R35,1*
G04 #@! TO.N,/Teensy/ADC-SHUNT*
G04 #@! TA.AperFunction,SMDPad,CuDef*
G36*
G01*
X133575000Y-92975000D02*
X133575000Y-92425000D01*
G75*
G02*
X133775000Y-92225000I200000J0D01*
G01*
X134175000Y-92225000D01*
G75*
G02*
X134375000Y-92425000I0J-200000D01*
G01*
X134375000Y-92975000D01*
G75*
G02*
X134175000Y-93175000I-200000J0D01*
G01*
X133775000Y-93175000D01*
G75*
G02*
X133575000Y-92975000I0J200000D01*
G01*
G37*
G04 #@! TD.AperFunction*
G04 #@! TD*
G04 #@! TO.P,R9,2*
G04 #@! TO.N,Net-(R9-Pad2)*
G04 #@! TA.AperFunction,SMDPad,CuDef*
G36*
G01*
X135225000Y-94575000D02*
X135225000Y-94025000D01*
G75*
G02*
X135425000Y-93825000I200000J0D01*
G01*
X135825000Y-93825000D01*
G75*
G02*
X136025000Y-94025000I0J-200000D01*
G01*
X136025000Y-94575000D01*
G75*
G02*
X135825000Y-94775000I-200000J0D01*
G01*
X135425000Y-94775000D01*
G75*
G02*
X135225000Y-94575000I0J200000D01*
G01*
G37*
G04 #@! TD.AperFunction*
G04 #@! TO.P,R9,1*
G04 #@! TO.N,/Teensy/ADC-SHUNT*
G04 #@! TA.AperFunction,SMDPad,CuDef*
G36*
G01*
X133575000Y-94575000D02*
X133575000Y-94025000D01*
G75*
G02*
X133775000Y-93825000I200000J0D01*
G01*
X134175000Y-93825000D01*
G75*
G02*
X134375000Y-94025000I0J-200000D01*
G01*
X134375000Y-94575000D01*
G75*
G02*
X134175000Y-94775000I-200000J0D01*
G01*
X133775000Y-94775000D01*
G75*
G02*
X133575000Y-94575000I0J200000D01*
G01*
G37*
G04 #@! TD.AperFunction*
G04 #@! TD*
D19*
G04 #@! TO.P,U2,1*
G04 #@! TO.N,GND*
X176410000Y-93530000D03*
G04 #@! TO.P,U2,2*
G04 #@! TO.N,/Output Stage/DAC-D0*
X173870000Y-93530000D03*
D20*
G04 #@! TO.P,U2,35*
G04 #@! TO.N,/Teensy/TempSense*
X148470000Y-106230000D03*
G04 #@! TO.P,U2,36*
G04 #@! TO.N,/Overcurrent Protection/OCControl*
X151010000Y-106230000D03*
G04 #@! TO.P,U2,37*
G04 #@! TO.N,/Overcurrent Protection/OCStatus*
X148470000Y-103690000D03*
G04 #@! TO.P,U2,38*
G04 #@! TO.N,Net-(R9-Pad2)*
X151010000Y-103690000D03*
G04 #@! TO.P,U2,39*
G04 #@! TO.N,N/C*
X148470000Y-101150000D03*
G04 #@! TO.P,U2,40*
X151010000Y-101150000D03*
G04 #@! TO.P,U2,41*
X148470000Y-98610000D03*
G04 #@! TO.P,U2,42*
X151010000Y-98610000D03*
G04 #@! TO.P,U2,43*
X148470000Y-96070000D03*
G04 #@! TO.P,U2,44*
X151010000Y-96070000D03*
D21*
G04 #@! TO.P,U2,45*
X169271600Y-104650000D03*
G04 #@! TO.P,U2,46*
X169271600Y-103650000D03*
G04 #@! TO.P,U2,47*
G04 #@! TO.N,GND*
X169271600Y-102650000D03*
G04 #@! TO.P,U2,48*
G04 #@! TO.N,N/C*
X169271600Y-101650000D03*
G04 #@! TO.P,U2,49*
G04 #@! TO.N,+3V3*
X169271600Y-100650000D03*
G04 #@! TO.P,U2,50*
G04 #@! TO.N,N/C*
X169271600Y-99650000D03*
G04 #@! TO.P,U2,51*
X169271600Y-98650000D03*
G04 #@! TO.P,U2,52*
X169271600Y-97650000D03*
D20*
G04 #@! TO.P,U2,53*
X175140000Y-102420000D03*
G04 #@! TO.P,U2,54*
X175140000Y-99880000D03*
D19*
G04 #@! TO.P,U2,3*
G04 #@! TO.N,/Output Stage/DAC-D1*
X171330000Y-93530000D03*
G04 #@! TO.P,U2,4*
G04 #@! TO.N,/Output Stage/DAC-D2*
X168790000Y-93530000D03*
G04 #@! TO.P,U2,5*
G04 #@! TO.N,/Output Stage/DAC-D3*
X166250000Y-93530000D03*
G04 #@! TO.P,U2,6*
G04 #@! TO.N,/Output Stage/DAC-D4*
X163710000Y-93530000D03*
G04 #@! TO.P,U2,7*
G04 #@! TO.N,/Output Stage/DAC-D5*
X161170000Y-93530000D03*
G04 #@! TO.P,U2,8*
G04 #@! TO.N,/Output Stage/DAC-D6*
X158630000Y-93530000D03*
G04 #@! TO.P,U2,9*
G04 #@! TO.N,/Output Stage/DAC-D7*
X156090000Y-93530000D03*
G04 #@! TO.P,U2,10*
G04 #@! TO.N,/Output Stage/DAC-D8*
X153550000Y-93530000D03*
G04 #@! TO.P,U2,11*
G04 #@! TO.N,/Output Stage/DAC-D9*
X151010000Y-93530000D03*
G04 #@! TO.P,U2,12*
G04 #@! TO.N,Net-(U2-Pad12)*
X148470000Y-93530000D03*
G04 #@! TO.P,U2,14*
G04 #@! TO.N,Net-(U2-Pad14)*
X143390000Y-93530000D03*
G04 #@! TO.P,U2,15*
G04 #@! TO.N,N/C*
X143390000Y-96070000D03*
G04 #@! TO.P,U2,16*
G04 #@! TO.N,+3V3*
X143390000Y-98610000D03*
G04 #@! TO.P,U2,17*
G04 #@! TO.N,GND*
X143390000Y-101150000D03*
G04 #@! TO.P,U2,18*
G04 #@! TO.N,N/C*
X143390000Y-103690000D03*
G04 #@! TO.P,U2,19*
X143390000Y-106230000D03*
G04 #@! TO.P,U2,20*
G04 #@! TO.N,Net-(U2-Pad20)*
X143390000Y-108770000D03*
G04 #@! TO.P,U2,21*
G04 #@! TO.N,/Output Stage/DAC-D10*
X145930000Y-108770000D03*
G04 #@! TO.P,U2,22*
G04 #@! TO.N,/Output Stage/DAC-D11*
X148470000Y-108770000D03*
G04 #@! TO.P,U2,23*
G04 #@! TO.N,/Output Stage/DAC-D12*
X151010000Y-108770000D03*
G04 #@! TO.P,U2,24*
G04 #@! TO.N,/Output Stage/DAC-D13*
X153550000Y-108770000D03*
G04 #@! TO.P,U2,25*
G04 #@! TO.N,/Output Stage/DAC-CLOCK*
X156090000Y-108770000D03*
G04 #@! TO.P,U2,26*
G04 #@! TO.N,N/C*
X158630000Y-108770000D03*
G04 #@! TO.P,U2,27*
X161170000Y-108770000D03*
G04 #@! TO.P,U2,28*
X163710000Y-108770000D03*
G04 #@! TO.P,U2,29*
X166250000Y-108770000D03*
G04 #@! TO.P,U2,30*
X168790000Y-108770000D03*
G04 #@! TO.P,U2,31*
G04 #@! TO.N,+3V3*
X171330000Y-108770000D03*
G04 #@! TO.P,U2,32*
G04 #@! TO.N,GND*
X173870000Y-108770000D03*
G04 #@! TO.P,U2,34*
G04 #@! TO.N,N/C*
X173870000Y-106230000D03*
G04 #@! TO.P,U2,33*
G04 #@! TO.N,+5V*
X176410000Y-108770000D03*
G04 #@! TO.P,U2,13*
G04 #@! TO.N,N/C*
X145930000Y-93530000D03*
G04 #@! TD*
D22*
G04 #@! TO.P,R7,2*
G04 #@! TO.N,GND*
X105800000Y-59300000D03*
G04 #@! TO.P,R7,1*
G04 #@! TO.N,Net-(Q2-Pad1)*
X111000000Y-59300000D03*
G04 #@! TD*
D23*
G04 #@! TO.P,J5,1*
G04 #@! TO.N,GND*
X100810000Y-62540000D03*
X98270000Y-62540000D03*
X95730000Y-62540000D03*
X93190000Y-62540000D03*
X100810000Y-54920000D03*
X98270000Y-54920000D03*
X93190000Y-54920000D03*
X95730000Y-54920000D03*
G04 #@! TD*
G04 #@! TO.P,J2,1*
G04 #@! TO.N,Net-(J2-Pad1)*
X176810000Y-62540000D03*
X174270000Y-62540000D03*
X171730000Y-62540000D03*
X169190000Y-62540000D03*
X176810000Y-54920000D03*
X174270000Y-54920000D03*
X169190000Y-54920000D03*
X171730000Y-54920000D03*
G04 #@! TD*
D24*
G04 #@! TO.P,U15,8*
G04 #@! TO.N,+5V*
X133725000Y-105600000D03*
G04 #@! TO.P,U15,7*
G04 #@! TO.N,Net-(R36-Pad2)*
X134375000Y-105600000D03*
G04 #@! TO.P,U15,6*
X135025000Y-105600000D03*
G04 #@! TO.P,U15,5*
G04 #@! TO.N,/Overcurrent Protection/SET*
X135675000Y-105600000D03*
G04 #@! TO.P,U15,4*
G04 #@! TO.N,GND*
X135675000Y-109000000D03*
G04 #@! TO.P,U15,3*
G04 #@! TO.N,Net-(U15-Pad2)*
X135025000Y-109000000D03*
G04 #@! TO.P,U15,2*
X134375000Y-109000000D03*
G04 #@! TO.P,U15,1*
G04 #@! TO.N,/Overcurrent Protection/RESET'*
X133725000Y-109000000D03*
G04 #@! TD*
D25*
G04 #@! TO.P,U14,5*
G04 #@! TO.N,+5V*
X120150000Y-91250000D03*
G04 #@! TO.P,U14,4*
G04 #@! TO.N,/Overcurrent Protection/SET*
X121450000Y-91250000D03*
G04 #@! TO.P,U14,2*
G04 #@! TO.N,GND*
X120800000Y-93150000D03*
G04 #@! TO.P,U14,3*
G04 #@! TO.N,/Overcurrent Protection/OCSense*
X121450000Y-93150000D03*
G04 #@! TO.P,U14,1*
G04 #@! TO.N,/Overcurrent Protection/Vref*
X120150000Y-93150000D03*
G04 #@! TD*
D26*
G04 #@! TO.P,U13,5*
G04 #@! TO.N,+5V*
X138950000Y-114350000D03*
G04 #@! TO.P,U13,4*
G04 #@! TO.N,/Overcurrent Protection/RESET'*
X140850000Y-114350000D03*
G04 #@! TO.P,U13,3*
G04 #@! TO.N,GND*
X140850000Y-117050000D03*
G04 #@! TO.P,U13,2*
G04 #@! TO.N,Net-(R30-Pad2)*
X139900000Y-117050000D03*
G04 #@! TO.P,U13,1*
G04 #@! TO.N,Net-(U12-Pad6)*
X138950000Y-117050000D03*
G04 #@! TD*
G04 #@! TO.P,U12,5*
G04 #@! TO.N,+5V*
X134500000Y-97850000D03*
G04 #@! TO.P,U12,6*
G04 #@! TO.N,Net-(U12-Pad6)*
X133550000Y-97850000D03*
G04 #@! TO.P,U12,4*
G04 #@! TO.N,Net-(R31-Pad2)*
X135450000Y-97850000D03*
G04 #@! TO.P,U12,3*
G04 #@! TO.N,Net-(R36-Pad2)*
X135450000Y-100550000D03*
G04 #@! TO.P,U12,2*
G04 #@! TO.N,GND*
X134500000Y-100550000D03*
G04 #@! TO.P,U12,1*
G04 #@! TO.N,/Overcurrent Protection/SET*
X133550000Y-100550000D03*
G04 #@! TD*
D27*
G04 #@! TO.P,U1,9*
G04 #@! TO.N,N/C*
X114150000Y-92270000D03*
G04 #@! TO.P,U1,8*
G04 #@! TO.N,+3V3*
G04 #@! TA.AperFunction,SMDPad,CuDef*
G36*
G01*
X112395000Y-90770000D02*
X112095000Y-90770000D01*
G75*
G02*
X111945000Y-90620000I0J150000D01*
G01*
X111945000Y-88970000D01*
G75*
G02*
X112095000Y-88820000I150000J0D01*
G01*
X112395000Y-88820000D01*
G75*
G02*
X112545000Y-88970000I0J-150000D01*
G01*
X112545000Y-90620000D01*
G75*
G02*
X112395000Y-90770000I-150000J0D01*
G01*
G37*
G04 #@! TD.AperFunction*
G04 #@! TO.P,U1,7*
G04 #@! TO.N,Net-(R2-Pad2)*
G04 #@! TA.AperFunction,SMDPad,CuDef*
G36*
G01*
X113665000Y-90770000D02*
X113365000Y-90770000D01*
G75*
G02*
X113215000Y-90620000I0J150000D01*
G01*
X113215000Y-88970000D01*
G75*
G02*
X113365000Y-88820000I150000J0D01*
G01*
X113665000Y-88820000D01*
G75*
G02*
X113815000Y-88970000I0J-150000D01*
G01*
X113815000Y-90620000D01*
G75*
G02*
X113665000Y-90770000I-150000J0D01*
G01*
G37*
G04 #@! TD.AperFunction*
G04 #@! TO.P,U1,6*
G04 #@! TO.N,Net-(R5-Pad1)*
G04 #@! TA.AperFunction,SMDPad,CuDef*
G36*
G01*
X114935000Y-90770000D02*
X114635000Y-90770000D01*
G75*
G02*
X114485000Y-90620000I0J150000D01*
G01*
X114485000Y-88970000D01*
G75*
G02*
X114635000Y-88820000I150000J0D01*
G01*
X114935000Y-88820000D01*
G75*
G02*
X115085000Y-88970000I0J-150000D01*
G01*
X115085000Y-90620000D01*
G75*
G02*
X114935000Y-90770000I-150000J0D01*
G01*
G37*
G04 #@! TD.AperFunction*
G04 #@! TO.P,U1,5*
G04 #@! TO.N,Net-(R4-Pad2)*
G04 #@! TA.AperFunction,SMDPad,CuDef*
G36*
G01*
X116205000Y-90770000D02*
X115905000Y-90770000D01*
G75*
G02*
X115755000Y-90620000I0J150000D01*
G01*
X115755000Y-88970000D01*
G75*
G02*
X115905000Y-88820000I150000J0D01*
G01*
X116205000Y-88820000D01*
G75*
G02*
X116355000Y-88970000I0J-150000D01*
G01*
X116355000Y-90620000D01*
G75*
G02*
X116205000Y-90770000I-150000J0D01*
G01*
G37*
G04 #@! TD.AperFunction*
G04 #@! TO.P,U1,4*
G04 #@! TO.N,-3V3*
G04 #@! TA.AperFunction,SMDPad,CuDef*
G36*
G01*
X116205000Y-95720000D02*
X115905000Y-95720000D01*
G75*
G02*
X115755000Y-95570000I0J150000D01*
G01*
X115755000Y-93920000D01*
G75*
G02*
X115905000Y-93770000I150000J0D01*
G01*
X116205000Y-93770000D01*
G75*
G02*
X116355000Y-93920000I0J-150000D01*
G01*
X116355000Y-95570000D01*
G75*
G02*
X116205000Y-95720000I-150000J0D01*
G01*
G37*
G04 #@! TD.AperFunction*
G04 #@! TO.P,U1,3*
G04 #@! TO.N,Net-(R2-Pad2)*
G04 #@! TA.AperFunction,SMDPad,CuDef*
G36*
G01*
X114935000Y-95720000D02*
X114635000Y-95720000D01*
G75*
G02*
X114485000Y-95570000I0J150000D01*
G01*
X114485000Y-93920000D01*
G75*
G02*
X114635000Y-93770000I150000J0D01*
G01*
X114935000Y-93770000D01*
G75*
G02*
X115085000Y-93920000I0J-150000D01*
G01*
X115085000Y-95570000D01*
G75*
G02*
X114935000Y-95720000I-150000J0D01*
G01*
G37*
G04 #@! TD.AperFunction*
G04 #@! TO.P,U1,2*
G04 #@! TO.N,Net-(R3-Pad2)*
G04 #@! TA.AperFunction,SMDPad,CuDef*
G36*
G01*
X113665000Y-95720000D02*
X113365000Y-95720000D01*
G75*
G02*
X113215000Y-95570000I0J150000D01*
G01*
X113215000Y-93920000D01*
G75*
G02*
X113365000Y-93770000I150000J0D01*
G01*
X113665000Y-93770000D01*
G75*
G02*
X113815000Y-93920000I0J-150000D01*
G01*
X113815000Y-95570000D01*
G75*
G02*
X113665000Y-95720000I-150000J0D01*
G01*
G37*
G04 #@! TD.AperFunction*
G04 #@! TO.P,U1,1*
G04 #@! TO.N,/Teensy/ADC-SHUNT*
G04 #@! TA.AperFunction,SMDPad,CuDef*
G36*
G01*
X112395000Y-95720000D02*
X112095000Y-95720000D01*
G75*
G02*
X111945000Y-95570000I0J150000D01*
G01*
X111945000Y-93920000D01*
G75*
G02*
X112095000Y-93770000I150000J0D01*
G01*
X112395000Y-93770000D01*
G75*
G02*
X112545000Y-93920000I0J-150000D01*
G01*
X112545000Y-95570000D01*
G75*
G02*
X112395000Y-95720000I-150000J0D01*
G01*
G37*
G04 #@! TD.AperFunction*
G04 #@! TD*
D28*
G04 #@! TO.P,SW1,2*
G04 #@! TO.N,Net-(R30-Pad2)*
X151300000Y-114100000D03*
X144100000Y-114100000D03*
G04 #@! TO.P,SW1,1*
G04 #@! TO.N,+5V*
X151300000Y-117100000D03*
X144100000Y-117100000D03*
G04 #@! TD*
G04 #@! TO.P,U6,8*
G04 #@! TO.N,N/C*
G04 #@! TA.AperFunction,SMDPad,CuDef*
G36*
G01*
X130945000Y-79100000D02*
X130645000Y-79100000D01*
G75*
G02*
X130495000Y-78950000I0J150000D01*
G01*
X130495000Y-77300000D01*
G75*
G02*
X130645000Y-77150000I150000J0D01*
G01*
X130945000Y-77150000D01*
G75*
G02*
X131095000Y-77300000I0J-150000D01*
G01*
X131095000Y-78950000D01*
G75*
G02*
X130945000Y-79100000I-150000J0D01*
G01*
G37*
G04 #@! TD.AperFunction*
G04 #@! TO.P,U6,7*
G04 #@! TO.N,+9V*
G04 #@! TA.AperFunction,SMDPad,CuDef*
G36*
G01*
X132215000Y-79100000D02*
X131915000Y-79100000D01*
G75*
G02*
X131765000Y-78950000I0J150000D01*
G01*
X131765000Y-77300000D01*
G75*
G02*
X131915000Y-77150000I150000J0D01*
G01*
X132215000Y-77150000D01*
G75*
G02*
X132365000Y-77300000I0J-150000D01*
G01*
X132365000Y-78950000D01*
G75*
G02*
X132215000Y-79100000I-150000J0D01*
G01*
G37*
G04 #@! TD.AperFunction*
G04 #@! TO.P,U6,6*
G04 #@! TO.N,/Output Stage/MOSFET-OUT*
G04 #@! TA.AperFunction,SMDPad,CuDef*
G36*
G01*
X133485000Y-79100000D02*
X133185000Y-79100000D01*
G75*
G02*
X133035000Y-78950000I0J150000D01*
G01*
X133035000Y-77300000D01*
G75*
G02*
X133185000Y-77150000I150000J0D01*
G01*
X133485000Y-77150000D01*
G75*
G02*
X133635000Y-77300000I0J-150000D01*
G01*
X133635000Y-78950000D01*
G75*
G02*
X133485000Y-79100000I-150000J0D01*
G01*
G37*
G04 #@! TD.AperFunction*
G04 #@! TO.P,U6,5*
G04 #@! TO.N,N/C*
G04 #@! TA.AperFunction,SMDPad,CuDef*
G36*
G01*
X134755000Y-79100000D02*
X134455000Y-79100000D01*
G75*
G02*
X134305000Y-78950000I0J150000D01*
G01*
X134305000Y-77300000D01*
G75*
G02*
X134455000Y-77150000I150000J0D01*
G01*
X134755000Y-77150000D01*
G75*
G02*
X134905000Y-77300000I0J-150000D01*
G01*
X134905000Y-78950000D01*
G75*
G02*
X134755000Y-79100000I-150000J0D01*
G01*
G37*
G04 #@! TD.AperFunction*
G04 #@! TO.P,U6,4*
G04 #@! TO.N,GND*
G04 #@! TA.AperFunction,SMDPad,CuDef*
G36*
G01*
X134755000Y-84050000D02*
X134455000Y-84050000D01*
G75*
G02*
X134305000Y-83900000I0J150000D01*
G01*
X134305000Y-82250000D01*
G75*
G02*
X134455000Y-82100000I150000J0D01*
G01*
X134755000Y-82100000D01*
G75*
G02*
X134905000Y-82250000I0J-150000D01*
G01*
X134905000Y-83900000D01*
G75*
G02*
X134755000Y-84050000I-150000J0D01*
G01*
G37*
G04 #@! TD.AperFunction*
G04 #@! TO.P,U6,3*
G04 #@! TO.N,Net-(R15-Pad2)*
G04 #@! TA.AperFunction,SMDPad,CuDef*
G36*
G01*
X133485000Y-84050000D02*
X133185000Y-84050000D01*
G75*
G02*
X133035000Y-83900000I0J150000D01*
G01*
X133035000Y-82250000D01*
G75*
G02*
X133185000Y-82100000I150000J0D01*
G01*
X133485000Y-82100000D01*
G75*
G02*
X133635000Y-82250000I0J-150000D01*
G01*
X133635000Y-83900000D01*
G75*
G02*
X133485000Y-84050000I-150000J0D01*
G01*
G37*
G04 #@! TD.AperFunction*
G04 #@! TO.P,U6,2*
G04 #@! TO.N,/Output Stage/MOSFET-OUT*
G04 #@! TA.AperFunction,SMDPad,CuDef*
G36*
G01*
X132215000Y-84050000D02*
X131915000Y-84050000D01*
G75*
G02*
X131765000Y-83900000I0J150000D01*
G01*
X131765000Y-82250000D01*
G75*
G02*
X131915000Y-82100000I150000J0D01*
G01*
X132215000Y-82100000D01*
G75*
G02*
X132365000Y-82250000I0J-150000D01*
G01*
X132365000Y-83900000D01*
G75*
G02*
X132215000Y-84050000I-150000J0D01*
G01*
G37*
G04 #@! TD.AperFunction*
G04 #@! TO.P,U6,1*
G04 #@! TO.N,N/C*
G04 #@! TA.AperFunction,SMDPad,CuDef*
G36*
G01*
X130945000Y-84050000D02*
X130645000Y-84050000D01*
G75*
G02*
X130495000Y-83900000I0J150000D01*
G01*
X130495000Y-82250000D01*
G75*
G02*
X130645000Y-82100000I150000J0D01*
G01*
X130945000Y-82100000D01*
G75*
G02*
X131095000Y-82250000I0J-150000D01*
G01*
X131095000Y-83900000D01*
G75*
G02*
X130945000Y-84050000I-150000J0D01*
G01*
G37*
G04 #@! TD.AperFunction*
G04 #@! TD*
G04 #@! TO.P,U5,8*
G04 #@! TO.N,N/C*
G04 #@! TA.AperFunction,SMDPad,CuDef*
G36*
G01*
X140250000Y-83355000D02*
X140250000Y-83655000D01*
G75*
G02*
X140100000Y-83805000I-150000J0D01*
G01*
X138450000Y-83805000D01*
G75*
G02*
X138300000Y-83655000I0J150000D01*
G01*
X138300000Y-83355000D01*
G75*
G02*
X138450000Y-83205000I150000J0D01*
G01*
X140100000Y-83205000D01*
G75*
G02*
X140250000Y-83355000I0J-150000D01*
G01*
G37*
G04 #@! TD.AperFunction*
G04 #@! TO.P,U5,7*
G04 #@! TO.N,+9V*
G04 #@! TA.AperFunction,SMDPad,CuDef*
G36*
G01*
X140250000Y-82085000D02*
X140250000Y-82385000D01*
G75*
G02*
X140100000Y-82535000I-150000J0D01*
G01*
X138450000Y-82535000D01*
G75*
G02*
X138300000Y-82385000I0J150000D01*
G01*
X138300000Y-82085000D01*
G75*
G02*
X138450000Y-81935000I150000J0D01*
G01*
X140100000Y-81935000D01*
G75*
G02*
X140250000Y-82085000I0J-150000D01*
G01*
G37*
G04 #@! TD.AperFunction*
G04 #@! TO.P,U5,6*
G04 #@! TO.N,Net-(R15-Pad2)*
G04 #@! TA.AperFunction,SMDPad,CuDef*
G36*
G01*
X140250000Y-80815000D02*
X140250000Y-81115000D01*
G75*
G02*
X140100000Y-81265000I-150000J0D01*
G01*
X138450000Y-81265000D01*
G75*
G02*
X138300000Y-81115000I0J150000D01*
G01*
X138300000Y-80815000D01*
G75*
G02*
X138450000Y-80665000I150000J0D01*
G01*
X140100000Y-80665000D01*
G75*
G02*
X140250000Y-80815000I0J-150000D01*
G01*
G37*
G04 #@! TD.AperFunction*
G04 #@! TO.P,U5,5*
G04 #@! TO.N,N/C*
G04 #@! TA.AperFunction,SMDPad,CuDef*
G36*
G01*
X140250000Y-79545000D02*
X140250000Y-79845000D01*
G75*
G02*
X140100000Y-79995000I-150000J0D01*
G01*
X138450000Y-79995000D01*
G75*
G02*
X138300000Y-79845000I0J150000D01*
G01*
X138300000Y-79545000D01*
G75*
G02*
X138450000Y-79395000I150000J0D01*
G01*
X140100000Y-79395000D01*
G75*
G02*
X140250000Y-79545000I0J-150000D01*
G01*
G37*
G04 #@! TD.AperFunction*
G04 #@! TO.P,U5,4*
G04 #@! TO.N,GND*
G04 #@! TA.AperFunction,SMDPad,CuDef*
G36*
G01*
X145200000Y-79545000D02*
X145200000Y-79845000D01*
G75*
G02*
X145050000Y-79995000I-150000J0D01*
G01*
X143400000Y-79995000D01*
G75*
G02*
X143250000Y-79845000I0J150000D01*
G01*
X143250000Y-79545000D01*
G75*
G02*
X143400000Y-79395000I150000J0D01*
G01*
X145050000Y-79395000D01*
G75*
G02*
X145200000Y-79545000I0J-150000D01*
G01*
G37*
G04 #@! TD.AperFunction*
G04 #@! TO.P,U5,3*
G04 #@! TO.N,Net-(R14-Pad2)*
G04 #@! TA.AperFunction,SMDPad,CuDef*
G36*
G01*
X145200000Y-80815000D02*
X145200000Y-81115000D01*
G75*
G02*
X145050000Y-81265000I-150000J0D01*
G01*
X143400000Y-81265000D01*
G75*
G02*
X143250000Y-81115000I0J150000D01*
G01*
X143250000Y-80815000D01*
G75*
G02*
X143400000Y-80665000I150000J0D01*
G01*
X145050000Y-80665000D01*
G75*
G02*
X145200000Y-80815000I0J-150000D01*
G01*
G37*
G04 #@! TD.AperFunction*
G04 #@! TO.P,U5,2*
G04 #@! TO.N,Net-(R13-Pad2)*
G04 #@! TA.AperFunction,SMDPad,CuDef*
G36*
G01*
X145200000Y-82085000D02*
X145200000Y-82385000D01*
G75*
G02*
X145050000Y-82535000I-150000J0D01*
G01*
X143400000Y-82535000D01*
G75*
G02*
X143250000Y-82385000I0J150000D01*
G01*
X143250000Y-82085000D01*
G75*
G02*
X143400000Y-81935000I150000J0D01*
G01*
X145050000Y-81935000D01*
G75*
G02*
X145200000Y-82085000I0J-150000D01*
G01*
G37*
G04 #@! TD.AperFunction*
G04 #@! TO.P,U5,1*
G04 #@! TO.N,N/C*
G04 #@! TA.AperFunction,SMDPad,CuDef*
G36*
G01*
X145200000Y-83355000D02*
X145200000Y-83655000D01*
G75*
G02*
X145050000Y-83805000I-150000J0D01*
G01*
X143400000Y-83805000D01*
G75*
G02*
X143250000Y-83655000I0J150000D01*
G01*
X143250000Y-83355000D01*
G75*
G02*
X143400000Y-83205000I150000J0D01*
G01*
X145050000Y-83205000D01*
G75*
G02*
X145200000Y-83355000I0J-150000D01*
G01*
G37*
G04 #@! TD.AperFunction*
G04 #@! TD*
D29*
G04 #@! TO.P,J6,1*
G04 #@! TO.N,+12V*
X105900000Y-82800000D03*
D30*
G04 #@! TO.P,J6,2*
G04 #@! TO.N,GND*
X100100000Y-82800000D03*
D31*
G04 #@! TO.P,J6,3*
G04 #@! TO.N,N/C*
X102900000Y-87600000D03*
G04 #@! TD*
G04 #@! TO.P,C18,2*
G04 #@! TO.N,Net-(C18-Pad2)*
G04 #@! TA.AperFunction,SMDPad,CuDef*
G36*
G01*
X152050000Y-81825000D02*
X152550000Y-81825000D01*
G75*
G02*
X152775000Y-82050000I0J-225000D01*
G01*
X152775000Y-82500000D01*
G75*
G02*
X152550000Y-82725000I-225000J0D01*
G01*
X152050000Y-82725000D01*
G75*
G02*
X151825000Y-82500000I0J225000D01*
G01*
X151825000Y-82050000D01*
G75*
G02*
X152050000Y-81825000I225000J0D01*
G01*
G37*
G04 #@! TD.AperFunction*
G04 #@! TO.P,C18,1*
G04 #@! TO.N,Net-(C18-Pad1)*
G04 #@! TA.AperFunction,SMDPad,CuDef*
G36*
G01*
X152050000Y-80275000D02*
X152550000Y-80275000D01*
G75*
G02*
X152775000Y-80500000I0J-225000D01*
G01*
X152775000Y-80950000D01*
G75*
G02*
X152550000Y-81175000I-225000J0D01*
G01*
X152050000Y-81175000D01*
G75*
G02*
X151825000Y-80950000I0J225000D01*
G01*
X151825000Y-80500000D01*
G75*
G02*
X152050000Y-80275000I225000J0D01*
G01*
G37*
G04 #@! TD.AperFunction*
G04 #@! TD*
G04 #@! TO.P,C4,2*
G04 #@! TO.N,-3V3*
G04 #@! TA.AperFunction,SMDPad,CuDef*
G36*
G01*
X105550000Y-96125000D02*
X106050000Y-96125000D01*
G75*
G02*
X106275000Y-96350000I0J-225000D01*
G01*
X106275000Y-96800000D01*
G75*
G02*
X106050000Y-97025000I-225000J0D01*
G01*
X105550000Y-97025000D01*
G75*
G02*
X105325000Y-96800000I0J225000D01*
G01*
X105325000Y-96350000D01*
G75*
G02*
X105550000Y-96125000I225000J0D01*
G01*
G37*
G04 #@! TD.AperFunction*
G04 #@! TO.P,C4,1*
G04 #@! TO.N,Net-(C4-Pad1)*
G04 #@! TA.AperFunction,SMDPad,CuDef*
G36*
G01*
X105550000Y-94575000D02*
X106050000Y-94575000D01*
G75*
G02*
X106275000Y-94800000I0J-225000D01*
G01*
X106275000Y-95250000D01*
G75*
G02*
X106050000Y-95475000I-225000J0D01*
G01*
X105550000Y-95475000D01*
G75*
G02*
X105325000Y-95250000I0J225000D01*
G01*
X105325000Y-94800000D01*
G75*
G02*
X105550000Y-94575000I225000J0D01*
G01*
G37*
G04 #@! TD.AperFunction*
G04 #@! TD*
G04 #@! TO.P,C2,2*
G04 #@! TO.N,Net-(C2-Pad2)*
G04 #@! TA.AperFunction,SMDPad,CuDef*
G36*
G01*
X94325000Y-97650000D02*
X94325000Y-97150000D01*
G75*
G02*
X94550000Y-96925000I225000J0D01*
G01*
X95000000Y-96925000D01*
G75*
G02*
X95225000Y-97150000I0J-225000D01*
G01*
X95225000Y-97650000D01*
G75*
G02*
X95000000Y-97875000I-225000J0D01*
G01*
X94550000Y-97875000D01*
G75*
G02*
X94325000Y-97650000I0J225000D01*
G01*
G37*
G04 #@! TD.AperFunction*
G04 #@! TO.P,C2,1*
G04 #@! TO.N,Net-(C2-Pad1)*
G04 #@! TA.AperFunction,SMDPad,CuDef*
G36*
G01*
X92775000Y-97650000D02*
X92775000Y-97150000D01*
G75*
G02*
X93000000Y-96925000I225000J0D01*
G01*
X93450000Y-96925000D01*
G75*
G02*
X93675000Y-97150000I0J-225000D01*
G01*
X93675000Y-97650000D01*
G75*
G02*
X93450000Y-97875000I-225000J0D01*
G01*
X93000000Y-97875000D01*
G75*
G02*
X92775000Y-97650000I0J225000D01*
G01*
G37*
G04 #@! TD.AperFunction*
G04 #@! TD*
D32*
G04 #@! TO.P,U9,5*
G04 #@! TO.N,+12V*
X99250000Y-94100000D03*
G04 #@! TO.P,U9,4*
X101150000Y-94100000D03*
G04 #@! TO.P,U9,3*
G04 #@! TO.N,Net-(C4-Pad1)*
X101150000Y-96300000D03*
G04 #@! TO.P,U9,2*
G04 #@! TO.N,GND*
X100200000Y-96300000D03*
G04 #@! TO.P,U9,1*
G04 #@! TO.N,Net-(C2-Pad1)*
X99250000Y-96300000D03*
G04 #@! TD*
G04 #@! TO.P,R17,2*
G04 #@! TO.N,GND*
G04 #@! TA.AperFunction,SMDPad,CuDef*
G36*
G01*
X104475000Y-92175000D02*
X103925000Y-92175000D01*
G75*
G02*
X103725000Y-91975000I0J200000D01*
G01*
X103725000Y-91575000D01*
G75*
G02*
X103925000Y-91375000I200000J0D01*
G01*
X104475000Y-91375000D01*
G75*
G02*
X104675000Y-91575000I0J-200000D01*
G01*
X104675000Y-91975000D01*
G75*
G02*
X104475000Y-92175000I-200000J0D01*
G01*
G37*
G04 #@! TD.AperFunction*
G04 #@! TO.P,R17,1*
G04 #@! TO.N,Net-(C4-Pad1)*
G04 #@! TA.AperFunction,SMDPad,CuDef*
G36*
G01*
X104475000Y-93825000D02*
X103925000Y-93825000D01*
G75*
G02*
X103725000Y-93625000I0J200000D01*
G01*
X103725000Y-93225000D01*
G75*
G02*
X103925000Y-93025000I200000J0D01*
G01*
X104475000Y-93025000D01*
G75*
G02*
X104675000Y-93225000I0J-200000D01*
G01*
X104675000Y-93625000D01*
G75*
G02*
X104475000Y-93825000I-200000J0D01*
G01*
G37*
G04 #@! TD.AperFunction*
G04 #@! TD*
G04 #@! TO.P,R16,2*
G04 #@! TO.N,Net-(C4-Pad1)*
G04 #@! TA.AperFunction,SMDPad,CuDef*
G36*
G01*
X104475000Y-95375000D02*
X103925000Y-95375000D01*
G75*
G02*
X103725000Y-95175000I0J200000D01*
G01*
X103725000Y-94775000D01*
G75*
G02*
X103925000Y-94575000I200000J0D01*
G01*
X104475000Y-94575000D01*
G75*
G02*
X104675000Y-94775000I0J-200000D01*
G01*
X104675000Y-95175000D01*
G75*
G02*
X104475000Y-95375000I-200000J0D01*
G01*
G37*
G04 #@! TD.AperFunction*
G04 #@! TO.P,R16,1*
G04 #@! TO.N,-3V3*
G04 #@! TA.AperFunction,SMDPad,CuDef*
G36*
G01*
X104475000Y-97025000D02*
X103925000Y-97025000D01*
G75*
G02*
X103725000Y-96825000I0J200000D01*
G01*
X103725000Y-96425000D01*
G75*
G02*
X103925000Y-96225000I200000J0D01*
G01*
X104475000Y-96225000D01*
G75*
G02*
X104675000Y-96425000I0J-200000D01*
G01*
X104675000Y-96825000D01*
G75*
G02*
X104475000Y-97025000I-200000J0D01*
G01*
G37*
G04 #@! TD.AperFunction*
G04 #@! TD*
D33*
G04 #@! TO.P,D7,2*
G04 #@! TO.N,Net-(C2-Pad2)*
X94400000Y-99150000D03*
G04 #@! TO.P,D7,1*
G04 #@! TO.N,GND*
X94400000Y-102450000D03*
G04 #@! TD*
G04 #@! TO.P,U16,8*
G04 #@! TO.N,+5V*
G04 #@! TA.AperFunction,SMDPad,CuDef*
G36*
G01*
X123145000Y-79200000D02*
X122845000Y-79200000D01*
G75*
G02*
X122695000Y-79050000I0J150000D01*
G01*
X122695000Y-77400000D01*
G75*
G02*
X122845000Y-77250000I150000J0D01*
G01*
X123145000Y-77250000D01*
G75*
G02*
X123295000Y-77400000I0J-150000D01*
G01*
X123295000Y-79050000D01*
G75*
G02*
X123145000Y-79200000I-150000J0D01*
G01*
G37*
G04 #@! TD.AperFunction*
G04 #@! TO.P,U16,7*
G04 #@! TO.N,/Overcurrent Protection/OCMosfet*
G04 #@! TA.AperFunction,SMDPad,CuDef*
G36*
G01*
X124415000Y-79200000D02*
X124115000Y-79200000D01*
G75*
G02*
X123965000Y-79050000I0J150000D01*
G01*
X123965000Y-77400000D01*
G75*
G02*
X124115000Y-77250000I150000J0D01*
G01*
X124415000Y-77250000D01*
G75*
G02*
X124565000Y-77400000I0J-150000D01*
G01*
X124565000Y-79050000D01*
G75*
G02*
X124415000Y-79200000I-150000J0D01*
G01*
G37*
G04 #@! TD.AperFunction*
G04 #@! TO.P,U16,6*
G04 #@! TA.AperFunction,SMDPad,CuDef*
G36*
G01*
X125685000Y-79200000D02*
X125385000Y-79200000D01*
G75*
G02*
X125235000Y-79050000I0J150000D01*
G01*
X125235000Y-77400000D01*
G75*
G02*
X125385000Y-77250000I150000J0D01*
G01*
X125685000Y-77250000D01*
G75*
G02*
X125835000Y-77400000I0J-150000D01*
G01*
X125835000Y-79050000D01*
G75*
G02*
X125685000Y-79200000I-150000J0D01*
G01*
G37*
G04 #@! TD.AperFunction*
G04 #@! TO.P,U16,5*
G04 #@! TO.N,GND*
G04 #@! TA.AperFunction,SMDPad,CuDef*
G36*
G01*
X126955000Y-79200000D02*
X126655000Y-79200000D01*
G75*
G02*
X126505000Y-79050000I0J150000D01*
G01*
X126505000Y-77400000D01*
G75*
G02*
X126655000Y-77250000I150000J0D01*
G01*
X126955000Y-77250000D01*
G75*
G02*
X127105000Y-77400000I0J-150000D01*
G01*
X127105000Y-79050000D01*
G75*
G02*
X126955000Y-79200000I-150000J0D01*
G01*
G37*
G04 #@! TD.AperFunction*
G04 #@! TO.P,U16,4*
G04 #@! TA.AperFunction,SMDPad,CuDef*
G36*
G01*
X126955000Y-84150000D02*
X126655000Y-84150000D01*
G75*
G02*
X126505000Y-84000000I0J150000D01*
G01*
X126505000Y-82350000D01*
G75*
G02*
X126655000Y-82200000I150000J0D01*
G01*
X126955000Y-82200000D01*
G75*
G02*
X127105000Y-82350000I0J-150000D01*
G01*
X127105000Y-84000000D01*
G75*
G02*
X126955000Y-84150000I-150000J0D01*
G01*
G37*
G04 #@! TD.AperFunction*
G04 #@! TO.P,U16,3*
G04 #@! TO.N,N/C*
G04 #@! TA.AperFunction,SMDPad,CuDef*
G36*
G01*
X125685000Y-84150000D02*
X125385000Y-84150000D01*
G75*
G02*
X125235000Y-84000000I0J150000D01*
G01*
X125235000Y-82350000D01*
G75*
G02*
X125385000Y-82200000I150000J0D01*
G01*
X125685000Y-82200000D01*
G75*
G02*
X125835000Y-82350000I0J-150000D01*
G01*
X125835000Y-84000000D01*
G75*
G02*
X125685000Y-84150000I-150000J0D01*
G01*
G37*
G04 #@! TD.AperFunction*
G04 #@! TO.P,U16,2*
G04 #@! TO.N,Net-(R32-Pad1)*
G04 #@! TA.AperFunction,SMDPad,CuDef*
G36*
G01*
X124415000Y-84150000D02*
X124115000Y-84150000D01*
G75*
G02*
X123965000Y-84000000I0J150000D01*
G01*
X123965000Y-82350000D01*
G75*
G02*
X124115000Y-82200000I150000J0D01*
G01*
X124415000Y-82200000D01*
G75*
G02*
X124565000Y-82350000I0J-150000D01*
G01*
X124565000Y-84000000D01*
G75*
G02*
X124415000Y-84150000I-150000J0D01*
G01*
G37*
G04 #@! TD.AperFunction*
G04 #@! TO.P,U16,1*
G04 #@! TO.N,+5V*
G04 #@! TA.AperFunction,SMDPad,CuDef*
G36*
G01*
X123145000Y-84150000D02*
X122845000Y-84150000D01*
G75*
G02*
X122695000Y-84000000I0J150000D01*
G01*
X122695000Y-82350000D01*
G75*
G02*
X122845000Y-82200000I150000J0D01*
G01*
X123145000Y-82200000D01*
G75*
G02*
X123295000Y-82350000I0J-150000D01*
G01*
X123295000Y-84000000D01*
G75*
G02*
X123145000Y-84150000I-150000J0D01*
G01*
G37*
G04 #@! TD.AperFunction*
G04 #@! TD*
G04 #@! TO.P,U11,8*
G04 #@! TO.N,Net-(R28-Pad1)*
G04 #@! TA.AperFunction,SMDPad,CuDef*
G36*
G01*
X127055000Y-93700000D02*
X127355000Y-93700000D01*
G75*
G02*
X127505000Y-93850000I0J-150000D01*
G01*
X127505000Y-95500000D01*
G75*
G02*
X127355000Y-95650000I-150000J0D01*
G01*
X127055000Y-95650000D01*
G75*
G02*
X126905000Y-95500000I0J150000D01*
G01*
X126905000Y-93850000D01*
G75*
G02*
X127055000Y-93700000I150000J0D01*
G01*
G37*
G04 #@! TD.AperFunction*
G04 #@! TO.P,U11,7*
G04 #@! TO.N,N/C*
G04 #@! TA.AperFunction,SMDPad,CuDef*
G36*
G01*
X125785000Y-93700000D02*
X126085000Y-93700000D01*
G75*
G02*
X126235000Y-93850000I0J-150000D01*
G01*
X126235000Y-95500000D01*
G75*
G02*
X126085000Y-95650000I-150000J0D01*
G01*
X125785000Y-95650000D01*
G75*
G02*
X125635000Y-95500000I0J150000D01*
G01*
X125635000Y-93850000D01*
G75*
G02*
X125785000Y-93700000I150000J0D01*
G01*
G37*
G04 #@! TD.AperFunction*
G04 #@! TO.P,U11,6*
G04 #@! TA.AperFunction,SMDPad,CuDef*
G36*
G01*
X124515000Y-93700000D02*
X124815000Y-93700000D01*
G75*
G02*
X124965000Y-93850000I0J-150000D01*
G01*
X124965000Y-95500000D01*
G75*
G02*
X124815000Y-95650000I-150000J0D01*
G01*
X124515000Y-95650000D01*
G75*
G02*
X124365000Y-95500000I0J150000D01*
G01*
X124365000Y-93850000D01*
G75*
G02*
X124515000Y-93700000I150000J0D01*
G01*
G37*
G04 #@! TD.AperFunction*
G04 #@! TO.P,U11,5*
G04 #@! TA.AperFunction,SMDPad,CuDef*
G36*
G01*
X123245000Y-93700000D02*
X123545000Y-93700000D01*
G75*
G02*
X123695000Y-93850000I0J-150000D01*
G01*
X123695000Y-95500000D01*
G75*
G02*
X123545000Y-95650000I-150000J0D01*
G01*
X123245000Y-95650000D01*
G75*
G02*
X123095000Y-95500000I0J150000D01*
G01*
X123095000Y-93850000D01*
G75*
G02*
X123245000Y-93700000I150000J0D01*
G01*
G37*
G04 #@! TD.AperFunction*
G04 #@! TO.P,U11,4*
G04 #@! TO.N,GND*
G04 #@! TA.AperFunction,SMDPad,CuDef*
G36*
G01*
X123245000Y-88750000D02*
X123545000Y-88750000D01*
G75*
G02*
X123695000Y-88900000I0J-150000D01*
G01*
X123695000Y-90550000D01*
G75*
G02*
X123545000Y-90700000I-150000J0D01*
G01*
X123245000Y-90700000D01*
G75*
G02*
X123095000Y-90550000I0J150000D01*
G01*
X123095000Y-88900000D01*
G75*
G02*
X123245000Y-88750000I150000J0D01*
G01*
G37*
G04 #@! TD.AperFunction*
G04 #@! TO.P,U11,3*
G04 #@! TO.N,N/C*
G04 #@! TA.AperFunction,SMDPad,CuDef*
G36*
G01*
X124515000Y-88750000D02*
X124815000Y-88750000D01*
G75*
G02*
X124965000Y-88900000I0J-150000D01*
G01*
X124965000Y-90550000D01*
G75*
G02*
X124815000Y-90700000I-150000J0D01*
G01*
X124515000Y-90700000D01*
G75*
G02*
X124365000Y-90550000I0J150000D01*
G01*
X124365000Y-88900000D01*
G75*
G02*
X124515000Y-88750000I150000J0D01*
G01*
G37*
G04 #@! TD.AperFunction*
G04 #@! TO.P,U11,2*
G04 #@! TA.AperFunction,SMDPad,CuDef*
G36*
G01*
X125785000Y-88750000D02*
X126085000Y-88750000D01*
G75*
G02*
X126235000Y-88900000I0J-150000D01*
G01*
X126235000Y-90550000D01*
G75*
G02*
X126085000Y-90700000I-150000J0D01*
G01*
X125785000Y-90700000D01*
G75*
G02*
X125635000Y-90550000I0J150000D01*
G01*
X125635000Y-88900000D01*
G75*
G02*
X125785000Y-88750000I150000J0D01*
G01*
G37*
G04 #@! TD.AperFunction*
G04 #@! TO.P,U11,1*
G04 #@! TA.AperFunction,SMDPad,CuDef*
G36*
G01*
X127055000Y-88750000D02*
X127355000Y-88750000D01*
G75*
G02*
X127505000Y-88900000I0J-150000D01*
G01*
X127505000Y-90550000D01*
G75*
G02*
X127355000Y-90700000I-150000J0D01*
G01*
X127055000Y-90700000D01*
G75*
G02*
X126905000Y-90550000I0J150000D01*
G01*
X126905000Y-88900000D01*
G75*
G02*
X127055000Y-88750000I150000J0D01*
G01*
G37*
G04 #@! TD.AperFunction*
G04 #@! TD*
D34*
G04 #@! TO.P,U10,6*
G04 #@! TO.N,Net-(C26-Pad2)*
X106840000Y-107150000D03*
G04 #@! TO.P,U10,5*
G04 #@! TO.N,+12V*
X106840000Y-106200000D03*
G04 #@! TO.P,U10,4*
G04 #@! TO.N,Net-(R25-Pad2)*
X106840000Y-105250000D03*
G04 #@! TO.P,U10,3*
G04 #@! TO.N,Net-(R26-Pad2)*
X109460000Y-105250000D03*
G04 #@! TO.P,U10,2*
G04 #@! TO.N,GND*
X109460000Y-106200000D03*
G04 #@! TO.P,U10,1*
G04 #@! TO.N,Net-(C26-Pad1)*
X109460000Y-107150000D03*
G04 #@! TD*
G04 #@! TO.P,U8,6*
G04 #@! TO.N,Net-(C22-Pad2)*
X122990000Y-109050000D03*
G04 #@! TO.P,U8,5*
G04 #@! TO.N,+12V*
X122990000Y-108100000D03*
G04 #@! TO.P,U8,4*
G04 #@! TO.N,Net-(R22-Pad2)*
X122990000Y-107150000D03*
G04 #@! TO.P,U8,3*
G04 #@! TO.N,Net-(R23-Pad2)*
X125610000Y-107150000D03*
G04 #@! TO.P,U8,2*
G04 #@! TO.N,GND*
X125610000Y-108100000D03*
G04 #@! TO.P,U8,1*
G04 #@! TO.N,Net-(C22-Pad1)*
X125610000Y-109050000D03*
G04 #@! TD*
G04 #@! TO.P,U7,8*
G04 #@! TO.N,Net-(R18-Pad2)*
G04 #@! TA.AperFunction,SMDPad,CuDef*
G36*
G01*
X143300000Y-73645000D02*
X143300000Y-73345000D01*
G75*
G02*
X143450000Y-73195000I150000J0D01*
G01*
X145100000Y-73195000D01*
G75*
G02*
X145250000Y-73345000I0J-150000D01*
G01*
X145250000Y-73645000D01*
G75*
G02*
X145100000Y-73795000I-150000J0D01*
G01*
X143450000Y-73795000D01*
G75*
G02*
X143300000Y-73645000I0J150000D01*
G01*
G37*
G04 #@! TD.AperFunction*
G04 #@! TO.P,U7,7*
G04 #@! TO.N,N/C*
G04 #@! TA.AperFunction,SMDPad,CuDef*
G36*
G01*
X143300000Y-74915000D02*
X143300000Y-74615000D01*
G75*
G02*
X143450000Y-74465000I150000J0D01*
G01*
X145100000Y-74465000D01*
G75*
G02*
X145250000Y-74615000I0J-150000D01*
G01*
X145250000Y-74915000D01*
G75*
G02*
X145100000Y-75065000I-150000J0D01*
G01*
X143450000Y-75065000D01*
G75*
G02*
X143300000Y-74915000I0J150000D01*
G01*
G37*
G04 #@! TD.AperFunction*
G04 #@! TO.P,U7,6*
G04 #@! TA.AperFunction,SMDPad,CuDef*
G36*
G01*
X143300000Y-76185000D02*
X143300000Y-75885000D01*
G75*
G02*
X143450000Y-75735000I150000J0D01*
G01*
X145100000Y-75735000D01*
G75*
G02*
X145250000Y-75885000I0J-150000D01*
G01*
X145250000Y-76185000D01*
G75*
G02*
X145100000Y-76335000I-150000J0D01*
G01*
X143450000Y-76335000D01*
G75*
G02*
X143300000Y-76185000I0J150000D01*
G01*
G37*
G04 #@! TD.AperFunction*
G04 #@! TO.P,U7,5*
G04 #@! TO.N,Net-(R19-Pad2)*
G04 #@! TA.AperFunction,SMDPad,CuDef*
G36*
G01*
X143300000Y-77455000D02*
X143300000Y-77155000D01*
G75*
G02*
X143450000Y-77005000I150000J0D01*
G01*
X145100000Y-77005000D01*
G75*
G02*
X145250000Y-77155000I0J-150000D01*
G01*
X145250000Y-77455000D01*
G75*
G02*
X145100000Y-77605000I-150000J0D01*
G01*
X143450000Y-77605000D01*
G75*
G02*
X143300000Y-77455000I0J150000D01*
G01*
G37*
G04 #@! TD.AperFunction*
G04 #@! TO.P,U7,4*
G04 #@! TO.N,GND*
G04 #@! TA.AperFunction,SMDPad,CuDef*
G36*
G01*
X138350000Y-77455000D02*
X138350000Y-77155000D01*
G75*
G02*
X138500000Y-77005000I150000J0D01*
G01*
X140150000Y-77005000D01*
G75*
G02*
X140300000Y-77155000I0J-150000D01*
G01*
X140300000Y-77455000D01*
G75*
G02*
X140150000Y-77605000I-150000J0D01*
G01*
X138500000Y-77605000D01*
G75*
G02*
X138350000Y-77455000I0J150000D01*
G01*
G37*
G04 #@! TD.AperFunction*
G04 #@! TO.P,U7,3*
G04 #@! TO.N,N/C*
G04 #@! TA.AperFunction,SMDPad,CuDef*
G36*
G01*
X138350000Y-76185000D02*
X138350000Y-75885000D01*
G75*
G02*
X138500000Y-75735000I150000J0D01*
G01*
X140150000Y-75735000D01*
G75*
G02*
X140300000Y-75885000I0J-150000D01*
G01*
X140300000Y-76185000D01*
G75*
G02*
X140150000Y-76335000I-150000J0D01*
G01*
X138500000Y-76335000D01*
G75*
G02*
X138350000Y-76185000I0J150000D01*
G01*
G37*
G04 #@! TD.AperFunction*
G04 #@! TO.P,U7,2*
G04 #@! TA.AperFunction,SMDPad,CuDef*
G36*
G01*
X138350000Y-74915000D02*
X138350000Y-74615000D01*
G75*
G02*
X138500000Y-74465000I150000J0D01*
G01*
X140150000Y-74465000D01*
G75*
G02*
X140300000Y-74615000I0J-150000D01*
G01*
X140300000Y-74915000D01*
G75*
G02*
X140150000Y-75065000I-150000J0D01*
G01*
X138500000Y-75065000D01*
G75*
G02*
X138350000Y-74915000I0J150000D01*
G01*
G37*
G04 #@! TD.AperFunction*
G04 #@! TO.P,U7,1*
G04 #@! TA.AperFunction,SMDPad,CuDef*
G36*
G01*
X138350000Y-73645000D02*
X138350000Y-73345000D01*
G75*
G02*
X138500000Y-73195000I150000J0D01*
G01*
X140150000Y-73195000D01*
G75*
G02*
X140300000Y-73345000I0J-150000D01*
G01*
X140300000Y-73645000D01*
G75*
G02*
X140150000Y-73795000I-150000J0D01*
G01*
X138500000Y-73795000D01*
G75*
G02*
X138350000Y-73645000I0J150000D01*
G01*
G37*
G04 #@! TD.AperFunction*
G04 #@! TD*
G04 #@! TO.P,U4,28*
G04 #@! TO.N,/Output Stage/DAC-CLOCK*
G04 #@! TA.AperFunction,SMDPad,CuDef*
G36*
G01*
X161975000Y-82575000D02*
X161775000Y-82575000D01*
G75*
G02*
X161675000Y-82475000I0J100000D01*
G01*
X161675000Y-81200000D01*
G75*
G02*
X161775000Y-81100000I100000J0D01*
G01*
X161975000Y-81100000D01*
G75*
G02*
X162075000Y-81200000I0J-100000D01*
G01*
X162075000Y-82475000D01*
G75*
G02*
X161975000Y-82575000I-100000J0D01*
G01*
G37*
G04 #@! TD.AperFunction*
G04 #@! TO.P,U4,27*
G04 #@! TO.N,+3V3*
G04 #@! TA.AperFunction,SMDPad,CuDef*
G36*
G01*
X162625000Y-82575000D02*
X162425000Y-82575000D01*
G75*
G02*
X162325000Y-82475000I0J100000D01*
G01*
X162325000Y-81200000D01*
G75*
G02*
X162425000Y-81100000I100000J0D01*
G01*
X162625000Y-81100000D01*
G75*
G02*
X162725000Y-81200000I0J-100000D01*
G01*
X162725000Y-82475000D01*
G75*
G02*
X162625000Y-82575000I-100000J0D01*
G01*
G37*
G04 #@! TD.AperFunction*
G04 #@! TO.P,U4,26*
G04 #@! TO.N,GND*
G04 #@! TA.AperFunction,SMDPad,CuDef*
G36*
G01*
X163275000Y-82575000D02*
X163075000Y-82575000D01*
G75*
G02*
X162975000Y-82475000I0J100000D01*
G01*
X162975000Y-81200000D01*
G75*
G02*
X163075000Y-81100000I100000J0D01*
G01*
X163275000Y-81100000D01*
G75*
G02*
X163375000Y-81200000I0J-100000D01*
G01*
X163375000Y-82475000D01*
G75*
G02*
X163275000Y-82575000I-100000J0D01*
G01*
G37*
G04 #@! TD.AperFunction*
G04 #@! TO.P,U4,25*
G04 #@! TA.AperFunction,SMDPad,CuDef*
G36*
G01*
X163925000Y-82575000D02*
X163725000Y-82575000D01*
G75*
G02*
X163625000Y-82475000I0J100000D01*
G01*
X163625000Y-81200000D01*
G75*
G02*
X163725000Y-81100000I100000J0D01*
G01*
X163925000Y-81100000D01*
G75*
G02*
X164025000Y-81200000I0J-100000D01*
G01*
X164025000Y-82475000D01*
G75*
G02*
X163925000Y-82575000I-100000J0D01*
G01*
G37*
G04 #@! TD.AperFunction*
G04 #@! TO.P,U4,24*
G04 #@! TO.N,+3V3*
G04 #@! TA.AperFunction,SMDPad,CuDef*
G36*
G01*
X164575000Y-82575000D02*
X164375000Y-82575000D01*
G75*
G02*
X164275000Y-82475000I0J100000D01*
G01*
X164275000Y-81200000D01*
G75*
G02*
X164375000Y-81100000I100000J0D01*
G01*
X164575000Y-81100000D01*
G75*
G02*
X164675000Y-81200000I0J-100000D01*
G01*
X164675000Y-82475000D01*
G75*
G02*
X164575000Y-82575000I-100000J0D01*
G01*
G37*
G04 #@! TD.AperFunction*
G04 #@! TO.P,U4,23*
G04 #@! TO.N,N/C*
G04 #@! TA.AperFunction,SMDPad,CuDef*
G36*
G01*
X165225000Y-82575000D02*
X165025000Y-82575000D01*
G75*
G02*
X164925000Y-82475000I0J100000D01*
G01*
X164925000Y-81200000D01*
G75*
G02*
X165025000Y-81100000I100000J0D01*
G01*
X165225000Y-81100000D01*
G75*
G02*
X165325000Y-81200000I0J-100000D01*
G01*
X165325000Y-82475000D01*
G75*
G02*
X165225000Y-82575000I-100000J0D01*
G01*
G37*
G04 #@! TD.AperFunction*
G04 #@! TO.P,U4,22*
G04 #@! TO.N,Net-(C18-Pad2)*
G04 #@! TA.AperFunction,SMDPad,CuDef*
G36*
G01*
X165875000Y-82575000D02*
X165675000Y-82575000D01*
G75*
G02*
X165575000Y-82475000I0J100000D01*
G01*
X165575000Y-81200000D01*
G75*
G02*
X165675000Y-81100000I100000J0D01*
G01*
X165875000Y-81100000D01*
G75*
G02*
X165975000Y-81200000I0J-100000D01*
G01*
X165975000Y-82475000D01*
G75*
G02*
X165875000Y-82575000I-100000J0D01*
G01*
G37*
G04 #@! TD.AperFunction*
G04 #@! TO.P,U4,21*
G04 #@! TO.N,Net-(C18-Pad1)*
G04 #@! TA.AperFunction,SMDPad,CuDef*
G36*
G01*
X166525000Y-82575000D02*
X166325000Y-82575000D01*
G75*
G02*
X166225000Y-82475000I0J100000D01*
G01*
X166225000Y-81200000D01*
G75*
G02*
X166325000Y-81100000I100000J0D01*
G01*
X166525000Y-81100000D01*
G75*
G02*
X166625000Y-81200000I0J-100000D01*
G01*
X166625000Y-82475000D01*
G75*
G02*
X166525000Y-82575000I-100000J0D01*
G01*
G37*
G04 #@! TD.AperFunction*
G04 #@! TO.P,U4,20*
G04 #@! TO.N,GND*
G04 #@! TA.AperFunction,SMDPad,CuDef*
G36*
G01*
X167175000Y-82575000D02*
X166975000Y-82575000D01*
G75*
G02*
X166875000Y-82475000I0J100000D01*
G01*
X166875000Y-81200000D01*
G75*
G02*
X166975000Y-81100000I100000J0D01*
G01*
X167175000Y-81100000D01*
G75*
G02*
X167275000Y-81200000I0J-100000D01*
G01*
X167275000Y-82475000D01*
G75*
G02*
X167175000Y-82575000I-100000J0D01*
G01*
G37*
G04 #@! TD.AperFunction*
G04 #@! TO.P,U4,19*
G04 #@! TO.N,N/C*
G04 #@! TA.AperFunction,SMDPad,CuDef*
G36*
G01*
X167825000Y-82575000D02*
X167625000Y-82575000D01*
G75*
G02*
X167525000Y-82475000I0J100000D01*
G01*
X167525000Y-81200000D01*
G75*
G02*
X167625000Y-81100000I100000J0D01*
G01*
X167825000Y-81100000D01*
G75*
G02*
X167925000Y-81200000I0J-100000D01*
G01*
X167925000Y-82475000D01*
G75*
G02*
X167825000Y-82575000I-100000J0D01*
G01*
G37*
G04 #@! TD.AperFunction*
G04 #@! TO.P,U4,18*
G04 #@! TO.N,Net-(R10-Pad2)*
G04 #@! TA.AperFunction,SMDPad,CuDef*
G36*
G01*
X168475000Y-82575000D02*
X168275000Y-82575000D01*
G75*
G02*
X168175000Y-82475000I0J100000D01*
G01*
X168175000Y-81200000D01*
G75*
G02*
X168275000Y-81100000I100000J0D01*
G01*
X168475000Y-81100000D01*
G75*
G02*
X168575000Y-81200000I0J-100000D01*
G01*
X168575000Y-82475000D01*
G75*
G02*
X168475000Y-82575000I-100000J0D01*
G01*
G37*
G04 #@! TD.AperFunction*
G04 #@! TO.P,U4,17*
G04 #@! TO.N,Net-(C17-Pad2)*
G04 #@! TA.AperFunction,SMDPad,CuDef*
G36*
G01*
X169125000Y-82575000D02*
X168925000Y-82575000D01*
G75*
G02*
X168825000Y-82475000I0J100000D01*
G01*
X168825000Y-81200000D01*
G75*
G02*
X168925000Y-81100000I100000J0D01*
G01*
X169125000Y-81100000D01*
G75*
G02*
X169225000Y-81200000I0J-100000D01*
G01*
X169225000Y-82475000D01*
G75*
G02*
X169125000Y-82575000I-100000J0D01*
G01*
G37*
G04 #@! TD.AperFunction*
G04 #@! TO.P,U4,16*
G04 #@! TO.N,GND*
G04 #@! TA.AperFunction,SMDPad,CuDef*
G36*
G01*
X169775000Y-82575000D02*
X169575000Y-82575000D01*
G75*
G02*
X169475000Y-82475000I0J100000D01*
G01*
X169475000Y-81200000D01*
G75*
G02*
X169575000Y-81100000I100000J0D01*
G01*
X169775000Y-81100000D01*
G75*
G02*
X169875000Y-81200000I0J-100000D01*
G01*
X169875000Y-82475000D01*
G75*
G02*
X169775000Y-82575000I-100000J0D01*
G01*
G37*
G04 #@! TD.AperFunction*
G04 #@! TO.P,U4,15*
G04 #@! TO.N,N/C*
G04 #@! TA.AperFunction,SMDPad,CuDef*
G36*
G01*
X170425000Y-82575000D02*
X170225000Y-82575000D01*
G75*
G02*
X170125000Y-82475000I0J100000D01*
G01*
X170125000Y-81200000D01*
G75*
G02*
X170225000Y-81100000I100000J0D01*
G01*
X170425000Y-81100000D01*
G75*
G02*
X170525000Y-81200000I0J-100000D01*
G01*
X170525000Y-82475000D01*
G75*
G02*
X170425000Y-82575000I-100000J0D01*
G01*
G37*
G04 #@! TD.AperFunction*
G04 #@! TO.P,U4,14*
G04 #@! TO.N,/Output Stage/DAC-D0*
G04 #@! TA.AperFunction,SMDPad,CuDef*
G36*
G01*
X170425000Y-88300000D02*
X170225000Y-88300000D01*
G75*
G02*
X170125000Y-88200000I0J100000D01*
G01*
X170125000Y-86925000D01*
G75*
G02*
X170225000Y-86825000I100000J0D01*
G01*
X170425000Y-86825000D01*
G75*
G02*
X170525000Y-86925000I0J-100000D01*
G01*
X170525000Y-88200000D01*
G75*
G02*
X170425000Y-88300000I-100000J0D01*
G01*
G37*
G04 #@! TD.AperFunction*
G04 #@! TO.P,U4,13*
G04 #@! TO.N,/Output Stage/DAC-D1*
G04 #@! TA.AperFunction,SMDPad,CuDef*
G36*
G01*
X169775000Y-88300000D02*
X169575000Y-88300000D01*
G75*
G02*
X169475000Y-88200000I0J100000D01*
G01*
X169475000Y-86925000D01*
G75*
G02*
X169575000Y-86825000I100000J0D01*
G01*
X169775000Y-86825000D01*
G75*
G02*
X169875000Y-86925000I0J-100000D01*
G01*
X169875000Y-88200000D01*
G75*
G02*
X169775000Y-88300000I-100000J0D01*
G01*
G37*
G04 #@! TD.AperFunction*
G04 #@! TO.P,U4,12*
G04 #@! TO.N,/Output Stage/DAC-D2*
G04 #@! TA.AperFunction,SMDPad,CuDef*
G36*
G01*
X169125000Y-88300000D02*
X168925000Y-88300000D01*
G75*
G02*
X168825000Y-88200000I0J100000D01*
G01*
X168825000Y-86925000D01*
G75*
G02*
X168925000Y-86825000I100000J0D01*
G01*
X169125000Y-86825000D01*
G75*
G02*
X169225000Y-86925000I0J-100000D01*
G01*
X169225000Y-88200000D01*
G75*
G02*
X169125000Y-88300000I-100000J0D01*
G01*
G37*
G04 #@! TD.AperFunction*
G04 #@! TO.P,U4,11*
G04 #@! TO.N,/Output Stage/DAC-D3*
G04 #@! TA.AperFunction,SMDPad,CuDef*
G36*
G01*
X168475000Y-88300000D02*
X168275000Y-88300000D01*
G75*
G02*
X168175000Y-88200000I0J100000D01*
G01*
X168175000Y-86925000D01*
G75*
G02*
X168275000Y-86825000I100000J0D01*
G01*
X168475000Y-86825000D01*
G75*
G02*
X168575000Y-86925000I0J-100000D01*
G01*
X168575000Y-88200000D01*
G75*
G02*
X168475000Y-88300000I-100000J0D01*
G01*
G37*
G04 #@! TD.AperFunction*
G04 #@! TO.P,U4,10*
G04 #@! TO.N,/Output Stage/DAC-D4*
G04 #@! TA.AperFunction,SMDPad,CuDef*
G36*
G01*
X167825000Y-88300000D02*
X167625000Y-88300000D01*
G75*
G02*
X167525000Y-88200000I0J100000D01*
G01*
X167525000Y-86925000D01*
G75*
G02*
X167625000Y-86825000I100000J0D01*
G01*
X167825000Y-86825000D01*
G75*
G02*
X167925000Y-86925000I0J-100000D01*
G01*
X167925000Y-88200000D01*
G75*
G02*
X167825000Y-88300000I-100000J0D01*
G01*
G37*
G04 #@! TD.AperFunction*
G04 #@! TO.P,U4,9*
G04 #@! TO.N,/Output Stage/DAC-D5*
G04 #@! TA.AperFunction,SMDPad,CuDef*
G36*
G01*
X167175000Y-88300000D02*
X166975000Y-88300000D01*
G75*
G02*
X166875000Y-88200000I0J100000D01*
G01*
X166875000Y-86925000D01*
G75*
G02*
X166975000Y-86825000I100000J0D01*
G01*
X167175000Y-86825000D01*
G75*
G02*
X167275000Y-86925000I0J-100000D01*
G01*
X167275000Y-88200000D01*
G75*
G02*
X167175000Y-88300000I-100000J0D01*
G01*
G37*
G04 #@! TD.AperFunction*
G04 #@! TO.P,U4,8*
G04 #@! TO.N,/Output Stage/DAC-D6*
G04 #@! TA.AperFunction,SMDPad,CuDef*
G36*
G01*
X166525000Y-88300000D02*
X166325000Y-88300000D01*
G75*
G02*
X166225000Y-88200000I0J100000D01*
G01*
X166225000Y-86925000D01*
G75*
G02*
X166325000Y-86825000I100000J0D01*
G01*
X166525000Y-86825000D01*
G75*
G02*
X166625000Y-86925000I0J-100000D01*
G01*
X166625000Y-88200000D01*
G75*
G02*
X166525000Y-88300000I-100000J0D01*
G01*
G37*
G04 #@! TD.AperFunction*
G04 #@! TO.P,U4,7*
G04 #@! TO.N,/Output Stage/DAC-D7*
G04 #@! TA.AperFunction,SMDPad,CuDef*
G36*
G01*
X165875000Y-88300000D02*
X165675000Y-88300000D01*
G75*
G02*
X165575000Y-88200000I0J100000D01*
G01*
X165575000Y-86925000D01*
G75*
G02*
X165675000Y-86825000I100000J0D01*
G01*
X165875000Y-86825000D01*
G75*
G02*
X165975000Y-86925000I0J-100000D01*
G01*
X165975000Y-88200000D01*
G75*
G02*
X165875000Y-88300000I-100000J0D01*
G01*
G37*
G04 #@! TD.AperFunction*
G04 #@! TO.P,U4,6*
G04 #@! TO.N,/Output Stage/DAC-D8*
G04 #@! TA.AperFunction,SMDPad,CuDef*
G36*
G01*
X165225000Y-88300000D02*
X165025000Y-88300000D01*
G75*
G02*
X164925000Y-88200000I0J100000D01*
G01*
X164925000Y-86925000D01*
G75*
G02*
X165025000Y-86825000I100000J0D01*
G01*
X165225000Y-86825000D01*
G75*
G02*
X165325000Y-86925000I0J-100000D01*
G01*
X165325000Y-88200000D01*
G75*
G02*
X165225000Y-88300000I-100000J0D01*
G01*
G37*
G04 #@! TD.AperFunction*
G04 #@! TO.P,U4,5*
G04 #@! TO.N,/Output Stage/DAC-D9*
G04 #@! TA.AperFunction,SMDPad,CuDef*
G36*
G01*
X164575000Y-88300000D02*
X164375000Y-88300000D01*
G75*
G02*
X164275000Y-88200000I0J100000D01*
G01*
X164275000Y-86925000D01*
G75*
G02*
X164375000Y-86825000I100000J0D01*
G01*
X164575000Y-86825000D01*
G75*
G02*
X164675000Y-86925000I0J-100000D01*
G01*
X164675000Y-88200000D01*
G75*
G02*
X164575000Y-88300000I-100000J0D01*
G01*
G37*
G04 #@! TD.AperFunction*
G04 #@! TO.P,U4,4*
G04 #@! TO.N,/Output Stage/DAC-D10*
G04 #@! TA.AperFunction,SMDPad,CuDef*
G36*
G01*
X163925000Y-88300000D02*
X163725000Y-88300000D01*
G75*
G02*
X163625000Y-88200000I0J100000D01*
G01*
X163625000Y-86925000D01*
G75*
G02*
X163725000Y-86825000I100000J0D01*
G01*
X163925000Y-86825000D01*
G75*
G02*
X164025000Y-86925000I0J-100000D01*
G01*
X164025000Y-88200000D01*
G75*
G02*
X163925000Y-88300000I-100000J0D01*
G01*
G37*
G04 #@! TD.AperFunction*
G04 #@! TO.P,U4,3*
G04 #@! TO.N,/Output Stage/DAC-D11*
G04 #@! TA.AperFunction,SMDPad,CuDef*
G36*
G01*
X163275000Y-88300000D02*
X163075000Y-88300000D01*
G75*
G02*
X162975000Y-88200000I0J100000D01*
G01*
X162975000Y-86925000D01*
G75*
G02*
X163075000Y-86825000I100000J0D01*
G01*
X163275000Y-86825000D01*
G75*
G02*
X163375000Y-86925000I0J-100000D01*
G01*
X163375000Y-88200000D01*
G75*
G02*
X163275000Y-88300000I-100000J0D01*
G01*
G37*
G04 #@! TD.AperFunction*
G04 #@! TO.P,U4,2*
G04 #@! TO.N,/Output Stage/DAC-D12*
G04 #@! TA.AperFunction,SMDPad,CuDef*
G36*
G01*
X162625000Y-88300000D02*
X162425000Y-88300000D01*
G75*
G02*
X162325000Y-88200000I0J100000D01*
G01*
X162325000Y-86925000D01*
G75*
G02*
X162425000Y-86825000I100000J0D01*
G01*
X162625000Y-86825000D01*
G75*
G02*
X162725000Y-86925000I0J-100000D01*
G01*
X162725000Y-88200000D01*
G75*
G02*
X162625000Y-88300000I-100000J0D01*
G01*
G37*
G04 #@! TD.AperFunction*
G04 #@! TO.P,U4,1*
G04 #@! TO.N,/Output Stage/DAC-D13*
G04 #@! TA.AperFunction,SMDPad,CuDef*
G36*
G01*
X161975000Y-88300000D02*
X161775000Y-88300000D01*
G75*
G02*
X161675000Y-88200000I0J100000D01*
G01*
X161675000Y-86925000D01*
G75*
G02*
X161775000Y-86825000I100000J0D01*
G01*
X161975000Y-86825000D01*
G75*
G02*
X162075000Y-86925000I0J-100000D01*
G01*
X162075000Y-88200000D01*
G75*
G02*
X161975000Y-88300000I-100000J0D01*
G01*
G37*
G04 #@! TD.AperFunction*
G04 #@! TD*
G04 #@! TO.P,U3,6*
G04 #@! TO.N,Net-(U2-Pad12)*
X148310000Y-88050000D03*
G04 #@! TO.P,U3,5*
G04 #@! TO.N,Net-(U2-Pad14)*
X148310000Y-89000000D03*
G04 #@! TO.P,U3,4*
G04 #@! TO.N,Net-(U2-Pad20)*
X148310000Y-89950000D03*
G04 #@! TO.P,U3,3*
G04 #@! TO.N,Net-(R35-Pad2)*
X145690000Y-89950000D03*
G04 #@! TO.P,U3,2*
G04 #@! TO.N,GND*
X145690000Y-89000000D03*
G04 #@! TO.P,U3,1*
G04 #@! TO.N,+3V3*
X145690000Y-88050000D03*
G04 #@! TD*
G04 #@! TO.P,R34,2*
G04 #@! TO.N,+5V*
G04 #@! TA.AperFunction,SMDPad,CuDef*
G36*
G01*
X131425000Y-88925000D02*
X131975000Y-88925000D01*
G75*
G02*
X132175000Y-89125000I0J-200000D01*
G01*
X132175000Y-89525000D01*
G75*
G02*
X131975000Y-89725000I-200000J0D01*
G01*
X131425000Y-89725000D01*
G75*
G02*
X131225000Y-89525000I0J200000D01*
G01*
X131225000Y-89125000D01*
G75*
G02*
X131425000Y-88925000I200000J0D01*
G01*
G37*
G04 #@! TD.AperFunction*
G04 #@! TO.P,R34,1*
G04 #@! TO.N,/Overcurrent Protection/OCControl*
G04 #@! TA.AperFunction,SMDPad,CuDef*
G36*
G01*
X131425000Y-87275000D02*
X131975000Y-87275000D01*
G75*
G02*
X132175000Y-87475000I0J-200000D01*
G01*
X132175000Y-87875000D01*
G75*
G02*
X131975000Y-88075000I-200000J0D01*
G01*
X131425000Y-88075000D01*
G75*
G02*
X131225000Y-87875000I0J200000D01*
G01*
X131225000Y-87475000D01*
G75*
G02*
X131425000Y-87275000I200000J0D01*
G01*
G37*
G04 #@! TD.AperFunction*
G04 #@! TD*
G04 #@! TO.P,R33,2*
G04 #@! TO.N,Net-(R32-Pad1)*
G04 #@! TA.AperFunction,SMDPad,CuDef*
G36*
G01*
X137875000Y-88075000D02*
X137325000Y-88075000D01*
G75*
G02*
X137125000Y-87875000I0J200000D01*
G01*
X137125000Y-87475000D01*
G75*
G02*
X137325000Y-87275000I200000J0D01*
G01*
X137875000Y-87275000D01*
G75*
G02*
X138075000Y-87475000I0J-200000D01*
G01*
X138075000Y-87875000D01*
G75*
G02*
X137875000Y-88075000I-200000J0D01*
G01*
G37*
G04 #@! TD.AperFunction*
G04 #@! TO.P,R33,1*
G04 #@! TO.N,/Overcurrent Protection/OCStatus*
G04 #@! TA.AperFunction,SMDPad,CuDef*
G36*
G01*
X137875000Y-89725000D02*
X137325000Y-89725000D01*
G75*
G02*
X137125000Y-89525000I0J200000D01*
G01*
X137125000Y-89125000D01*
G75*
G02*
X137325000Y-88925000I200000J0D01*
G01*
X137875000Y-88925000D01*
G75*
G02*
X138075000Y-89125000I0J-200000D01*
G01*
X138075000Y-89525000D01*
G75*
G02*
X137875000Y-89725000I-200000J0D01*
G01*
G37*
G04 #@! TD.AperFunction*
G04 #@! TD*
G04 #@! TO.P,R32,2*
G04 #@! TO.N,Net-(R31-Pad2)*
G04 #@! TA.AperFunction,SMDPad,CuDef*
G36*
G01*
X138925000Y-88925000D02*
X139475000Y-88925000D01*
G75*
G02*
X139675000Y-89125000I0J-200000D01*
G01*
X139675000Y-89525000D01*
G75*
G02*
X139475000Y-89725000I-200000J0D01*
G01*
X138925000Y-89725000D01*
G75*
G02*
X138725000Y-89525000I0J200000D01*
G01*
X138725000Y-89125000D01*
G75*
G02*
X138925000Y-88925000I200000J0D01*
G01*
G37*
G04 #@! TD.AperFunction*
G04 #@! TO.P,R32,1*
G04 #@! TO.N,Net-(R32-Pad1)*
G04 #@! TA.AperFunction,SMDPad,CuDef*
G36*
G01*
X138925000Y-87275000D02*
X139475000Y-87275000D01*
G75*
G02*
X139675000Y-87475000I0J-200000D01*
G01*
X139675000Y-87875000D01*
G75*
G02*
X139475000Y-88075000I-200000J0D01*
G01*
X138925000Y-88075000D01*
G75*
G02*
X138725000Y-87875000I0J200000D01*
G01*
X138725000Y-87475000D01*
G75*
G02*
X138925000Y-87275000I200000J0D01*
G01*
G37*
G04 #@! TD.AperFunction*
G04 #@! TD*
G04 #@! TO.P,R31,2*
G04 #@! TO.N,Net-(R31-Pad2)*
G04 #@! TA.AperFunction,SMDPad,CuDef*
G36*
G01*
X134375000Y-113075000D02*
X133825000Y-113075000D01*
G75*
G02*
X133625000Y-112875000I0J200000D01*
G01*
X133625000Y-112475000D01*
G75*
G02*
X133825000Y-112275000I200000J0D01*
G01*
X134375000Y-112275000D01*
G75*
G02*
X134575000Y-112475000I0J-200000D01*
G01*
X134575000Y-112875000D01*
G75*
G02*
X134375000Y-113075000I-200000J0D01*
G01*
G37*
G04 #@! TD.AperFunction*
G04 #@! TO.P,R31,1*
G04 #@! TO.N,Net-(D6-Pad2)*
G04 #@! TA.AperFunction,SMDPad,CuDef*
G36*
G01*
X134375000Y-114725000D02*
X133825000Y-114725000D01*
G75*
G02*
X133625000Y-114525000I0J200000D01*
G01*
X133625000Y-114125000D01*
G75*
G02*
X133825000Y-113925000I200000J0D01*
G01*
X134375000Y-113925000D01*
G75*
G02*
X134575000Y-114125000I0J-200000D01*
G01*
X134575000Y-114525000D01*
G75*
G02*
X134375000Y-114725000I-200000J0D01*
G01*
G37*
G04 #@! TD.AperFunction*
G04 #@! TD*
G04 #@! TO.P,R30,2*
G04 #@! TO.N,Net-(R30-Pad2)*
G04 #@! TA.AperFunction,SMDPad,CuDef*
G36*
G01*
X153975000Y-114875000D02*
X153425000Y-114875000D01*
G75*
G02*
X153225000Y-114675000I0J200000D01*
G01*
X153225000Y-114275000D01*
G75*
G02*
X153425000Y-114075000I200000J0D01*
G01*
X153975000Y-114075000D01*
G75*
G02*
X154175000Y-114275000I0J-200000D01*
G01*
X154175000Y-114675000D01*
G75*
G02*
X153975000Y-114875000I-200000J0D01*
G01*
G37*
G04 #@! TD.AperFunction*
G04 #@! TO.P,R30,1*
G04 #@! TO.N,GND*
G04 #@! TA.AperFunction,SMDPad,CuDef*
G36*
G01*
X153975000Y-116525000D02*
X153425000Y-116525000D01*
G75*
G02*
X153225000Y-116325000I0J200000D01*
G01*
X153225000Y-115925000D01*
G75*
G02*
X153425000Y-115725000I200000J0D01*
G01*
X153975000Y-115725000D01*
G75*
G02*
X154175000Y-115925000I0J-200000D01*
G01*
X154175000Y-116325000D01*
G75*
G02*
X153975000Y-116525000I-200000J0D01*
G01*
G37*
G04 #@! TD.AperFunction*
G04 #@! TD*
G04 #@! TO.P,R29,2*
G04 #@! TO.N,Net-(R28-Pad1)*
G04 #@! TA.AperFunction,SMDPad,CuDef*
G36*
G01*
X128075000Y-98775000D02*
X127525000Y-98775000D01*
G75*
G02*
X127325000Y-98575000I0J200000D01*
G01*
X127325000Y-98175000D01*
G75*
G02*
X127525000Y-97975000I200000J0D01*
G01*
X128075000Y-97975000D01*
G75*
G02*
X128275000Y-98175000I0J-200000D01*
G01*
X128275000Y-98575000D01*
G75*
G02*
X128075000Y-98775000I-200000J0D01*
G01*
G37*
G04 #@! TD.AperFunction*
G04 #@! TO.P,R29,1*
G04 #@! TO.N,Net-(R29-Pad1)*
G04 #@! TA.AperFunction,SMDPad,CuDef*
G36*
G01*
X128075000Y-100425000D02*
X127525000Y-100425000D01*
G75*
G02*
X127325000Y-100225000I0J200000D01*
G01*
X127325000Y-99825000D01*
G75*
G02*
X127525000Y-99625000I200000J0D01*
G01*
X128075000Y-99625000D01*
G75*
G02*
X128275000Y-99825000I0J-200000D01*
G01*
X128275000Y-100225000D01*
G75*
G02*
X128075000Y-100425000I-200000J0D01*
G01*
G37*
G04 #@! TD.AperFunction*
G04 #@! TD*
G04 #@! TO.P,R28,2*
G04 #@! TO.N,+5V*
G04 #@! TA.AperFunction,SMDPad,CuDef*
G36*
G01*
X129575000Y-93775000D02*
X129025000Y-93775000D01*
G75*
G02*
X128825000Y-93575000I0J200000D01*
G01*
X128825000Y-93175000D01*
G75*
G02*
X129025000Y-92975000I200000J0D01*
G01*
X129575000Y-92975000D01*
G75*
G02*
X129775000Y-93175000I0J-200000D01*
G01*
X129775000Y-93575000D01*
G75*
G02*
X129575000Y-93775000I-200000J0D01*
G01*
G37*
G04 #@! TD.AperFunction*
G04 #@! TO.P,R28,1*
G04 #@! TO.N,Net-(R28-Pad1)*
G04 #@! TA.AperFunction,SMDPad,CuDef*
G36*
G01*
X129575000Y-95425000D02*
X129025000Y-95425000D01*
G75*
G02*
X128825000Y-95225000I0J200000D01*
G01*
X128825000Y-94825000D01*
G75*
G02*
X129025000Y-94625000I200000J0D01*
G01*
X129575000Y-94625000D01*
G75*
G02*
X129775000Y-94825000I0J-200000D01*
G01*
X129775000Y-95225000D01*
G75*
G02*
X129575000Y-95425000I-200000J0D01*
G01*
G37*
G04 #@! TD.AperFunction*
G04 #@! TD*
G04 #@! TO.P,R27,2*
G04 #@! TO.N,GND*
G04 #@! TA.AperFunction,SMDPad,CuDef*
G36*
G01*
X112825000Y-105475000D02*
X112825000Y-104925000D01*
G75*
G02*
X113025000Y-104725000I200000J0D01*
G01*
X113425000Y-104725000D01*
G75*
G02*
X113625000Y-104925000I0J-200000D01*
G01*
X113625000Y-105475000D01*
G75*
G02*
X113425000Y-105675000I-200000J0D01*
G01*
X113025000Y-105675000D01*
G75*
G02*
X112825000Y-105475000I0J200000D01*
G01*
G37*
G04 #@! TD.AperFunction*
G04 #@! TO.P,R27,1*
G04 #@! TO.N,Net-(R26-Pad2)*
G04 #@! TA.AperFunction,SMDPad,CuDef*
G36*
G01*
X111175000Y-105475000D02*
X111175000Y-104925000D01*
G75*
G02*
X111375000Y-104725000I200000J0D01*
G01*
X111775000Y-104725000D01*
G75*
G02*
X111975000Y-104925000I0J-200000D01*
G01*
X111975000Y-105475000D01*
G75*
G02*
X111775000Y-105675000I-200000J0D01*
G01*
X111375000Y-105675000D01*
G75*
G02*
X111175000Y-105475000I0J200000D01*
G01*
G37*
G04 #@! TD.AperFunction*
G04 #@! TD*
G04 #@! TO.P,R26,2*
G04 #@! TO.N,Net-(R26-Pad2)*
G04 #@! TA.AperFunction,SMDPad,CuDef*
G36*
G01*
X111975000Y-106525000D02*
X111975000Y-107075000D01*
G75*
G02*
X111775000Y-107275000I-200000J0D01*
G01*
X111375000Y-107275000D01*
G75*
G02*
X111175000Y-107075000I0J200000D01*
G01*
X111175000Y-106525000D01*
G75*
G02*
X111375000Y-106325000I200000J0D01*
G01*
X111775000Y-106325000D01*
G75*
G02*
X111975000Y-106525000I0J-200000D01*
G01*
G37*
G04 #@! TD.AperFunction*
G04 #@! TO.P,R26,1*
G04 #@! TO.N,+9V*
G04 #@! TA.AperFunction,SMDPad,CuDef*
G36*
G01*
X113625000Y-106525000D02*
X113625000Y-107075000D01*
G75*
G02*
X113425000Y-107275000I-200000J0D01*
G01*
X113025000Y-107275000D01*
G75*
G02*
X112825000Y-107075000I0J200000D01*
G01*
X112825000Y-106525000D01*
G75*
G02*
X113025000Y-106325000I200000J0D01*
G01*
X113425000Y-106325000D01*
G75*
G02*
X113625000Y-106525000I0J-200000D01*
G01*
G37*
G04 #@! TD.AperFunction*
G04 #@! TD*
G04 #@! TO.P,R25,2*
G04 #@! TO.N,Net-(R25-Pad2)*
G04 #@! TA.AperFunction,SMDPad,CuDef*
G36*
G01*
X108925000Y-103675000D02*
X108925000Y-103125000D01*
G75*
G02*
X109125000Y-102925000I200000J0D01*
G01*
X109525000Y-102925000D01*
G75*
G02*
X109725000Y-103125000I0J-200000D01*
G01*
X109725000Y-103675000D01*
G75*
G02*
X109525000Y-103875000I-200000J0D01*
G01*
X109125000Y-103875000D01*
G75*
G02*
X108925000Y-103675000I0J200000D01*
G01*
G37*
G04 #@! TD.AperFunction*
G04 #@! TO.P,R25,1*
G04 #@! TO.N,+12V*
G04 #@! TA.AperFunction,SMDPad,CuDef*
G36*
G01*
X107275000Y-103675000D02*
X107275000Y-103125000D01*
G75*
G02*
X107475000Y-102925000I200000J0D01*
G01*
X107875000Y-102925000D01*
G75*
G02*
X108075000Y-103125000I0J-200000D01*
G01*
X108075000Y-103675000D01*
G75*
G02*
X107875000Y-103875000I-200000J0D01*
G01*
X107475000Y-103875000D01*
G75*
G02*
X107275000Y-103675000I0J200000D01*
G01*
G37*
G04 #@! TD.AperFunction*
G04 #@! TD*
G04 #@! TO.P,R24,2*
G04 #@! TO.N,GND*
G04 #@! TA.AperFunction,SMDPad,CuDef*
G36*
G01*
X129225000Y-107625000D02*
X129225000Y-107075000D01*
G75*
G02*
X129425000Y-106875000I200000J0D01*
G01*
X129825000Y-106875000D01*
G75*
G02*
X130025000Y-107075000I0J-200000D01*
G01*
X130025000Y-107625000D01*
G75*
G02*
X129825000Y-107825000I-200000J0D01*
G01*
X129425000Y-107825000D01*
G75*
G02*
X129225000Y-107625000I0J200000D01*
G01*
G37*
G04 #@! TD.AperFunction*
G04 #@! TO.P,R24,1*
G04 #@! TO.N,Net-(R23-Pad2)*
G04 #@! TA.AperFunction,SMDPad,CuDef*
G36*
G01*
X127575000Y-107625000D02*
X127575000Y-107075000D01*
G75*
G02*
X127775000Y-106875000I200000J0D01*
G01*
X128175000Y-106875000D01*
G75*
G02*
X128375000Y-107075000I0J-200000D01*
G01*
X128375000Y-107625000D01*
G75*
G02*
X128175000Y-107825000I-200000J0D01*
G01*
X127775000Y-107825000D01*
G75*
G02*
X127575000Y-107625000I0J200000D01*
G01*
G37*
G04 #@! TD.AperFunction*
G04 #@! TD*
G04 #@! TO.P,R23,2*
G04 #@! TO.N,Net-(R23-Pad2)*
G04 #@! TA.AperFunction,SMDPad,CuDef*
G36*
G01*
X128375000Y-108825000D02*
X128375000Y-109375000D01*
G75*
G02*
X128175000Y-109575000I-200000J0D01*
G01*
X127775000Y-109575000D01*
G75*
G02*
X127575000Y-109375000I0J200000D01*
G01*
X127575000Y-108825000D01*
G75*
G02*
X127775000Y-108625000I200000J0D01*
G01*
X128175000Y-108625000D01*
G75*
G02*
X128375000Y-108825000I0J-200000D01*
G01*
G37*
G04 #@! TD.AperFunction*
G04 #@! TO.P,R23,1*
G04 #@! TO.N,+5V*
G04 #@! TA.AperFunction,SMDPad,CuDef*
G36*
G01*
X130025000Y-108825000D02*
X130025000Y-109375000D01*
G75*
G02*
X129825000Y-109575000I-200000J0D01*
G01*
X129425000Y-109575000D01*
G75*
G02*
X129225000Y-109375000I0J200000D01*
G01*
X129225000Y-108825000D01*
G75*
G02*
X129425000Y-108625000I200000J0D01*
G01*
X129825000Y-108625000D01*
G75*
G02*
X130025000Y-108825000I0J-200000D01*
G01*
G37*
G04 #@! TD.AperFunction*
G04 #@! TD*
G04 #@! TO.P,R22,2*
G04 #@! TO.N,Net-(R22-Pad2)*
G04 #@! TA.AperFunction,SMDPad,CuDef*
G36*
G01*
X122425000Y-105675000D02*
X122425000Y-105125000D01*
G75*
G02*
X122625000Y-104925000I200000J0D01*
G01*
X123025000Y-104925000D01*
G75*
G02*
X123225000Y-105125000I0J-200000D01*
G01*
X123225000Y-105675000D01*
G75*
G02*
X123025000Y-105875000I-200000J0D01*
G01*
X122625000Y-105875000D01*
G75*
G02*
X122425000Y-105675000I0J200000D01*
G01*
G37*
G04 #@! TD.AperFunction*
G04 #@! TO.P,R22,1*
G04 #@! TO.N,+12V*
G04 #@! TA.AperFunction,SMDPad,CuDef*
G36*
G01*
X120775000Y-105675000D02*
X120775000Y-105125000D01*
G75*
G02*
X120975000Y-104925000I200000J0D01*
G01*
X121375000Y-104925000D01*
G75*
G02*
X121575000Y-105125000I0J-200000D01*
G01*
X121575000Y-105675000D01*
G75*
G02*
X121375000Y-105875000I-200000J0D01*
G01*
X120975000Y-105875000D01*
G75*
G02*
X120775000Y-105675000I0J200000D01*
G01*
G37*
G04 #@! TD.AperFunction*
G04 #@! TD*
G04 #@! TO.P,R21,2*
G04 #@! TO.N,Net-(R18-Pad2)*
G04 #@! TA.AperFunction,SMDPad,CuDef*
G36*
G01*
X150425000Y-77825000D02*
X150425000Y-77275000D01*
G75*
G02*
X150625000Y-77075000I200000J0D01*
G01*
X151025000Y-77075000D01*
G75*
G02*
X151225000Y-77275000I0J-200000D01*
G01*
X151225000Y-77825000D01*
G75*
G02*
X151025000Y-78025000I-200000J0D01*
G01*
X150625000Y-78025000D01*
G75*
G02*
X150425000Y-77825000I0J200000D01*
G01*
G37*
G04 #@! TD.AperFunction*
G04 #@! TO.P,R21,1*
G04 #@! TO.N,+12V*
G04 #@! TA.AperFunction,SMDPad,CuDef*
G36*
G01*
X148775000Y-77825000D02*
X148775000Y-77275000D01*
G75*
G02*
X148975000Y-77075000I200000J0D01*
G01*
X149375000Y-77075000D01*
G75*
G02*
X149575000Y-77275000I0J-200000D01*
G01*
X149575000Y-77825000D01*
G75*
G02*
X149375000Y-78025000I-200000J0D01*
G01*
X148975000Y-78025000D01*
G75*
G02*
X148775000Y-77825000I0J200000D01*
G01*
G37*
G04 #@! TD.AperFunction*
G04 #@! TD*
G04 #@! TO.P,R20,2*
G04 #@! TO.N,GND*
G04 #@! TA.AperFunction,SMDPad,CuDef*
G36*
G01*
X148925000Y-75675000D02*
X149475000Y-75675000D01*
G75*
G02*
X149675000Y-75875000I0J-200000D01*
G01*
X149675000Y-76275000D01*
G75*
G02*
X149475000Y-76475000I-200000J0D01*
G01*
X148925000Y-76475000D01*
G75*
G02*
X148725000Y-76275000I0J200000D01*
G01*
X148725000Y-75875000D01*
G75*
G02*
X148925000Y-75675000I200000J0D01*
G01*
G37*
G04 #@! TD.AperFunction*
G04 #@! TO.P,R20,1*
G04 #@! TO.N,Net-(R19-Pad2)*
G04 #@! TA.AperFunction,SMDPad,CuDef*
G36*
G01*
X148925000Y-74025000D02*
X149475000Y-74025000D01*
G75*
G02*
X149675000Y-74225000I0J-200000D01*
G01*
X149675000Y-74625000D01*
G75*
G02*
X149475000Y-74825000I-200000J0D01*
G01*
X148925000Y-74825000D01*
G75*
G02*
X148725000Y-74625000I0J200000D01*
G01*
X148725000Y-74225000D01*
G75*
G02*
X148925000Y-74025000I200000J0D01*
G01*
G37*
G04 #@! TD.AperFunction*
G04 #@! TD*
G04 #@! TO.P,R19,2*
G04 #@! TO.N,Net-(R19-Pad2)*
G04 #@! TA.AperFunction,SMDPad,CuDef*
G36*
G01*
X151025000Y-74825000D02*
X150475000Y-74825000D01*
G75*
G02*
X150275000Y-74625000I0J200000D01*
G01*
X150275000Y-74225000D01*
G75*
G02*
X150475000Y-74025000I200000J0D01*
G01*
X151025000Y-74025000D01*
G75*
G02*
X151225000Y-74225000I0J-200000D01*
G01*
X151225000Y-74625000D01*
G75*
G02*
X151025000Y-74825000I-200000J0D01*
G01*
G37*
G04 #@! TD.AperFunction*
G04 #@! TO.P,R19,1*
G04 #@! TO.N,Net-(R18-Pad2)*
G04 #@! TA.AperFunction,SMDPad,CuDef*
G36*
G01*
X151025000Y-76475000D02*
X150475000Y-76475000D01*
G75*
G02*
X150275000Y-76275000I0J200000D01*
G01*
X150275000Y-75875000D01*
G75*
G02*
X150475000Y-75675000I200000J0D01*
G01*
X151025000Y-75675000D01*
G75*
G02*
X151225000Y-75875000I0J-200000D01*
G01*
X151225000Y-76275000D01*
G75*
G02*
X151025000Y-76475000I-200000J0D01*
G01*
G37*
G04 #@! TD.AperFunction*
G04 #@! TD*
G04 #@! TO.P,R18,2*
G04 #@! TO.N,Net-(R18-Pad2)*
G04 #@! TA.AperFunction,SMDPad,CuDef*
G36*
G01*
X150425000Y-79375000D02*
X150425000Y-78825000D01*
G75*
G02*
X150625000Y-78625000I200000J0D01*
G01*
X151025000Y-78625000D01*
G75*
G02*
X151225000Y-78825000I0J-200000D01*
G01*
X151225000Y-79375000D01*
G75*
G02*
X151025000Y-79575000I-200000J0D01*
G01*
X150625000Y-79575000D01*
G75*
G02*
X150425000Y-79375000I0J200000D01*
G01*
G37*
G04 #@! TD.AperFunction*
G04 #@! TO.P,R18,1*
G04 #@! TO.N,Net-(R14-Pad2)*
G04 #@! TA.AperFunction,SMDPad,CuDef*
G36*
G01*
X148775000Y-79375000D02*
X148775000Y-78825000D01*
G75*
G02*
X148975000Y-78625000I200000J0D01*
G01*
X149375000Y-78625000D01*
G75*
G02*
X149575000Y-78825000I0J-200000D01*
G01*
X149575000Y-79375000D01*
G75*
G02*
X149375000Y-79575000I-200000J0D01*
G01*
X148975000Y-79575000D01*
G75*
G02*
X148775000Y-79375000I0J200000D01*
G01*
G37*
G04 #@! TD.AperFunction*
G04 #@! TD*
G04 #@! TO.P,R15,2*
G04 #@! TO.N,Net-(R15-Pad2)*
G04 #@! TA.AperFunction,SMDPad,CuDef*
G36*
G01*
X141175000Y-85125000D02*
X141175000Y-85675000D01*
G75*
G02*
X140975000Y-85875000I-200000J0D01*
G01*
X140575000Y-85875000D01*
G75*
G02*
X140375000Y-85675000I0J200000D01*
G01*
X140375000Y-85125000D01*
G75*
G02*
X140575000Y-84925000I200000J0D01*
G01*
X140975000Y-84925000D01*
G75*
G02*
X141175000Y-85125000I0J-200000D01*
G01*
G37*
G04 #@! TD.AperFunction*
G04 #@! TO.P,R15,1*
G04 #@! TO.N,Net-(R13-Pad2)*
G04 #@! TA.AperFunction,SMDPad,CuDef*
G36*
G01*
X142825000Y-85125000D02*
X142825000Y-85675000D01*
G75*
G02*
X142625000Y-85875000I-200000J0D01*
G01*
X142225000Y-85875000D01*
G75*
G02*
X142025000Y-85675000I0J200000D01*
G01*
X142025000Y-85125000D01*
G75*
G02*
X142225000Y-84925000I200000J0D01*
G01*
X142625000Y-84925000D01*
G75*
G02*
X142825000Y-85125000I0J-200000D01*
G01*
G37*
G04 #@! TD.AperFunction*
G04 #@! TD*
G04 #@! TO.P,R14,2*
G04 #@! TO.N,Net-(R14-Pad2)*
G04 #@! TA.AperFunction,SMDPad,CuDef*
G36*
G01*
X149575000Y-80425000D02*
X149575000Y-80975000D01*
G75*
G02*
X149375000Y-81175000I-200000J0D01*
G01*
X148975000Y-81175000D01*
G75*
G02*
X148775000Y-80975000I0J200000D01*
G01*
X148775000Y-80425000D01*
G75*
G02*
X148975000Y-80225000I200000J0D01*
G01*
X149375000Y-80225000D01*
G75*
G02*
X149575000Y-80425000I0J-200000D01*
G01*
G37*
G04 #@! TD.AperFunction*
G04 #@! TO.P,R14,1*
G04 #@! TO.N,Net-(C18-Pad1)*
G04 #@! TA.AperFunction,SMDPad,CuDef*
G36*
G01*
X151225000Y-80425000D02*
X151225000Y-80975000D01*
G75*
G02*
X151025000Y-81175000I-200000J0D01*
G01*
X150625000Y-81175000D01*
G75*
G02*
X150425000Y-80975000I0J200000D01*
G01*
X150425000Y-80425000D01*
G75*
G02*
X150625000Y-80225000I200000J0D01*
G01*
X151025000Y-80225000D01*
G75*
G02*
X151225000Y-80425000I0J-200000D01*
G01*
G37*
G04 #@! TD.AperFunction*
G04 #@! TD*
G04 #@! TO.P,R13,2*
G04 #@! TO.N,Net-(R13-Pad2)*
G04 #@! TA.AperFunction,SMDPad,CuDef*
G36*
G01*
X149550000Y-81975000D02*
X149550000Y-82525000D01*
G75*
G02*
X149350000Y-82725000I-200000J0D01*
G01*
X148950000Y-82725000D01*
G75*
G02*
X148750000Y-82525000I0J200000D01*
G01*
X148750000Y-81975000D01*
G75*
G02*
X148950000Y-81775000I200000J0D01*
G01*
X149350000Y-81775000D01*
G75*
G02*
X149550000Y-81975000I0J-200000D01*
G01*
G37*
G04 #@! TD.AperFunction*
G04 #@! TO.P,R13,1*
G04 #@! TO.N,Net-(C18-Pad2)*
G04 #@! TA.AperFunction,SMDPad,CuDef*
G36*
G01*
X151200000Y-81975000D02*
X151200000Y-82525000D01*
G75*
G02*
X151000000Y-82725000I-200000J0D01*
G01*
X150600000Y-82725000D01*
G75*
G02*
X150400000Y-82525000I0J200000D01*
G01*
X150400000Y-81975000D01*
G75*
G02*
X150600000Y-81775000I200000J0D01*
G01*
X151000000Y-81775000D01*
G75*
G02*
X151200000Y-81975000I0J-200000D01*
G01*
G37*
G04 #@! TD.AperFunction*
G04 #@! TD*
G04 #@! TO.P,R12,2*
G04 #@! TO.N,Net-(C18-Pad2)*
G04 #@! TA.AperFunction,SMDPad,CuDef*
G36*
G01*
X150400000Y-84150000D02*
X150400000Y-83600000D01*
G75*
G02*
X150600000Y-83400000I200000J0D01*
G01*
X151000000Y-83400000D01*
G75*
G02*
X151200000Y-83600000I0J-200000D01*
G01*
X151200000Y-84150000D01*
G75*
G02*
X151000000Y-84350000I-200000J0D01*
G01*
X150600000Y-84350000D01*
G75*
G02*
X150400000Y-84150000I0J200000D01*
G01*
G37*
G04 #@! TD.AperFunction*
G04 #@! TO.P,R12,1*
G04 #@! TO.N,GND*
G04 #@! TA.AperFunction,SMDPad,CuDef*
G36*
G01*
X148750000Y-84150000D02*
X148750000Y-83600000D01*
G75*
G02*
X148950000Y-83400000I200000J0D01*
G01*
X149350000Y-83400000D01*
G75*
G02*
X149550000Y-83600000I0J-200000D01*
G01*
X149550000Y-84150000D01*
G75*
G02*
X149350000Y-84350000I-200000J0D01*
G01*
X148950000Y-84350000D01*
G75*
G02*
X148750000Y-84150000I0J200000D01*
G01*
G37*
G04 #@! TD.AperFunction*
G04 #@! TD*
G04 #@! TO.P,R11,2*
G04 #@! TO.N,Net-(C18-Pad1)*
G04 #@! TA.AperFunction,SMDPad,CuDef*
G36*
G01*
X152050000Y-78800000D02*
X152600000Y-78800000D01*
G75*
G02*
X152800000Y-79000000I0J-200000D01*
G01*
X152800000Y-79400000D01*
G75*
G02*
X152600000Y-79600000I-200000J0D01*
G01*
X152050000Y-79600000D01*
G75*
G02*
X151850000Y-79400000I0J200000D01*
G01*
X151850000Y-79000000D01*
G75*
G02*
X152050000Y-78800000I200000J0D01*
G01*
G37*
G04 #@! TD.AperFunction*
G04 #@! TO.P,R11,1*
G04 #@! TO.N,GND*
G04 #@! TA.AperFunction,SMDPad,CuDef*
G36*
G01*
X152050000Y-77150000D02*
X152600000Y-77150000D01*
G75*
G02*
X152800000Y-77350000I0J-200000D01*
G01*
X152800000Y-77750000D01*
G75*
G02*
X152600000Y-77950000I-200000J0D01*
G01*
X152050000Y-77950000D01*
G75*
G02*
X151850000Y-77750000I0J200000D01*
G01*
X151850000Y-77350000D01*
G75*
G02*
X152050000Y-77150000I200000J0D01*
G01*
G37*
G04 #@! TD.AperFunction*
G04 #@! TD*
G04 #@! TO.P,R10,2*
G04 #@! TO.N,Net-(R10-Pad2)*
G04 #@! TA.AperFunction,SMDPad,CuDef*
G36*
G01*
X167925000Y-79125000D02*
X168475000Y-79125000D01*
G75*
G02*
X168675000Y-79325000I0J-200000D01*
G01*
X168675000Y-79725000D01*
G75*
G02*
X168475000Y-79925000I-200000J0D01*
G01*
X167925000Y-79925000D01*
G75*
G02*
X167725000Y-79725000I0J200000D01*
G01*
X167725000Y-79325000D01*
G75*
G02*
X167925000Y-79125000I200000J0D01*
G01*
G37*
G04 #@! TD.AperFunction*
G04 #@! TO.P,R10,1*
G04 #@! TO.N,GND*
G04 #@! TA.AperFunction,SMDPad,CuDef*
G36*
G01*
X167925000Y-77475000D02*
X168475000Y-77475000D01*
G75*
G02*
X168675000Y-77675000I0J-200000D01*
G01*
X168675000Y-78075000D01*
G75*
G02*
X168475000Y-78275000I-200000J0D01*
G01*
X167925000Y-78275000D01*
G75*
G02*
X167725000Y-78075000I0J200000D01*
G01*
X167725000Y-77675000D01*
G75*
G02*
X167925000Y-77475000I200000J0D01*
G01*
G37*
G04 #@! TD.AperFunction*
G04 #@! TD*
G04 #@! TO.P,R8,2*
G04 #@! TO.N,GND*
G04 #@! TA.AperFunction,SMDPad,CuDef*
G36*
G01*
X112375000Y-98925000D02*
X112375000Y-99475000D01*
G75*
G02*
X112175000Y-99675000I-200000J0D01*
G01*
X111775000Y-99675000D01*
G75*
G02*
X111575000Y-99475000I0J200000D01*
G01*
X111575000Y-98925000D01*
G75*
G02*
X111775000Y-98725000I200000J0D01*
G01*
X112175000Y-98725000D01*
G75*
G02*
X112375000Y-98925000I0J-200000D01*
G01*
G37*
G04 #@! TD.AperFunction*
G04 #@! TO.P,R8,1*
G04 #@! TO.N,Net-(R3-Pad2)*
G04 #@! TA.AperFunction,SMDPad,CuDef*
G36*
G01*
X114025000Y-98925000D02*
X114025000Y-99475000D01*
G75*
G02*
X113825000Y-99675000I-200000J0D01*
G01*
X113425000Y-99675000D01*
G75*
G02*
X113225000Y-99475000I0J200000D01*
G01*
X113225000Y-98925000D01*
G75*
G02*
X113425000Y-98725000I200000J0D01*
G01*
X113825000Y-98725000D01*
G75*
G02*
X114025000Y-98925000I0J-200000D01*
G01*
G37*
G04 #@! TD.AperFunction*
G04 #@! TD*
G04 #@! TO.P,R6,2*
G04 #@! TO.N,Net-(R5-Pad1)*
G04 #@! TA.AperFunction,SMDPad,CuDef*
G36*
G01*
X114325000Y-87775000D02*
X114325000Y-87225000D01*
G75*
G02*
X114525000Y-87025000I200000J0D01*
G01*
X114925000Y-87025000D01*
G75*
G02*
X115125000Y-87225000I0J-200000D01*
G01*
X115125000Y-87775000D01*
G75*
G02*
X114925000Y-87975000I-200000J0D01*
G01*
X114525000Y-87975000D01*
G75*
G02*
X114325000Y-87775000I0J200000D01*
G01*
G37*
G04 #@! TD.AperFunction*
G04 #@! TO.P,R6,1*
G04 #@! TO.N,Net-(R2-Pad2)*
G04 #@! TA.AperFunction,SMDPad,CuDef*
G36*
G01*
X112675000Y-87775000D02*
X112675000Y-87225000D01*
G75*
G02*
X112875000Y-87025000I200000J0D01*
G01*
X113275000Y-87025000D01*
G75*
G02*
X113475000Y-87225000I0J-200000D01*
G01*
X113475000Y-87775000D01*
G75*
G02*
X113275000Y-87975000I-200000J0D01*
G01*
X112875000Y-87975000D01*
G75*
G02*
X112675000Y-87775000I0J200000D01*
G01*
G37*
G04 #@! TD.AperFunction*
G04 #@! TD*
G04 #@! TO.P,R5,2*
G04 #@! TO.N,GND*
G04 #@! TA.AperFunction,SMDPad,CuDef*
G36*
G01*
X111075000Y-79875000D02*
X111075000Y-80425000D01*
G75*
G02*
X110875000Y-80625000I-200000J0D01*
G01*
X110475000Y-80625000D01*
G75*
G02*
X110275000Y-80425000I0J200000D01*
G01*
X110275000Y-79875000D01*
G75*
G02*
X110475000Y-79675000I200000J0D01*
G01*
X110875000Y-79675000D01*
G75*
G02*
X111075000Y-79875000I0J-200000D01*
G01*
G37*
G04 #@! TD.AperFunction*
G04 #@! TO.P,R5,1*
G04 #@! TO.N,Net-(R5-Pad1)*
G04 #@! TA.AperFunction,SMDPad,CuDef*
G36*
G01*
X112725000Y-79875000D02*
X112725000Y-80425000D01*
G75*
G02*
X112525000Y-80625000I-200000J0D01*
G01*
X112125000Y-80625000D01*
G75*
G02*
X111925000Y-80425000I0J200000D01*
G01*
X111925000Y-79875000D01*
G75*
G02*
X112125000Y-79675000I200000J0D01*
G01*
X112525000Y-79675000D01*
G75*
G02*
X112725000Y-79875000I0J-200000D01*
G01*
G37*
G04 #@! TD.AperFunction*
G04 #@! TD*
G04 #@! TO.P,R4,2*
G04 #@! TO.N,Net-(R4-Pad2)*
G04 #@! TA.AperFunction,SMDPad,CuDef*
G36*
G01*
X111925000Y-78825000D02*
X111925000Y-78275000D01*
G75*
G02*
X112125000Y-78075000I200000J0D01*
G01*
X112525000Y-78075000D01*
G75*
G02*
X112725000Y-78275000I0J-200000D01*
G01*
X112725000Y-78825000D01*
G75*
G02*
X112525000Y-79025000I-200000J0D01*
G01*
X112125000Y-79025000D01*
G75*
G02*
X111925000Y-78825000I0J200000D01*
G01*
G37*
G04 #@! TD.AperFunction*
G04 #@! TO.P,R4,1*
G04 #@! TO.N,Net-(Q2-Pad1)*
G04 #@! TA.AperFunction,SMDPad,CuDef*
G36*
G01*
X110275000Y-78825000D02*
X110275000Y-78275000D01*
G75*
G02*
X110475000Y-78075000I200000J0D01*
G01*
X110875000Y-78075000D01*
G75*
G02*
X111075000Y-78275000I0J-200000D01*
G01*
X111075000Y-78825000D01*
G75*
G02*
X110875000Y-79025000I-200000J0D01*
G01*
X110475000Y-79025000D01*
G75*
G02*
X110275000Y-78825000I0J200000D01*
G01*
G37*
G04 #@! TD.AperFunction*
G04 #@! TD*
G04 #@! TO.P,R3,2*
G04 #@! TO.N,Net-(R3-Pad2)*
G04 #@! TA.AperFunction,SMDPad,CuDef*
G36*
G01*
X113225000Y-97875000D02*
X113225000Y-97325000D01*
G75*
G02*
X113425000Y-97125000I200000J0D01*
G01*
X113825000Y-97125000D01*
G75*
G02*
X114025000Y-97325000I0J-200000D01*
G01*
X114025000Y-97875000D01*
G75*
G02*
X113825000Y-98075000I-200000J0D01*
G01*
X113425000Y-98075000D01*
G75*
G02*
X113225000Y-97875000I0J200000D01*
G01*
G37*
G04 #@! TD.AperFunction*
G04 #@! TO.P,R3,1*
G04 #@! TO.N,/Teensy/ADC-SHUNT*
G04 #@! TA.AperFunction,SMDPad,CuDef*
G36*
G01*
X111575000Y-97875000D02*
X111575000Y-97325000D01*
G75*
G02*
X111775000Y-97125000I200000J0D01*
G01*
X112175000Y-97125000D01*
G75*
G02*
X112375000Y-97325000I0J-200000D01*
G01*
X112375000Y-97875000D01*
G75*
G02*
X112175000Y-98075000I-200000J0D01*
G01*
X111775000Y-98075000D01*
G75*
G02*
X111575000Y-97875000I0J200000D01*
G01*
G37*
G04 #@! TD.AperFunction*
G04 #@! TD*
G04 #@! TO.P,R2,2*
G04 #@! TO.N,Net-(R2-Pad2)*
G04 #@! TA.AperFunction,SMDPad,CuDef*
G36*
G01*
X115575000Y-97975000D02*
X115025000Y-97975000D01*
G75*
G02*
X114825000Y-97775000I0J200000D01*
G01*
X114825000Y-97375000D01*
G75*
G02*
X115025000Y-97175000I200000J0D01*
G01*
X115575000Y-97175000D01*
G75*
G02*
X115775000Y-97375000I0J-200000D01*
G01*
X115775000Y-97775000D01*
G75*
G02*
X115575000Y-97975000I-200000J0D01*
G01*
G37*
G04 #@! TD.AperFunction*
G04 #@! TO.P,R2,1*
G04 #@! TO.N,/Overcurrent Protection/OCSense*
G04 #@! TA.AperFunction,SMDPad,CuDef*
G36*
G01*
X115575000Y-99625000D02*
X115025000Y-99625000D01*
G75*
G02*
X114825000Y-99425000I0J200000D01*
G01*
X114825000Y-99025000D01*
G75*
G02*
X115025000Y-98825000I200000J0D01*
G01*
X115575000Y-98825000D01*
G75*
G02*
X115775000Y-99025000I0J-200000D01*
G01*
X115775000Y-99425000D01*
G75*
G02*
X115575000Y-99625000I-200000J0D01*
G01*
G37*
G04 #@! TD.AperFunction*
G04 #@! TD*
G04 #@! TO.P,R1,2*
G04 #@! TO.N,+3V3*
G04 #@! TA.AperFunction,SMDPad,CuDef*
G36*
G01*
X168975000Y-116675000D02*
X168425000Y-116675000D01*
G75*
G02*
X168225000Y-116475000I0J200000D01*
G01*
X168225000Y-116075000D01*
G75*
G02*
X168425000Y-115875000I200000J0D01*
G01*
X168975000Y-115875000D01*
G75*
G02*
X169175000Y-116075000I0J-200000D01*
G01*
X169175000Y-116475000D01*
G75*
G02*
X168975000Y-116675000I-200000J0D01*
G01*
G37*
G04 #@! TD.AperFunction*
G04 #@! TO.P,R1,1*
G04 #@! TO.N,/Teensy/TempSense*
G04 #@! TA.AperFunction,SMDPad,CuDef*
G36*
G01*
X168975000Y-118325000D02*
X168425000Y-118325000D01*
G75*
G02*
X168225000Y-118125000I0J200000D01*
G01*
X168225000Y-117725000D01*
G75*
G02*
X168425000Y-117525000I200000J0D01*
G01*
X168975000Y-117525000D01*
G75*
G02*
X169175000Y-117725000I0J-200000D01*
G01*
X169175000Y-118125000D01*
G75*
G02*
X168975000Y-118325000I-200000J0D01*
G01*
G37*
G04 #@! TD.AperFunction*
G04 #@! TD*
D35*
G04 #@! TO.P,Q3,3*
G04 #@! TO.N,/Overcurrent Protection/OCStatus*
X135730000Y-88700000D03*
G04 #@! TO.P,Q3,2*
G04 #@! TO.N,GND*
X133730000Y-89650000D03*
G04 #@! TO.P,Q3,1*
G04 #@! TO.N,/Overcurrent Protection/OCControl*
X133730000Y-87750000D03*
G04 #@! TD*
D36*
G04 #@! TO.P,Q2,2*
G04 #@! TO.N,Net-(Q2-Pad1)*
X114930000Y-58060000D03*
G04 #@! TO.P,Q2,1*
X114930000Y-56790000D03*
G04 #@! TO.P,Q2,3*
X114930000Y-59340000D03*
G04 #@! TO.P,Q2,4*
G04 #@! TO.N,/Overcurrent Protection/OCMosfet*
X114930000Y-60610000D03*
G04 #@! TA.AperFunction,SMDPad,CuDef*
D37*
G04 #@! TO.P,Q2,5*
G04 #@! TO.N,Net-(Q1-Pad3)*
G36*
X121175000Y-61050000D02*
G01*
X119625000Y-61050000D01*
X119625000Y-60800000D01*
X116550000Y-60800000D01*
X116550000Y-56600000D01*
X119625000Y-56600000D01*
X119625000Y-56350000D01*
X121175000Y-56350000D01*
X121175000Y-61050000D01*
G37*
G04 #@! TD.AperFunction*
G04 #@! TD*
D38*
G04 #@! TO.P,Q1,3*
G04 #@! TO.N,Net-(Q1-Pad3)*
X129550000Y-45500000D03*
G04 #@! TO.P,Q1,2*
G04 #@! TO.N,Net-(J2-Pad1)*
X135000000Y-45500000D03*
D39*
G04 #@! TO.P,Q1,1*
G04 #@! TO.N,/Output Stage/MOSFET-OUT*
X140450000Y-45500000D03*
G04 #@! TD*
D40*
G04 #@! TO.P,J1,2*
G04 #@! TO.N,/Teensy/TempSense*
X162930000Y-115000000D03*
D41*
G04 #@! TO.P,J1,1*
G04 #@! TO.N,GND*
X157850000Y-115000000D03*
G04 #@! TD*
D42*
G04 #@! TO.P,D5,1*
G04 #@! TO.N,+9V*
X112500000Y-116100000D03*
G04 #@! TO.P,D5,*
G04 #@! TO.N,*
X111550000Y-114100000D03*
G04 #@! TO.P,D5,2*
G04 #@! TO.N,Net-(D3-Pad2)*
X113450000Y-114100000D03*
G04 #@! TD*
D33*
G04 #@! TO.P,D3,2*
G04 #@! TO.N,Net-(D3-Pad2)*
X112300000Y-111750000D03*
G04 #@! TO.P,D3,1*
G04 #@! TO.N,Net-(C26-Pad1)*
X112300000Y-108450000D03*
G04 #@! TD*
G04 #@! TO.P,D1,2*
G04 #@! TO.N,+5V*
G04 #@! TA.AperFunction,SMDPad,CuDef*
G36*
G01*
X125175000Y-115975000D02*
X126425000Y-115975000D01*
G75*
G02*
X126675000Y-116225000I0J-250000D01*
G01*
X126675000Y-116975000D01*
G75*
G02*
X126425000Y-117225000I-250000J0D01*
G01*
X125175000Y-117225000D01*
G75*
G02*
X124925000Y-116975000I0J250000D01*
G01*
X124925000Y-116225000D01*
G75*
G02*
X125175000Y-115975000I250000J0D01*
G01*
G37*
G04 #@! TD.AperFunction*
G04 #@! TO.P,D1,1*
G04 #@! TO.N,Net-(C22-Pad1)*
G04 #@! TA.AperFunction,SMDPad,CuDef*
G36*
G01*
X125175000Y-113175000D02*
X126425000Y-113175000D01*
G75*
G02*
X126675000Y-113425000I0J-250000D01*
G01*
X126675000Y-114175000D01*
G75*
G02*
X126425000Y-114425000I-250000J0D01*
G01*
X125175000Y-114425000D01*
G75*
G02*
X124925000Y-114175000I0J250000D01*
G01*
X124925000Y-113425000D01*
G75*
G02*
X125175000Y-113175000I250000J0D01*
G01*
G37*
G04 #@! TD.AperFunction*
G04 #@! TD*
G04 #@! TO.P,C30,2*
G04 #@! TO.N,GND*
G04 #@! TA.AperFunction,SMDPad,CuDef*
G36*
G01*
X121450000Y-82675000D02*
X120950000Y-82675000D01*
G75*
G02*
X120725000Y-82450000I0J225000D01*
G01*
X120725000Y-82000000D01*
G75*
G02*
X120950000Y-81775000I225000J0D01*
G01*
X121450000Y-81775000D01*
G75*
G02*
X121675000Y-82000000I0J-225000D01*
G01*
X121675000Y-82450000D01*
G75*
G02*
X121450000Y-82675000I-225000J0D01*
G01*
G37*
G04 #@! TD.AperFunction*
G04 #@! TO.P,C30,1*
G04 #@! TO.N,+5V*
G04 #@! TA.AperFunction,SMDPad,CuDef*
G36*
G01*
X121450000Y-84225000D02*
X120950000Y-84225000D01*
G75*
G02*
X120725000Y-84000000I0J225000D01*
G01*
X120725000Y-83550000D01*
G75*
G02*
X120950000Y-83325000I225000J0D01*
G01*
X121450000Y-83325000D01*
G75*
G02*
X121675000Y-83550000I0J-225000D01*
G01*
X121675000Y-84000000D01*
G75*
G02*
X121450000Y-84225000I-225000J0D01*
G01*
G37*
G04 #@! TD.AperFunction*
G04 #@! TD*
G04 #@! TO.P,C29,2*
G04 #@! TO.N,+5V*
G04 #@! TA.AperFunction,SMDPad,CuDef*
G36*
G01*
X120475000Y-88950000D02*
X120475000Y-89450000D01*
G75*
G02*
X120250000Y-89675000I-225000J0D01*
G01*
X119800000Y-89675000D01*
G75*
G02*
X119575000Y-89450000I0J225000D01*
G01*
X119575000Y-88950000D01*
G75*
G02*
X119800000Y-88725000I225000J0D01*
G01*
X120250000Y-88725000D01*
G75*
G02*
X120475000Y-88950000I0J-225000D01*
G01*
G37*
G04 #@! TD.AperFunction*
G04 #@! TO.P,C29,1*
G04 #@! TO.N,GND*
G04 #@! TA.AperFunction,SMDPad,CuDef*
G36*
G01*
X122025000Y-88950000D02*
X122025000Y-89450000D01*
G75*
G02*
X121800000Y-89675000I-225000J0D01*
G01*
X121350000Y-89675000D01*
G75*
G02*
X121125000Y-89450000I0J225000D01*
G01*
X121125000Y-88950000D01*
G75*
G02*
X121350000Y-88725000I225000J0D01*
G01*
X121800000Y-88725000D01*
G75*
G02*
X122025000Y-88950000I0J-225000D01*
G01*
G37*
G04 #@! TD.AperFunction*
G04 #@! TD*
G04 #@! TO.P,C28,2*
G04 #@! TO.N,/Overcurrent Protection/Vref*
G04 #@! TA.AperFunction,SMDPad,CuDef*
G36*
G01*
X120475000Y-94950000D02*
X120475000Y-95450000D01*
G75*
G02*
X120250000Y-95675000I-225000J0D01*
G01*
X119800000Y-95675000D01*
G75*
G02*
X119575000Y-95450000I0J225000D01*
G01*
X119575000Y-94950000D01*
G75*
G02*
X119800000Y-94725000I225000J0D01*
G01*
X120250000Y-94725000D01*
G75*
G02*
X120475000Y-94950000I0J-225000D01*
G01*
G37*
G04 #@! TD.AperFunction*
G04 #@! TO.P,C28,1*
G04 #@! TO.N,GND*
G04 #@! TA.AperFunction,SMDPad,CuDef*
G36*
G01*
X122025000Y-94950000D02*
X122025000Y-95450000D01*
G75*
G02*
X121800000Y-95675000I-225000J0D01*
G01*
X121350000Y-95675000D01*
G75*
G02*
X121125000Y-95450000I0J225000D01*
G01*
X121125000Y-94950000D01*
G75*
G02*
X121350000Y-94725000I225000J0D01*
G01*
X121800000Y-94725000D01*
G75*
G02*
X122025000Y-94950000I0J-225000D01*
G01*
G37*
G04 #@! TD.AperFunction*
G04 #@! TD*
G04 #@! TO.P,C26,2*
G04 #@! TO.N,Net-(C26-Pad2)*
G04 #@! TA.AperFunction,SMDPad,CuDef*
G36*
G01*
X108975000Y-109150000D02*
X108975000Y-109650000D01*
G75*
G02*
X108750000Y-109875000I-225000J0D01*
G01*
X108300000Y-109875000D01*
G75*
G02*
X108075000Y-109650000I0J225000D01*
G01*
X108075000Y-109150000D01*
G75*
G02*
X108300000Y-108925000I225000J0D01*
G01*
X108750000Y-108925000D01*
G75*
G02*
X108975000Y-109150000I0J-225000D01*
G01*
G37*
G04 #@! TD.AperFunction*
G04 #@! TO.P,C26,1*
G04 #@! TO.N,Net-(C26-Pad1)*
G04 #@! TA.AperFunction,SMDPad,CuDef*
G36*
G01*
X110525000Y-109150000D02*
X110525000Y-109650000D01*
G75*
G02*
X110300000Y-109875000I-225000J0D01*
G01*
X109850000Y-109875000D01*
G75*
G02*
X109625000Y-109650000I0J225000D01*
G01*
X109625000Y-109150000D01*
G75*
G02*
X109850000Y-108925000I225000J0D01*
G01*
X110300000Y-108925000D01*
G75*
G02*
X110525000Y-109150000I0J-225000D01*
G01*
G37*
G04 #@! TD.AperFunction*
G04 #@! TD*
G04 #@! TO.P,C25,2*
G04 #@! TO.N,GND*
G04 #@! TA.AperFunction,SMDPad,CuDef*
G36*
G01*
X104550000Y-105875000D02*
X104050000Y-105875000D01*
G75*
G02*
X103825000Y-105650000I0J225000D01*
G01*
X103825000Y-105200000D01*
G75*
G02*
X104050000Y-104975000I225000J0D01*
G01*
X104550000Y-104975000D01*
G75*
G02*
X104775000Y-105200000I0J-225000D01*
G01*
X104775000Y-105650000D01*
G75*
G02*
X104550000Y-105875000I-225000J0D01*
G01*
G37*
G04 #@! TD.AperFunction*
G04 #@! TO.P,C25,1*
G04 #@! TO.N,+12V*
G04 #@! TA.AperFunction,SMDPad,CuDef*
G36*
G01*
X104550000Y-107425000D02*
X104050000Y-107425000D01*
G75*
G02*
X103825000Y-107200000I0J225000D01*
G01*
X103825000Y-106750000D01*
G75*
G02*
X104050000Y-106525000I225000J0D01*
G01*
X104550000Y-106525000D01*
G75*
G02*
X104775000Y-106750000I0J-225000D01*
G01*
X104775000Y-107200000D01*
G75*
G02*
X104550000Y-107425000I-225000J0D01*
G01*
G37*
G04 #@! TD.AperFunction*
G04 #@! TD*
G04 #@! TO.P,C22,2*
G04 #@! TO.N,Net-(C22-Pad2)*
G04 #@! TA.AperFunction,SMDPad,CuDef*
G36*
G01*
X125575000Y-111150000D02*
X125575000Y-111650000D01*
G75*
G02*
X125350000Y-111875000I-225000J0D01*
G01*
X124900000Y-111875000D01*
G75*
G02*
X124675000Y-111650000I0J225000D01*
G01*
X124675000Y-111150000D01*
G75*
G02*
X124900000Y-110925000I225000J0D01*
G01*
X125350000Y-110925000D01*
G75*
G02*
X125575000Y-111150000I0J-225000D01*
G01*
G37*
G04 #@! TD.AperFunction*
G04 #@! TO.P,C22,1*
G04 #@! TO.N,Net-(C22-Pad1)*
G04 #@! TA.AperFunction,SMDPad,CuDef*
G36*
G01*
X127125000Y-111150000D02*
X127125000Y-111650000D01*
G75*
G02*
X126900000Y-111875000I-225000J0D01*
G01*
X126450000Y-111875000D01*
G75*
G02*
X126225000Y-111650000I0J225000D01*
G01*
X126225000Y-111150000D01*
G75*
G02*
X126450000Y-110925000I225000J0D01*
G01*
X126900000Y-110925000D01*
G75*
G02*
X127125000Y-111150000I0J-225000D01*
G01*
G37*
G04 #@! TD.AperFunction*
G04 #@! TD*
G04 #@! TO.P,C20,2*
G04 #@! TO.N,+9V*
G04 #@! TA.AperFunction,SMDPad,CuDef*
G36*
G01*
X137250000Y-84175000D02*
X136750000Y-84175000D01*
G75*
G02*
X136525000Y-83950000I0J225000D01*
G01*
X136525000Y-83500000D01*
G75*
G02*
X136750000Y-83275000I225000J0D01*
G01*
X137250000Y-83275000D01*
G75*
G02*
X137475000Y-83500000I0J-225000D01*
G01*
X137475000Y-83950000D01*
G75*
G02*
X137250000Y-84175000I-225000J0D01*
G01*
G37*
G04 #@! TD.AperFunction*
G04 #@! TO.P,C20,1*
G04 #@! TO.N,GND*
G04 #@! TA.AperFunction,SMDPad,CuDef*
G36*
G01*
X137250000Y-85725000D02*
X136750000Y-85725000D01*
G75*
G02*
X136525000Y-85500000I0J225000D01*
G01*
X136525000Y-85050000D01*
G75*
G02*
X136750000Y-84825000I225000J0D01*
G01*
X137250000Y-84825000D01*
G75*
G02*
X137475000Y-85050000I0J-225000D01*
G01*
X137475000Y-85500000D01*
G75*
G02*
X137250000Y-85725000I-225000J0D01*
G01*
G37*
G04 #@! TD.AperFunction*
G04 #@! TD*
G04 #@! TO.P,C19,2*
G04 #@! TO.N,+9V*
G04 #@! TA.AperFunction,SMDPad,CuDef*
G36*
G01*
X131725000Y-75850000D02*
X131725000Y-75350000D01*
G75*
G02*
X131950000Y-75125000I225000J0D01*
G01*
X132400000Y-75125000D01*
G75*
G02*
X132625000Y-75350000I0J-225000D01*
G01*
X132625000Y-75850000D01*
G75*
G02*
X132400000Y-76075000I-225000J0D01*
G01*
X131950000Y-76075000D01*
G75*
G02*
X131725000Y-75850000I0J225000D01*
G01*
G37*
G04 #@! TD.AperFunction*
G04 #@! TO.P,C19,1*
G04 #@! TO.N,GND*
G04 #@! TA.AperFunction,SMDPad,CuDef*
G36*
G01*
X130175000Y-75850000D02*
X130175000Y-75350000D01*
G75*
G02*
X130400000Y-75125000I225000J0D01*
G01*
X130850000Y-75125000D01*
G75*
G02*
X131075000Y-75350000I0J-225000D01*
G01*
X131075000Y-75850000D01*
G75*
G02*
X130850000Y-76075000I-225000J0D01*
G01*
X130400000Y-76075000D01*
G75*
G02*
X130175000Y-75850000I0J225000D01*
G01*
G37*
G04 #@! TD.AperFunction*
G04 #@! TD*
G04 #@! TO.P,C17,2*
G04 #@! TO.N,Net-(C17-Pad2)*
G04 #@! TA.AperFunction,SMDPad,CuDef*
G36*
G01*
X169550000Y-79025000D02*
X170050000Y-79025000D01*
G75*
G02*
X170275000Y-79250000I0J-225000D01*
G01*
X170275000Y-79700000D01*
G75*
G02*
X170050000Y-79925000I-225000J0D01*
G01*
X169550000Y-79925000D01*
G75*
G02*
X169325000Y-79700000I0J225000D01*
G01*
X169325000Y-79250000D01*
G75*
G02*
X169550000Y-79025000I225000J0D01*
G01*
G37*
G04 #@! TD.AperFunction*
G04 #@! TO.P,C17,1*
G04 #@! TO.N,GND*
G04 #@! TA.AperFunction,SMDPad,CuDef*
G36*
G01*
X169550000Y-77475000D02*
X170050000Y-77475000D01*
G75*
G02*
X170275000Y-77700000I0J-225000D01*
G01*
X170275000Y-78150000D01*
G75*
G02*
X170050000Y-78375000I-225000J0D01*
G01*
X169550000Y-78375000D01*
G75*
G02*
X169325000Y-78150000I0J225000D01*
G01*
X169325000Y-77700000D01*
G75*
G02*
X169550000Y-77475000I225000J0D01*
G01*
G37*
G04 #@! TD.AperFunction*
G04 #@! TD*
G04 #@! TO.P,C16,2*
G04 #@! TO.N,+3V3*
G04 #@! TA.AperFunction,SMDPad,CuDef*
G36*
G01*
X168925000Y-113850000D02*
X168925000Y-113350000D01*
G75*
G02*
X169150000Y-113125000I225000J0D01*
G01*
X169600000Y-113125000D01*
G75*
G02*
X169825000Y-113350000I0J-225000D01*
G01*
X169825000Y-113850000D01*
G75*
G02*
X169600000Y-114075000I-225000J0D01*
G01*
X169150000Y-114075000D01*
G75*
G02*
X168925000Y-113850000I0J225000D01*
G01*
G37*
G04 #@! TD.AperFunction*
G04 #@! TO.P,C16,1*
G04 #@! TO.N,GND*
G04 #@! TA.AperFunction,SMDPad,CuDef*
G36*
G01*
X167375000Y-113850000D02*
X167375000Y-113350000D01*
G75*
G02*
X167600000Y-113125000I225000J0D01*
G01*
X168050000Y-113125000D01*
G75*
G02*
X168275000Y-113350000I0J-225000D01*
G01*
X168275000Y-113850000D01*
G75*
G02*
X168050000Y-114075000I-225000J0D01*
G01*
X167600000Y-114075000D01*
G75*
G02*
X167375000Y-113850000I0J225000D01*
G01*
G37*
G04 #@! TD.AperFunction*
G04 #@! TD*
G04 #@! TO.P,C15,2*
G04 #@! TO.N,+3V3*
G04 #@! TA.AperFunction,SMDPad,CuDef*
G36*
G01*
X168925000Y-112250000D02*
X168925000Y-111750000D01*
G75*
G02*
X169150000Y-111525000I225000J0D01*
G01*
X169600000Y-111525000D01*
G75*
G02*
X169825000Y-111750000I0J-225000D01*
G01*
X169825000Y-112250000D01*
G75*
G02*
X169600000Y-112475000I-225000J0D01*
G01*
X169150000Y-112475000D01*
G75*
G02*
X168925000Y-112250000I0J225000D01*
G01*
G37*
G04 #@! TD.AperFunction*
G04 #@! TO.P,C15,1*
G04 #@! TO.N,GND*
G04 #@! TA.AperFunction,SMDPad,CuDef*
G36*
G01*
X167375000Y-112250000D02*
X167375000Y-111750000D01*
G75*
G02*
X167600000Y-111525000I225000J0D01*
G01*
X168050000Y-111525000D01*
G75*
G02*
X168275000Y-111750000I0J-225000D01*
G01*
X168275000Y-112250000D01*
G75*
G02*
X168050000Y-112475000I-225000J0D01*
G01*
X167600000Y-112475000D01*
G75*
G02*
X167375000Y-112250000I0J225000D01*
G01*
G37*
G04 #@! TD.AperFunction*
G04 #@! TD*
G04 #@! TO.P,C1,2*
G04 #@! TO.N,/Teensy/TempSense*
G04 #@! TA.AperFunction,SMDPad,CuDef*
G36*
G01*
X166850000Y-117425000D02*
X167350000Y-117425000D01*
G75*
G02*
X167575000Y-117650000I0J-225000D01*
G01*
X167575000Y-118100000D01*
G75*
G02*
X167350000Y-118325000I-225000J0D01*
G01*
X166850000Y-118325000D01*
G75*
G02*
X166625000Y-118100000I0J225000D01*
G01*
X166625000Y-117650000D01*
G75*
G02*
X166850000Y-117425000I225000J0D01*
G01*
G37*
G04 #@! TD.AperFunction*
G04 #@! TO.P,C1,1*
G04 #@! TO.N,GND*
G04 #@! TA.AperFunction,SMDPad,CuDef*
G36*
G01*
X166850000Y-115875000D02*
X167350000Y-115875000D01*
G75*
G02*
X167575000Y-116100000I0J-225000D01*
G01*
X167575000Y-116550000D01*
G75*
G02*
X167350000Y-116775000I-225000J0D01*
G01*
X166850000Y-116775000D01*
G75*
G02*
X166625000Y-116550000I0J225000D01*
G01*
X166625000Y-116100000D01*
G75*
G02*
X166850000Y-115875000I225000J0D01*
G01*
G37*
G04 #@! TD.AperFunction*
G04 #@! TD*
D43*
G04 #@! TO.N,GND*
X100200000Y-95300000D03*
X100200000Y-97400000D03*
X94400000Y-101300000D03*
X106900000Y-99300000D03*
X100900000Y-91600000D03*
X104200000Y-90800000D03*
X104300000Y-104400000D03*
X108200000Y-106200000D03*
X114200000Y-105200000D03*
X101100000Y-113500000D03*
X102300000Y-109600000D03*
X118000000Y-112300000D03*
X124400000Y-108100000D03*
X126800000Y-108100000D03*
X118500000Y-108500000D03*
X119500004Y-111500000D03*
X110200000Y-91900000D03*
X133200000Y-117600000D03*
X153700000Y-117200000D03*
X129600000Y-106300000D03*
X123400000Y-88100000D03*
X121600000Y-88200000D03*
X134800000Y-89600000D03*
X111000000Y-99200000D03*
X121100000Y-94100000D03*
X124100000Y-98000000D03*
X166700000Y-113600000D03*
X167100000Y-115300000D03*
X135700000Y-110400000D03*
X134500000Y-102200000D03*
X169800000Y-76900000D03*
X168200000Y-76900000D03*
X162800000Y-78700000D03*
X158900000Y-83000000D03*
X169700000Y-83300000D03*
X167125000Y-80400000D03*
X153600000Y-77500000D03*
X148100000Y-76100000D03*
X145900000Y-79700000D03*
X137500000Y-77300000D03*
X135800000Y-85300000D03*
X121200000Y-81100000D03*
X126800000Y-76600000D03*
X126800000Y-84900000D03*
X144300000Y-89000000D03*
X106500000Y-49000000D03*
X104500000Y-49000000D03*
X103500000Y-50000000D03*
X103500000Y-52000000D03*
X103500000Y-54000000D03*
X103500000Y-56000000D03*
X103500000Y-58000000D03*
X103500000Y-60000000D03*
X103500000Y-62000000D03*
X103500000Y-64000000D03*
X103500000Y-66000000D03*
X103500000Y-68000000D03*
X104500000Y-51000000D03*
X105500000Y-50000000D03*
X105500000Y-68000000D03*
X101500000Y-68000000D03*
X102500000Y-67000000D03*
X102500000Y-59000000D03*
X102500000Y-51000000D03*
X102500000Y-49000000D03*
X101500000Y-66000000D03*
X101500000Y-60000000D03*
X101500000Y-58000000D03*
X101500000Y-52000000D03*
X101500000Y-50000000D03*
X141999988Y-116500000D03*
X129200000Y-75900000D03*
X149200000Y-85050000D03*
X173200000Y-77000000D03*
X173200000Y-75300000D03*
X134600000Y-84900000D03*
G04 #@! TO.N,+9V*
X103100000Y-114700000D03*
X103050000Y-113750000D03*
X114200000Y-106800000D03*
X137300000Y-82600000D03*
G04 #@! TO.N,+12V*
X99100000Y-90100000D03*
X99100000Y-89100000D03*
X102400000Y-107000000D03*
X103325000Y-106975000D03*
X117300000Y-106200000D03*
X148100000Y-77500000D03*
G04 #@! TO.N,+5V*
X125800000Y-115400000D03*
X118000000Y-115400000D03*
X116400000Y-116600000D03*
X138900000Y-112900000D03*
X120000000Y-88200000D03*
X129300000Y-92400000D03*
X130400000Y-89300000D03*
X133700000Y-104200000D03*
X134500000Y-96400000D03*
X120100000Y-83800000D03*
X158500000Y-117800000D03*
X157200000Y-117800000D03*
X155900000Y-117800000D03*
X158500000Y-112600000D03*
X157200000Y-112600000D03*
X155900000Y-112600000D03*
X142759266Y-117150799D03*
X115300000Y-116600000D03*
G04 #@! TO.N,Net-(Q1-Pad3)*
X118200000Y-54900000D03*
X118200000Y-52900000D03*
X118200000Y-50900000D03*
X119200000Y-51900000D03*
X119200000Y-53900000D03*
X120200000Y-54900000D03*
X120200000Y-52900000D03*
X122200000Y-54900000D03*
X121200000Y-53900000D03*
X122200000Y-52900000D03*
X121200000Y-51900000D03*
X120200000Y-50900000D03*
X122200000Y-50900000D03*
X123200000Y-51900000D03*
X123200000Y-53900000D03*
X123200000Y-55900000D03*
X123200000Y-57900000D03*
X123200000Y-59900000D03*
X123200000Y-61900000D03*
X123200000Y-63900000D03*
X122200000Y-62900000D03*
X121200000Y-63900000D03*
X120200000Y-62900000D03*
X119200000Y-61900000D03*
X119200000Y-63900000D03*
X118200000Y-62900000D03*
X120200000Y-64900000D03*
X118200000Y-64900000D03*
X122200000Y-64900000D03*
X124200000Y-64900000D03*
X124200000Y-62900000D03*
X124200000Y-60900000D03*
X124200000Y-58900000D03*
X124200000Y-56900000D03*
X124200000Y-54900000D03*
X124200000Y-52900000D03*
X124200000Y-50900000D03*
X121200000Y-61900000D03*
X122200000Y-56900000D03*
X122200000Y-58900000D03*
X122200000Y-60900000D03*
G04 #@! TO.N,Net-(Q2-Pad1)*
X114500000Y-67000000D03*
X114500000Y-65000000D03*
X114500000Y-63000000D03*
X114500000Y-55000000D03*
X114500000Y-53000000D03*
X113500000Y-52000000D03*
X113500000Y-54000000D03*
X113500000Y-56000000D03*
X113500000Y-58000000D03*
X113500000Y-60000000D03*
X113500000Y-62000000D03*
X113500000Y-64000000D03*
X113500000Y-66000000D03*
X113500000Y-68000000D03*
X111800000Y-68000000D03*
G04 #@! TO.N,/Overcurrent Protection/OCControl*
X132800000Y-95500000D03*
X130300000Y-87600000D03*
G04 #@! TO.N,Net-(R2-Pad2)*
X116600000Y-97600000D03*
X113000000Y-86100000D03*
G04 #@! TO.N,Net-(R31-Pad2)*
X139200000Y-90800000D03*
X137800000Y-104700000D03*
G04 #@! TO.N,+3V3*
X110200000Y-88200000D03*
X142100000Y-98600000D03*
X170500000Y-113200000D03*
X170500000Y-111999990D03*
X168700000Y-115300000D03*
X164400000Y-78700000D03*
X158900000Y-81500000D03*
X145700000Y-87000000D03*
G04 #@! TO.N,/Overcurrent Protection/OCStatus*
X139100000Y-100100000D03*
X137600000Y-91000000D03*
G04 #@! TO.N,/Overcurrent Protection/OCSense*
X122400000Y-93200000D03*
X116500000Y-99200000D03*
G04 #@! TO.N,-3V3*
X102900000Y-100700000D03*
X102925000Y-99875000D03*
X116000000Y-96300000D03*
G04 #@! TO.N,+9V*
X132200000Y-74500000D03*
G04 #@! TO.N,/Output Stage/MOSFET-OUT*
X136000000Y-70800000D03*
G04 #@! TO.N,Net-(U2-Pad20)*
X145100000Y-98300000D03*
G04 #@! TO.N,/Output Stage/DAC-CLOCK*
X166700000Y-84300000D03*
G04 #@! TO.N,/Output Stage/DAC-D10*
X165600000Y-84300000D03*
G04 #@! TO.N,/Output Stage/DAC-D11*
X164400000Y-84500000D03*
G04 #@! TO.N,/Output Stage/DAC-D12*
X163400000Y-84900000D03*
G04 #@! TO.N,/Output Stage/DAC-D13*
X160900000Y-87500000D03*
G04 #@! TO.N,Net-(U12-Pad6)*
X132500000Y-97900000D03*
X136900000Y-116100000D03*
G04 #@! TO.N,/Overcurrent Protection/SET*
X132500000Y-100600000D03*
X122300000Y-91200000D03*
X135700000Y-103900000D03*
G04 #@! TO.N,Net-(Q2-Pad1)*
X110200000Y-68000000D03*
G04 #@! TD*
D44*
G04 #@! TO.N,/Teensy/TempSense*
X167150000Y-117925000D02*
X167100000Y-117875000D01*
X168700000Y-117925000D02*
X167150000Y-117925000D01*
X165805000Y-117875000D02*
X162930000Y-115000000D01*
X167100000Y-117875000D02*
X165805000Y-117875000D01*
D45*
X149700000Y-107300000D02*
X149700000Y-109900000D01*
X148630000Y-106230000D02*
X149700000Y-107300000D01*
X148470000Y-106230000D02*
X148630000Y-106230000D01*
X158830000Y-110900000D02*
X150700000Y-110900000D01*
X162930000Y-115000000D02*
X158830000Y-110900000D01*
X149700000Y-109900000D02*
X150700000Y-110900000D01*
D46*
G04 #@! TO.N,GND*
X100200000Y-96300000D02*
X100200000Y-95300000D01*
X100200000Y-96300000D02*
X100200000Y-97400000D01*
D47*
X94400000Y-102450000D02*
X94400000Y-101300000D01*
X105875000Y-99300000D02*
X106900000Y-99300000D01*
X102075000Y-91600000D02*
X100900000Y-91600000D01*
D48*
X104200000Y-91775000D02*
X104200000Y-90800000D01*
D49*
X104300000Y-105425000D02*
X104300000Y-104400000D01*
X109460000Y-106200000D02*
X108200000Y-106200000D01*
D48*
X113225000Y-105200000D02*
X114200000Y-105200000D01*
D47*
X101150000Y-113450000D02*
X101100000Y-113500000D01*
X101150000Y-112200000D02*
X101150000Y-113450000D01*
X103700000Y-109600000D02*
X102300000Y-109600000D01*
D49*
X120500000Y-109350000D02*
X120200000Y-109050000D01*
X120500000Y-111500000D02*
X120500000Y-109350000D01*
X118800000Y-111500000D02*
X118800000Y-111500000D01*
D47*
X118000000Y-113525000D02*
X117900000Y-113625000D01*
X118000000Y-112300000D02*
X118000000Y-113525000D01*
D46*
X125610000Y-108100000D02*
X124400000Y-108100000D01*
X125610000Y-108100000D02*
X126800000Y-108100000D01*
D49*
X120200000Y-109050000D02*
X119050000Y-109050000D01*
X119050000Y-109050000D02*
X118500000Y-108500000D01*
D47*
X118000000Y-112300000D02*
X118800000Y-111500000D01*
X120500000Y-111500000D02*
X118800000Y-111500000D01*
X118800000Y-111500000D02*
X119500004Y-111500000D01*
D44*
X110200000Y-90775000D02*
X110200000Y-91900000D01*
X133212500Y-117587500D02*
X133200000Y-117600000D01*
X134100000Y-117587500D02*
X133212500Y-117587500D01*
X133187500Y-117587500D02*
X133200000Y-117600000D01*
X132100000Y-117587500D02*
X133187500Y-117587500D01*
D48*
X153700000Y-116125000D02*
X153700000Y-117200000D01*
X129625000Y-106325000D02*
X129600000Y-106300000D01*
X129625000Y-107350000D02*
X129625000Y-106325000D01*
D50*
X123395000Y-88105000D02*
X123400000Y-88100000D01*
X123395000Y-89725000D02*
X123395000Y-88105000D01*
X121575000Y-88225000D02*
X121600000Y-88200000D01*
X121575000Y-89200000D02*
X121575000Y-88225000D01*
D44*
X134750000Y-89650000D02*
X134800000Y-89600000D01*
X133730000Y-89650000D02*
X134750000Y-89650000D01*
D48*
X111975000Y-99200000D02*
X111000000Y-99200000D01*
X120800000Y-93800000D02*
X121100000Y-94100000D01*
X120800000Y-93150000D02*
X120800000Y-93800000D01*
X121575000Y-94575000D02*
X121100000Y-94100000D01*
X121575000Y-95200000D02*
X121575000Y-94575000D01*
X124150000Y-98050000D02*
X124100000Y-98000000D01*
X125550000Y-98050000D02*
X124150000Y-98050000D01*
D44*
X167825000Y-113600000D02*
X166700000Y-113600000D01*
X167100000Y-116325000D02*
X167100000Y-115300000D01*
D45*
X135675000Y-110375000D02*
X135700000Y-110400000D01*
X135675000Y-109000000D02*
X135675000Y-110375000D01*
D48*
X134500000Y-100550000D02*
X134500000Y-102200000D01*
D50*
X169800000Y-77925000D02*
X169800000Y-76900000D01*
X168200000Y-77875000D02*
X168200000Y-76900000D01*
X163175000Y-81837500D02*
X163175000Y-80775000D01*
X162825000Y-80425000D02*
X162825000Y-79750000D01*
X162825000Y-78725000D02*
X162800000Y-78700000D01*
X162825000Y-79750000D02*
X162825000Y-78725000D01*
X163825000Y-81837500D02*
X163825000Y-80725000D01*
X163800000Y-80700000D02*
X163100000Y-80700000D01*
X163825000Y-80725000D02*
X163800000Y-80700000D01*
X163100000Y-80700000D02*
X162825000Y-80425000D01*
X163175000Y-80775000D02*
X163100000Y-80700000D01*
X158975000Y-83075000D02*
X158900000Y-83000000D01*
X159900000Y-83075000D02*
X158975000Y-83075000D01*
X169675000Y-83275000D02*
X169700000Y-83300000D01*
X169675000Y-81837500D02*
X169675000Y-83275000D01*
X167075000Y-80450000D02*
X167125000Y-80400000D01*
X167075000Y-81837500D02*
X167075000Y-80450000D01*
X148125000Y-76075000D02*
X148100000Y-76100000D01*
X149200000Y-76075000D02*
X148125000Y-76075000D01*
D44*
X145895000Y-79695000D02*
X145900000Y-79700000D01*
X144225000Y-79695000D02*
X145895000Y-79695000D01*
X137505000Y-77305000D02*
X137500000Y-77300000D01*
X139125000Y-77305000D02*
X137505000Y-77305000D01*
X130625000Y-75600000D02*
X129500000Y-75600000D01*
X135825000Y-85275000D02*
X135800000Y-85300000D01*
X137000000Y-85275000D02*
X135825000Y-85275000D01*
X121200000Y-82225000D02*
X121200000Y-81100000D01*
X126805000Y-76605000D02*
X126800000Y-76600000D01*
X126805000Y-78225000D02*
X126805000Y-76605000D01*
X126805000Y-84895000D02*
X126800000Y-84900000D01*
X126805000Y-83175000D02*
X126805000Y-84895000D01*
D48*
X145690000Y-89000000D02*
X144300000Y-89000000D01*
D44*
X140850000Y-117050000D02*
X141449988Y-117050000D01*
X141449988Y-117050000D02*
X141999988Y-116500000D01*
D48*
X129500000Y-75600000D02*
X129200000Y-75900000D01*
D50*
X167825000Y-112000000D02*
X167825000Y-113600000D01*
D49*
X93190000Y-54920000D02*
X100810000Y-54920000D01*
X93190000Y-62540000D02*
X100810000Y-62540000D01*
D48*
X149150000Y-85000000D02*
X149200000Y-85050000D01*
X149150000Y-83875000D02*
X149150000Y-85000000D01*
D44*
X174275000Y-77000000D02*
X173200000Y-77000000D01*
X174225000Y-75300000D02*
X173200000Y-75300000D01*
D50*
X134605000Y-83075000D02*
X134605000Y-84895000D01*
G04 #@! TO.N,Net-(C17-Pad2)*
X169025000Y-81837500D02*
X169025000Y-80875000D01*
X169800000Y-80100000D02*
X169800000Y-79475000D01*
X169025000Y-80875000D02*
X169800000Y-80100000D01*
D51*
G04 #@! TO.N,+9V*
X105300000Y-114000000D02*
X105300000Y-113000000D01*
X104500000Y-112200000D02*
X103050000Y-112200000D01*
X105300000Y-113000000D02*
X104500000Y-112200000D01*
D47*
X103050000Y-114650000D02*
X103100000Y-114700000D01*
X103050000Y-112200000D02*
X103050000Y-113750000D01*
X103050000Y-113750000D02*
X103050000Y-114650000D01*
D48*
X113225000Y-106800000D02*
X114200000Y-106800000D01*
D44*
X139275000Y-82235000D02*
X137665000Y-82235000D01*
X137000000Y-82900000D02*
X137000000Y-83725000D01*
X137665000Y-82235000D02*
X137300000Y-82600000D01*
X137300000Y-82600000D02*
X137000000Y-82900000D01*
X132065000Y-78125000D02*
X132065000Y-76735000D01*
X132175000Y-76625000D02*
X132175000Y-75600000D01*
X132065000Y-76735000D02*
X132175000Y-76625000D01*
D47*
X105300000Y-115200000D02*
X105300000Y-113600000D01*
X106700000Y-116600000D02*
X105300000Y-115200000D01*
X112000000Y-116600000D02*
X106700000Y-116600000D01*
X112500000Y-116100000D02*
X112000000Y-116600000D01*
D49*
G04 #@! TO.N,+12V*
X99250000Y-91725000D02*
X99125000Y-91600000D01*
D47*
X99125000Y-91600000D02*
X95200000Y-91600000D01*
D48*
X101150000Y-94100000D02*
X101150000Y-93250000D01*
X100950000Y-93050000D02*
X99250000Y-93050000D01*
X101150000Y-93250000D02*
X100950000Y-93050000D01*
D49*
X99250000Y-93050000D02*
X99250000Y-91725000D01*
X99250000Y-94100000D02*
X99250000Y-93050000D01*
D47*
X99125000Y-90125000D02*
X99100000Y-90100000D01*
X99125000Y-91600000D02*
X99125000Y-90125000D01*
X99100000Y-90100000D02*
X99100000Y-89100000D01*
D46*
X106840000Y-106200000D02*
X106000000Y-106200000D01*
D49*
X106000000Y-106200000D02*
X105800000Y-106200000D01*
X105025000Y-106975000D02*
X104300000Y-106975000D01*
X105800000Y-106200000D02*
X105025000Y-106975000D01*
X102425000Y-106975000D02*
X102400000Y-107000000D01*
X104300000Y-106975000D02*
X103325000Y-106975000D01*
X103325000Y-106975000D02*
X102425000Y-106975000D01*
X122990000Y-108100000D02*
X121900000Y-108100000D01*
X120950000Y-107150000D02*
X120200000Y-107150000D01*
X121900000Y-108100000D02*
X120950000Y-107150000D01*
D48*
X121175000Y-105400000D02*
X120500000Y-105400000D01*
X120200000Y-105700000D02*
X120200000Y-107150000D01*
X120500000Y-105400000D02*
X120200000Y-105700000D01*
D49*
X120200000Y-107150000D02*
X118250000Y-107150000D01*
X118250000Y-107150000D02*
X117300000Y-106200000D01*
D44*
X148150000Y-77550000D02*
X148100000Y-77500000D01*
X149175000Y-77550000D02*
X148150000Y-77550000D01*
D50*
X105800000Y-104600000D02*
X105800000Y-106200000D01*
X107000000Y-103400000D02*
X105800000Y-104600000D01*
X107375000Y-103400000D02*
X107000000Y-103400000D01*
D46*
G04 #@! TO.N,Net-(C22-Pad2)*
X122990000Y-109050000D02*
X122990000Y-109590000D01*
D47*
X122990000Y-111190000D02*
X123300000Y-111500000D01*
X122990000Y-109590000D02*
X122990000Y-111190000D01*
D51*
X123300000Y-115300000D02*
X123300000Y-111500000D01*
D46*
X123400000Y-111400000D02*
X123300000Y-111500000D01*
X125125000Y-111400000D02*
X123400000Y-111400000D01*
G04 #@! TO.N,Net-(C22-Pad1)*
X125610000Y-109050000D02*
X125610000Y-109710000D01*
D49*
X126675000Y-110775000D02*
X126675000Y-111400000D01*
X125610000Y-109710000D02*
X126675000Y-110775000D01*
X126675000Y-112925000D02*
X125800000Y-113800000D01*
X126675000Y-111400000D02*
X126675000Y-112925000D01*
D47*
G04 #@! TO.N,+5V*
X125800000Y-116600000D02*
X125800000Y-115400000D01*
X118000000Y-116475000D02*
X117900000Y-116575000D01*
X118000000Y-115400000D02*
X118000000Y-116475000D01*
D51*
X120025000Y-116575000D02*
X117900000Y-116575000D01*
D44*
X129625000Y-109100000D02*
X129625000Y-110375000D01*
X129625000Y-110375000D02*
X128100000Y-111900000D01*
X128100000Y-111900000D02*
X128100000Y-114200000D01*
X126900000Y-115400000D02*
X125800000Y-115400000D01*
X128100000Y-114200000D02*
X126900000Y-115400000D01*
D47*
X116425000Y-116575000D02*
X116400000Y-116600000D01*
X117900000Y-116575000D02*
X116425000Y-116575000D01*
D44*
X138950000Y-112950000D02*
X138900000Y-112900000D01*
X138950000Y-114350000D02*
X138950000Y-112950000D01*
D46*
X151300000Y-117100000D02*
X144100000Y-117100000D01*
D44*
X120025000Y-88225000D02*
X120000000Y-88200000D01*
X120025000Y-89200000D02*
X120025000Y-88225000D01*
X120025000Y-90425000D02*
X120150000Y-90550000D01*
X120025000Y-89200000D02*
X120025000Y-90425000D01*
D50*
X120150000Y-90550000D02*
X120150000Y-91250000D01*
D44*
X129300000Y-93375000D02*
X129300000Y-92400000D01*
X130425000Y-89325000D02*
X130400000Y-89300000D01*
X131700000Y-89325000D02*
X130425000Y-89325000D01*
D48*
X133725000Y-104225000D02*
X133700000Y-104200000D01*
X133725000Y-105600000D02*
X133725000Y-104225000D01*
D44*
X134500000Y-97850000D02*
X134500000Y-96400000D01*
X120125000Y-83775000D02*
X120100000Y-83800000D01*
X121200000Y-83775000D02*
X120125000Y-83775000D01*
X122995000Y-78225000D02*
X122995000Y-83175000D01*
X122325000Y-83175000D02*
X122995000Y-83175000D01*
X122100000Y-83400000D02*
X122325000Y-83175000D01*
X122100000Y-83500000D02*
X122100000Y-83400000D01*
X121825000Y-83775000D02*
X122100000Y-83500000D01*
X121200000Y-83775000D02*
X121825000Y-83775000D01*
D46*
X142810065Y-117100000D02*
X142759266Y-117150799D01*
X144100000Y-117100000D02*
X142810065Y-117100000D01*
D47*
X115325000Y-116575000D02*
X115300000Y-116600000D01*
X117900000Y-116575000D02*
X115325000Y-116575000D01*
D46*
G04 #@! TO.N,Net-(C26-Pad2)*
X106840000Y-107150000D02*
X106840000Y-107360000D01*
D47*
X106840000Y-107360000D02*
X106800000Y-107400000D01*
X106800000Y-107400000D02*
X106800000Y-108300000D01*
D51*
X106500000Y-108600000D02*
X106500000Y-109600000D01*
X106500000Y-109600000D02*
X106500000Y-110100000D01*
D49*
X108900000Y-112500000D02*
X106500000Y-110100000D01*
X108900000Y-114000000D02*
X108900000Y-112500000D01*
D51*
X107500000Y-111100000D02*
X106500000Y-110100000D01*
X107500000Y-111800000D02*
X107500000Y-111100000D01*
X108900000Y-113200000D02*
X107500000Y-111800000D01*
X108900000Y-114000000D02*
X108900000Y-113200000D01*
D49*
X107412500Y-110512500D02*
X106500000Y-109600000D01*
X108525000Y-109400000D02*
X107412500Y-110512500D01*
G04 #@! TO.N,Net-(C26-Pad1)*
X110075000Y-109400000D02*
X111000000Y-109400000D01*
X111950000Y-108450000D02*
X112300000Y-108450000D01*
X111000000Y-109400000D02*
X111950000Y-108450000D01*
D46*
X110075000Y-108875000D02*
X110075000Y-109400000D01*
X109460000Y-108260000D02*
X110075000Y-108875000D01*
X109460000Y-107150000D02*
X109460000Y-108260000D01*
D48*
G04 #@! TO.N,/Overcurrent Protection/Vref*
X120150000Y-95075000D02*
X120025000Y-95200000D01*
X120150000Y-93150000D02*
X120150000Y-95075000D01*
X120025000Y-99175000D02*
X120050000Y-99200000D01*
X120025000Y-95200000D02*
X120025000Y-99175000D01*
D47*
G04 #@! TO.N,Net-(D3-Pad2)*
X112300000Y-111750000D02*
X112550000Y-111750000D01*
X113450000Y-112650000D02*
X113450000Y-114100000D01*
X112550000Y-111750000D02*
X113450000Y-112650000D01*
D50*
G04 #@! TO.N,Net-(D6-Pad2)*
X134100000Y-114325000D02*
X134100000Y-116012500D01*
G04 #@! TO.N,/Output Stage/MOSFET-OUT*
X133335000Y-79665000D02*
X133335000Y-78125000D01*
X132065000Y-80935000D02*
X133335000Y-79665000D01*
X132065000Y-83075000D02*
X132065000Y-80935000D01*
D44*
G04 #@! TO.N,/Overcurrent Protection/OCMosfet*
X125535000Y-78225000D02*
X125535000Y-76635000D01*
X125535000Y-76635000D02*
X125200000Y-76300000D01*
X125200000Y-76300000D02*
X124600000Y-76300000D01*
X124265000Y-76635000D02*
X124265000Y-78225000D01*
X124600000Y-76300000D02*
X124265000Y-76635000D01*
X124600000Y-76300000D02*
X124600000Y-74900000D01*
X124600000Y-74900000D02*
X122530000Y-72830000D01*
X122530000Y-72830000D02*
X119830000Y-72830000D01*
X117750000Y-70750000D02*
X117500000Y-70500000D01*
X119830000Y-72830000D02*
X117750000Y-70750000D01*
X116300000Y-69300000D02*
X117750000Y-70750000D01*
X116300000Y-61980000D02*
X116300000Y-69300000D01*
X114930000Y-60610000D02*
X116300000Y-61980000D01*
D48*
G04 #@! TO.N,Net-(Q2-Pad1)*
X111100000Y-58200000D02*
X111100000Y-64200000D01*
D44*
G04 #@! TO.N,/Overcurrent Protection/OCControl*
X133655000Y-87675000D02*
X133730000Y-87750000D01*
X131700000Y-87675000D02*
X133655000Y-87675000D01*
D45*
X131625000Y-87600000D02*
X131700000Y-87675000D01*
X130300000Y-87600000D02*
X131625000Y-87600000D01*
X136000000Y-95500000D02*
X132800000Y-95500000D01*
X138100000Y-101200000D02*
X138100000Y-97600000D01*
X141900000Y-105000000D02*
X138100000Y-101200000D01*
X138100000Y-97600000D02*
X136000000Y-95500000D01*
X149780000Y-105000000D02*
X141900000Y-105000000D01*
X151010000Y-106230000D02*
X149780000Y-105000000D01*
D50*
G04 #@! TO.N,Net-(R2-Pad2)*
X114785000Y-94745000D02*
X114785000Y-95985000D01*
X115300000Y-96500000D02*
X115300000Y-97575000D01*
X114785000Y-95985000D02*
X115300000Y-96500000D01*
D48*
X113075000Y-87500000D02*
X113075000Y-88175000D01*
X113515000Y-88615000D02*
X113515000Y-89795000D01*
X113075000Y-88175000D02*
X113515000Y-88615000D01*
X116575000Y-97575000D02*
X116600000Y-97600000D01*
X115300000Y-97575000D02*
X116575000Y-97575000D01*
X113000000Y-87425000D02*
X113075000Y-87500000D01*
X113000000Y-86100000D02*
X113000000Y-87425000D01*
D50*
G04 #@! TO.N,Net-(R3-Pad2)*
X113515000Y-94745000D02*
X113515000Y-96215000D01*
X113625000Y-96325000D02*
X113625000Y-97600000D01*
X113515000Y-96215000D02*
X113625000Y-96325000D01*
X113625000Y-99200000D02*
X113625000Y-97600000D01*
D48*
G04 #@! TO.N,Net-(R5-Pad1)*
X114785000Y-87560000D02*
X114725000Y-87500000D01*
X114785000Y-89795000D02*
X114785000Y-87560000D01*
X114725000Y-86475000D02*
X114999990Y-86200010D01*
X114725000Y-87500000D02*
X114725000Y-86475000D01*
D50*
G04 #@! TO.N,Net-(R10-Pad2)*
X168200000Y-79525000D02*
X168200000Y-80400000D01*
X168375000Y-80575000D02*
X168375000Y-81837500D01*
X168200000Y-80400000D02*
X168375000Y-80575000D01*
G04 #@! TO.N,Net-(C18-Pad1)*
X150850000Y-80725000D02*
X150825000Y-80700000D01*
X152300000Y-80725000D02*
X150850000Y-80725000D01*
X152325000Y-80700000D02*
X152300000Y-80725000D01*
X152325000Y-79200000D02*
X152325000Y-80700000D01*
G04 #@! TO.N,Net-(C18-Pad2)*
X150825000Y-82275000D02*
X150800000Y-82250000D01*
X152300000Y-82275000D02*
X150825000Y-82275000D01*
X150800000Y-83875000D02*
X150800000Y-82250000D01*
G04 #@! TO.N,Net-(R14-Pad2)*
X149175000Y-79100000D02*
X149175000Y-80700000D01*
D48*
G04 #@! TO.N,Net-(R22-Pad2)*
X122825000Y-106985000D02*
X122990000Y-107150000D01*
X122825000Y-105400000D02*
X122825000Y-106985000D01*
G04 #@! TO.N,Net-(R23-Pad2)*
X127975000Y-109100000D02*
X127975000Y-107350000D01*
X125610000Y-107150000D02*
X126550000Y-107150000D01*
X126750000Y-107350000D02*
X127975000Y-107350000D01*
X126550000Y-107150000D02*
X126750000Y-107350000D01*
D50*
G04 #@! TO.N,Net-(R25-Pad2)*
X106840000Y-105250000D02*
X107850000Y-105250000D01*
X107850000Y-105250000D02*
X108100000Y-105000000D01*
X108100000Y-104625000D02*
X109325000Y-103400000D01*
X108100000Y-105000000D02*
X108100000Y-104625000D01*
G04 #@! TO.N,Net-(R26-Pad2)*
X111525000Y-105250000D02*
X111575000Y-105200000D01*
X109460000Y-105250000D02*
X111525000Y-105250000D01*
X111575000Y-105200000D02*
X111575000Y-106800000D01*
D44*
G04 #@! TO.N,Net-(R28-Pad1)*
X129300000Y-95025000D02*
X128425000Y-95025000D01*
X128425000Y-95025000D02*
X128075000Y-94675000D01*
X128075000Y-94675000D02*
X127205000Y-94675000D01*
D48*
X127800000Y-98375000D02*
X127800000Y-96900000D01*
X127205000Y-96305000D02*
X127205000Y-94675000D01*
X127800000Y-96900000D02*
X127205000Y-96305000D01*
G04 #@! TO.N,Net-(R29-Pad1)*
X125550000Y-100350000D02*
X126550000Y-100350000D01*
X126875000Y-100025000D02*
X127800000Y-100025000D01*
X126550000Y-100350000D02*
X126875000Y-100025000D01*
D45*
G04 #@! TO.N,Net-(R31-Pad2)*
X134100000Y-113175000D02*
X134100000Y-111900000D01*
X134100000Y-111900000D02*
X132900000Y-110700000D01*
X132900000Y-110700000D02*
X132900000Y-107700000D01*
X132900000Y-107700000D02*
X133300000Y-107300000D01*
X133300000Y-107300000D02*
X136200000Y-107300000D01*
X136200000Y-107300000D02*
X136800000Y-106700000D01*
X136350000Y-97850000D02*
X135450000Y-97850000D01*
X136800000Y-98300000D02*
X136350000Y-97850000D01*
X139200000Y-89325000D02*
X139200000Y-90800000D01*
X136900000Y-104700000D02*
X136800000Y-104800000D01*
X137800000Y-104700000D02*
X136900000Y-104700000D01*
X136800000Y-104800000D02*
X136800000Y-98300000D01*
X136800000Y-106700000D02*
X136800000Y-104800000D01*
D44*
G04 #@! TO.N,+3V3*
X110200000Y-89225000D02*
X110200000Y-88200000D01*
D49*
X171330000Y-108770000D02*
X171330000Y-111170000D01*
X171330000Y-111170000D02*
X170500000Y-112000000D01*
D46*
X170500000Y-112000000D02*
X169500000Y-112000000D01*
X169375000Y-113600000D02*
X170200000Y-113600000D01*
X170500000Y-113300000D02*
X170500000Y-113200000D01*
X170200000Y-113600000D02*
X170500000Y-113300000D01*
X170500000Y-113200000D02*
X170500000Y-111999990D01*
X170500000Y-112000000D02*
X170500000Y-111999990D01*
D44*
X168700000Y-116275000D02*
X168700000Y-115300000D01*
D50*
X164475000Y-79850000D02*
X164375000Y-79750000D01*
X164475000Y-81837500D02*
X164475000Y-79850000D01*
X164375000Y-78725000D02*
X164400000Y-78700000D01*
X164375000Y-79750000D02*
X164375000Y-78725000D01*
X162525000Y-81837500D02*
X162525000Y-80925000D01*
X159900000Y-81525000D02*
X159975000Y-81525000D01*
X159975000Y-81525000D02*
X161000000Y-80500000D01*
X162100000Y-80500000D02*
X162525000Y-80925000D01*
X161000000Y-80500000D02*
X162100000Y-80500000D01*
X158925000Y-81525000D02*
X158900000Y-81500000D01*
X159900000Y-81525000D02*
X158925000Y-81525000D01*
D48*
X145690000Y-87010000D02*
X145700000Y-87000000D01*
X145690000Y-88050000D02*
X145690000Y-87010000D01*
D44*
X110925000Y-89225000D02*
X110200000Y-89225000D01*
X111495000Y-89795000D02*
X110925000Y-89225000D01*
X112245000Y-89795000D02*
X111495000Y-89795000D01*
D49*
G04 #@! TO.N,Net-(C2-Pad2)*
X94775000Y-98775000D02*
X94400000Y-99150000D01*
X94775000Y-97400000D02*
X94775000Y-98775000D01*
D51*
X97000000Y-100400000D02*
X97000000Y-99700000D01*
X96450000Y-99150000D02*
X94400000Y-99150000D01*
X97000000Y-99700000D02*
X96450000Y-99150000D01*
D44*
G04 #@! TO.N,/Overcurrent Protection/OCStatus*
X136975000Y-88700000D02*
X137600000Y-89325000D01*
X135730000Y-88700000D02*
X136975000Y-88700000D01*
D45*
X148470000Y-103690000D02*
X147180000Y-102400000D01*
X147180000Y-102400000D02*
X141400000Y-102400000D01*
X141400000Y-102400000D02*
X139100000Y-100100000D01*
X137600000Y-91000000D02*
X137600000Y-89325000D01*
D48*
G04 #@! TO.N,/Overcurrent Protection/OCSense*
X122350000Y-93150000D02*
X122400000Y-93200000D01*
X121450000Y-93150000D02*
X122350000Y-93150000D01*
X116475000Y-99225000D02*
X116500000Y-99200000D01*
X115300000Y-99225000D02*
X116475000Y-99225000D01*
D50*
G04 #@! TO.N,/Teensy/ADC-SHUNT*
X112245000Y-94745000D02*
X112245000Y-96455000D01*
X111975000Y-96725000D02*
X111975000Y-97600000D01*
X112245000Y-96455000D02*
X111975000Y-96725000D01*
D48*
X133975000Y-94300000D02*
X132900000Y-94300000D01*
X133975000Y-92700000D02*
X132900000Y-92700000D01*
X132300000Y-93300000D02*
X132300000Y-94300000D01*
X132900000Y-92700000D02*
X132300000Y-93300000D01*
X132300000Y-94300000D02*
X132900000Y-94300000D01*
X109500000Y-98500000D02*
X110400000Y-97600000D01*
X110400000Y-97600000D02*
X111975000Y-97600000D01*
X109500000Y-100700000D02*
X109500000Y-98500000D01*
X111900000Y-103100000D02*
X109500000Y-100700000D01*
X127900000Y-103100000D02*
X111900000Y-103100000D01*
X129700000Y-96900000D02*
X129700000Y-101300000D01*
X129700000Y-101300000D02*
X127900000Y-103100000D01*
X132300000Y-94300000D02*
X129700000Y-96900000D01*
D50*
G04 #@! TO.N,Net-(R15-Pad2)*
X133435000Y-83175000D02*
X133335000Y-83075000D01*
D48*
X133335000Y-81365000D02*
X133335000Y-83075000D01*
G04 #@! TO.N,Net-(C4-Pad1)*
X104250000Y-95025000D02*
X104200000Y-94975000D01*
X105800000Y-95025000D02*
X104250000Y-95025000D01*
X104200000Y-94975000D02*
X103125000Y-94975000D01*
X101800000Y-96300000D02*
X101150000Y-96300000D01*
X103125000Y-94975000D02*
X101800000Y-96300000D01*
X104200000Y-93425000D02*
X104200000Y-94975000D01*
D51*
G04 #@! TO.N,-3V3*
X100600000Y-100400000D02*
X100600000Y-99900000D01*
X101200000Y-99300000D02*
X102925000Y-99300000D01*
X100600000Y-99900000D02*
X101200000Y-99300000D01*
D48*
X104200000Y-96625000D02*
X103475000Y-96625000D01*
X102925000Y-97175000D02*
X102925000Y-99300000D01*
X103475000Y-96625000D02*
X102925000Y-97175000D01*
X105750000Y-96625000D02*
X105800000Y-96575000D01*
X104200000Y-96625000D02*
X105750000Y-96625000D01*
D47*
X102925000Y-100675000D02*
X102900000Y-100700000D01*
X102925000Y-98600000D02*
X102925000Y-99875000D01*
X102925000Y-100575000D02*
X102925000Y-101375000D01*
D44*
X116055000Y-96245000D02*
X116000000Y-96300000D01*
X116055000Y-94745000D02*
X116055000Y-96245000D01*
D50*
G04 #@! TO.N,Net-(R18-Pad2)*
X150825000Y-79100000D02*
X150825000Y-77550000D01*
X150825000Y-76150000D02*
X150750000Y-76075000D01*
X150825000Y-77550000D02*
X150825000Y-76150000D01*
D48*
G04 #@! TO.N,GND*
X105900000Y-64100000D02*
X105900000Y-58200000D01*
X108100010Y-79600010D02*
X109300010Y-79600010D01*
X106099990Y-70592890D02*
X106099990Y-77599990D01*
X109850000Y-80150000D02*
X110675000Y-80150000D01*
X109300010Y-79600010D02*
X109850000Y-80150000D01*
X108300000Y-68392880D02*
X106099990Y-70592890D01*
X108300000Y-67700000D02*
X108300000Y-68392880D01*
X105800000Y-65200000D02*
X108300000Y-67700000D01*
X106099990Y-77599990D02*
X108100010Y-79600010D01*
X105800000Y-59300000D02*
X105800000Y-65200000D01*
D44*
X153550000Y-77550000D02*
X153600000Y-77500000D01*
X152325000Y-77550000D02*
X153550000Y-77550000D01*
G04 #@! TO.N,+9V*
X132175000Y-75600000D02*
X132175000Y-74525000D01*
X132175000Y-74525000D02*
X132200000Y-74500000D01*
D48*
G04 #@! TO.N,/Output Stage/MOSFET-OUT*
X133335000Y-78125000D02*
X133335000Y-76565000D01*
X136000000Y-73900000D02*
X136000000Y-70800000D01*
X133335000Y-76565000D02*
X136000000Y-73900000D01*
D46*
G04 #@! TO.N,Net-(R30-Pad2)*
X151300000Y-114100000D02*
X144100000Y-114100000D01*
D48*
X153700000Y-114475000D02*
X152975000Y-114475000D01*
X152600000Y-114100000D02*
X151300000Y-114100000D01*
X152975000Y-114475000D02*
X152600000Y-114100000D01*
X139900000Y-117050000D02*
X139900000Y-116100000D01*
X139900000Y-116100000D02*
X140300000Y-115700000D01*
X140300000Y-115700000D02*
X141700000Y-115700000D01*
X141700000Y-115700000D02*
X142300000Y-115100000D01*
X142300000Y-115100000D02*
X142300000Y-114300000D01*
X142500000Y-114100000D02*
X144100000Y-114100000D01*
X142300000Y-114300000D02*
X142500000Y-114100000D01*
D45*
G04 #@! TO.N,Net-(R32-Pad1)*
X124265000Y-85365000D02*
X124265000Y-83175000D01*
X125300000Y-86400000D02*
X124265000Y-85365000D01*
D50*
X139200000Y-87675000D02*
X137600000Y-87675000D01*
X137600000Y-87675000D02*
X136875000Y-87675000D01*
X135600000Y-86400000D02*
X135000000Y-86400000D01*
D45*
X135000000Y-86400000D02*
X125300000Y-86400000D01*
D50*
X136875000Y-87675000D02*
X135600000Y-86400000D01*
D45*
G04 #@! TO.N,Net-(U2-Pad12)*
X148310000Y-88050000D02*
X149450000Y-88050000D01*
X149450000Y-88050000D02*
X149800000Y-88400000D01*
X149800000Y-88400000D02*
X149800000Y-91000000D01*
X148470000Y-92330000D02*
X148470000Y-93530000D01*
X149800000Y-91000000D02*
X148470000Y-92330000D01*
G04 #@! TO.N,Net-(U2-Pad14)*
X148310000Y-89000000D02*
X147300000Y-89000000D01*
X147300000Y-89000000D02*
X146800000Y-89500000D01*
X146800000Y-89500000D02*
X146800000Y-90500000D01*
X146800000Y-90500000D02*
X146300000Y-91000000D01*
X146300000Y-91000000D02*
X144400000Y-91000000D01*
X143390000Y-92010000D02*
X143390000Y-93530000D01*
X144400000Y-91000000D02*
X143390000Y-92010000D01*
G04 #@! TO.N,Net-(U2-Pad20)*
X145100000Y-96100000D02*
X145100000Y-98300000D01*
X147200000Y-94000000D02*
X145100000Y-96100000D01*
X147200000Y-92200000D02*
X147200000Y-94000000D01*
X148310000Y-91090000D02*
X147200000Y-92200000D01*
X148310000Y-89950000D02*
X148310000Y-91090000D01*
G04 #@! TO.N,/Output Stage/DAC-CLOCK*
X166700000Y-84300000D02*
X165900000Y-83500000D01*
X165900000Y-83500000D02*
X162400000Y-83500000D01*
X161875000Y-82975000D02*
X161875000Y-81837500D01*
X162400000Y-83500000D02*
X161875000Y-82975000D01*
G04 #@! TO.N,/Output Stage/DAC-D0*
X170325000Y-89985000D02*
X173870000Y-93530000D01*
X170325000Y-87562500D02*
X170325000Y-89985000D01*
G04 #@! TO.N,/Output Stage/DAC-D1*
X169675000Y-91875000D02*
X171330000Y-93530000D01*
X169675000Y-87562500D02*
X169675000Y-91875000D01*
G04 #@! TO.N,/Output Stage/DAC-D2*
X169025000Y-93295000D02*
X168790000Y-93530000D01*
X169025000Y-87562500D02*
X169025000Y-93295000D01*
G04 #@! TO.N,/Output Stage/DAC-D3*
X168375000Y-91405000D02*
X168375000Y-87562500D01*
X166250000Y-93530000D02*
X168375000Y-91405000D01*
G04 #@! TO.N,/Output Stage/DAC-D4*
X164940000Y-92300000D02*
X163710000Y-93530000D01*
X166200000Y-92300000D02*
X164940000Y-92300000D01*
X167725000Y-90775000D02*
X166200000Y-92300000D01*
X167725000Y-87562500D02*
X167725000Y-90775000D01*
G04 #@! TO.N,/Output Stage/DAC-D5*
X163000000Y-91700000D02*
X161170000Y-93530000D01*
X165700000Y-91700000D02*
X163000000Y-91700000D01*
X167075000Y-90325000D02*
X165700000Y-91700000D01*
X167075000Y-87562500D02*
X167075000Y-90325000D01*
G04 #@! TO.N,/Output Stage/DAC-D6*
X161060000Y-91100000D02*
X158630000Y-93530000D01*
X165200000Y-91100000D02*
X161060000Y-91100000D01*
X166425000Y-89875000D02*
X165200000Y-91100000D01*
X166425000Y-87562500D02*
X166425000Y-89875000D01*
G04 #@! TO.N,/Output Stage/DAC-D7*
X156090000Y-93410000D02*
X156090000Y-93530000D01*
X164700000Y-90500000D02*
X159000000Y-90500000D01*
X159000000Y-90500000D02*
X156090000Y-93410000D01*
X165775000Y-89425000D02*
X164700000Y-90500000D01*
X165775000Y-87562500D02*
X165775000Y-89425000D01*
G04 #@! TO.N,/Output Stage/DAC-D8*
X153670000Y-93530000D02*
X157400000Y-89800000D01*
X153550000Y-93530000D02*
X153670000Y-93530000D01*
X157400000Y-89800000D02*
X164200000Y-89800000D01*
X165125000Y-88875000D02*
X165125000Y-87562500D01*
X164200000Y-89800000D02*
X165125000Y-88875000D01*
G04 #@! TO.N,/Output Stage/DAC-D9*
X151010000Y-93530000D02*
X154740000Y-89800000D01*
X164475000Y-88625000D02*
X164475000Y-87562500D01*
X155440000Y-89100000D02*
X154740000Y-89800000D01*
X164000000Y-89100000D02*
X155440000Y-89100000D01*
X164000000Y-89100000D02*
X164475000Y-88625000D01*
G04 #@! TO.N,/Output Stage/DAC-D10*
X165600000Y-84900000D02*
X165600000Y-84300000D01*
X163825000Y-86675000D02*
X165600000Y-84900000D01*
X163825000Y-87562500D02*
X163825000Y-86675000D01*
G04 #@! TO.N,/Output Stage/DAC-D11*
X164400000Y-84500000D02*
X164400000Y-85300000D01*
X163175000Y-86525000D02*
X163175000Y-87562500D01*
X164400000Y-85300000D02*
X163175000Y-86525000D01*
G04 #@! TO.N,/Output Stage/DAC-D12*
X162525000Y-85775000D02*
X162525000Y-87562500D01*
X163400000Y-84900000D02*
X162525000Y-85775000D01*
G04 #@! TO.N,/Output Stage/DAC-D13*
X161812500Y-87500000D02*
X161875000Y-87562500D01*
X160900000Y-87500000D02*
X161812500Y-87500000D01*
D46*
G04 #@! TO.N,Net-(C2-Pad1)*
X99250000Y-96300000D02*
X98500000Y-96300000D01*
D47*
X95200000Y-95200000D02*
X94300000Y-95200000D01*
D49*
X93225000Y-96275000D02*
X93225000Y-97400000D01*
X94300000Y-95200000D02*
X93225000Y-96275000D01*
X98500000Y-96300000D02*
X97800000Y-96300000D01*
D47*
X96700000Y-95200000D02*
X97800000Y-96300000D01*
X95200000Y-95200000D02*
X96700000Y-95200000D01*
D50*
G04 #@! TO.N,Net-(U12-Pad6)*
X132550000Y-97850000D02*
X132500000Y-97900000D01*
X133550000Y-97850000D02*
X132550000Y-97850000D01*
D45*
X137850000Y-117050000D02*
X138950000Y-117050000D01*
X136900000Y-116100000D02*
X137850000Y-117050000D01*
D48*
G04 #@! TO.N,/Overcurrent Protection/SET*
X132550000Y-100550000D02*
X132500000Y-100600000D01*
X133550000Y-100550000D02*
X132550000Y-100550000D01*
X121500000Y-91200000D02*
X121450000Y-91250000D01*
X122300000Y-91200000D02*
X121500000Y-91200000D01*
D50*
X135675000Y-103925000D02*
X135700000Y-103900000D01*
X135675000Y-105600000D02*
X135675000Y-103925000D01*
D45*
G04 #@! TO.N,/Overcurrent Protection/RESET'*
X133725000Y-109000000D02*
X133725000Y-110225000D01*
X133725000Y-110225000D02*
X134800000Y-111300000D01*
X134800000Y-111300000D02*
X138800000Y-111300000D01*
X140850000Y-113350000D02*
X140850000Y-114350000D01*
X138800000Y-111300000D02*
X140850000Y-113350000D01*
G04 #@! TO.N,Net-(U15-Pad2)*
X135025000Y-110038998D02*
X134763998Y-110300000D01*
X135025000Y-109000000D02*
X135025000Y-110038998D01*
X134763998Y-110300000D02*
X134500000Y-110300000D01*
X134375000Y-110175000D02*
X134375000Y-109000000D01*
X134500000Y-110300000D02*
X134375000Y-110175000D01*
D49*
G04 #@! TO.N,Net-(J2-Pad1)*
X176810000Y-54920000D02*
X174270000Y-54920000D01*
X176810000Y-62540000D02*
X169190000Y-62540000D01*
D45*
G04 #@! TO.N,Net-(R9-Pad2)*
X151010000Y-103690000D02*
X149720000Y-102400000D01*
X137200000Y-94300000D02*
X135625000Y-94300000D01*
X139200000Y-96300000D02*
X137200000Y-94300000D01*
X149720000Y-102400000D02*
X149720000Y-100720000D01*
X149720000Y-100720000D02*
X148800000Y-99800000D01*
X148800000Y-99800000D02*
X140900000Y-99800000D01*
X140900000Y-99800000D02*
X139200000Y-98100000D01*
X139200000Y-98100000D02*
X139200000Y-96300000D01*
G04 #@! TO.N,Net-(R35-Pad2)*
X140300000Y-92700000D02*
X135625000Y-92700000D01*
X143050000Y-89950000D02*
X140300000Y-92700000D01*
X145690000Y-89950000D02*
X143050000Y-89950000D01*
D50*
G04 #@! TO.N,Net-(D8-Pad2)*
X132100000Y-114325000D02*
X132100000Y-116012500D01*
G04 #@! TO.N,Net-(R36-Pad2)*
X134375000Y-105600000D02*
X134375000Y-104525000D01*
X134375000Y-104525000D02*
X134700000Y-104200000D01*
X134700000Y-104200000D02*
X134700000Y-103700000D01*
X134700000Y-103700000D02*
X134200000Y-103200000D01*
X134200000Y-103200000D02*
X132600000Y-103200000D01*
X132100000Y-103700000D02*
X132100000Y-113175000D01*
X132600000Y-103200000D02*
X132100000Y-103700000D01*
X135025000Y-104525000D02*
X134700000Y-104200000D01*
X135025000Y-105600000D02*
X135025000Y-104525000D01*
D44*
X135450000Y-100550000D02*
X135450000Y-100650000D01*
D50*
X135450000Y-102950000D02*
X135450000Y-100550000D01*
X134700000Y-103700000D02*
X135450000Y-102950000D01*
D44*
G04 #@! TO.N,Earth*
X175775000Y-75300000D02*
X177400000Y-75300000D01*
X175925000Y-77000000D02*
X177700000Y-77000000D01*
D48*
G04 #@! TO.N,Net-(Q2-Pad1)*
X109950000Y-78550000D02*
X110675000Y-78550000D01*
X109400000Y-79100000D02*
X109950000Y-78550000D01*
X106600000Y-70800000D02*
X106600000Y-77392880D01*
X108800010Y-68599990D02*
X106600000Y-70800000D01*
X108800010Y-67499990D02*
X108800010Y-68599990D01*
X106600000Y-77392880D02*
X108307120Y-79100000D01*
X111000000Y-65300000D02*
X108800010Y-67499990D01*
X108307120Y-79100000D02*
X109400000Y-79100000D01*
X111000000Y-59300000D02*
X111000000Y-65300000D01*
G04 #@! TO.N,Net-(R5-Pad1)*
X114999990Y-86200010D02*
X114999990Y-85399990D01*
X114999990Y-85399990D02*
X114999990Y-84999990D01*
X114450000Y-79650000D02*
X113900000Y-79650000D01*
X113400000Y-80150000D02*
X112325000Y-80150000D01*
X113900000Y-79650000D02*
X113400000Y-80150000D01*
X114999990Y-80199990D02*
X114450000Y-79650000D01*
X114999990Y-85399990D02*
X114999990Y-80199990D01*
D45*
G04 #@! TO.N,Net-(C18-Pad1)*
X153325000Y-80725000D02*
X152300000Y-80725000D01*
X153900000Y-81300000D02*
X153325000Y-80725000D01*
X157100000Y-81300000D02*
X153900000Y-81300000D01*
X161300000Y-77100000D02*
X157100000Y-81300000D01*
X164900000Y-77100000D02*
X161300000Y-77100000D01*
X166425000Y-78625000D02*
X164900000Y-77100000D01*
X166425000Y-81837500D02*
X166425000Y-78625000D01*
G04 #@! TO.N,Net-(C18-Pad2)*
X152875000Y-82275000D02*
X153025000Y-82275000D01*
X152300000Y-82275000D02*
X152875000Y-82275000D01*
X153375000Y-82275000D02*
X152875000Y-82275000D01*
X153949990Y-81700010D02*
X153375000Y-82275000D01*
X157299990Y-81700010D02*
X153949990Y-81700010D01*
X161500000Y-77500000D02*
X157299990Y-81700010D01*
X164700000Y-77500000D02*
X161500000Y-77500000D01*
X166024990Y-78824990D02*
X164700000Y-77500000D01*
X166024990Y-80575010D02*
X166024990Y-78824990D01*
X165775000Y-80825000D02*
X166024990Y-80575010D01*
X165775000Y-81837500D02*
X165775000Y-80825000D01*
D50*
G04 #@! TO.N,Net-(R13-Pad2)*
X144225000Y-82235000D02*
X142865000Y-82235000D01*
X142425000Y-82675000D02*
X142425000Y-85400000D01*
X142865000Y-82235000D02*
X142425000Y-82675000D01*
D48*
X149135000Y-82235000D02*
X149150000Y-82250000D01*
X144225000Y-82235000D02*
X149135000Y-82235000D01*
G04 #@! TO.N,Net-(R14-Pad2)*
X144225000Y-80965000D02*
X147535000Y-80965000D01*
X147800000Y-80700000D02*
X149175000Y-80700000D01*
X147535000Y-80965000D02*
X147800000Y-80700000D01*
G04 #@! TO.N,Net-(R19-Pad2)*
X144275000Y-77305000D02*
X145895000Y-77305000D01*
X145895000Y-77305000D02*
X146800000Y-76400000D01*
X146800000Y-76400000D02*
X146800000Y-75100000D01*
X147475000Y-74425000D02*
X149200000Y-74425000D01*
X146800000Y-75100000D02*
X147475000Y-74425000D01*
X150750000Y-74425000D02*
X149200000Y-74425000D01*
G04 #@! TO.N,Net-(R4-Pad2)*
X116055000Y-86855000D02*
X116055000Y-89795000D01*
X115500000Y-86300000D02*
X116055000Y-86855000D01*
X115500000Y-79992880D02*
X115500000Y-86300000D01*
X113899990Y-79149990D02*
X114657110Y-79149990D01*
X114657110Y-79149990D02*
X115500000Y-79992880D01*
X113300000Y-78550000D02*
X113899990Y-79149990D01*
X112325000Y-78550000D02*
X113300000Y-78550000D01*
D50*
G04 #@! TO.N,Net-(R15-Pad2)*
X140775000Y-85400000D02*
X140775000Y-84425000D01*
X140775000Y-84425000D02*
X141400000Y-83800000D01*
X141400000Y-83800000D02*
X141400000Y-81500000D01*
X140865000Y-80965000D02*
X139275000Y-80965000D01*
X141400000Y-81500000D02*
X140865000Y-80965000D01*
D48*
X133735000Y-80965000D02*
X133335000Y-81365000D01*
X137835000Y-80965000D02*
X133735000Y-80965000D01*
X139275000Y-80965000D02*
X137835000Y-80965000D01*
X137835000Y-80965000D02*
X136535000Y-80965000D01*
G04 #@! TO.N,Net-(R18-Pad2)*
X150595000Y-73495000D02*
X150600000Y-73500000D01*
X144275000Y-73495000D02*
X150595000Y-73495000D01*
X150600000Y-73500000D02*
X151800000Y-73500000D01*
X151800000Y-73500000D02*
X152200000Y-73900000D01*
X152200000Y-73900000D02*
X152200000Y-75700000D01*
X151825000Y-76075000D02*
X150750000Y-76075000D01*
X152200000Y-75700000D02*
X151825000Y-76075000D01*
G04 #@! TD*
D52*
G04 #@! TO.N,Net-(Q2-Pad1)*
X115573000Y-59628625D02*
X115505000Y-59621928D01*
X114355000Y-59621928D01*
X114230518Y-59634188D01*
X114110820Y-59670498D01*
X114000506Y-59729463D01*
X113903815Y-59808815D01*
X113824463Y-59905506D01*
X113765498Y-60015820D01*
X113729188Y-60135518D01*
X113716928Y-60260000D01*
X113716928Y-60960000D01*
X113729188Y-61084482D01*
X113765498Y-61204180D01*
X113824463Y-61314494D01*
X113903815Y-61411185D01*
X114000506Y-61490537D01*
X114110820Y-61549502D01*
X114230518Y-61585812D01*
X114355000Y-61598072D01*
X114737204Y-61598072D01*
X115465000Y-62325869D01*
X115465001Y-68373000D01*
X109727000Y-68373000D01*
X109727000Y-50682712D01*
X110193865Y-50876094D01*
X110992738Y-51035000D01*
X111807262Y-51035000D01*
X112606135Y-50876094D01*
X113358657Y-50564389D01*
X114035909Y-50111864D01*
X114611864Y-49535909D01*
X115064389Y-48858657D01*
X115376094Y-48106135D01*
X115535000Y-47307262D01*
X115535000Y-46492738D01*
X115376094Y-45693865D01*
X115064389Y-44941343D01*
X114611864Y-44264091D01*
X114035909Y-43688136D01*
X113358657Y-43235611D01*
X112606135Y-42923906D01*
X111807262Y-42765000D01*
X110992738Y-42765000D01*
X110193865Y-42923906D01*
X109727000Y-43117288D01*
X109727000Y-42435000D01*
X115573000Y-42435000D01*
X115573000Y-59628625D01*
G04 #@! TA.AperFunction,Conductor*
D53*
G36*
X115573000Y-59628625D02*
G01*
X115505000Y-59621928D01*
X114355000Y-59621928D01*
X114230518Y-59634188D01*
X114110820Y-59670498D01*
X114000506Y-59729463D01*
X113903815Y-59808815D01*
X113824463Y-59905506D01*
X113765498Y-60015820D01*
X113729188Y-60135518D01*
X113716928Y-60260000D01*
X113716928Y-60960000D01*
X113729188Y-61084482D01*
X113765498Y-61204180D01*
X113824463Y-61314494D01*
X113903815Y-61411185D01*
X114000506Y-61490537D01*
X114110820Y-61549502D01*
X114230518Y-61585812D01*
X114355000Y-61598072D01*
X114737204Y-61598072D01*
X115465000Y-62325869D01*
X115465001Y-68373000D01*
X109727000Y-68373000D01*
X109727000Y-50682712D01*
X110193865Y-50876094D01*
X110992738Y-51035000D01*
X111807262Y-51035000D01*
X112606135Y-50876094D01*
X113358657Y-50564389D01*
X114035909Y-50111864D01*
X114611864Y-49535909D01*
X115064389Y-48858657D01*
X115376094Y-48106135D01*
X115535000Y-47307262D01*
X115535000Y-46492738D01*
X115376094Y-45693865D01*
X115064389Y-44941343D01*
X114611864Y-44264091D01*
X114035909Y-43688136D01*
X113358657Y-43235611D01*
X112606135Y-42923906D01*
X111807262Y-42765000D01*
X110992738Y-42765000D01*
X110193865Y-42923906D01*
X109727000Y-43117288D01*
X109727000Y-42435000D01*
X115573000Y-42435000D01*
X115573000Y-59628625D01*
G37*
G04 #@! TD.AperFunction*
G04 #@! TD*
D52*
G04 #@! TO.N,GND*
X107172777Y-68373000D02*
X93635000Y-68373000D01*
X93635000Y-49229902D01*
X94057675Y-48722692D01*
X94622285Y-48835000D01*
X95377715Y-48835000D01*
X96118628Y-48687623D01*
X96816554Y-48398533D01*
X97444670Y-47978839D01*
X97978839Y-47444670D01*
X98398533Y-46816554D01*
X98687623Y-46118628D01*
X98835000Y-45377715D01*
X98835000Y-44622285D01*
X98687623Y-43881372D01*
X98489899Y-43404024D01*
X99297419Y-42435000D01*
X107127271Y-42435000D01*
X107172777Y-68373000D01*
G04 #@! TA.AperFunction,Conductor*
D53*
G36*
X107172777Y-68373000D02*
G01*
X93635000Y-68373000D01*
X93635000Y-49229902D01*
X94057675Y-48722692D01*
X94622285Y-48835000D01*
X95377715Y-48835000D01*
X96118628Y-48687623D01*
X96816554Y-48398533D01*
X97444670Y-47978839D01*
X97978839Y-47444670D01*
X98398533Y-46816554D01*
X98687623Y-46118628D01*
X98835000Y-45377715D01*
X98835000Y-44622285D01*
X98687623Y-43881372D01*
X98489899Y-43404024D01*
X99297419Y-42435000D01*
X107127271Y-42435000D01*
X107172777Y-68373000D01*
G37*
G04 #@! TD.AperFunction*
G04 #@! TD*
D52*
G04 #@! TO.N,Earth*
X179315000Y-49966353D02*
X179315000Y-69873000D01*
X177127000Y-69873000D01*
X177127000Y-64478072D01*
X177810000Y-64478072D01*
X177934482Y-64465812D01*
X178054180Y-64429502D01*
X178164494Y-64370537D01*
X178261185Y-64291185D01*
X178340537Y-64194494D01*
X178399502Y-64084180D01*
X178435812Y-63964482D01*
X178448072Y-63840000D01*
X178448072Y-61240000D01*
X178435812Y-61115518D01*
X178399502Y-60995820D01*
X178340537Y-60885506D01*
X178261185Y-60788815D01*
X178164494Y-60709463D01*
X178054180Y-60650498D01*
X177934482Y-60614188D01*
X177810000Y-60601928D01*
X177127000Y-60601928D01*
X177127000Y-56858072D01*
X177810000Y-56858072D01*
X177934482Y-56845812D01*
X178054180Y-56809502D01*
X178164494Y-56750537D01*
X178261185Y-56671185D01*
X178340537Y-56574494D01*
X178399502Y-56464180D01*
X178435812Y-56344482D01*
X178448072Y-56220000D01*
X178448072Y-53620000D01*
X178435812Y-53495518D01*
X178399502Y-53375820D01*
X178340537Y-53265506D01*
X178261185Y-53168815D01*
X178164494Y-53089463D01*
X178054180Y-53030498D01*
X177934482Y-52994188D01*
X177810000Y-52981928D01*
X177127000Y-52981928D01*
X177127000Y-49000000D01*
X177124560Y-48975224D01*
X177117333Y-48951399D01*
X177105597Y-48929443D01*
X177097564Y-48918697D01*
X171097564Y-41718697D01*
X171079828Y-41701225D01*
X171059024Y-41687549D01*
X171035952Y-41678195D01*
X171000000Y-41673000D01*
X99000000Y-41673000D01*
X98975224Y-41675440D01*
X98951399Y-41682667D01*
X98929443Y-41694403D01*
X98902436Y-41718697D01*
X92902436Y-48918697D01*
X92888449Y-48939293D01*
X92878749Y-48962222D01*
X92873709Y-48986602D01*
X92873000Y-49000000D01*
X92873000Y-52981928D01*
X92190000Y-52981928D01*
X92065518Y-52994188D01*
X91945820Y-53030498D01*
X91835506Y-53089463D01*
X91738815Y-53168815D01*
X91659463Y-53265506D01*
X91600498Y-53375820D01*
X91564188Y-53495518D01*
X91551928Y-53620000D01*
X91551928Y-56220000D01*
X91564188Y-56344482D01*
X91600498Y-56464180D01*
X91659463Y-56574494D01*
X91738815Y-56671185D01*
X91835506Y-56750537D01*
X91945820Y-56809502D01*
X92065518Y-56845812D01*
X92190000Y-56858072D01*
X92873000Y-56858072D01*
X92873000Y-60601928D01*
X92190000Y-60601928D01*
X92065518Y-60614188D01*
X91945820Y-60650498D01*
X91835506Y-60709463D01*
X91738815Y-60788815D01*
X91659463Y-60885506D01*
X91600498Y-60995820D01*
X91564188Y-61115518D01*
X91551928Y-61240000D01*
X91551928Y-63840000D01*
X91564188Y-63964482D01*
X91600498Y-64084180D01*
X91659463Y-64194494D01*
X91738815Y-64291185D01*
X91835506Y-64370537D01*
X91945820Y-64429502D01*
X92065518Y-64465812D01*
X92190000Y-64478072D01*
X92873000Y-64478072D01*
X92873000Y-90255287D01*
X92855820Y-90260498D01*
X92745506Y-90319463D01*
X92648815Y-90398815D01*
X92569463Y-90495506D01*
X92510498Y-90605820D01*
X92474188Y-90725518D01*
X92461928Y-90850000D01*
X92461928Y-92350000D01*
X92474188Y-92474482D01*
X92510498Y-92594180D01*
X92569463Y-92704494D01*
X92648815Y-92801185D01*
X92745506Y-92880537D01*
X92855820Y-92939502D01*
X92873000Y-92944713D01*
X92873000Y-93855287D01*
X92855820Y-93860498D01*
X92745506Y-93919463D01*
X92648815Y-93998815D01*
X92569463Y-94095506D01*
X92510498Y-94205820D01*
X92474188Y-94325518D01*
X92461928Y-94450000D01*
X92461928Y-95573327D01*
X92360266Y-95697203D01*
X92264159Y-95877008D01*
X92204976Y-96072106D01*
X92190000Y-96224163D01*
X92190000Y-96224172D01*
X92184994Y-96275000D01*
X92190000Y-96325829D01*
X92190001Y-96861335D01*
X92153512Y-96981623D01*
X92136928Y-97150000D01*
X92136928Y-97650000D01*
X92153512Y-97818377D01*
X92202625Y-97980283D01*
X92282382Y-98129497D01*
X92389716Y-98260284D01*
X92520503Y-98367618D01*
X92669717Y-98447375D01*
X92831623Y-98496488D01*
X92873000Y-98500563D01*
X92873000Y-111000000D01*
X92875440Y-111024776D01*
X92882667Y-111048601D01*
X92894403Y-111070557D01*
X92910197Y-111089803D01*
X98910197Y-117089803D01*
X98929443Y-117105597D01*
X98951399Y-117117333D01*
X98975224Y-117124560D01*
X99000000Y-117127000D01*
X105621868Y-117127000D01*
X105858008Y-117363140D01*
X105893551Y-117406449D01*
X106066377Y-117548284D01*
X106263553Y-117653676D01*
X106477501Y-117718577D01*
X106542716Y-117725000D01*
X106700000Y-117740491D01*
X106755751Y-117735000D01*
X111944249Y-117735000D01*
X112000000Y-117740491D01*
X112055751Y-117735000D01*
X112055752Y-117735000D01*
X112222499Y-117718577D01*
X112436447Y-117653676D01*
X112633623Y-117548284D01*
X112806449Y-117406449D01*
X112841996Y-117363135D01*
X113031425Y-117173706D01*
X113144180Y-117139502D01*
X113167569Y-117127000D01*
X114294726Y-117127000D01*
X114351717Y-117233622D01*
X114493552Y-117406448D01*
X114666378Y-117548283D01*
X114863554Y-117653676D01*
X115077502Y-117718577D01*
X115300000Y-117740491D01*
X115522498Y-117718577D01*
X115550772Y-117710000D01*
X116149228Y-117710000D01*
X116177502Y-117718577D01*
X116400000Y-117740491D01*
X116622498Y-117718577D01*
X116650772Y-117710000D01*
X116890557Y-117710000D01*
X116910149Y-117720472D01*
X117076745Y-117771008D01*
X117249999Y-117788072D01*
X117337489Y-117788072D01*
X117386646Y-117814347D01*
X117638294Y-117890683D01*
X117834421Y-117910000D01*
X120090579Y-117910000D01*
X120286706Y-117890683D01*
X120295313Y-117888072D01*
X121100000Y-117888072D01*
X121224482Y-117875812D01*
X121344180Y-117839502D01*
X121454494Y-117780537D01*
X121551185Y-117701185D01*
X121630537Y-117604494D01*
X121689502Y-117494180D01*
X121725812Y-117374482D01*
X121738072Y-117250000D01*
X121738072Y-117127000D01*
X122061928Y-117127000D01*
X122061928Y-117250000D01*
X122074188Y-117374482D01*
X122110498Y-117494180D01*
X122169463Y-117604494D01*
X122248815Y-117701185D01*
X122345506Y-117780537D01*
X122455820Y-117839502D01*
X122575518Y-117875812D01*
X122700000Y-117888072D01*
X123900000Y-117888072D01*
X124024482Y-117875812D01*
X124144180Y-117839502D01*
X124254494Y-117780537D01*
X124351185Y-117701185D01*
X124430537Y-117604494D01*
X124476984Y-117517600D01*
X124547038Y-117602962D01*
X124681614Y-117713405D01*
X124835150Y-117795472D01*
X125001746Y-117846008D01*
X125175000Y-117863072D01*
X126425000Y-117863072D01*
X126598254Y-117846008D01*
X126764850Y-117795472D01*
X126918386Y-117713405D01*
X127052962Y-117602962D01*
X127163405Y-117468386D01*
X127245472Y-117314850D01*
X127296008Y-117148254D01*
X127298101Y-117127000D01*
X131026019Y-117127000D01*
X131003392Y-117201592D01*
X130986928Y-117368750D01*
X130986928Y-117806250D01*
X131003392Y-117973408D01*
X131052150Y-118134142D01*
X131131329Y-118282275D01*
X131237885Y-118412115D01*
X131367725Y-118518671D01*
X131515858Y-118597850D01*
X131676592Y-118646608D01*
X131843750Y-118663072D01*
X132356250Y-118663072D01*
X132523408Y-118646608D01*
X132684142Y-118597850D01*
X132780323Y-118546440D01*
X132898102Y-118595226D01*
X133098061Y-118635000D01*
X133301939Y-118635000D01*
X133501898Y-118595226D01*
X133506997Y-118593114D01*
X133515858Y-118597850D01*
X133676592Y-118646608D01*
X133843750Y-118663072D01*
X134356250Y-118663072D01*
X134523408Y-118646608D01*
X134684142Y-118597850D01*
X134832275Y-118518671D01*
X134962115Y-118412115D01*
X135068671Y-118282275D01*
X135147850Y-118134142D01*
X135196608Y-117973408D01*
X135213072Y-117806250D01*
X135213072Y-117368750D01*
X135196608Y-117201592D01*
X135173981Y-117127000D01*
X136757842Y-117127000D01*
X136798061Y-117135000D01*
X136895553Y-117135000D01*
X137304746Y-117544193D01*
X137327762Y-117572238D01*
X137439680Y-117664087D01*
X137567367Y-117732337D01*
X137705915Y-117774365D01*
X137850000Y-117788556D01*
X137886105Y-117785000D01*
X137986928Y-117785000D01*
X137986928Y-117830000D01*
X137999188Y-117954482D01*
X138035498Y-118074180D01*
X138094463Y-118184494D01*
X138173815Y-118281185D01*
X138270506Y-118360537D01*
X138380820Y-118419502D01*
X138500518Y-118455812D01*
X138625000Y-118468072D01*
X139275000Y-118468072D01*
X139399482Y-118455812D01*
X139425000Y-118448071D01*
X139450518Y-118455812D01*
X139575000Y-118468072D01*
X140225000Y-118468072D01*
X140349482Y-118455812D01*
X140375000Y-118448071D01*
X140400518Y-118455812D01*
X140525000Y-118468072D01*
X141175000Y-118468072D01*
X141299482Y-118455812D01*
X141419180Y-118419502D01*
X141529494Y-118360537D01*
X141626185Y-118281185D01*
X141705537Y-118184494D01*
X141764502Y-118074180D01*
X141800812Y-117954482D01*
X141813072Y-117830000D01*
X141813072Y-117802724D01*
X141914028Y-117748762D01*
X141955329Y-117810573D01*
X142099492Y-117954736D01*
X142269010Y-118068004D01*
X142457368Y-118146025D01*
X142657327Y-118185799D01*
X142795154Y-118185799D01*
X142848815Y-118251185D01*
X142945506Y-118330537D01*
X143055820Y-118389502D01*
X143175518Y-118425812D01*
X143300000Y-118438072D01*
X144900000Y-118438072D01*
X145024482Y-118425812D01*
X145144180Y-118389502D01*
X145254494Y-118330537D01*
X145351185Y-118251185D01*
X145430537Y-118154494D01*
X145489502Y-118044180D01*
X145492287Y-118035000D01*
X149907713Y-118035000D01*
X149910498Y-118044180D01*
X149969463Y-118154494D01*
X150048815Y-118251185D01*
X150145506Y-118330537D01*
X150255820Y-118389502D01*
X150375518Y-118425812D01*
X150500000Y-118438072D01*
X152100000Y-118438072D01*
X152224482Y-118425812D01*
X152344180Y-118389502D01*
X152454494Y-118330537D01*
X152551185Y-118251185D01*
X152630537Y-118154494D01*
X152689502Y-118044180D01*
X152725812Y-117924482D01*
X152738072Y-117800000D01*
X152738072Y-117582286D01*
X152782795Y-117690256D01*
X152896063Y-117859774D01*
X153040226Y-118003937D01*
X153209744Y-118117205D01*
X153398102Y-118195226D01*
X153598061Y-118235000D01*
X153801939Y-118235000D01*
X154001898Y-118195226D01*
X154190256Y-118117205D01*
X154359774Y-118003937D01*
X154503937Y-117859774D01*
X154617205Y-117690256D01*
X154695226Y-117501898D01*
X154735000Y-117301939D01*
X154735000Y-117127000D01*
X155109289Y-117127000D01*
X155096063Y-117140226D01*
X154982795Y-117309744D01*
X154904774Y-117498102D01*
X154865000Y-117698061D01*
X154865000Y-117901939D01*
X154904774Y-118101898D01*
X154982795Y-118290256D01*
X155096063Y-118459774D01*
X155240226Y-118603937D01*
X155409744Y-118717205D01*
X155598102Y-118795226D01*
X155798061Y-118835000D01*
X156001939Y-118835000D01*
X156201898Y-118795226D01*
X156390256Y-118717205D01*
X156550000Y-118610468D01*
X156709744Y-118717205D01*
X156898102Y-118795226D01*
X157098061Y-118835000D01*
X157301939Y-118835000D01*
X157501898Y-118795226D01*
X157690256Y-118717205D01*
X157850000Y-118610468D01*
X158009744Y-118717205D01*
X158198102Y-118795226D01*
X158398061Y-118835000D01*
X158601939Y-118835000D01*
X158801898Y-118795226D01*
X158990256Y-118717205D01*
X159159774Y-118603937D01*
X159303937Y-118459774D01*
X159417205Y-118290256D01*
X159495226Y-118101898D01*
X159535000Y-117901939D01*
X159535000Y-117698061D01*
X159495226Y-117498102D01*
X159417205Y-117309744D01*
X159303937Y-117140226D01*
X159301783Y-117138072D01*
X159350000Y-117138072D01*
X159462420Y-117127000D01*
X162679502Y-117127000D01*
X162719721Y-117135000D01*
X163140279Y-117135000D01*
X163180498Y-117127000D01*
X163876133Y-117127000D01*
X165185559Y-118436427D01*
X165211709Y-118468291D01*
X165304496Y-118544439D01*
X165338854Y-118572636D01*
X165483913Y-118650172D01*
X165641311Y-118697918D01*
X165805000Y-118714040D01*
X165846018Y-118710000D01*
X166239483Y-118710000D01*
X166239716Y-118710284D01*
X166370503Y-118817618D01*
X166519717Y-118897375D01*
X166681623Y-118946488D01*
X166850000Y-118963072D01*
X167350000Y-118963072D01*
X167518377Y-118946488D01*
X167680283Y-118897375D01*
X167829497Y-118817618D01*
X167891878Y-118766423D01*
X167959392Y-118821831D01*
X168104284Y-118899278D01*
X168261500Y-118946969D01*
X168425000Y-118963072D01*
X168975000Y-118963072D01*
X169138500Y-118946969D01*
X169295716Y-118899278D01*
X169440608Y-118821831D01*
X169567606Y-118717606D01*
X169671831Y-118590608D01*
X169749278Y-118445716D01*
X169796969Y-118288500D01*
X169813072Y-118125000D01*
X169813072Y-117725000D01*
X169796969Y-117561500D01*
X169749278Y-117404284D01*
X169671831Y-117259392D01*
X169567606Y-117132394D01*
X169561033Y-117127000D01*
X171000000Y-117127000D01*
X171024776Y-117124560D01*
X171048601Y-117117333D01*
X171070557Y-117105597D01*
X171089803Y-117089803D01*
X177089803Y-111089803D01*
X177105597Y-111070557D01*
X177117333Y-111048601D01*
X177124560Y-111024776D01*
X177127000Y-111000000D01*
X177127000Y-109898912D01*
X177262288Y-109808516D01*
X177448516Y-109622288D01*
X177594834Y-109403307D01*
X177695620Y-109159988D01*
X177747000Y-108901683D01*
X177747000Y-108638317D01*
X177695620Y-108380012D01*
X177594834Y-108136693D01*
X177448516Y-107917712D01*
X177262288Y-107731484D01*
X177127000Y-107641088D01*
X177127000Y-94658912D01*
X177262288Y-94568516D01*
X177448516Y-94382288D01*
X177594834Y-94163307D01*
X177695620Y-93919988D01*
X177747000Y-93661683D01*
X177747000Y-93398317D01*
X177695620Y-93140012D01*
X177594834Y-92896693D01*
X177448516Y-92677712D01*
X177262288Y-92491484D01*
X177127000Y-92401088D01*
X177127000Y-71127000D01*
X179315000Y-71127000D01*
X179315001Y-119315000D01*
X90685000Y-119315000D01*
X90685000Y-40685000D01*
X179315001Y-40685000D01*
X179315000Y-49966353D01*
G04 #@! TA.AperFunction,Conductor*
D53*
G36*
X179315000Y-49966353D02*
G01*
X179315000Y-69873000D01*
X177127000Y-69873000D01*
X177127000Y-64478072D01*
X177810000Y-64478072D01*
X177934482Y-64465812D01*
X178054180Y-64429502D01*
X178164494Y-64370537D01*
X178261185Y-64291185D01*
X178340537Y-64194494D01*
X178399502Y-64084180D01*
X178435812Y-63964482D01*
X178448072Y-63840000D01*
X178448072Y-61240000D01*
X178435812Y-61115518D01*
X178399502Y-60995820D01*
X178340537Y-60885506D01*
X178261185Y-60788815D01*
X178164494Y-60709463D01*
X178054180Y-60650498D01*
X177934482Y-60614188D01*
X177810000Y-60601928D01*
X177127000Y-60601928D01*
X177127000Y-56858072D01*
X177810000Y-56858072D01*
X177934482Y-56845812D01*
X178054180Y-56809502D01*
X178164494Y-56750537D01*
X178261185Y-56671185D01*
X178340537Y-56574494D01*
X178399502Y-56464180D01*
X178435812Y-56344482D01*
X178448072Y-56220000D01*
X178448072Y-53620000D01*
X178435812Y-53495518D01*
X178399502Y-53375820D01*
X178340537Y-53265506D01*
X178261185Y-53168815D01*
X178164494Y-53089463D01*
X178054180Y-53030498D01*
X177934482Y-52994188D01*
X177810000Y-52981928D01*
X177127000Y-52981928D01*
X177127000Y-49000000D01*
X177124560Y-48975224D01*
X177117333Y-48951399D01*
X177105597Y-48929443D01*
X177097564Y-48918697D01*
X171097564Y-41718697D01*
X171079828Y-41701225D01*
X171059024Y-41687549D01*
X171035952Y-41678195D01*
X171000000Y-41673000D01*
X99000000Y-41673000D01*
X98975224Y-41675440D01*
X98951399Y-41682667D01*
X98929443Y-41694403D01*
X98902436Y-41718697D01*
X92902436Y-48918697D01*
X92888449Y-48939293D01*
X92878749Y-48962222D01*
X92873709Y-48986602D01*
X92873000Y-49000000D01*
X92873000Y-52981928D01*
X92190000Y-52981928D01*
X92065518Y-52994188D01*
X91945820Y-53030498D01*
X91835506Y-53089463D01*
X91738815Y-53168815D01*
X91659463Y-53265506D01*
X91600498Y-53375820D01*
X91564188Y-53495518D01*
X91551928Y-53620000D01*
X91551928Y-56220000D01*
X91564188Y-56344482D01*
X91600498Y-56464180D01*
X91659463Y-56574494D01*
X91738815Y-56671185D01*
X91835506Y-56750537D01*
X91945820Y-56809502D01*
X92065518Y-56845812D01*
X92190000Y-56858072D01*
X92873000Y-56858072D01*
X92873000Y-60601928D01*
X92190000Y-60601928D01*
X92065518Y-60614188D01*
X91945820Y-60650498D01*
X91835506Y-60709463D01*
X91738815Y-60788815D01*
X91659463Y-60885506D01*
X91600498Y-60995820D01*
X91564188Y-61115518D01*
X91551928Y-61240000D01*
X91551928Y-63840000D01*
X91564188Y-63964482D01*
X91600498Y-64084180D01*
X91659463Y-64194494D01*
X91738815Y-64291185D01*
X91835506Y-64370537D01*
X91945820Y-64429502D01*
X92065518Y-64465812D01*
X92190000Y-64478072D01*
X92873000Y-64478072D01*
X92873000Y-90255287D01*
X92855820Y-90260498D01*
X92745506Y-90319463D01*
X92648815Y-90398815D01*
X92569463Y-90495506D01*
X92510498Y-90605820D01*
X92474188Y-90725518D01*
X92461928Y-90850000D01*
X92461928Y-92350000D01*
X92474188Y-92474482D01*
X92510498Y-92594180D01*
X92569463Y-92704494D01*
X92648815Y-92801185D01*
X92745506Y-92880537D01*
X92855820Y-92939502D01*
X92873000Y-92944713D01*
X92873000Y-93855287D01*
X92855820Y-93860498D01*
X92745506Y-93919463D01*
X92648815Y-93998815D01*
X92569463Y-94095506D01*
X92510498Y-94205820D01*
X92474188Y-94325518D01*
X92461928Y-94450000D01*
X92461928Y-95573327D01*
X92360266Y-95697203D01*
X92264159Y-95877008D01*
X92204976Y-96072106D01*
X92190000Y-96224163D01*
X92190000Y-96224172D01*
X92184994Y-96275000D01*
X92190000Y-96325829D01*
X92190001Y-96861335D01*
X92153512Y-96981623D01*
X92136928Y-97150000D01*
X92136928Y-97650000D01*
X92153512Y-97818377D01*
X92202625Y-97980283D01*
X92282382Y-98129497D01*
X92389716Y-98260284D01*
X92520503Y-98367618D01*
X92669717Y-98447375D01*
X92831623Y-98496488D01*
X92873000Y-98500563D01*
X92873000Y-111000000D01*
X92875440Y-111024776D01*
X92882667Y-111048601D01*
X92894403Y-111070557D01*
X92910197Y-111089803D01*
X98910197Y-117089803D01*
X98929443Y-117105597D01*
X98951399Y-117117333D01*
X98975224Y-117124560D01*
X99000000Y-117127000D01*
X105621868Y-117127000D01*
X105858008Y-117363140D01*
X105893551Y-117406449D01*
X106066377Y-117548284D01*
X106263553Y-117653676D01*
X106477501Y-117718577D01*
X106542716Y-117725000D01*
X106700000Y-117740491D01*
X106755751Y-117735000D01*
X111944249Y-117735000D01*
X112000000Y-117740491D01*
X112055751Y-117735000D01*
X112055752Y-117735000D01*
X112222499Y-117718577D01*
X112436447Y-117653676D01*
X112633623Y-117548284D01*
X112806449Y-117406449D01*
X112841996Y-117363135D01*
X113031425Y-117173706D01*
X113144180Y-117139502D01*
X113167569Y-117127000D01*
X114294726Y-117127000D01*
X114351717Y-117233622D01*
X114493552Y-117406448D01*
X114666378Y-117548283D01*
X114863554Y-117653676D01*
X115077502Y-117718577D01*
X115300000Y-117740491D01*
X115522498Y-117718577D01*
X115550772Y-117710000D01*
X116149228Y-117710000D01*
X116177502Y-117718577D01*
X116400000Y-117740491D01*
X116622498Y-117718577D01*
X116650772Y-117710000D01*
X116890557Y-117710000D01*
X116910149Y-117720472D01*
X117076745Y-117771008D01*
X117249999Y-117788072D01*
X117337489Y-117788072D01*
X117386646Y-117814347D01*
X117638294Y-117890683D01*
X117834421Y-117910000D01*
X120090579Y-117910000D01*
X120286706Y-117890683D01*
X120295313Y-117888072D01*
X121100000Y-117888072D01*
X121224482Y-117875812D01*
X121344180Y-117839502D01*
X121454494Y-117780537D01*
X121551185Y-117701185D01*
X121630537Y-117604494D01*
X121689502Y-117494180D01*
X121725812Y-117374482D01*
X121738072Y-117250000D01*
X121738072Y-117127000D01*
X122061928Y-117127000D01*
X122061928Y-117250000D01*
X122074188Y-117374482D01*
X122110498Y-117494180D01*
X122169463Y-117604494D01*
X122248815Y-117701185D01*
X122345506Y-117780537D01*
X122455820Y-117839502D01*
X122575518Y-117875812D01*
X122700000Y-117888072D01*
X123900000Y-117888072D01*
X124024482Y-117875812D01*
X124144180Y-117839502D01*
X124254494Y-117780537D01*
X124351185Y-117701185D01*
X124430537Y-117604494D01*
X124476984Y-117517600D01*
X124547038Y-117602962D01*
X124681614Y-117713405D01*
X124835150Y-117795472D01*
X125001746Y-117846008D01*
X125175000Y-117863072D01*
X126425000Y-117863072D01*
X126598254Y-117846008D01*
X126764850Y-117795472D01*
X126918386Y-117713405D01*
X127052962Y-117602962D01*
X127163405Y-117468386D01*
X127245472Y-117314850D01*
X127296008Y-117148254D01*
X127298101Y-117127000D01*
X131026019Y-117127000D01*
X131003392Y-117201592D01*
X130986928Y-117368750D01*
X130986928Y-117806250D01*
X131003392Y-117973408D01*
X131052150Y-118134142D01*
X131131329Y-118282275D01*
X131237885Y-118412115D01*
X131367725Y-118518671D01*
X131515858Y-118597850D01*
X131676592Y-118646608D01*
X131843750Y-118663072D01*
X132356250Y-118663072D01*
X132523408Y-118646608D01*
X132684142Y-118597850D01*
X132780323Y-118546440D01*
X132898102Y-118595226D01*
X133098061Y-118635000D01*
X133301939Y-118635000D01*
X133501898Y-118595226D01*
X133506997Y-118593114D01*
X133515858Y-118597850D01*
X133676592Y-118646608D01*
X133843750Y-118663072D01*
X134356250Y-118663072D01*
X134523408Y-118646608D01*
X134684142Y-118597850D01*
X134832275Y-118518671D01*
X134962115Y-118412115D01*
X135068671Y-118282275D01*
X135147850Y-118134142D01*
X135196608Y-117973408D01*
X135213072Y-117806250D01*
X135213072Y-117368750D01*
X135196608Y-117201592D01*
X135173981Y-117127000D01*
X136757842Y-117127000D01*
X136798061Y-117135000D01*
X136895553Y-117135000D01*
X137304746Y-117544193D01*
X137327762Y-117572238D01*
X137439680Y-117664087D01*
X137567367Y-117732337D01*
X137705915Y-117774365D01*
X137850000Y-117788556D01*
X137886105Y-117785000D01*
X137986928Y-117785000D01*
X137986928Y-117830000D01*
X137999188Y-117954482D01*
X138035498Y-118074180D01*
X138094463Y-118184494D01*
X138173815Y-118281185D01*
X138270506Y-118360537D01*
X138380820Y-118419502D01*
X138500518Y-118455812D01*
X138625000Y-118468072D01*
X139275000Y-118468072D01*
X139399482Y-118455812D01*
X139425000Y-118448071D01*
X139450518Y-118455812D01*
X139575000Y-118468072D01*
X140225000Y-118468072D01*
X140349482Y-118455812D01*
X140375000Y-118448071D01*
X140400518Y-118455812D01*
X140525000Y-118468072D01*
X141175000Y-118468072D01*
X141299482Y-118455812D01*
X141419180Y-118419502D01*
X141529494Y-118360537D01*
X141626185Y-118281185D01*
X141705537Y-118184494D01*
X141764502Y-118074180D01*
X141800812Y-117954482D01*
X141813072Y-117830000D01*
X141813072Y-117802724D01*
X141914028Y-117748762D01*
X141955329Y-117810573D01*
X142099492Y-117954736D01*
X142269010Y-118068004D01*
X142457368Y-118146025D01*
X142657327Y-118185799D01*
X142795154Y-118185799D01*
X142848815Y-118251185D01*
X142945506Y-118330537D01*
X143055820Y-118389502D01*
X143175518Y-118425812D01*
X143300000Y-118438072D01*
X144900000Y-118438072D01*
X145024482Y-118425812D01*
X145144180Y-118389502D01*
X145254494Y-118330537D01*
X145351185Y-118251185D01*
X145430537Y-118154494D01*
X145489502Y-118044180D01*
X145492287Y-118035000D01*
X149907713Y-118035000D01*
X149910498Y-118044180D01*
X149969463Y-118154494D01*
X150048815Y-118251185D01*
X150145506Y-118330537D01*
X150255820Y-118389502D01*
X150375518Y-118425812D01*
X150500000Y-118438072D01*
X152100000Y-118438072D01*
X152224482Y-118425812D01*
X152344180Y-118389502D01*
X152454494Y-118330537D01*
X152551185Y-118251185D01*
X152630537Y-118154494D01*
X152689502Y-118044180D01*
X152725812Y-117924482D01*
X152738072Y-117800000D01*
X152738072Y-117582286D01*
X152782795Y-117690256D01*
X152896063Y-117859774D01*
X153040226Y-118003937D01*
X153209744Y-118117205D01*
X153398102Y-118195226D01*
X153598061Y-118235000D01*
X153801939Y-118235000D01*
X154001898Y-118195226D01*
X154190256Y-118117205D01*
X154359774Y-118003937D01*
X154503937Y-117859774D01*
X154617205Y-117690256D01*
X154695226Y-117501898D01*
X154735000Y-117301939D01*
X154735000Y-117127000D01*
X155109289Y-117127000D01*
X155096063Y-117140226D01*
X154982795Y-117309744D01*
X154904774Y-117498102D01*
X154865000Y-117698061D01*
X154865000Y-117901939D01*
X154904774Y-118101898D01*
X154982795Y-118290256D01*
X155096063Y-118459774D01*
X155240226Y-118603937D01*
X155409744Y-118717205D01*
X155598102Y-118795226D01*
X155798061Y-118835000D01*
X156001939Y-118835000D01*
X156201898Y-118795226D01*
X156390256Y-118717205D01*
X156550000Y-118610468D01*
X156709744Y-118717205D01*
X156898102Y-118795226D01*
X157098061Y-118835000D01*
X157301939Y-118835000D01*
X157501898Y-118795226D01*
X157690256Y-118717205D01*
X157850000Y-118610468D01*
X158009744Y-118717205D01*
X158198102Y-118795226D01*
X158398061Y-118835000D01*
X158601939Y-118835000D01*
X158801898Y-118795226D01*
X158990256Y-118717205D01*
X159159774Y-118603937D01*
X159303937Y-118459774D01*
X159417205Y-118290256D01*
X159495226Y-118101898D01*
X159535000Y-117901939D01*
X159535000Y-117698061D01*
X159495226Y-117498102D01*
X159417205Y-117309744D01*
X159303937Y-117140226D01*
X159301783Y-117138072D01*
X159350000Y-117138072D01*
X159462420Y-117127000D01*
X162679502Y-117127000D01*
X162719721Y-117135000D01*
X163140279Y-117135000D01*
X163180498Y-117127000D01*
X163876133Y-117127000D01*
X165185559Y-118436427D01*
X165211709Y-118468291D01*
X165304496Y-118544439D01*
X165338854Y-118572636D01*
X165483913Y-118650172D01*
X165641311Y-118697918D01*
X165805000Y-118714040D01*
X165846018Y-118710000D01*
X166239483Y-118710000D01*
X166239716Y-118710284D01*
X166370503Y-118817618D01*
X166519717Y-118897375D01*
X166681623Y-118946488D01*
X166850000Y-118963072D01*
X167350000Y-118963072D01*
X167518377Y-118946488D01*
X167680283Y-118897375D01*
X167829497Y-118817618D01*
X167891878Y-118766423D01*
X167959392Y-118821831D01*
X168104284Y-118899278D01*
X168261500Y-118946969D01*
X168425000Y-118963072D01*
X168975000Y-118963072D01*
X169138500Y-118946969D01*
X169295716Y-118899278D01*
X169440608Y-118821831D01*
X169567606Y-118717606D01*
X169671831Y-118590608D01*
X169749278Y-118445716D01*
X169796969Y-118288500D01*
X169813072Y-118125000D01*
X169813072Y-117725000D01*
X169796969Y-117561500D01*
X169749278Y-117404284D01*
X169671831Y-117259392D01*
X169567606Y-117132394D01*
X169561033Y-117127000D01*
X171000000Y-117127000D01*
X171024776Y-117124560D01*
X171048601Y-117117333D01*
X171070557Y-117105597D01*
X171089803Y-117089803D01*
X177089803Y-111089803D01*
X177105597Y-111070557D01*
X177117333Y-111048601D01*
X177124560Y-111024776D01*
X177127000Y-111000000D01*
X177127000Y-109898912D01*
X177262288Y-109808516D01*
X177448516Y-109622288D01*
X177594834Y-109403307D01*
X177695620Y-109159988D01*
X177747000Y-108901683D01*
X177747000Y-108638317D01*
X177695620Y-108380012D01*
X177594834Y-108136693D01*
X177448516Y-107917712D01*
X177262288Y-107731484D01*
X177127000Y-107641088D01*
X177127000Y-94658912D01*
X177262288Y-94568516D01*
X177448516Y-94382288D01*
X177594834Y-94163307D01*
X177695620Y-93919988D01*
X177747000Y-93661683D01*
X177747000Y-93398317D01*
X177695620Y-93140012D01*
X177594834Y-92896693D01*
X177448516Y-92677712D01*
X177262288Y-92491484D01*
X177127000Y-92401088D01*
X177127000Y-71127000D01*
X179315000Y-71127000D01*
X179315001Y-119315000D01*
X90685000Y-119315000D01*
X90685000Y-40685000D01*
X179315001Y-40685000D01*
X179315000Y-49966353D01*
G37*
G04 #@! TD.AperFunction*
G04 #@! TD*
D52*
G04 #@! TO.N,Net-(Q1-Pad3)*
X131865000Y-69873000D02*
X118053868Y-69873000D01*
X117135000Y-68954133D01*
X117135000Y-62021018D01*
X117139040Y-61980000D01*
X117122918Y-61816312D01*
X117075172Y-61658913D01*
X116997636Y-61513854D01*
X116893291Y-61386709D01*
X116861433Y-61360564D01*
X116727000Y-61226131D01*
X116727000Y-42435000D01*
X131865000Y-42435000D01*
X131865000Y-69873000D01*
G04 #@! TA.AperFunction,Conductor*
D53*
G36*
X131865000Y-69873000D02*
G01*
X118053868Y-69873000D01*
X117135000Y-68954133D01*
X117135000Y-62021018D01*
X117139040Y-61980000D01*
X117122918Y-61816312D01*
X117075172Y-61658913D01*
X116997636Y-61513854D01*
X116893291Y-61386709D01*
X116861433Y-61360564D01*
X116727000Y-61226131D01*
X116727000Y-42435000D01*
X131865000Y-42435000D01*
X131865000Y-69873000D01*
G37*
G04 #@! TD.AperFunction*
G04 #@! TD*
D52*
G04 #@! TO.N,Net-(J2-Pad1)*
X171510101Y-43404024D02*
X171312377Y-43881372D01*
X171165000Y-44622285D01*
X171165000Y-45377715D01*
X171312377Y-46118628D01*
X171601467Y-46816554D01*
X172021161Y-47444670D01*
X172555330Y-47978839D01*
X173183446Y-48398533D01*
X173881372Y-48687623D01*
X174622285Y-48835000D01*
X175377715Y-48835000D01*
X175942325Y-48722692D01*
X176365000Y-49229902D01*
X176365000Y-69873000D01*
X161213256Y-69873000D01*
X160558657Y-69435611D01*
X159806135Y-69123906D01*
X159007262Y-68965000D01*
X158192738Y-68965000D01*
X157393865Y-69123906D01*
X156641343Y-69435611D01*
X155986744Y-69873000D01*
X136466609Y-69873000D01*
X136301898Y-69804774D01*
X136101939Y-69765000D01*
X135898061Y-69765000D01*
X135698102Y-69804774D01*
X135533391Y-69873000D01*
X132627000Y-69873000D01*
X132627000Y-43250000D01*
X138561928Y-43250000D01*
X138561928Y-47750000D01*
X138574188Y-47874482D01*
X138610498Y-47994180D01*
X138669463Y-48104494D01*
X138748815Y-48201185D01*
X138845506Y-48280537D01*
X138955820Y-48339502D01*
X139075518Y-48375812D01*
X139200000Y-48388072D01*
X141700000Y-48388072D01*
X141824482Y-48375812D01*
X141944180Y-48339502D01*
X142054494Y-48280537D01*
X142151185Y-48201185D01*
X142230537Y-48104494D01*
X142289502Y-47994180D01*
X142325812Y-47874482D01*
X142338072Y-47750000D01*
X142338072Y-46492738D01*
X154465000Y-46492738D01*
X154465000Y-47307262D01*
X154623906Y-48106135D01*
X154935611Y-48858657D01*
X155388136Y-49535909D01*
X155964091Y-50111864D01*
X156641343Y-50564389D01*
X157393865Y-50876094D01*
X158192738Y-51035000D01*
X159007262Y-51035000D01*
X159806135Y-50876094D01*
X160558657Y-50564389D01*
X161235909Y-50111864D01*
X161811864Y-49535909D01*
X162264389Y-48858657D01*
X162576094Y-48106135D01*
X162735000Y-47307262D01*
X162735000Y-46492738D01*
X162576094Y-45693865D01*
X162264389Y-44941343D01*
X161811864Y-44264091D01*
X161235909Y-43688136D01*
X160558657Y-43235611D01*
X159806135Y-42923906D01*
X159007262Y-42765000D01*
X158192738Y-42765000D01*
X157393865Y-42923906D01*
X156641343Y-43235611D01*
X155964091Y-43688136D01*
X155388136Y-44264091D01*
X154935611Y-44941343D01*
X154623906Y-45693865D01*
X154465000Y-46492738D01*
X142338072Y-46492738D01*
X142338072Y-43250000D01*
X142325812Y-43125518D01*
X142289502Y-43005820D01*
X142230537Y-42895506D01*
X142151185Y-42798815D01*
X142054494Y-42719463D01*
X141944180Y-42660498D01*
X141824482Y-42624188D01*
X141700000Y-42611928D01*
X139200000Y-42611928D01*
X139075518Y-42624188D01*
X138955820Y-42660498D01*
X138845506Y-42719463D01*
X138748815Y-42798815D01*
X138669463Y-42895506D01*
X138610498Y-43005820D01*
X138574188Y-43125518D01*
X138561928Y-43250000D01*
X132627000Y-43250000D01*
X132627000Y-42435000D01*
X170702581Y-42435000D01*
X171510101Y-43404024D01*
G04 #@! TA.AperFunction,Conductor*
D53*
G36*
X171510101Y-43404024D02*
G01*
X171312377Y-43881372D01*
X171165000Y-44622285D01*
X171165000Y-45377715D01*
X171312377Y-46118628D01*
X171601467Y-46816554D01*
X172021161Y-47444670D01*
X172555330Y-47978839D01*
X173183446Y-48398533D01*
X173881372Y-48687623D01*
X174622285Y-48835000D01*
X175377715Y-48835000D01*
X175942325Y-48722692D01*
X176365000Y-49229902D01*
X176365000Y-69873000D01*
X161213256Y-69873000D01*
X160558657Y-69435611D01*
X159806135Y-69123906D01*
X159007262Y-68965000D01*
X158192738Y-68965000D01*
X157393865Y-69123906D01*
X156641343Y-69435611D01*
X155986744Y-69873000D01*
X136466609Y-69873000D01*
X136301898Y-69804774D01*
X136101939Y-69765000D01*
X135898061Y-69765000D01*
X135698102Y-69804774D01*
X135533391Y-69873000D01*
X132627000Y-69873000D01*
X132627000Y-43250000D01*
X138561928Y-43250000D01*
X138561928Y-47750000D01*
X138574188Y-47874482D01*
X138610498Y-47994180D01*
X138669463Y-48104494D01*
X138748815Y-48201185D01*
X138845506Y-48280537D01*
X138955820Y-48339502D01*
X139075518Y-48375812D01*
X139200000Y-48388072D01*
X141700000Y-48388072D01*
X141824482Y-48375812D01*
X141944180Y-48339502D01*
X142054494Y-48280537D01*
X142151185Y-48201185D01*
X142230537Y-48104494D01*
X142289502Y-47994180D01*
X142325812Y-47874482D01*
X142338072Y-47750000D01*
X142338072Y-46492738D01*
X154465000Y-46492738D01*
X154465000Y-47307262D01*
X154623906Y-48106135D01*
X154935611Y-48858657D01*
X155388136Y-49535909D01*
X155964091Y-50111864D01*
X156641343Y-50564389D01*
X157393865Y-50876094D01*
X158192738Y-51035000D01*
X159007262Y-51035000D01*
X159806135Y-50876094D01*
X160558657Y-50564389D01*
X161235909Y-50111864D01*
X161811864Y-49535909D01*
X162264389Y-48858657D01*
X162576094Y-48106135D01*
X162735000Y-47307262D01*
X162735000Y-46492738D01*
X162576094Y-45693865D01*
X162264389Y-44941343D01*
X161811864Y-44264091D01*
X161235909Y-43688136D01*
X160558657Y-43235611D01*
X159806135Y-42923906D01*
X159007262Y-42765000D01*
X158192738Y-42765000D01*
X157393865Y-42923906D01*
X156641343Y-43235611D01*
X155964091Y-43688136D01*
X155388136Y-44264091D01*
X154935611Y-44941343D01*
X154623906Y-45693865D01*
X154465000Y-46492738D01*
X142338072Y-46492738D01*
X142338072Y-43250000D01*
X142325812Y-43125518D01*
X142289502Y-43005820D01*
X142230537Y-42895506D01*
X142151185Y-42798815D01*
X142054494Y-42719463D01*
X141944180Y-42660498D01*
X141824482Y-42624188D01*
X141700000Y-42611928D01*
X139200000Y-42611928D01*
X139075518Y-42624188D01*
X138955820Y-42660498D01*
X138845506Y-42719463D01*
X138748815Y-42798815D01*
X138669463Y-42895506D01*
X138610498Y-43005820D01*
X138574188Y-43125518D01*
X138561928Y-43250000D01*
X132627000Y-43250000D01*
X132627000Y-42435000D01*
X170702581Y-42435000D01*
X171510101Y-43404024D01*
G37*
G04 #@! TD.AperFunction*
G04 #@! TD*
M02*
