G04 #@! TF.GenerationSoftware,KiCad,Pcbnew,5.1.7-a382d34a8~87~ubuntu18.04.1*
G04 #@! TF.CreationDate,2021-02-18T22:44:55+00:00*
G04 #@! TF.ProjectId,Laser-Driver-v3,4c617365-722d-4447-9269-7665722d7633,rev?*
G04 #@! TF.SameCoordinates,Original*
G04 #@! TF.FileFunction,Copper,L4,Bot*
G04 #@! TF.FilePolarity,Positive*
%FSLAX46Y46*%
G04 Gerber Fmt 4.6, Leading zero omitted, Abs format (unit mm)*
G04 Created by KiCad (PCBNEW 5.1.7-a382d34a8~87~ubuntu18.04.1) date 2021-02-18 22:44:55*
%MOMM*%
%LPD*%
G01*
G04 APERTURE LIST*
G04 #@! TA.AperFunction,ComponentPad*
%ADD10C,7.000000*%
G04 #@! TD*
G04 #@! TA.AperFunction,ComponentPad*
%ADD11C,0.800000*%
G04 #@! TD*
G04 #@! TA.AperFunction,ComponentPad*
%ADD12C,6.400000*%
G04 #@! TD*
G04 #@! TA.AperFunction,ComponentPad*
%ADD13C,1.404000*%
G04 #@! TD*
G04 #@! TA.AperFunction,ComponentPad*
%ADD14C,1.304000*%
G04 #@! TD*
G04 #@! TA.AperFunction,ComponentPad*
%ADD15C,0.804000*%
G04 #@! TD*
G04 #@! TA.AperFunction,ComponentPad*
%ADD16R,2.000000X2.600000*%
G04 #@! TD*
G04 #@! TA.AperFunction,ComponentPad*
%ADD17R,1.800000X4.400000*%
G04 #@! TD*
G04 #@! TA.AperFunction,ComponentPad*
%ADD18O,1.800000X4.000000*%
G04 #@! TD*
G04 #@! TA.AperFunction,ComponentPad*
%ADD19O,4.000000X1.800000*%
G04 #@! TD*
G04 #@! TA.AperFunction,ComponentPad*
%ADD20O,2.500000X4.500000*%
G04 #@! TD*
G04 #@! TA.AperFunction,ComponentPad*
%ADD21R,2.500000X4.500000*%
G04 #@! TD*
G04 #@! TA.AperFunction,ComponentPad*
%ADD22C,3.000000*%
G04 #@! TD*
G04 #@! TA.AperFunction,ComponentPad*
%ADD23R,3.000000X3.000000*%
G04 #@! TD*
G04 #@! TA.AperFunction,ViaPad*
%ADD24C,0.800000*%
G04 #@! TD*
G04 #@! TA.AperFunction,Conductor*
%ADD25C,0.300000*%
G04 #@! TD*
G04 #@! TA.AperFunction,Conductor*
%ADD26C,0.600000*%
G04 #@! TD*
G04 #@! TA.AperFunction,Conductor*
%ADD27C,1.000000*%
G04 #@! TD*
G04 #@! TA.AperFunction,Conductor*
%ADD28C,0.800000*%
G04 #@! TD*
G04 #@! TA.AperFunction,Conductor*
%ADD29C,1.400000*%
G04 #@! TD*
G04 #@! TA.AperFunction,Conductor*
%ADD30C,0.200000*%
G04 #@! TD*
G04 #@! TA.AperFunction,Conductor*
%ADD31C,0.250000*%
G04 #@! TD*
G04 #@! TA.AperFunction,Conductor*
%ADD32C,0.254000*%
G04 #@! TD*
G04 #@! TA.AperFunction,Conductor*
%ADD33C,0.100000*%
G04 #@! TD*
G04 APERTURE END LIST*
D10*
G04 #@! TO.P,HS1,1*
G04 #@! TO.N,N/C*
X111400000Y-73100000D03*
X158600000Y-73100000D03*
G04 #@! TO.N,Earth*
X158600000Y-46900000D03*
X111400000Y-46900000D03*
G04 #@! TD*
D11*
G04 #@! TO.P,H4,1*
G04 #@! TO.N,Earth*
X96697056Y-43302944D03*
X95000000Y-42600000D03*
X93302944Y-43302944D03*
X92600000Y-45000000D03*
X93302944Y-46697056D03*
X95000000Y-47400000D03*
X96697056Y-46697056D03*
X97400000Y-45000000D03*
D12*
X95000000Y-45000000D03*
G04 #@! TD*
D11*
G04 #@! TO.P,H3,1*
G04 #@! TO.N,Earth*
X176697056Y-43302944D03*
X175000000Y-42600000D03*
X173302944Y-43302944D03*
X172600000Y-45000000D03*
X173302944Y-46697056D03*
X175000000Y-47400000D03*
X176697056Y-46697056D03*
X177400000Y-45000000D03*
D12*
X175000000Y-45000000D03*
G04 #@! TD*
D11*
G04 #@! TO.P,H2,1*
G04 #@! TO.N,Earth*
X96697056Y-113302944D03*
X95000000Y-112600000D03*
X93302944Y-113302944D03*
X92600000Y-115000000D03*
X93302944Y-116697056D03*
X95000000Y-117400000D03*
X96697056Y-116697056D03*
X97400000Y-115000000D03*
D12*
X95000000Y-115000000D03*
G04 #@! TD*
D11*
G04 #@! TO.P,H1,1*
G04 #@! TO.N,Earth*
X176697056Y-113302944D03*
X175000000Y-112600000D03*
X173302944Y-113302944D03*
X172600000Y-115000000D03*
X173302944Y-116697056D03*
X175000000Y-117400000D03*
X176697056Y-116697056D03*
X177400000Y-115000000D03*
D12*
X175000000Y-115000000D03*
G04 #@! TD*
D13*
G04 #@! TO.P,U2,1*
G04 #@! TO.N,GND*
X176410000Y-93530000D03*
G04 #@! TO.P,U2,2*
G04 #@! TO.N,/Output Stage/DAC-D0*
X173870000Y-93530000D03*
D14*
G04 #@! TO.P,U2,35*
G04 #@! TO.N,/Teensy/TempSense*
X148470000Y-106230000D03*
G04 #@! TO.P,U2,36*
G04 #@! TO.N,/Overcurrent Protection/OCControl*
X151010000Y-106230000D03*
G04 #@! TO.P,U2,37*
G04 #@! TO.N,/Overcurrent Protection/OCStatus*
X148470000Y-103690000D03*
G04 #@! TO.P,U2,38*
G04 #@! TO.N,Net-(R9-Pad2)*
X151010000Y-103690000D03*
G04 #@! TO.P,U2,39*
G04 #@! TO.N,N/C*
X148470000Y-101150000D03*
G04 #@! TO.P,U2,40*
X151010000Y-101150000D03*
G04 #@! TO.P,U2,41*
X148470000Y-98610000D03*
G04 #@! TO.P,U2,42*
X151010000Y-98610000D03*
G04 #@! TO.P,U2,43*
X148470000Y-96070000D03*
G04 #@! TO.P,U2,44*
X151010000Y-96070000D03*
D15*
G04 #@! TO.P,U2,45*
X169271600Y-104650000D03*
G04 #@! TO.P,U2,46*
X169271600Y-103650000D03*
G04 #@! TO.P,U2,47*
G04 #@! TO.N,GND*
X169271600Y-102650000D03*
G04 #@! TO.P,U2,48*
G04 #@! TO.N,N/C*
X169271600Y-101650000D03*
G04 #@! TO.P,U2,49*
G04 #@! TO.N,+3V3*
X169271600Y-100650000D03*
G04 #@! TO.P,U2,50*
G04 #@! TO.N,N/C*
X169271600Y-99650000D03*
G04 #@! TO.P,U2,51*
X169271600Y-98650000D03*
G04 #@! TO.P,U2,52*
X169271600Y-97650000D03*
D14*
G04 #@! TO.P,U2,53*
X175140000Y-102420000D03*
G04 #@! TO.P,U2,54*
X175140000Y-99880000D03*
D13*
G04 #@! TO.P,U2,3*
G04 #@! TO.N,/Output Stage/DAC-D1*
X171330000Y-93530000D03*
G04 #@! TO.P,U2,4*
G04 #@! TO.N,/Output Stage/DAC-D2*
X168790000Y-93530000D03*
G04 #@! TO.P,U2,5*
G04 #@! TO.N,/Output Stage/DAC-D3*
X166250000Y-93530000D03*
G04 #@! TO.P,U2,6*
G04 #@! TO.N,/Output Stage/DAC-D4*
X163710000Y-93530000D03*
G04 #@! TO.P,U2,7*
G04 #@! TO.N,/Output Stage/DAC-D5*
X161170000Y-93530000D03*
G04 #@! TO.P,U2,8*
G04 #@! TO.N,/Output Stage/DAC-D6*
X158630000Y-93530000D03*
G04 #@! TO.P,U2,9*
G04 #@! TO.N,/Output Stage/DAC-D7*
X156090000Y-93530000D03*
G04 #@! TO.P,U2,10*
G04 #@! TO.N,/Output Stage/DAC-D8*
X153550000Y-93530000D03*
G04 #@! TO.P,U2,11*
G04 #@! TO.N,/Output Stage/DAC-D9*
X151010000Y-93530000D03*
G04 #@! TO.P,U2,12*
G04 #@! TO.N,Net-(U2-Pad12)*
X148470000Y-93530000D03*
G04 #@! TO.P,U2,14*
G04 #@! TO.N,Net-(U2-Pad14)*
X143390000Y-93530000D03*
G04 #@! TO.P,U2,15*
G04 #@! TO.N,N/C*
X143390000Y-96070000D03*
G04 #@! TO.P,U2,16*
G04 #@! TO.N,+3V3*
X143390000Y-98610000D03*
G04 #@! TO.P,U2,17*
G04 #@! TO.N,GND*
X143390000Y-101150000D03*
G04 #@! TO.P,U2,18*
G04 #@! TO.N,N/C*
X143390000Y-103690000D03*
G04 #@! TO.P,U2,19*
X143390000Y-106230000D03*
G04 #@! TO.P,U2,20*
G04 #@! TO.N,Net-(U2-Pad20)*
X143390000Y-108770000D03*
G04 #@! TO.P,U2,21*
G04 #@! TO.N,/Output Stage/DAC-D10*
X145930000Y-108770000D03*
G04 #@! TO.P,U2,22*
G04 #@! TO.N,/Output Stage/DAC-D11*
X148470000Y-108770000D03*
G04 #@! TO.P,U2,23*
G04 #@! TO.N,/Output Stage/DAC-D12*
X151010000Y-108770000D03*
G04 #@! TO.P,U2,24*
G04 #@! TO.N,/Output Stage/DAC-D13*
X153550000Y-108770000D03*
G04 #@! TO.P,U2,25*
G04 #@! TO.N,/Output Stage/DAC-CLOCK*
X156090000Y-108770000D03*
G04 #@! TO.P,U2,26*
G04 #@! TO.N,N/C*
X158630000Y-108770000D03*
G04 #@! TO.P,U2,27*
X161170000Y-108770000D03*
G04 #@! TO.P,U2,28*
X163710000Y-108770000D03*
G04 #@! TO.P,U2,29*
X166250000Y-108770000D03*
G04 #@! TO.P,U2,30*
X168790000Y-108770000D03*
G04 #@! TO.P,U2,31*
G04 #@! TO.N,+3V3*
X171330000Y-108770000D03*
G04 #@! TO.P,U2,32*
G04 #@! TO.N,GND*
X173870000Y-108770000D03*
G04 #@! TO.P,U2,34*
G04 #@! TO.N,N/C*
X173870000Y-106230000D03*
G04 #@! TO.P,U2,33*
G04 #@! TO.N,+5V*
X176410000Y-108770000D03*
G04 #@! TO.P,U2,13*
G04 #@! TO.N,N/C*
X145930000Y-93530000D03*
G04 #@! TD*
D16*
G04 #@! TO.P,J5,1*
G04 #@! TO.N,GND*
X100810000Y-62540000D03*
X98270000Y-62540000D03*
X95730000Y-62540000D03*
X93190000Y-62540000D03*
X100810000Y-54920000D03*
X98270000Y-54920000D03*
X93190000Y-54920000D03*
X95730000Y-54920000D03*
G04 #@! TD*
G04 #@! TO.P,J2,1*
G04 #@! TO.N,Net-(J2-Pad1)*
X176810000Y-62540000D03*
X174270000Y-62540000D03*
X171730000Y-62540000D03*
X169190000Y-62540000D03*
X176810000Y-54920000D03*
X174270000Y-54920000D03*
X169190000Y-54920000D03*
X171730000Y-54920000D03*
G04 #@! TD*
D17*
G04 #@! TO.P,J6,1*
G04 #@! TO.N,+12V*
X105900000Y-82800000D03*
D18*
G04 #@! TO.P,J6,2*
G04 #@! TO.N,GND*
X100100000Y-82800000D03*
D19*
G04 #@! TO.P,J6,3*
G04 #@! TO.N,N/C*
X102900000Y-87600000D03*
G04 #@! TD*
D20*
G04 #@! TO.P,Q1,3*
G04 #@! TO.N,Net-(Q1-Pad3)*
X129550000Y-45500000D03*
G04 #@! TO.P,Q1,2*
G04 #@! TO.N,Net-(J2-Pad1)*
X135000000Y-45500000D03*
D21*
G04 #@! TO.P,Q1,1*
G04 #@! TO.N,/Output Stage/MOSFET-OUT*
X140450000Y-45500000D03*
G04 #@! TD*
D22*
G04 #@! TO.P,J1,2*
G04 #@! TO.N,/Teensy/TempSense*
X162930000Y-115000000D03*
D23*
G04 #@! TO.P,J1,1*
G04 #@! TO.N,GND*
X157850000Y-115000000D03*
G04 #@! TD*
D24*
G04 #@! TO.N,GND*
X100200000Y-95300000D03*
X100200000Y-97400000D03*
X94400000Y-101300000D03*
X106900000Y-99300000D03*
X100900000Y-91600000D03*
X104200000Y-90800000D03*
X104300000Y-104400000D03*
X108200000Y-106200000D03*
X114200000Y-105200000D03*
X101100000Y-113500000D03*
X102300000Y-109600000D03*
X118000000Y-112300000D03*
X124400000Y-108100000D03*
X126800000Y-108100000D03*
X118500000Y-108500000D03*
X119500004Y-111500000D03*
X110200000Y-91900000D03*
X133200000Y-117600000D03*
X153700000Y-117200000D03*
X129600000Y-106300000D03*
X123400000Y-88100000D03*
X121600000Y-88200000D03*
X134800000Y-89600000D03*
X111000000Y-99200000D03*
X121100000Y-94100000D03*
X124100000Y-98000000D03*
X166700000Y-113600000D03*
X167100000Y-115300000D03*
X135700000Y-110400000D03*
X134500000Y-102200000D03*
X169800000Y-76900000D03*
X168200000Y-76900000D03*
X162800000Y-78700000D03*
X158900000Y-83000000D03*
X169700000Y-83300000D03*
X167125000Y-80400000D03*
X153600000Y-77500000D03*
X148100000Y-76100000D03*
X145900000Y-79700000D03*
X137500000Y-77300000D03*
X135800000Y-85300000D03*
X121200000Y-81100000D03*
X126800000Y-76600000D03*
X126800000Y-84900000D03*
X144300000Y-89000000D03*
X106500000Y-49000000D03*
X104500000Y-49000000D03*
X103500000Y-50000000D03*
X103500000Y-52000000D03*
X103500000Y-54000000D03*
X103500000Y-56000000D03*
X103500000Y-58000000D03*
X103500000Y-60000000D03*
X103500000Y-62000000D03*
X103500000Y-64000000D03*
X103500000Y-66000000D03*
X103500000Y-68000000D03*
X104500000Y-51000000D03*
X105500000Y-50000000D03*
X105500000Y-68000000D03*
X101500000Y-68000000D03*
X102500000Y-67000000D03*
X102500000Y-59000000D03*
X102500000Y-51000000D03*
X102500000Y-49000000D03*
X101500000Y-66000000D03*
X101500000Y-60000000D03*
X101500000Y-58000000D03*
X101500000Y-52000000D03*
X101500000Y-50000000D03*
X141999988Y-116500000D03*
X129200000Y-75900000D03*
X149200000Y-85050000D03*
X173200000Y-77000000D03*
X173200000Y-75300000D03*
X134600000Y-84900000D03*
G04 #@! TO.N,+9V*
X103100000Y-114700000D03*
X103050000Y-113750000D03*
X114200000Y-106800000D03*
X137300000Y-82600000D03*
G04 #@! TO.N,+12V*
X99100000Y-90100000D03*
X99100000Y-89100000D03*
X102400000Y-107000000D03*
X103325000Y-106975000D03*
X117300000Y-106200000D03*
X148100000Y-77500000D03*
G04 #@! TO.N,+5V*
X125800000Y-115400000D03*
X118000000Y-115400000D03*
X116400000Y-116600000D03*
X138900000Y-112900000D03*
X120000000Y-88200000D03*
X129300000Y-92400000D03*
X130400000Y-89300000D03*
X133700000Y-104200000D03*
X134500000Y-96400000D03*
X120100000Y-83800000D03*
X158500000Y-117800000D03*
X157200000Y-117800000D03*
X155900000Y-117800000D03*
X158500000Y-112600000D03*
X157200000Y-112600000D03*
X155900000Y-112600000D03*
X142759266Y-117150799D03*
X115300000Y-116600000D03*
G04 #@! TO.N,Net-(Q1-Pad3)*
X118200000Y-54900000D03*
X118200000Y-52900000D03*
X118200000Y-50900000D03*
X119200000Y-51900000D03*
X119200000Y-53900000D03*
X120200000Y-54900000D03*
X120200000Y-52900000D03*
X122200000Y-54900000D03*
X121200000Y-53900000D03*
X122200000Y-52900000D03*
X121200000Y-51900000D03*
X120200000Y-50900000D03*
X122200000Y-50900000D03*
X123200000Y-51900000D03*
X123200000Y-53900000D03*
X123200000Y-55900000D03*
X123200000Y-57900000D03*
X123200000Y-59900000D03*
X123200000Y-61900000D03*
X123200000Y-63900000D03*
X122200000Y-62900000D03*
X121200000Y-63900000D03*
X120200000Y-62900000D03*
X119200000Y-61900000D03*
X119200000Y-63900000D03*
X118200000Y-62900000D03*
X120200000Y-64900000D03*
X118200000Y-64900000D03*
X122200000Y-64900000D03*
X124200000Y-64900000D03*
X124200000Y-62900000D03*
X124200000Y-60900000D03*
X124200000Y-58900000D03*
X124200000Y-56900000D03*
X124200000Y-54900000D03*
X124200000Y-52900000D03*
X124200000Y-50900000D03*
X121200000Y-61900000D03*
X122200000Y-56900000D03*
X122200000Y-58900000D03*
X122200000Y-60900000D03*
G04 #@! TO.N,Net-(Q2-Pad1)*
X114500000Y-67000000D03*
X114500000Y-65000000D03*
X114500000Y-63000000D03*
X114500000Y-55000000D03*
X114500000Y-53000000D03*
X113500000Y-52000000D03*
X113500000Y-54000000D03*
X113500000Y-56000000D03*
X113500000Y-58000000D03*
X113500000Y-60000000D03*
X113500000Y-62000000D03*
X113500000Y-64000000D03*
X113500000Y-66000000D03*
X113500000Y-68000000D03*
X111800000Y-68000000D03*
G04 #@! TO.N,/Overcurrent Protection/OCControl*
X132800000Y-95500000D03*
X130300000Y-87600000D03*
G04 #@! TO.N,Net-(R2-Pad2)*
X116600000Y-97600000D03*
X113000000Y-86100000D03*
G04 #@! TO.N,Net-(R31-Pad2)*
X139200000Y-90800000D03*
X137800000Y-104700000D03*
G04 #@! TO.N,+3V3*
X110200000Y-88200000D03*
X142100000Y-98600000D03*
X170500000Y-113200000D03*
X170500000Y-111999990D03*
X168700000Y-115300000D03*
X164400000Y-78700000D03*
X158900000Y-81500000D03*
X145700000Y-87000000D03*
G04 #@! TO.N,/Overcurrent Protection/OCStatus*
X139100000Y-100100000D03*
X137600000Y-91000000D03*
G04 #@! TO.N,/Overcurrent Protection/OCSense*
X122400000Y-93200000D03*
X116500000Y-99200000D03*
G04 #@! TO.N,-3V3*
X102900000Y-100700000D03*
X102925000Y-99875000D03*
X116000000Y-96300000D03*
G04 #@! TO.N,+9V*
X132200000Y-74500000D03*
G04 #@! TO.N,/Output Stage/MOSFET-OUT*
X136000000Y-70800000D03*
G04 #@! TO.N,Net-(U2-Pad20)*
X145100000Y-98300000D03*
G04 #@! TO.N,/Output Stage/DAC-CLOCK*
X166700000Y-84300000D03*
G04 #@! TO.N,/Output Stage/DAC-D10*
X165600000Y-84300000D03*
G04 #@! TO.N,/Output Stage/DAC-D11*
X164400000Y-84500000D03*
G04 #@! TO.N,/Output Stage/DAC-D12*
X163400000Y-84900000D03*
G04 #@! TO.N,/Output Stage/DAC-D13*
X160900000Y-87500000D03*
G04 #@! TO.N,Net-(U12-Pad6)*
X132500000Y-97900000D03*
X136900000Y-116100000D03*
G04 #@! TO.N,/Overcurrent Protection/SET*
X132500000Y-100600000D03*
X122300000Y-91200000D03*
X135700000Y-103900000D03*
G04 #@! TO.N,Net-(Q2-Pad1)*
X110200000Y-68000000D03*
G04 #@! TD*
D25*
G04 #@! TO.N,+9V*
X110400000Y-108700000D02*
X110300000Y-108800000D01*
X114200000Y-106800000D02*
X112300000Y-106800000D01*
X114100000Y-106900000D02*
X114200000Y-106800000D01*
X112300000Y-106800000D02*
X110300000Y-108800000D01*
X103100000Y-113200000D02*
X103100000Y-114700000D01*
X105500000Y-110800000D02*
X103100000Y-113200000D01*
X108300000Y-110800000D02*
X105500000Y-110800000D01*
X110300000Y-108800000D02*
X108300000Y-110800000D01*
D26*
G04 #@! TO.N,+5V*
X176410000Y-108770000D02*
X176410000Y-108790000D01*
X176410000Y-108790000D02*
X174700000Y-110500000D01*
X174700000Y-110500000D02*
X160600000Y-110500000D01*
D27*
X125800000Y-115400000D02*
X118000000Y-115400000D01*
D28*
X155900000Y-117800000D02*
X155250000Y-117150000D01*
X155250000Y-113250000D02*
X155900000Y-112600000D01*
X155250000Y-117150000D02*
X155250000Y-113250000D01*
D27*
X155900000Y-117800000D02*
X159700000Y-117800000D01*
X159700000Y-117800000D02*
X160250000Y-117250000D01*
X164750000Y-117250000D02*
X165375000Y-116625000D01*
X160250000Y-117250000D02*
X164750000Y-117250000D01*
D29*
X165375000Y-116625000D02*
X165750000Y-116250000D01*
D27*
X160250000Y-117250000D02*
X160400000Y-117100000D01*
X160400000Y-117100000D02*
X160400000Y-112900000D01*
X160400000Y-112900000D02*
X159350000Y-111850000D01*
X159350000Y-111850000D02*
X159250000Y-111850000D01*
D26*
X159250000Y-111850000D02*
X158500000Y-112600000D01*
X160600000Y-110500000D02*
X159250000Y-111850000D01*
D30*
G04 #@! TO.N,/Overcurrent Protection/OCControl*
X132800000Y-95500000D02*
X132800000Y-88700000D01*
X131700000Y-87600000D02*
X130300000Y-87600000D01*
X132800000Y-88700000D02*
X131700000Y-87600000D01*
D25*
G04 #@! TO.N,Net-(R2-Pad2)*
X117600000Y-90600000D02*
X113100000Y-86100000D01*
X117600000Y-96600000D02*
X117600000Y-90600000D01*
X113100000Y-86100000D02*
X113000000Y-86100000D01*
X116600000Y-97600000D02*
X117600000Y-96600000D01*
D30*
G04 #@! TO.N,Net-(R31-Pad2)*
X139200000Y-90800000D02*
X139200000Y-91400000D01*
X139200000Y-91400000D02*
X139800000Y-92000000D01*
X139800000Y-92000000D02*
X139800000Y-99400000D01*
X139800000Y-99400000D02*
X140100000Y-99700000D01*
X140100000Y-99700000D02*
X140100000Y-100800000D01*
X140100000Y-100800000D02*
X138300000Y-102600000D01*
X137800000Y-103100000D02*
X137800000Y-104700000D01*
X138300000Y-102600000D02*
X137800000Y-103100000D01*
D28*
G04 #@! TO.N,+3V3*
X110200000Y-88200000D02*
X110200000Y-86600000D01*
X110200000Y-86600000D02*
X111900000Y-84900000D01*
X111900000Y-84900000D02*
X118000000Y-84900000D01*
X118000000Y-84900000D02*
X119500000Y-86400000D01*
X119500000Y-86400000D02*
X134500000Y-86400000D01*
X134500000Y-86400000D02*
X137300000Y-89200000D01*
X137300000Y-89200000D02*
X139600000Y-89200000D01*
X139600000Y-89200000D02*
X141100000Y-90700000D01*
X141100000Y-97600000D02*
X142100000Y-98600000D01*
X141100000Y-90700000D02*
X141100000Y-97600000D01*
D30*
G04 #@! TO.N,/Overcurrent Protection/OCStatus*
X139100000Y-92500000D02*
X137600000Y-91000000D01*
X139100000Y-100100000D02*
X139100000Y-92500000D01*
D31*
G04 #@! TO.N,/Overcurrent Protection/OCSense*
X119900000Y-93200000D02*
X122400000Y-93200000D01*
X118800000Y-94300000D02*
X119900000Y-93200000D01*
X118800000Y-97800000D02*
X118800000Y-94300000D01*
X117400000Y-99200000D02*
X118800000Y-97800000D01*
X116500000Y-99200000D02*
X117400000Y-99200000D01*
D29*
G04 #@! TO.N,-3V3*
X112900000Y-96300000D02*
X105500000Y-96300000D01*
X109400000Y-96300000D02*
X112900000Y-96300000D01*
X112900000Y-96300000D02*
X116000000Y-96300000D01*
X102900000Y-98900000D02*
X102900000Y-100700000D01*
X105500000Y-96300000D02*
X102900000Y-98900000D01*
D30*
G04 #@! TO.N,Net-(U2-Pad20)*
X145100000Y-107060000D02*
X143390000Y-108770000D01*
X145100000Y-98300000D02*
X145100000Y-107060000D01*
G04 #@! TO.N,/Output Stage/DAC-CLOCK*
X156090000Y-108770000D02*
X163700000Y-101160000D01*
X163700000Y-101160000D02*
X165000000Y-99860000D01*
X165000000Y-99860000D02*
X165000000Y-86600000D01*
X166700000Y-84900000D02*
X166700000Y-84300000D01*
X165000000Y-86600000D02*
X166700000Y-84900000D01*
G04 #@! TO.N,/Output Stage/DAC-D10*
X154800000Y-91700000D02*
X154800000Y-91599998D01*
X154800000Y-98400000D02*
X154800000Y-91700000D01*
X153400000Y-99800000D02*
X154800000Y-98400000D01*
X146600000Y-99800000D02*
X153400000Y-99800000D01*
X145930000Y-100470000D02*
X146600000Y-99800000D01*
X145930000Y-108770000D02*
X145930000Y-100470000D01*
X164000000Y-82700000D02*
X165600000Y-84300000D01*
X161000000Y-82700000D02*
X164000000Y-82700000D01*
X154800000Y-88900000D02*
X161000000Y-82700000D01*
X154800000Y-91700000D02*
X154800000Y-88900000D01*
G04 #@! TO.N,/Output Stage/DAC-D11*
X157400000Y-90600000D02*
X157400000Y-89900000D01*
X164400000Y-84500000D02*
X164400000Y-84500000D01*
X153500000Y-102400000D02*
X157400000Y-98500000D01*
X150400000Y-102400000D02*
X153500000Y-102400000D01*
X157400000Y-98500000D02*
X157400000Y-90600000D01*
X149700000Y-103100000D02*
X150400000Y-102400000D01*
X149700000Y-107540000D02*
X149700000Y-103100000D01*
X148470000Y-108770000D02*
X149700000Y-107540000D01*
X163400000Y-83500000D02*
X164400000Y-84500000D01*
X161600000Y-83500000D02*
X163400000Y-83500000D01*
X157400000Y-87700000D02*
X161600000Y-83500000D01*
X157400000Y-90600000D02*
X157400000Y-87700000D01*
G04 #@! TO.N,/Output Stage/DAC-D12*
X159900000Y-86300000D02*
X161300000Y-84900000D01*
X161300000Y-84900000D02*
X163400000Y-84900000D01*
X159900000Y-100600000D02*
X159900000Y-86300000D01*
X153220000Y-107280000D02*
X159900000Y-100600000D01*
X152500000Y-107280000D02*
X153220000Y-107280000D01*
X151010000Y-108770000D02*
X152500000Y-107280000D01*
G04 #@! TO.N,/Output Stage/DAC-D13*
X153550000Y-108770000D02*
X162400000Y-99920000D01*
X162400000Y-89000000D02*
X160900000Y-87500000D01*
X162400000Y-99920000D02*
X162400000Y-89000000D01*
G04 #@! TO.N,Net-(U12-Pad6)*
X133700000Y-97900000D02*
X132500000Y-97900000D01*
X136900000Y-101100000D02*
X133700000Y-97900000D01*
X136900000Y-116100000D02*
X136900000Y-101100000D01*
D25*
G04 #@! TO.N,/Overcurrent Protection/SET*
X123100000Y-91200000D02*
X122300000Y-91200000D01*
X132500000Y-100600000D02*
X123100000Y-91200000D01*
D30*
X135700000Y-103900000D02*
X135700000Y-102000000D01*
X134300000Y-100600000D02*
X132500000Y-100600000D01*
X135700000Y-102000000D02*
X134300000Y-100600000D01*
G04 #@! TD*
D32*
G04 #@! TO.N,+5V*
X168352622Y-104141204D02*
X168358499Y-104150000D01*
X168352622Y-104158796D01*
X168274451Y-104347518D01*
X168234600Y-104547864D01*
X168234600Y-104752136D01*
X168274451Y-104952482D01*
X168352622Y-105141204D01*
X168466109Y-105311049D01*
X168610551Y-105455491D01*
X168780396Y-105568978D01*
X168969118Y-105647149D01*
X169169464Y-105687000D01*
X169373736Y-105687000D01*
X169574082Y-105647149D01*
X169762804Y-105568978D01*
X169932649Y-105455491D01*
X170077091Y-105311049D01*
X170190578Y-105141204D01*
X170268749Y-104952482D01*
X170308600Y-104752136D01*
X170308600Y-104547864D01*
X170268749Y-104347518D01*
X170190578Y-104158796D01*
X170184701Y-104150000D01*
X170190578Y-104141204D01*
X170196461Y-104127000D01*
X176865000Y-104127000D01*
X176865000Y-110528146D01*
X176055903Y-111299900D01*
X175377715Y-111165000D01*
X174622285Y-111165000D01*
X173881372Y-111312377D01*
X173183446Y-111601467D01*
X172555330Y-112021161D01*
X172021161Y-112555330D01*
X171601467Y-113183446D01*
X171518938Y-113382689D01*
X171535000Y-113301939D01*
X171535000Y-113098061D01*
X171495226Y-112898102D01*
X171417205Y-112709744D01*
X171343873Y-112599995D01*
X171417205Y-112490246D01*
X171495226Y-112301888D01*
X171535000Y-112101929D01*
X171535000Y-111898051D01*
X171495226Y-111698092D01*
X171417205Y-111509734D01*
X171303937Y-111340216D01*
X171159774Y-111196053D01*
X170990256Y-111082785D01*
X170801898Y-111004764D01*
X170601939Y-110964990D01*
X170398061Y-110964990D01*
X170198102Y-111004764D01*
X170009744Y-111082785D01*
X169840226Y-111196053D01*
X169696063Y-111340216D01*
X169582795Y-111509734D01*
X169504774Y-111698092D01*
X169465000Y-111898051D01*
X169465000Y-112101929D01*
X169504774Y-112301888D01*
X169582795Y-112490246D01*
X169656127Y-112599995D01*
X169582795Y-112709744D01*
X169504774Y-112898102D01*
X169465000Y-113098061D01*
X169465000Y-113301939D01*
X169504774Y-113501898D01*
X169582795Y-113690256D01*
X169696063Y-113859774D01*
X169840226Y-114003937D01*
X170009744Y-114117205D01*
X170198102Y-114195226D01*
X170398061Y-114235000D01*
X170601939Y-114235000D01*
X170801898Y-114195226D01*
X170990256Y-114117205D01*
X171159774Y-114003937D01*
X171303937Y-113859774D01*
X171349680Y-113791315D01*
X171312377Y-113881372D01*
X171165000Y-114622285D01*
X171165000Y-115377715D01*
X171263200Y-115871401D01*
X170745717Y-116365000D01*
X164584346Y-116365000D01*
X164588363Y-116360983D01*
X164822012Y-116011302D01*
X164982953Y-115622756D01*
X165065000Y-115210279D01*
X165065000Y-114789721D01*
X164982953Y-114377244D01*
X164822012Y-113988698D01*
X164588363Y-113639017D01*
X164447407Y-113498061D01*
X165665000Y-113498061D01*
X165665000Y-113701939D01*
X165704774Y-113901898D01*
X165782795Y-114090256D01*
X165896063Y-114259774D01*
X166040226Y-114403937D01*
X166209744Y-114517205D01*
X166357769Y-114578520D01*
X166296063Y-114640226D01*
X166182795Y-114809744D01*
X166104774Y-114998102D01*
X166065000Y-115198061D01*
X166065000Y-115401939D01*
X166104774Y-115601898D01*
X166182795Y-115790256D01*
X166296063Y-115959774D01*
X166440226Y-116103937D01*
X166609744Y-116217205D01*
X166798102Y-116295226D01*
X166998061Y-116335000D01*
X167201939Y-116335000D01*
X167401898Y-116295226D01*
X167590256Y-116217205D01*
X167759774Y-116103937D01*
X167900000Y-115963711D01*
X168040226Y-116103937D01*
X168209744Y-116217205D01*
X168398102Y-116295226D01*
X168598061Y-116335000D01*
X168801939Y-116335000D01*
X169001898Y-116295226D01*
X169190256Y-116217205D01*
X169359774Y-116103937D01*
X169503937Y-115959774D01*
X169617205Y-115790256D01*
X169695226Y-115601898D01*
X169735000Y-115401939D01*
X169735000Y-115198061D01*
X169695226Y-114998102D01*
X169617205Y-114809744D01*
X169503937Y-114640226D01*
X169359774Y-114496063D01*
X169190256Y-114382795D01*
X169001898Y-114304774D01*
X168801939Y-114265000D01*
X168598061Y-114265000D01*
X168398102Y-114304774D01*
X168209744Y-114382795D01*
X168040226Y-114496063D01*
X167900000Y-114636289D01*
X167759774Y-114496063D01*
X167590256Y-114382795D01*
X167442231Y-114321480D01*
X167503937Y-114259774D01*
X167617205Y-114090256D01*
X167695226Y-113901898D01*
X167735000Y-113701939D01*
X167735000Y-113498061D01*
X167695226Y-113298102D01*
X167617205Y-113109744D01*
X167503937Y-112940226D01*
X167359774Y-112796063D01*
X167190256Y-112682795D01*
X167001898Y-112604774D01*
X166801939Y-112565000D01*
X166598061Y-112565000D01*
X166398102Y-112604774D01*
X166209744Y-112682795D01*
X166040226Y-112796063D01*
X165896063Y-112940226D01*
X165782795Y-113109744D01*
X165704774Y-113298102D01*
X165665000Y-113498061D01*
X164447407Y-113498061D01*
X164290983Y-113341637D01*
X163941302Y-113107988D01*
X163552756Y-112947047D01*
X163140279Y-112865000D01*
X162719721Y-112865000D01*
X162307244Y-112947047D01*
X161918698Y-113107988D01*
X161569017Y-113341637D01*
X161271637Y-113639017D01*
X161037988Y-113988698D01*
X160877047Y-114377244D01*
X160795000Y-114789721D01*
X160795000Y-115210279D01*
X160877047Y-115622756D01*
X161037988Y-116011302D01*
X161271637Y-116360983D01*
X161275654Y-116365000D01*
X159988072Y-116365000D01*
X159988072Y-113500000D01*
X159975812Y-113375518D01*
X159939502Y-113255820D01*
X159880537Y-113145506D01*
X159801185Y-113048815D01*
X159704494Y-112969463D01*
X159594180Y-112910498D01*
X159474482Y-112874188D01*
X159350000Y-112861928D01*
X156350000Y-112861928D01*
X156225518Y-112874188D01*
X156105820Y-112910498D01*
X155995506Y-112969463D01*
X155898815Y-113048815D01*
X155819463Y-113145506D01*
X155760498Y-113255820D01*
X155724188Y-113375518D01*
X155711928Y-113500000D01*
X155711928Y-116365000D01*
X155027000Y-116365000D01*
X155027000Y-109585645D01*
X155051484Y-109622288D01*
X155237712Y-109808516D01*
X155456693Y-109954834D01*
X155700012Y-110055620D01*
X155958317Y-110107000D01*
X156221683Y-110107000D01*
X156479988Y-110055620D01*
X156723307Y-109954834D01*
X156942288Y-109808516D01*
X157128516Y-109622288D01*
X157274834Y-109403307D01*
X157360000Y-109197698D01*
X157445166Y-109403307D01*
X157591484Y-109622288D01*
X157777712Y-109808516D01*
X157996693Y-109954834D01*
X158240012Y-110055620D01*
X158498317Y-110107000D01*
X158761683Y-110107000D01*
X159019988Y-110055620D01*
X159263307Y-109954834D01*
X159482288Y-109808516D01*
X159668516Y-109622288D01*
X159814834Y-109403307D01*
X159900000Y-109197698D01*
X159985166Y-109403307D01*
X160131484Y-109622288D01*
X160317712Y-109808516D01*
X160536693Y-109954834D01*
X160780012Y-110055620D01*
X161038317Y-110107000D01*
X161301683Y-110107000D01*
X161559988Y-110055620D01*
X161803307Y-109954834D01*
X162022288Y-109808516D01*
X162208516Y-109622288D01*
X162354834Y-109403307D01*
X162440000Y-109197698D01*
X162525166Y-109403307D01*
X162671484Y-109622288D01*
X162857712Y-109808516D01*
X163076693Y-109954834D01*
X163320012Y-110055620D01*
X163578317Y-110107000D01*
X163841683Y-110107000D01*
X164099988Y-110055620D01*
X164343307Y-109954834D01*
X164562288Y-109808516D01*
X164748516Y-109622288D01*
X164894834Y-109403307D01*
X164980000Y-109197698D01*
X165065166Y-109403307D01*
X165211484Y-109622288D01*
X165397712Y-109808516D01*
X165616693Y-109954834D01*
X165860012Y-110055620D01*
X166118317Y-110107000D01*
X166381683Y-110107000D01*
X166639988Y-110055620D01*
X166883307Y-109954834D01*
X167102288Y-109808516D01*
X167288516Y-109622288D01*
X167434834Y-109403307D01*
X167520000Y-109197698D01*
X167605166Y-109403307D01*
X167751484Y-109622288D01*
X167937712Y-109808516D01*
X168156693Y-109954834D01*
X168400012Y-110055620D01*
X168658317Y-110107000D01*
X168921683Y-110107000D01*
X169179988Y-110055620D01*
X169423307Y-109954834D01*
X169642288Y-109808516D01*
X169828516Y-109622288D01*
X169974834Y-109403307D01*
X170060000Y-109197698D01*
X170145166Y-109403307D01*
X170291484Y-109622288D01*
X170477712Y-109808516D01*
X170696693Y-109954834D01*
X170940012Y-110055620D01*
X171198317Y-110107000D01*
X171461683Y-110107000D01*
X171719988Y-110055620D01*
X171963307Y-109954834D01*
X172182288Y-109808516D01*
X172368516Y-109622288D01*
X172514834Y-109403307D01*
X172600000Y-109197698D01*
X172685166Y-109403307D01*
X172831484Y-109622288D01*
X173017712Y-109808516D01*
X173236693Y-109954834D01*
X173480012Y-110055620D01*
X173738317Y-110107000D01*
X174001683Y-110107000D01*
X174259988Y-110055620D01*
X174503307Y-109954834D01*
X174722288Y-109808516D01*
X174908516Y-109622288D01*
X175054834Y-109403307D01*
X175155620Y-109159988D01*
X175207000Y-108901683D01*
X175207000Y-108638317D01*
X175155620Y-108380012D01*
X175054834Y-108136693D01*
X174908516Y-107917712D01*
X174722288Y-107731484D01*
X174503307Y-107585166D01*
X174297698Y-107500000D01*
X174503307Y-107414834D01*
X174722288Y-107268516D01*
X174908516Y-107082288D01*
X175054834Y-106863307D01*
X175155620Y-106619988D01*
X175207000Y-106361683D01*
X175207000Y-106098317D01*
X175155620Y-105840012D01*
X175054834Y-105596693D01*
X174908516Y-105377712D01*
X174722288Y-105191484D01*
X174503307Y-105045166D01*
X174259988Y-104944380D01*
X174001683Y-104893000D01*
X173738317Y-104893000D01*
X173480012Y-104944380D01*
X173236693Y-105045166D01*
X173017712Y-105191484D01*
X172831484Y-105377712D01*
X172685166Y-105596693D01*
X172584380Y-105840012D01*
X172533000Y-106098317D01*
X172533000Y-106361683D01*
X172584380Y-106619988D01*
X172685166Y-106863307D01*
X172831484Y-107082288D01*
X173017712Y-107268516D01*
X173236693Y-107414834D01*
X173442302Y-107500000D01*
X173236693Y-107585166D01*
X173017712Y-107731484D01*
X172831484Y-107917712D01*
X172685166Y-108136693D01*
X172600000Y-108342302D01*
X172514834Y-108136693D01*
X172368516Y-107917712D01*
X172182288Y-107731484D01*
X171963307Y-107585166D01*
X171719988Y-107484380D01*
X171461683Y-107433000D01*
X171198317Y-107433000D01*
X170940012Y-107484380D01*
X170696693Y-107585166D01*
X170477712Y-107731484D01*
X170291484Y-107917712D01*
X170145166Y-108136693D01*
X170060000Y-108342302D01*
X169974834Y-108136693D01*
X169828516Y-107917712D01*
X169642288Y-107731484D01*
X169423307Y-107585166D01*
X169179988Y-107484380D01*
X168921683Y-107433000D01*
X168658317Y-107433000D01*
X168400012Y-107484380D01*
X168156693Y-107585166D01*
X167937712Y-107731484D01*
X167751484Y-107917712D01*
X167605166Y-108136693D01*
X167520000Y-108342302D01*
X167434834Y-108136693D01*
X167288516Y-107917712D01*
X167102288Y-107731484D01*
X166883307Y-107585166D01*
X166639988Y-107484380D01*
X166381683Y-107433000D01*
X166118317Y-107433000D01*
X165860012Y-107484380D01*
X165616693Y-107585166D01*
X165397712Y-107731484D01*
X165211484Y-107917712D01*
X165065166Y-108136693D01*
X164980000Y-108342302D01*
X164894834Y-108136693D01*
X164748516Y-107917712D01*
X164562288Y-107731484D01*
X164343307Y-107585166D01*
X164099988Y-107484380D01*
X163841683Y-107433000D01*
X163578317Y-107433000D01*
X163320012Y-107484380D01*
X163076693Y-107585166D01*
X162857712Y-107731484D01*
X162671484Y-107917712D01*
X162525166Y-108136693D01*
X162440000Y-108342302D01*
X162354834Y-108136693D01*
X162208516Y-107917712D01*
X162022288Y-107731484D01*
X161803307Y-107585166D01*
X161559988Y-107484380D01*
X161301683Y-107433000D01*
X161038317Y-107433000D01*
X160780012Y-107484380D01*
X160536693Y-107585166D01*
X160317712Y-107731484D01*
X160131484Y-107917712D01*
X159985166Y-108136693D01*
X159900000Y-108342302D01*
X159814834Y-108136693D01*
X159668516Y-107917712D01*
X159482288Y-107731484D01*
X159263307Y-107585166D01*
X159019988Y-107484380D01*
X158761683Y-107433000D01*
X158746606Y-107433000D01*
X162052606Y-104127000D01*
X168346739Y-104127000D01*
X168352622Y-104141204D01*
G04 #@! TA.AperFunction,Conductor*
D33*
G36*
X168352622Y-104141204D02*
G01*
X168358499Y-104150000D01*
X168352622Y-104158796D01*
X168274451Y-104347518D01*
X168234600Y-104547864D01*
X168234600Y-104752136D01*
X168274451Y-104952482D01*
X168352622Y-105141204D01*
X168466109Y-105311049D01*
X168610551Y-105455491D01*
X168780396Y-105568978D01*
X168969118Y-105647149D01*
X169169464Y-105687000D01*
X169373736Y-105687000D01*
X169574082Y-105647149D01*
X169762804Y-105568978D01*
X169932649Y-105455491D01*
X170077091Y-105311049D01*
X170190578Y-105141204D01*
X170268749Y-104952482D01*
X170308600Y-104752136D01*
X170308600Y-104547864D01*
X170268749Y-104347518D01*
X170190578Y-104158796D01*
X170184701Y-104150000D01*
X170190578Y-104141204D01*
X170196461Y-104127000D01*
X176865000Y-104127000D01*
X176865000Y-110528146D01*
X176055903Y-111299900D01*
X175377715Y-111165000D01*
X174622285Y-111165000D01*
X173881372Y-111312377D01*
X173183446Y-111601467D01*
X172555330Y-112021161D01*
X172021161Y-112555330D01*
X171601467Y-113183446D01*
X171518938Y-113382689D01*
X171535000Y-113301939D01*
X171535000Y-113098061D01*
X171495226Y-112898102D01*
X171417205Y-112709744D01*
X171343873Y-112599995D01*
X171417205Y-112490246D01*
X171495226Y-112301888D01*
X171535000Y-112101929D01*
X171535000Y-111898051D01*
X171495226Y-111698092D01*
X171417205Y-111509734D01*
X171303937Y-111340216D01*
X171159774Y-111196053D01*
X170990256Y-111082785D01*
X170801898Y-111004764D01*
X170601939Y-110964990D01*
X170398061Y-110964990D01*
X170198102Y-111004764D01*
X170009744Y-111082785D01*
X169840226Y-111196053D01*
X169696063Y-111340216D01*
X169582795Y-111509734D01*
X169504774Y-111698092D01*
X169465000Y-111898051D01*
X169465000Y-112101929D01*
X169504774Y-112301888D01*
X169582795Y-112490246D01*
X169656127Y-112599995D01*
X169582795Y-112709744D01*
X169504774Y-112898102D01*
X169465000Y-113098061D01*
X169465000Y-113301939D01*
X169504774Y-113501898D01*
X169582795Y-113690256D01*
X169696063Y-113859774D01*
X169840226Y-114003937D01*
X170009744Y-114117205D01*
X170198102Y-114195226D01*
X170398061Y-114235000D01*
X170601939Y-114235000D01*
X170801898Y-114195226D01*
X170990256Y-114117205D01*
X171159774Y-114003937D01*
X171303937Y-113859774D01*
X171349680Y-113791315D01*
X171312377Y-113881372D01*
X171165000Y-114622285D01*
X171165000Y-115377715D01*
X171263200Y-115871401D01*
X170745717Y-116365000D01*
X164584346Y-116365000D01*
X164588363Y-116360983D01*
X164822012Y-116011302D01*
X164982953Y-115622756D01*
X165065000Y-115210279D01*
X165065000Y-114789721D01*
X164982953Y-114377244D01*
X164822012Y-113988698D01*
X164588363Y-113639017D01*
X164447407Y-113498061D01*
X165665000Y-113498061D01*
X165665000Y-113701939D01*
X165704774Y-113901898D01*
X165782795Y-114090256D01*
X165896063Y-114259774D01*
X166040226Y-114403937D01*
X166209744Y-114517205D01*
X166357769Y-114578520D01*
X166296063Y-114640226D01*
X166182795Y-114809744D01*
X166104774Y-114998102D01*
X166065000Y-115198061D01*
X166065000Y-115401939D01*
X166104774Y-115601898D01*
X166182795Y-115790256D01*
X166296063Y-115959774D01*
X166440226Y-116103937D01*
X166609744Y-116217205D01*
X166798102Y-116295226D01*
X166998061Y-116335000D01*
X167201939Y-116335000D01*
X167401898Y-116295226D01*
X167590256Y-116217205D01*
X167759774Y-116103937D01*
X167900000Y-115963711D01*
X168040226Y-116103937D01*
X168209744Y-116217205D01*
X168398102Y-116295226D01*
X168598061Y-116335000D01*
X168801939Y-116335000D01*
X169001898Y-116295226D01*
X169190256Y-116217205D01*
X169359774Y-116103937D01*
X169503937Y-115959774D01*
X169617205Y-115790256D01*
X169695226Y-115601898D01*
X169735000Y-115401939D01*
X169735000Y-115198061D01*
X169695226Y-114998102D01*
X169617205Y-114809744D01*
X169503937Y-114640226D01*
X169359774Y-114496063D01*
X169190256Y-114382795D01*
X169001898Y-114304774D01*
X168801939Y-114265000D01*
X168598061Y-114265000D01*
X168398102Y-114304774D01*
X168209744Y-114382795D01*
X168040226Y-114496063D01*
X167900000Y-114636289D01*
X167759774Y-114496063D01*
X167590256Y-114382795D01*
X167442231Y-114321480D01*
X167503937Y-114259774D01*
X167617205Y-114090256D01*
X167695226Y-113901898D01*
X167735000Y-113701939D01*
X167735000Y-113498061D01*
X167695226Y-113298102D01*
X167617205Y-113109744D01*
X167503937Y-112940226D01*
X167359774Y-112796063D01*
X167190256Y-112682795D01*
X167001898Y-112604774D01*
X166801939Y-112565000D01*
X166598061Y-112565000D01*
X166398102Y-112604774D01*
X166209744Y-112682795D01*
X166040226Y-112796063D01*
X165896063Y-112940226D01*
X165782795Y-113109744D01*
X165704774Y-113298102D01*
X165665000Y-113498061D01*
X164447407Y-113498061D01*
X164290983Y-113341637D01*
X163941302Y-113107988D01*
X163552756Y-112947047D01*
X163140279Y-112865000D01*
X162719721Y-112865000D01*
X162307244Y-112947047D01*
X161918698Y-113107988D01*
X161569017Y-113341637D01*
X161271637Y-113639017D01*
X161037988Y-113988698D01*
X160877047Y-114377244D01*
X160795000Y-114789721D01*
X160795000Y-115210279D01*
X160877047Y-115622756D01*
X161037988Y-116011302D01*
X161271637Y-116360983D01*
X161275654Y-116365000D01*
X159988072Y-116365000D01*
X159988072Y-113500000D01*
X159975812Y-113375518D01*
X159939502Y-113255820D01*
X159880537Y-113145506D01*
X159801185Y-113048815D01*
X159704494Y-112969463D01*
X159594180Y-112910498D01*
X159474482Y-112874188D01*
X159350000Y-112861928D01*
X156350000Y-112861928D01*
X156225518Y-112874188D01*
X156105820Y-112910498D01*
X155995506Y-112969463D01*
X155898815Y-113048815D01*
X155819463Y-113145506D01*
X155760498Y-113255820D01*
X155724188Y-113375518D01*
X155711928Y-113500000D01*
X155711928Y-116365000D01*
X155027000Y-116365000D01*
X155027000Y-109585645D01*
X155051484Y-109622288D01*
X155237712Y-109808516D01*
X155456693Y-109954834D01*
X155700012Y-110055620D01*
X155958317Y-110107000D01*
X156221683Y-110107000D01*
X156479988Y-110055620D01*
X156723307Y-109954834D01*
X156942288Y-109808516D01*
X157128516Y-109622288D01*
X157274834Y-109403307D01*
X157360000Y-109197698D01*
X157445166Y-109403307D01*
X157591484Y-109622288D01*
X157777712Y-109808516D01*
X157996693Y-109954834D01*
X158240012Y-110055620D01*
X158498317Y-110107000D01*
X158761683Y-110107000D01*
X159019988Y-110055620D01*
X159263307Y-109954834D01*
X159482288Y-109808516D01*
X159668516Y-109622288D01*
X159814834Y-109403307D01*
X159900000Y-109197698D01*
X159985166Y-109403307D01*
X160131484Y-109622288D01*
X160317712Y-109808516D01*
X160536693Y-109954834D01*
X160780012Y-110055620D01*
X161038317Y-110107000D01*
X161301683Y-110107000D01*
X161559988Y-110055620D01*
X161803307Y-109954834D01*
X162022288Y-109808516D01*
X162208516Y-109622288D01*
X162354834Y-109403307D01*
X162440000Y-109197698D01*
X162525166Y-109403307D01*
X162671484Y-109622288D01*
X162857712Y-109808516D01*
X163076693Y-109954834D01*
X163320012Y-110055620D01*
X163578317Y-110107000D01*
X163841683Y-110107000D01*
X164099988Y-110055620D01*
X164343307Y-109954834D01*
X164562288Y-109808516D01*
X164748516Y-109622288D01*
X164894834Y-109403307D01*
X164980000Y-109197698D01*
X165065166Y-109403307D01*
X165211484Y-109622288D01*
X165397712Y-109808516D01*
X165616693Y-109954834D01*
X165860012Y-110055620D01*
X166118317Y-110107000D01*
X166381683Y-110107000D01*
X166639988Y-110055620D01*
X166883307Y-109954834D01*
X167102288Y-109808516D01*
X167288516Y-109622288D01*
X167434834Y-109403307D01*
X167520000Y-109197698D01*
X167605166Y-109403307D01*
X167751484Y-109622288D01*
X167937712Y-109808516D01*
X168156693Y-109954834D01*
X168400012Y-110055620D01*
X168658317Y-110107000D01*
X168921683Y-110107000D01*
X169179988Y-110055620D01*
X169423307Y-109954834D01*
X169642288Y-109808516D01*
X169828516Y-109622288D01*
X169974834Y-109403307D01*
X170060000Y-109197698D01*
X170145166Y-109403307D01*
X170291484Y-109622288D01*
X170477712Y-109808516D01*
X170696693Y-109954834D01*
X170940012Y-110055620D01*
X171198317Y-110107000D01*
X171461683Y-110107000D01*
X171719988Y-110055620D01*
X171963307Y-109954834D01*
X172182288Y-109808516D01*
X172368516Y-109622288D01*
X172514834Y-109403307D01*
X172600000Y-109197698D01*
X172685166Y-109403307D01*
X172831484Y-109622288D01*
X173017712Y-109808516D01*
X173236693Y-109954834D01*
X173480012Y-110055620D01*
X173738317Y-110107000D01*
X174001683Y-110107000D01*
X174259988Y-110055620D01*
X174503307Y-109954834D01*
X174722288Y-109808516D01*
X174908516Y-109622288D01*
X175054834Y-109403307D01*
X175155620Y-109159988D01*
X175207000Y-108901683D01*
X175207000Y-108638317D01*
X175155620Y-108380012D01*
X175054834Y-108136693D01*
X174908516Y-107917712D01*
X174722288Y-107731484D01*
X174503307Y-107585166D01*
X174297698Y-107500000D01*
X174503307Y-107414834D01*
X174722288Y-107268516D01*
X174908516Y-107082288D01*
X175054834Y-106863307D01*
X175155620Y-106619988D01*
X175207000Y-106361683D01*
X175207000Y-106098317D01*
X175155620Y-105840012D01*
X175054834Y-105596693D01*
X174908516Y-105377712D01*
X174722288Y-105191484D01*
X174503307Y-105045166D01*
X174259988Y-104944380D01*
X174001683Y-104893000D01*
X173738317Y-104893000D01*
X173480012Y-104944380D01*
X173236693Y-105045166D01*
X173017712Y-105191484D01*
X172831484Y-105377712D01*
X172685166Y-105596693D01*
X172584380Y-105840012D01*
X172533000Y-106098317D01*
X172533000Y-106361683D01*
X172584380Y-106619988D01*
X172685166Y-106863307D01*
X172831484Y-107082288D01*
X173017712Y-107268516D01*
X173236693Y-107414834D01*
X173442302Y-107500000D01*
X173236693Y-107585166D01*
X173017712Y-107731484D01*
X172831484Y-107917712D01*
X172685166Y-108136693D01*
X172600000Y-108342302D01*
X172514834Y-108136693D01*
X172368516Y-107917712D01*
X172182288Y-107731484D01*
X171963307Y-107585166D01*
X171719988Y-107484380D01*
X171461683Y-107433000D01*
X171198317Y-107433000D01*
X170940012Y-107484380D01*
X170696693Y-107585166D01*
X170477712Y-107731484D01*
X170291484Y-107917712D01*
X170145166Y-108136693D01*
X170060000Y-108342302D01*
X169974834Y-108136693D01*
X169828516Y-107917712D01*
X169642288Y-107731484D01*
X169423307Y-107585166D01*
X169179988Y-107484380D01*
X168921683Y-107433000D01*
X168658317Y-107433000D01*
X168400012Y-107484380D01*
X168156693Y-107585166D01*
X167937712Y-107731484D01*
X167751484Y-107917712D01*
X167605166Y-108136693D01*
X167520000Y-108342302D01*
X167434834Y-108136693D01*
X167288516Y-107917712D01*
X167102288Y-107731484D01*
X166883307Y-107585166D01*
X166639988Y-107484380D01*
X166381683Y-107433000D01*
X166118317Y-107433000D01*
X165860012Y-107484380D01*
X165616693Y-107585166D01*
X165397712Y-107731484D01*
X165211484Y-107917712D01*
X165065166Y-108136693D01*
X164980000Y-108342302D01*
X164894834Y-108136693D01*
X164748516Y-107917712D01*
X164562288Y-107731484D01*
X164343307Y-107585166D01*
X164099988Y-107484380D01*
X163841683Y-107433000D01*
X163578317Y-107433000D01*
X163320012Y-107484380D01*
X163076693Y-107585166D01*
X162857712Y-107731484D01*
X162671484Y-107917712D01*
X162525166Y-108136693D01*
X162440000Y-108342302D01*
X162354834Y-108136693D01*
X162208516Y-107917712D01*
X162022288Y-107731484D01*
X161803307Y-107585166D01*
X161559988Y-107484380D01*
X161301683Y-107433000D01*
X161038317Y-107433000D01*
X160780012Y-107484380D01*
X160536693Y-107585166D01*
X160317712Y-107731484D01*
X160131484Y-107917712D01*
X159985166Y-108136693D01*
X159900000Y-108342302D01*
X159814834Y-108136693D01*
X159668516Y-107917712D01*
X159482288Y-107731484D01*
X159263307Y-107585166D01*
X159019988Y-107484380D01*
X158761683Y-107433000D01*
X158746606Y-107433000D01*
X162052606Y-104127000D01*
X168346739Y-104127000D01*
X168352622Y-104141204D01*
G37*
G04 #@! TD.AperFunction*
G04 #@! TD*
D32*
G04 #@! TO.N,Net-(J2-Pad1)*
X171510101Y-43404024D02*
X171312377Y-43881372D01*
X171165000Y-44622285D01*
X171165000Y-45377715D01*
X171312377Y-46118628D01*
X171601467Y-46816554D01*
X172021161Y-47444670D01*
X172555330Y-47978839D01*
X173183446Y-48398533D01*
X173881372Y-48687623D01*
X174622285Y-48835000D01*
X175377715Y-48835000D01*
X175942325Y-48722692D01*
X176365000Y-49229902D01*
X176365000Y-69873000D01*
X161213256Y-69873000D01*
X160558657Y-69435611D01*
X159806135Y-69123906D01*
X159007262Y-68965000D01*
X158192738Y-68965000D01*
X157393865Y-69123906D01*
X156641343Y-69435611D01*
X155986744Y-69873000D01*
X136466609Y-69873000D01*
X136301898Y-69804774D01*
X136101939Y-69765000D01*
X135898061Y-69765000D01*
X135698102Y-69804774D01*
X135533391Y-69873000D01*
X132627000Y-69873000D01*
X132627000Y-43250000D01*
X138561928Y-43250000D01*
X138561928Y-47750000D01*
X138574188Y-47874482D01*
X138610498Y-47994180D01*
X138669463Y-48104494D01*
X138748815Y-48201185D01*
X138845506Y-48280537D01*
X138955820Y-48339502D01*
X139075518Y-48375812D01*
X139200000Y-48388072D01*
X141700000Y-48388072D01*
X141824482Y-48375812D01*
X141944180Y-48339502D01*
X142054494Y-48280537D01*
X142151185Y-48201185D01*
X142230537Y-48104494D01*
X142289502Y-47994180D01*
X142325812Y-47874482D01*
X142338072Y-47750000D01*
X142338072Y-46492738D01*
X154465000Y-46492738D01*
X154465000Y-47307262D01*
X154623906Y-48106135D01*
X154935611Y-48858657D01*
X155388136Y-49535909D01*
X155964091Y-50111864D01*
X156641343Y-50564389D01*
X157393865Y-50876094D01*
X158192738Y-51035000D01*
X159007262Y-51035000D01*
X159806135Y-50876094D01*
X160558657Y-50564389D01*
X161235909Y-50111864D01*
X161811864Y-49535909D01*
X162264389Y-48858657D01*
X162576094Y-48106135D01*
X162735000Y-47307262D01*
X162735000Y-46492738D01*
X162576094Y-45693865D01*
X162264389Y-44941343D01*
X161811864Y-44264091D01*
X161235909Y-43688136D01*
X160558657Y-43235611D01*
X159806135Y-42923906D01*
X159007262Y-42765000D01*
X158192738Y-42765000D01*
X157393865Y-42923906D01*
X156641343Y-43235611D01*
X155964091Y-43688136D01*
X155388136Y-44264091D01*
X154935611Y-44941343D01*
X154623906Y-45693865D01*
X154465000Y-46492738D01*
X142338072Y-46492738D01*
X142338072Y-43250000D01*
X142325812Y-43125518D01*
X142289502Y-43005820D01*
X142230537Y-42895506D01*
X142151185Y-42798815D01*
X142054494Y-42719463D01*
X141944180Y-42660498D01*
X141824482Y-42624188D01*
X141700000Y-42611928D01*
X139200000Y-42611928D01*
X139075518Y-42624188D01*
X138955820Y-42660498D01*
X138845506Y-42719463D01*
X138748815Y-42798815D01*
X138669463Y-42895506D01*
X138610498Y-43005820D01*
X138574188Y-43125518D01*
X138561928Y-43250000D01*
X132627000Y-43250000D01*
X132627000Y-42435000D01*
X170702581Y-42435000D01*
X171510101Y-43404024D01*
G04 #@! TA.AperFunction,Conductor*
D33*
G36*
X171510101Y-43404024D02*
G01*
X171312377Y-43881372D01*
X171165000Y-44622285D01*
X171165000Y-45377715D01*
X171312377Y-46118628D01*
X171601467Y-46816554D01*
X172021161Y-47444670D01*
X172555330Y-47978839D01*
X173183446Y-48398533D01*
X173881372Y-48687623D01*
X174622285Y-48835000D01*
X175377715Y-48835000D01*
X175942325Y-48722692D01*
X176365000Y-49229902D01*
X176365000Y-69873000D01*
X161213256Y-69873000D01*
X160558657Y-69435611D01*
X159806135Y-69123906D01*
X159007262Y-68965000D01*
X158192738Y-68965000D01*
X157393865Y-69123906D01*
X156641343Y-69435611D01*
X155986744Y-69873000D01*
X136466609Y-69873000D01*
X136301898Y-69804774D01*
X136101939Y-69765000D01*
X135898061Y-69765000D01*
X135698102Y-69804774D01*
X135533391Y-69873000D01*
X132627000Y-69873000D01*
X132627000Y-43250000D01*
X138561928Y-43250000D01*
X138561928Y-47750000D01*
X138574188Y-47874482D01*
X138610498Y-47994180D01*
X138669463Y-48104494D01*
X138748815Y-48201185D01*
X138845506Y-48280537D01*
X138955820Y-48339502D01*
X139075518Y-48375812D01*
X139200000Y-48388072D01*
X141700000Y-48388072D01*
X141824482Y-48375812D01*
X141944180Y-48339502D01*
X142054494Y-48280537D01*
X142151185Y-48201185D01*
X142230537Y-48104494D01*
X142289502Y-47994180D01*
X142325812Y-47874482D01*
X142338072Y-47750000D01*
X142338072Y-46492738D01*
X154465000Y-46492738D01*
X154465000Y-47307262D01*
X154623906Y-48106135D01*
X154935611Y-48858657D01*
X155388136Y-49535909D01*
X155964091Y-50111864D01*
X156641343Y-50564389D01*
X157393865Y-50876094D01*
X158192738Y-51035000D01*
X159007262Y-51035000D01*
X159806135Y-50876094D01*
X160558657Y-50564389D01*
X161235909Y-50111864D01*
X161811864Y-49535909D01*
X162264389Y-48858657D01*
X162576094Y-48106135D01*
X162735000Y-47307262D01*
X162735000Y-46492738D01*
X162576094Y-45693865D01*
X162264389Y-44941343D01*
X161811864Y-44264091D01*
X161235909Y-43688136D01*
X160558657Y-43235611D01*
X159806135Y-42923906D01*
X159007262Y-42765000D01*
X158192738Y-42765000D01*
X157393865Y-42923906D01*
X156641343Y-43235611D01*
X155964091Y-43688136D01*
X155388136Y-44264091D01*
X154935611Y-44941343D01*
X154623906Y-45693865D01*
X154465000Y-46492738D01*
X142338072Y-46492738D01*
X142338072Y-43250000D01*
X142325812Y-43125518D01*
X142289502Y-43005820D01*
X142230537Y-42895506D01*
X142151185Y-42798815D01*
X142054494Y-42719463D01*
X141944180Y-42660498D01*
X141824482Y-42624188D01*
X141700000Y-42611928D01*
X139200000Y-42611928D01*
X139075518Y-42624188D01*
X138955820Y-42660498D01*
X138845506Y-42719463D01*
X138748815Y-42798815D01*
X138669463Y-42895506D01*
X138610498Y-43005820D01*
X138574188Y-43125518D01*
X138561928Y-43250000D01*
X132627000Y-43250000D01*
X132627000Y-42435000D01*
X170702581Y-42435000D01*
X171510101Y-43404024D01*
G37*
G04 #@! TD.AperFunction*
G04 #@! TD*
D32*
G04 #@! TO.N,Net-(Q1-Pad3)*
X131865000Y-69873000D02*
X116727000Y-69873000D01*
X116727000Y-42435000D01*
X131865000Y-42435000D01*
X131865000Y-69873000D01*
G04 #@! TA.AperFunction,Conductor*
D33*
G36*
X131865000Y-69873000D02*
G01*
X116727000Y-69873000D01*
X116727000Y-42435000D01*
X131865000Y-42435000D01*
X131865000Y-69873000D01*
G37*
G04 #@! TD.AperFunction*
G04 #@! TD*
D32*
G04 #@! TO.N,Net-(Q2-Pad1)*
X115573000Y-69873000D02*
X114013256Y-69873000D01*
X113358657Y-69435611D01*
X112606135Y-69123906D01*
X111807262Y-68965000D01*
X110992738Y-68965000D01*
X110193865Y-69123906D01*
X109627000Y-69358709D01*
X109627000Y-50641291D01*
X110193865Y-50876094D01*
X110992738Y-51035000D01*
X111807262Y-51035000D01*
X112606135Y-50876094D01*
X113358657Y-50564389D01*
X114035909Y-50111864D01*
X114611864Y-49535909D01*
X115064389Y-48858657D01*
X115376094Y-48106135D01*
X115535000Y-47307262D01*
X115535000Y-46492738D01*
X115376094Y-45693865D01*
X115064389Y-44941343D01*
X114611864Y-44264091D01*
X114035909Y-43688136D01*
X113358657Y-43235611D01*
X112606135Y-42923906D01*
X111807262Y-42765000D01*
X110992738Y-42765000D01*
X110193865Y-42923906D01*
X109627000Y-43158709D01*
X109627000Y-42435000D01*
X115573000Y-42435000D01*
X115573000Y-69873000D01*
G04 #@! TA.AperFunction,Conductor*
D33*
G36*
X115573000Y-69873000D02*
G01*
X114013256Y-69873000D01*
X113358657Y-69435611D01*
X112606135Y-69123906D01*
X111807262Y-68965000D01*
X110992738Y-68965000D01*
X110193865Y-69123906D01*
X109627000Y-69358709D01*
X109627000Y-50641291D01*
X110193865Y-50876094D01*
X110992738Y-51035000D01*
X111807262Y-51035000D01*
X112606135Y-50876094D01*
X113358657Y-50564389D01*
X114035909Y-50111864D01*
X114611864Y-49535909D01*
X115064389Y-48858657D01*
X115376094Y-48106135D01*
X115535000Y-47307262D01*
X115535000Y-46492738D01*
X115376094Y-45693865D01*
X115064389Y-44941343D01*
X114611864Y-44264091D01*
X114035909Y-43688136D01*
X113358657Y-43235611D01*
X112606135Y-42923906D01*
X111807262Y-42765000D01*
X110992738Y-42765000D01*
X110193865Y-42923906D01*
X109627000Y-43158709D01*
X109627000Y-42435000D01*
X115573000Y-42435000D01*
X115573000Y-69873000D01*
G37*
G04 #@! TD.AperFunction*
G04 #@! TD*
D32*
G04 #@! TO.N,GND*
X107123000Y-69873000D02*
X93635000Y-69873000D01*
X93635000Y-49229902D01*
X94057675Y-48722692D01*
X94622285Y-48835000D01*
X95377715Y-48835000D01*
X96118628Y-48687623D01*
X96816554Y-48398533D01*
X97444670Y-47978839D01*
X97978839Y-47444670D01*
X98398533Y-46816554D01*
X98687623Y-46118628D01*
X98835000Y-45377715D01*
X98835000Y-44622285D01*
X98687623Y-43881372D01*
X98489899Y-43404024D01*
X99297419Y-42435000D01*
X107123000Y-42435000D01*
X107123000Y-69873000D01*
G04 #@! TA.AperFunction,Conductor*
D33*
G36*
X107123000Y-69873000D02*
G01*
X93635000Y-69873000D01*
X93635000Y-49229902D01*
X94057675Y-48722692D01*
X94622285Y-48835000D01*
X95377715Y-48835000D01*
X96118628Y-48687623D01*
X96816554Y-48398533D01*
X97444670Y-47978839D01*
X97978839Y-47444670D01*
X98398533Y-46816554D01*
X98687623Y-46118628D01*
X98835000Y-45377715D01*
X98835000Y-44622285D01*
X98687623Y-43881372D01*
X98489899Y-43404024D01*
X99297419Y-42435000D01*
X107123000Y-42435000D01*
X107123000Y-69873000D01*
G37*
G04 #@! TD.AperFunction*
G04 #@! TD*
D32*
G04 #@! TO.N,Earth*
X179315000Y-49966353D02*
X179315000Y-69873000D01*
X177127000Y-69873000D01*
X177127000Y-64478072D01*
X177810000Y-64478072D01*
X177934482Y-64465812D01*
X178054180Y-64429502D01*
X178164494Y-64370537D01*
X178261185Y-64291185D01*
X178340537Y-64194494D01*
X178399502Y-64084180D01*
X178435812Y-63964482D01*
X178448072Y-63840000D01*
X178448072Y-61240000D01*
X178435812Y-61115518D01*
X178399502Y-60995820D01*
X178340537Y-60885506D01*
X178261185Y-60788815D01*
X178164494Y-60709463D01*
X178054180Y-60650498D01*
X177934482Y-60614188D01*
X177810000Y-60601928D01*
X177127000Y-60601928D01*
X177127000Y-56858072D01*
X177810000Y-56858072D01*
X177934482Y-56845812D01*
X178054180Y-56809502D01*
X178164494Y-56750537D01*
X178261185Y-56671185D01*
X178340537Y-56574494D01*
X178399502Y-56464180D01*
X178435812Y-56344482D01*
X178448072Y-56220000D01*
X178448072Y-53620000D01*
X178435812Y-53495518D01*
X178399502Y-53375820D01*
X178340537Y-53265506D01*
X178261185Y-53168815D01*
X178164494Y-53089463D01*
X178054180Y-53030498D01*
X177934482Y-52994188D01*
X177810000Y-52981928D01*
X177127000Y-52981928D01*
X177127000Y-49000000D01*
X177124560Y-48975224D01*
X177117333Y-48951399D01*
X177105597Y-48929443D01*
X177097564Y-48918697D01*
X171097564Y-41718697D01*
X171079828Y-41701225D01*
X171059024Y-41687549D01*
X171035952Y-41678195D01*
X171000000Y-41673000D01*
X99000000Y-41673000D01*
X98975224Y-41675440D01*
X98951399Y-41682667D01*
X98929443Y-41694403D01*
X98902436Y-41718697D01*
X92902436Y-48918697D01*
X92888449Y-48939293D01*
X92878749Y-48962222D01*
X92873709Y-48986602D01*
X92873000Y-49000000D01*
X92873000Y-52981928D01*
X92190000Y-52981928D01*
X92065518Y-52994188D01*
X91945820Y-53030498D01*
X91835506Y-53089463D01*
X91738815Y-53168815D01*
X91659463Y-53265506D01*
X91600498Y-53375820D01*
X91564188Y-53495518D01*
X91551928Y-53620000D01*
X91551928Y-56220000D01*
X91564188Y-56344482D01*
X91600498Y-56464180D01*
X91659463Y-56574494D01*
X91738815Y-56671185D01*
X91835506Y-56750537D01*
X91945820Y-56809502D01*
X92065518Y-56845812D01*
X92190000Y-56858072D01*
X92873000Y-56858072D01*
X92873000Y-60601928D01*
X92190000Y-60601928D01*
X92065518Y-60614188D01*
X91945820Y-60650498D01*
X91835506Y-60709463D01*
X91738815Y-60788815D01*
X91659463Y-60885506D01*
X91600498Y-60995820D01*
X91564188Y-61115518D01*
X91551928Y-61240000D01*
X91551928Y-63840000D01*
X91564188Y-63964482D01*
X91600498Y-64084180D01*
X91659463Y-64194494D01*
X91738815Y-64291185D01*
X91835506Y-64370537D01*
X91945820Y-64429502D01*
X92065518Y-64465812D01*
X92190000Y-64478072D01*
X92873000Y-64478072D01*
X92873000Y-111000000D01*
X92875440Y-111024776D01*
X92882667Y-111048601D01*
X92894403Y-111070557D01*
X92910197Y-111089803D01*
X98910197Y-117089803D01*
X98929443Y-117105597D01*
X98951399Y-117117333D01*
X98975224Y-117124560D01*
X99000000Y-117127000D01*
X114407346Y-117127000D01*
X114496063Y-117259774D01*
X114640226Y-117403937D01*
X114809744Y-117517205D01*
X114998102Y-117595226D01*
X115198061Y-117635000D01*
X115401939Y-117635000D01*
X115601898Y-117595226D01*
X115790256Y-117517205D01*
X115850000Y-117477285D01*
X115909744Y-117517205D01*
X116098102Y-117595226D01*
X116298061Y-117635000D01*
X116501939Y-117635000D01*
X116701898Y-117595226D01*
X116890256Y-117517205D01*
X117059774Y-117403937D01*
X117203937Y-117259774D01*
X117292654Y-117127000D01*
X132275647Y-117127000D01*
X132204774Y-117298102D01*
X132165000Y-117498061D01*
X132165000Y-117701939D01*
X132204774Y-117901898D01*
X132282795Y-118090256D01*
X132396063Y-118259774D01*
X132540226Y-118403937D01*
X132709744Y-118517205D01*
X132898102Y-118595226D01*
X133098061Y-118635000D01*
X133301939Y-118635000D01*
X133501898Y-118595226D01*
X133690256Y-118517205D01*
X133859774Y-118403937D01*
X134003937Y-118259774D01*
X134117205Y-118090256D01*
X134195226Y-117901898D01*
X134235000Y-117701939D01*
X134235000Y-117498061D01*
X134195226Y-117298102D01*
X134124353Y-117127000D01*
X136757842Y-117127000D01*
X136798061Y-117135000D01*
X137001939Y-117135000D01*
X137042158Y-117127000D01*
X141174152Y-117127000D01*
X141196051Y-117159774D01*
X141340214Y-117303937D01*
X141509732Y-117417205D01*
X141698090Y-117495226D01*
X141789160Y-117513341D01*
X141842061Y-117641055D01*
X141955329Y-117810573D01*
X142099492Y-117954736D01*
X142269010Y-118068004D01*
X142457368Y-118146025D01*
X142657327Y-118185799D01*
X142861205Y-118185799D01*
X143061164Y-118146025D01*
X143249522Y-118068004D01*
X143419040Y-117954736D01*
X143563203Y-117810573D01*
X143676471Y-117641055D01*
X143754492Y-117452697D01*
X143794266Y-117252738D01*
X143794266Y-117127000D01*
X152665000Y-117127000D01*
X152665000Y-117301939D01*
X152704774Y-117501898D01*
X152782795Y-117690256D01*
X152896063Y-117859774D01*
X153040226Y-118003937D01*
X153209744Y-118117205D01*
X153398102Y-118195226D01*
X153598061Y-118235000D01*
X153801939Y-118235000D01*
X154001898Y-118195226D01*
X154190256Y-118117205D01*
X154359774Y-118003937D01*
X154498247Y-117865464D01*
X154514604Y-117885396D01*
X154554097Y-117917807D01*
X154834823Y-118198533D01*
X154846324Y-118236447D01*
X154951716Y-118433623D01*
X155093551Y-118606449D01*
X155266377Y-118748284D01*
X155463553Y-118853676D01*
X155677501Y-118918577D01*
X155844248Y-118935000D01*
X159644249Y-118935000D01*
X159700000Y-118940491D01*
X159755751Y-118935000D01*
X159755752Y-118935000D01*
X159922499Y-118918577D01*
X160136447Y-118853676D01*
X160333623Y-118748284D01*
X160506449Y-118606449D01*
X160541996Y-118563135D01*
X160720131Y-118385000D01*
X164694249Y-118385000D01*
X164750000Y-118390491D01*
X164805751Y-118385000D01*
X164805752Y-118385000D01*
X164972499Y-118368577D01*
X165186447Y-118303676D01*
X165383623Y-118198284D01*
X165556449Y-118056449D01*
X165591996Y-118013135D01*
X165676528Y-117928603D01*
X165888354Y-117864346D01*
X166120274Y-117740382D01*
X166272616Y-117615358D01*
X166740358Y-117147616D01*
X166757277Y-117127000D01*
X171000000Y-117127000D01*
X171024776Y-117124560D01*
X171048601Y-117117333D01*
X171070557Y-117105597D01*
X171087657Y-117091898D01*
X177587657Y-110891898D01*
X177603901Y-110873031D01*
X177616152Y-110851358D01*
X177623940Y-110827711D01*
X177627000Y-110800000D01*
X177627000Y-109325651D01*
X177695620Y-109159988D01*
X177747000Y-108901683D01*
X177747000Y-108638317D01*
X177695620Y-108380012D01*
X177627000Y-108214349D01*
X177627000Y-94085651D01*
X177695620Y-93919988D01*
X177747000Y-93661683D01*
X177747000Y-93398317D01*
X177695620Y-93140012D01*
X177627000Y-92974349D01*
X177627000Y-70937566D01*
X179315000Y-71072606D01*
X179315001Y-119315000D01*
X90685000Y-119315000D01*
X90685000Y-40685000D01*
X179315001Y-40685000D01*
X179315000Y-49966353D01*
G04 #@! TA.AperFunction,Conductor*
D33*
G36*
X179315000Y-49966353D02*
G01*
X179315000Y-69873000D01*
X177127000Y-69873000D01*
X177127000Y-64478072D01*
X177810000Y-64478072D01*
X177934482Y-64465812D01*
X178054180Y-64429502D01*
X178164494Y-64370537D01*
X178261185Y-64291185D01*
X178340537Y-64194494D01*
X178399502Y-64084180D01*
X178435812Y-63964482D01*
X178448072Y-63840000D01*
X178448072Y-61240000D01*
X178435812Y-61115518D01*
X178399502Y-60995820D01*
X178340537Y-60885506D01*
X178261185Y-60788815D01*
X178164494Y-60709463D01*
X178054180Y-60650498D01*
X177934482Y-60614188D01*
X177810000Y-60601928D01*
X177127000Y-60601928D01*
X177127000Y-56858072D01*
X177810000Y-56858072D01*
X177934482Y-56845812D01*
X178054180Y-56809502D01*
X178164494Y-56750537D01*
X178261185Y-56671185D01*
X178340537Y-56574494D01*
X178399502Y-56464180D01*
X178435812Y-56344482D01*
X178448072Y-56220000D01*
X178448072Y-53620000D01*
X178435812Y-53495518D01*
X178399502Y-53375820D01*
X178340537Y-53265506D01*
X178261185Y-53168815D01*
X178164494Y-53089463D01*
X178054180Y-53030498D01*
X177934482Y-52994188D01*
X177810000Y-52981928D01*
X177127000Y-52981928D01*
X177127000Y-49000000D01*
X177124560Y-48975224D01*
X177117333Y-48951399D01*
X177105597Y-48929443D01*
X177097564Y-48918697D01*
X171097564Y-41718697D01*
X171079828Y-41701225D01*
X171059024Y-41687549D01*
X171035952Y-41678195D01*
X171000000Y-41673000D01*
X99000000Y-41673000D01*
X98975224Y-41675440D01*
X98951399Y-41682667D01*
X98929443Y-41694403D01*
X98902436Y-41718697D01*
X92902436Y-48918697D01*
X92888449Y-48939293D01*
X92878749Y-48962222D01*
X92873709Y-48986602D01*
X92873000Y-49000000D01*
X92873000Y-52981928D01*
X92190000Y-52981928D01*
X92065518Y-52994188D01*
X91945820Y-53030498D01*
X91835506Y-53089463D01*
X91738815Y-53168815D01*
X91659463Y-53265506D01*
X91600498Y-53375820D01*
X91564188Y-53495518D01*
X91551928Y-53620000D01*
X91551928Y-56220000D01*
X91564188Y-56344482D01*
X91600498Y-56464180D01*
X91659463Y-56574494D01*
X91738815Y-56671185D01*
X91835506Y-56750537D01*
X91945820Y-56809502D01*
X92065518Y-56845812D01*
X92190000Y-56858072D01*
X92873000Y-56858072D01*
X92873000Y-60601928D01*
X92190000Y-60601928D01*
X92065518Y-60614188D01*
X91945820Y-60650498D01*
X91835506Y-60709463D01*
X91738815Y-60788815D01*
X91659463Y-60885506D01*
X91600498Y-60995820D01*
X91564188Y-61115518D01*
X91551928Y-61240000D01*
X91551928Y-63840000D01*
X91564188Y-63964482D01*
X91600498Y-64084180D01*
X91659463Y-64194494D01*
X91738815Y-64291185D01*
X91835506Y-64370537D01*
X91945820Y-64429502D01*
X92065518Y-64465812D01*
X92190000Y-64478072D01*
X92873000Y-64478072D01*
X92873000Y-111000000D01*
X92875440Y-111024776D01*
X92882667Y-111048601D01*
X92894403Y-111070557D01*
X92910197Y-111089803D01*
X98910197Y-117089803D01*
X98929443Y-117105597D01*
X98951399Y-117117333D01*
X98975224Y-117124560D01*
X99000000Y-117127000D01*
X114407346Y-117127000D01*
X114496063Y-117259774D01*
X114640226Y-117403937D01*
X114809744Y-117517205D01*
X114998102Y-117595226D01*
X115198061Y-117635000D01*
X115401939Y-117635000D01*
X115601898Y-117595226D01*
X115790256Y-117517205D01*
X115850000Y-117477285D01*
X115909744Y-117517205D01*
X116098102Y-117595226D01*
X116298061Y-117635000D01*
X116501939Y-117635000D01*
X116701898Y-117595226D01*
X116890256Y-117517205D01*
X117059774Y-117403937D01*
X117203937Y-117259774D01*
X117292654Y-117127000D01*
X132275647Y-117127000D01*
X132204774Y-117298102D01*
X132165000Y-117498061D01*
X132165000Y-117701939D01*
X132204774Y-117901898D01*
X132282795Y-118090256D01*
X132396063Y-118259774D01*
X132540226Y-118403937D01*
X132709744Y-118517205D01*
X132898102Y-118595226D01*
X133098061Y-118635000D01*
X133301939Y-118635000D01*
X133501898Y-118595226D01*
X133690256Y-118517205D01*
X133859774Y-118403937D01*
X134003937Y-118259774D01*
X134117205Y-118090256D01*
X134195226Y-117901898D01*
X134235000Y-117701939D01*
X134235000Y-117498061D01*
X134195226Y-117298102D01*
X134124353Y-117127000D01*
X136757842Y-117127000D01*
X136798061Y-117135000D01*
X137001939Y-117135000D01*
X137042158Y-117127000D01*
X141174152Y-117127000D01*
X141196051Y-117159774D01*
X141340214Y-117303937D01*
X141509732Y-117417205D01*
X141698090Y-117495226D01*
X141789160Y-117513341D01*
X141842061Y-117641055D01*
X141955329Y-117810573D01*
X142099492Y-117954736D01*
X142269010Y-118068004D01*
X142457368Y-118146025D01*
X142657327Y-118185799D01*
X142861205Y-118185799D01*
X143061164Y-118146025D01*
X143249522Y-118068004D01*
X143419040Y-117954736D01*
X143563203Y-117810573D01*
X143676471Y-117641055D01*
X143754492Y-117452697D01*
X143794266Y-117252738D01*
X143794266Y-117127000D01*
X152665000Y-117127000D01*
X152665000Y-117301939D01*
X152704774Y-117501898D01*
X152782795Y-117690256D01*
X152896063Y-117859774D01*
X153040226Y-118003937D01*
X153209744Y-118117205D01*
X153398102Y-118195226D01*
X153598061Y-118235000D01*
X153801939Y-118235000D01*
X154001898Y-118195226D01*
X154190256Y-118117205D01*
X154359774Y-118003937D01*
X154498247Y-117865464D01*
X154514604Y-117885396D01*
X154554097Y-117917807D01*
X154834823Y-118198533D01*
X154846324Y-118236447D01*
X154951716Y-118433623D01*
X155093551Y-118606449D01*
X155266377Y-118748284D01*
X155463553Y-118853676D01*
X155677501Y-118918577D01*
X155844248Y-118935000D01*
X159644249Y-118935000D01*
X159700000Y-118940491D01*
X159755751Y-118935000D01*
X159755752Y-118935000D01*
X159922499Y-118918577D01*
X160136447Y-118853676D01*
X160333623Y-118748284D01*
X160506449Y-118606449D01*
X160541996Y-118563135D01*
X160720131Y-118385000D01*
X164694249Y-118385000D01*
X164750000Y-118390491D01*
X164805751Y-118385000D01*
X164805752Y-118385000D01*
X164972499Y-118368577D01*
X165186447Y-118303676D01*
X165383623Y-118198284D01*
X165556449Y-118056449D01*
X165591996Y-118013135D01*
X165676528Y-117928603D01*
X165888354Y-117864346D01*
X166120274Y-117740382D01*
X166272616Y-117615358D01*
X166740358Y-117147616D01*
X166757277Y-117127000D01*
X171000000Y-117127000D01*
X171024776Y-117124560D01*
X171048601Y-117117333D01*
X171070557Y-117105597D01*
X171087657Y-117091898D01*
X177587657Y-110891898D01*
X177603901Y-110873031D01*
X177616152Y-110851358D01*
X177623940Y-110827711D01*
X177627000Y-110800000D01*
X177627000Y-109325651D01*
X177695620Y-109159988D01*
X177747000Y-108901683D01*
X177747000Y-108638317D01*
X177695620Y-108380012D01*
X177627000Y-108214349D01*
X177627000Y-94085651D01*
X177695620Y-93919988D01*
X177747000Y-93661683D01*
X177747000Y-93398317D01*
X177695620Y-93140012D01*
X177627000Y-92974349D01*
X177627000Y-70937566D01*
X179315000Y-71072606D01*
X179315001Y-119315000D01*
X90685000Y-119315000D01*
X90685000Y-40685000D01*
X179315001Y-40685000D01*
X179315000Y-49966353D01*
G37*
G04 #@! TD.AperFunction*
G04 #@! TD*
M02*
