%FSLAX45Y45*%
G04 Gerber Fmt 4.5, Leading zero omitted, Abs format (unit mm)*
G04 Created by KiCad (PCBNEW 5.1.7-a382d34a8~87~ubuntu18.04.1) date 2021-02-18 22:44:35*
%MOMM*%
%LPD*%
G01*
G04 APERTURE LIST*
%TA.AperFunction,Profile*%
%ADD10C,0.100000*%
%TD*%
%ADD11C,0.200000*%
%ADD12C,0.300000*%
G04 APERTURE END LIST*
D10*
X9000000Y-4000000D02*
X9000000Y-5000000D01*
X18000000Y-4000000D02*
X9000000Y-4000000D01*
X18000000Y-5000000D02*
X18000000Y-4000000D01*
X9000000Y-12000000D02*
X9000000Y-5000000D01*
X18000000Y-12000000D02*
X9000000Y-12000000D01*
X18000000Y-5000000D02*
X18000000Y-12000000D01*
D11*
D12*
X9036429Y-12715714D02*
X9036429Y-12415714D01*
X9107857Y-12415714D01*
X9150714Y-12430000D01*
X9179286Y-12458571D01*
X9193571Y-12487143D01*
X9207857Y-12544286D01*
X9207857Y-12587143D01*
X9193571Y-12644286D01*
X9179286Y-12672857D01*
X9150714Y-12701428D01*
X9107857Y-12715714D01*
X9036429Y-12715714D01*
X9336429Y-12715714D02*
X9336429Y-12515714D01*
X9336429Y-12572857D02*
X9350714Y-12544286D01*
X9365000Y-12530000D01*
X9393571Y-12515714D01*
X9422143Y-12515714D01*
X9522143Y-12715714D02*
X9522143Y-12515714D01*
X9522143Y-12415714D02*
X9507857Y-12430000D01*
X9522143Y-12444286D01*
X9536429Y-12430000D01*
X9522143Y-12415714D01*
X9522143Y-12444286D01*
X9707857Y-12715714D02*
X9679286Y-12701428D01*
X9665000Y-12672857D01*
X9665000Y-12415714D01*
X9865000Y-12715714D02*
X9836429Y-12701428D01*
X9822143Y-12672857D01*
X9822143Y-12415714D01*
X10207857Y-12715714D02*
X10207857Y-12415714D01*
X10307857Y-12630000D01*
X10407857Y-12415714D01*
X10407857Y-12715714D01*
X10679286Y-12715714D02*
X10679286Y-12558571D01*
X10665000Y-12530000D01*
X10636429Y-12515714D01*
X10579286Y-12515714D01*
X10550714Y-12530000D01*
X10679286Y-12701428D02*
X10650714Y-12715714D01*
X10579286Y-12715714D01*
X10550714Y-12701428D01*
X10536429Y-12672857D01*
X10536429Y-12644286D01*
X10550714Y-12615714D01*
X10579286Y-12601428D01*
X10650714Y-12601428D01*
X10679286Y-12587143D01*
X10822143Y-12515714D02*
X10822143Y-12815714D01*
X10822143Y-12530000D02*
X10850714Y-12515714D01*
X10907857Y-12515714D01*
X10936429Y-12530000D01*
X10950714Y-12544286D01*
X10965000Y-12572857D01*
X10965000Y-12658571D01*
X10950714Y-12687143D01*
X10936429Y-12701428D01*
X10907857Y-12715714D01*
X10850714Y-12715714D01*
X10822143Y-12701428D01*
X11093571Y-12687143D02*
X11107857Y-12701428D01*
X11093571Y-12715714D01*
X11079286Y-12701428D01*
X11093571Y-12687143D01*
X11093571Y-12715714D01*
X11093571Y-12530000D02*
X11107857Y-12544286D01*
X11093571Y-12558571D01*
X11079286Y-12544286D01*
X11093571Y-12530000D01*
X11093571Y-12558571D01*
M02*
