G04 #@! TF.GenerationSoftware,KiCad,Pcbnew,5.1.7-a382d34a8~87~ubuntu18.04.1*
G04 #@! TF.CreationDate,2021-02-18T22:44:55+00:00*
G04 #@! TF.ProjectId,Laser-Driver-v3,4c617365-722d-4447-9269-7665722d7633,rev?*
G04 #@! TF.SameCoordinates,Original*
G04 #@! TF.FileFunction,Copper,L2,Inr*
G04 #@! TF.FilePolarity,Positive*
%FSLAX46Y46*%
G04 Gerber Fmt 4.6, Leading zero omitted, Abs format (unit mm)*
G04 Created by KiCad (PCBNEW 5.1.7-a382d34a8~87~ubuntu18.04.1) date 2021-02-18 22:44:55*
%MOMM*%
%LPD*%
G01*
G04 APERTURE LIST*
G04 #@! TA.AperFunction,ComponentPad*
%ADD10C,7.000000*%
G04 #@! TD*
G04 #@! TA.AperFunction,ComponentPad*
%ADD11C,0.800000*%
G04 #@! TD*
G04 #@! TA.AperFunction,ComponentPad*
%ADD12C,6.400000*%
G04 #@! TD*
G04 #@! TA.AperFunction,ComponentPad*
%ADD13C,1.404000*%
G04 #@! TD*
G04 #@! TA.AperFunction,ComponentPad*
%ADD14C,1.304000*%
G04 #@! TD*
G04 #@! TA.AperFunction,ComponentPad*
%ADD15C,0.804000*%
G04 #@! TD*
G04 #@! TA.AperFunction,ComponentPad*
%ADD16R,2.000000X2.600000*%
G04 #@! TD*
G04 #@! TA.AperFunction,ComponentPad*
%ADD17R,1.800000X4.400000*%
G04 #@! TD*
G04 #@! TA.AperFunction,ComponentPad*
%ADD18O,1.800000X4.000000*%
G04 #@! TD*
G04 #@! TA.AperFunction,ComponentPad*
%ADD19O,4.000000X1.800000*%
G04 #@! TD*
G04 #@! TA.AperFunction,ComponentPad*
%ADD20O,2.500000X4.500000*%
G04 #@! TD*
G04 #@! TA.AperFunction,ComponentPad*
%ADD21R,2.500000X4.500000*%
G04 #@! TD*
G04 #@! TA.AperFunction,ComponentPad*
%ADD22C,3.000000*%
G04 #@! TD*
G04 #@! TA.AperFunction,ComponentPad*
%ADD23R,3.000000X3.000000*%
G04 #@! TD*
G04 #@! TA.AperFunction,ViaPad*
%ADD24C,0.800000*%
G04 #@! TD*
G04 #@! TA.AperFunction,Conductor*
%ADD25C,0.400000*%
G04 #@! TD*
G04 #@! TA.AperFunction,Conductor*
%ADD26C,0.800000*%
G04 #@! TD*
G04 #@! TA.AperFunction,Conductor*
%ADD27C,0.300000*%
G04 #@! TD*
G04 #@! TA.AperFunction,Conductor*
%ADD28C,2.400000*%
G04 #@! TD*
G04 #@! TA.AperFunction,Conductor*
%ADD29C,1.400000*%
G04 #@! TD*
G04 #@! TA.AperFunction,Conductor*
%ADD30C,0.254000*%
G04 #@! TD*
G04 #@! TA.AperFunction,Conductor*
%ADD31C,0.100000*%
G04 #@! TD*
G04 APERTURE END LIST*
D10*
G04 #@! TO.N,N/C*
G04 #@! TO.C,HS1*
X111400000Y-73100000D03*
X158600000Y-73100000D03*
G04 #@! TO.N,Earth*
X158600000Y-46900000D03*
X111400000Y-46900000D03*
G04 #@! TD*
D11*
G04 #@! TO.N,Earth*
G04 #@! TO.C,H4*
X96697056Y-43302944D03*
X95000000Y-42600000D03*
X93302944Y-43302944D03*
X92600000Y-45000000D03*
X93302944Y-46697056D03*
X95000000Y-47400000D03*
X96697056Y-46697056D03*
X97400000Y-45000000D03*
D12*
X95000000Y-45000000D03*
G04 #@! TD*
D11*
G04 #@! TO.N,Earth*
G04 #@! TO.C,H3*
X176697056Y-43302944D03*
X175000000Y-42600000D03*
X173302944Y-43302944D03*
X172600000Y-45000000D03*
X173302944Y-46697056D03*
X175000000Y-47400000D03*
X176697056Y-46697056D03*
X177400000Y-45000000D03*
D12*
X175000000Y-45000000D03*
G04 #@! TD*
D11*
G04 #@! TO.N,Earth*
G04 #@! TO.C,H2*
X96697056Y-113302944D03*
X95000000Y-112600000D03*
X93302944Y-113302944D03*
X92600000Y-115000000D03*
X93302944Y-116697056D03*
X95000000Y-117400000D03*
X96697056Y-116697056D03*
X97400000Y-115000000D03*
D12*
X95000000Y-115000000D03*
G04 #@! TD*
D11*
G04 #@! TO.N,Earth*
G04 #@! TO.C,H1*
X176697056Y-113302944D03*
X175000000Y-112600000D03*
X173302944Y-113302944D03*
X172600000Y-115000000D03*
X173302944Y-116697056D03*
X175000000Y-117400000D03*
X176697056Y-116697056D03*
X177400000Y-115000000D03*
D12*
X175000000Y-115000000D03*
G04 #@! TD*
D13*
G04 #@! TO.N,GND*
G04 #@! TO.C,U2*
X176410000Y-93530000D03*
G04 #@! TO.N,/Output Stage/DAC-D0*
X173870000Y-93530000D03*
D14*
G04 #@! TO.N,/Teensy/TempSense*
X148470000Y-106230000D03*
G04 #@! TO.N,/Overcurrent Protection/OCControl*
X151010000Y-106230000D03*
G04 #@! TO.N,/Overcurrent Protection/OCStatus*
X148470000Y-103690000D03*
G04 #@! TO.N,Net-(R9-Pad2)*
X151010000Y-103690000D03*
G04 #@! TO.N,N/C*
X148470000Y-101150000D03*
X151010000Y-101150000D03*
X148470000Y-98610000D03*
X151010000Y-98610000D03*
X148470000Y-96070000D03*
X151010000Y-96070000D03*
D15*
X169271600Y-104650000D03*
X169271600Y-103650000D03*
G04 #@! TO.N,GND*
X169271600Y-102650000D03*
G04 #@! TO.N,N/C*
X169271600Y-101650000D03*
G04 #@! TO.N,+3V3*
X169271600Y-100650000D03*
G04 #@! TO.N,N/C*
X169271600Y-99650000D03*
X169271600Y-98650000D03*
X169271600Y-97650000D03*
D14*
X175140000Y-102420000D03*
X175140000Y-99880000D03*
D13*
G04 #@! TO.N,/Output Stage/DAC-D1*
X171330000Y-93530000D03*
G04 #@! TO.N,/Output Stage/DAC-D2*
X168790000Y-93530000D03*
G04 #@! TO.N,/Output Stage/DAC-D3*
X166250000Y-93530000D03*
G04 #@! TO.N,/Output Stage/DAC-D4*
X163710000Y-93530000D03*
G04 #@! TO.N,/Output Stage/DAC-D5*
X161170000Y-93530000D03*
G04 #@! TO.N,/Output Stage/DAC-D6*
X158630000Y-93530000D03*
G04 #@! TO.N,/Output Stage/DAC-D7*
X156090000Y-93530000D03*
G04 #@! TO.N,/Output Stage/DAC-D8*
X153550000Y-93530000D03*
G04 #@! TO.N,/Output Stage/DAC-D9*
X151010000Y-93530000D03*
G04 #@! TO.N,Net-(U2-Pad12)*
X148470000Y-93530000D03*
G04 #@! TO.N,Net-(U2-Pad14)*
X143390000Y-93530000D03*
G04 #@! TO.N,N/C*
X143390000Y-96070000D03*
G04 #@! TO.N,+3V3*
X143390000Y-98610000D03*
G04 #@! TO.N,GND*
X143390000Y-101150000D03*
G04 #@! TO.N,N/C*
X143390000Y-103690000D03*
X143390000Y-106230000D03*
G04 #@! TO.N,Net-(U2-Pad20)*
X143390000Y-108770000D03*
G04 #@! TO.N,/Output Stage/DAC-D10*
X145930000Y-108770000D03*
G04 #@! TO.N,/Output Stage/DAC-D11*
X148470000Y-108770000D03*
G04 #@! TO.N,/Output Stage/DAC-D12*
X151010000Y-108770000D03*
G04 #@! TO.N,/Output Stage/DAC-D13*
X153550000Y-108770000D03*
G04 #@! TO.N,/Output Stage/DAC-CLOCK*
X156090000Y-108770000D03*
G04 #@! TO.N,N/C*
X158630000Y-108770000D03*
X161170000Y-108770000D03*
X163710000Y-108770000D03*
X166250000Y-108770000D03*
X168790000Y-108770000D03*
G04 #@! TO.N,+3V3*
X171330000Y-108770000D03*
G04 #@! TO.N,GND*
X173870000Y-108770000D03*
G04 #@! TO.N,N/C*
X173870000Y-106230000D03*
G04 #@! TO.N,+5V*
X176410000Y-108770000D03*
G04 #@! TO.N,N/C*
X145930000Y-93530000D03*
G04 #@! TD*
D16*
G04 #@! TO.N,GND*
G04 #@! TO.C,J5*
X100810000Y-62540000D03*
X98270000Y-62540000D03*
X95730000Y-62540000D03*
X93190000Y-62540000D03*
X100810000Y-54920000D03*
X98270000Y-54920000D03*
X93190000Y-54920000D03*
X95730000Y-54920000D03*
G04 #@! TD*
G04 #@! TO.N,Net-(J2-Pad1)*
G04 #@! TO.C,J2*
X176810000Y-62540000D03*
X174270000Y-62540000D03*
X171730000Y-62540000D03*
X169190000Y-62540000D03*
X176810000Y-54920000D03*
X174270000Y-54920000D03*
X169190000Y-54920000D03*
X171730000Y-54920000D03*
G04 #@! TD*
D17*
G04 #@! TO.N,+12V*
G04 #@! TO.C,J6*
X105900000Y-82800000D03*
D18*
G04 #@! TO.N,GND*
X100100000Y-82800000D03*
D19*
G04 #@! TO.N,N/C*
X102900000Y-87600000D03*
G04 #@! TD*
D20*
G04 #@! TO.N,Net-(Q1-Pad3)*
G04 #@! TO.C,Q1*
X129550000Y-45500000D03*
G04 #@! TO.N,Net-(J2-Pad1)*
X135000000Y-45500000D03*
D21*
G04 #@! TO.N,/Output Stage/MOSFET-OUT*
X140450000Y-45500000D03*
G04 #@! TD*
D22*
G04 #@! TO.N,/Teensy/TempSense*
G04 #@! TO.C,J1*
X162930000Y-115000000D03*
D23*
G04 #@! TO.N,GND*
X157850000Y-115000000D03*
G04 #@! TD*
D24*
G04 #@! TO.N,GND*
X100200000Y-95300000D03*
X100200000Y-97400000D03*
X94400000Y-101300000D03*
X106900000Y-99300000D03*
X100900000Y-91600000D03*
X104200000Y-90800000D03*
X104300000Y-104400000D03*
X108200000Y-106200000D03*
X114200000Y-105200000D03*
X101100000Y-113500000D03*
X102300000Y-109600000D03*
X118000000Y-112300000D03*
X124400000Y-108100000D03*
X126800000Y-108100000D03*
X118500000Y-108500000D03*
X119500004Y-111500000D03*
X110200000Y-91900000D03*
X133200000Y-117600000D03*
X153700000Y-117200000D03*
X129600000Y-106300000D03*
X123400000Y-88100000D03*
X121600000Y-88200000D03*
X134800000Y-89600000D03*
X111000000Y-99200000D03*
X121100000Y-94100000D03*
X124100000Y-98000000D03*
X166700000Y-113600000D03*
X167100000Y-115300000D03*
X135700000Y-110400000D03*
X134500000Y-102200000D03*
X169800000Y-76900000D03*
X168200000Y-76900000D03*
X162800000Y-78700000D03*
X158900000Y-83000000D03*
X169700000Y-83300000D03*
X167125000Y-80400000D03*
X153600000Y-77500000D03*
X148100000Y-76100000D03*
X145900000Y-79700000D03*
X137500000Y-77300000D03*
X135800000Y-85300000D03*
X121200000Y-81100000D03*
X126800000Y-76600000D03*
X126800000Y-84900000D03*
X144300000Y-89000000D03*
X106500000Y-49000000D03*
X104500000Y-49000000D03*
X103500000Y-50000000D03*
X103500000Y-52000000D03*
X103500000Y-54000000D03*
X103500000Y-56000000D03*
X103500000Y-58000000D03*
X103500000Y-60000000D03*
X103500000Y-62000000D03*
X103500000Y-64000000D03*
X103500000Y-66000000D03*
X103500000Y-68000000D03*
X104500000Y-51000000D03*
X105500000Y-50000000D03*
X105500000Y-68000000D03*
X101500000Y-68000000D03*
X102500000Y-67000000D03*
X102500000Y-59000000D03*
X102500000Y-51000000D03*
X102500000Y-49000000D03*
X101500000Y-66000000D03*
X101500000Y-60000000D03*
X101500000Y-58000000D03*
X101500000Y-52000000D03*
X101500000Y-50000000D03*
X141999988Y-116500000D03*
X129200000Y-75900000D03*
X149200000Y-85050000D03*
X173200000Y-77000000D03*
X173200000Y-75300000D03*
X134600000Y-84900000D03*
G04 #@! TO.N,+9V*
X103100000Y-114700000D03*
X103050000Y-113750000D03*
X114200000Y-106800000D03*
X137300000Y-82600000D03*
G04 #@! TO.N,+12V*
X99100000Y-90100000D03*
X99100000Y-89100000D03*
X102400000Y-107000000D03*
X103325000Y-106975000D03*
X117300000Y-106200000D03*
X148100000Y-77500000D03*
G04 #@! TO.N,+5V*
X125800000Y-115400000D03*
X118000000Y-115400000D03*
X116400000Y-116600000D03*
X138900000Y-112900000D03*
X120000000Y-88200000D03*
X129300000Y-92400000D03*
X130400000Y-89300000D03*
X133700000Y-104200000D03*
X134500000Y-96400000D03*
X120100000Y-83800000D03*
X158500000Y-117800000D03*
X157200000Y-117800000D03*
X155900000Y-117800000D03*
X158500000Y-112600000D03*
X157200000Y-112600000D03*
X155900000Y-112600000D03*
X142759266Y-117150799D03*
X115300000Y-116600000D03*
G04 #@! TO.N,Net-(Q1-Pad3)*
X118200000Y-54900000D03*
X118200000Y-52900000D03*
X118200000Y-50900000D03*
X119200000Y-51900000D03*
X119200000Y-53900000D03*
X120200000Y-54900000D03*
X120200000Y-52900000D03*
X122200000Y-54900000D03*
X121200000Y-53900000D03*
X122200000Y-52900000D03*
X121200000Y-51900000D03*
X120200000Y-50900000D03*
X122200000Y-50900000D03*
X123200000Y-51900000D03*
X123200000Y-53900000D03*
X123200000Y-55900000D03*
X123200000Y-57900000D03*
X123200000Y-59900000D03*
X123200000Y-61900000D03*
X123200000Y-63900000D03*
X122200000Y-62900000D03*
X121200000Y-63900000D03*
X120200000Y-62900000D03*
X119200000Y-61900000D03*
X119200000Y-63900000D03*
X118200000Y-62900000D03*
X120200000Y-64900000D03*
X118200000Y-64900000D03*
X122200000Y-64900000D03*
X124200000Y-64900000D03*
X124200000Y-62900000D03*
X124200000Y-60900000D03*
X124200000Y-58900000D03*
X124200000Y-56900000D03*
X124200000Y-54900000D03*
X124200000Y-52900000D03*
X124200000Y-50900000D03*
X121200000Y-61900000D03*
X122200000Y-56900000D03*
X122200000Y-58900000D03*
X122200000Y-60900000D03*
G04 #@! TO.N,Net-(Q2-Pad1)*
X114500000Y-67000000D03*
X114500000Y-65000000D03*
X114500000Y-63000000D03*
X114500000Y-55000000D03*
X114500000Y-53000000D03*
X113500000Y-52000000D03*
X113500000Y-54000000D03*
X113500000Y-56000000D03*
X113500000Y-58000000D03*
X113500000Y-60000000D03*
X113500000Y-62000000D03*
X113500000Y-64000000D03*
X113500000Y-66000000D03*
X113500000Y-68000000D03*
X111800000Y-68000000D03*
G04 #@! TO.N,/Overcurrent Protection/OCControl*
X132800000Y-95500000D03*
X130300000Y-87600000D03*
G04 #@! TO.N,Net-(R2-Pad2)*
X116600000Y-97600000D03*
X113000000Y-86100000D03*
G04 #@! TO.N,Net-(R31-Pad2)*
X139200000Y-90800000D03*
X137800000Y-104700000D03*
G04 #@! TO.N,+3V3*
X110200000Y-88200000D03*
X142100000Y-98600000D03*
X170500000Y-113200000D03*
X170500000Y-111999990D03*
X168700000Y-115300000D03*
X164400000Y-78700000D03*
X158900000Y-81500000D03*
X145700000Y-87000000D03*
G04 #@! TO.N,/Overcurrent Protection/OCStatus*
X139100000Y-100100000D03*
X137600000Y-91000000D03*
G04 #@! TO.N,/Overcurrent Protection/OCSense*
X122400000Y-93200000D03*
X116500000Y-99200000D03*
G04 #@! TO.N,-3V3*
X102900000Y-100700000D03*
X102925000Y-99875000D03*
X116000000Y-96300000D03*
G04 #@! TO.N,+9V*
X132200000Y-74500000D03*
G04 #@! TO.N,/Output Stage/MOSFET-OUT*
X136000000Y-70800000D03*
G04 #@! TO.N,Net-(U2-Pad20)*
X145100000Y-98300000D03*
G04 #@! TO.N,/Output Stage/DAC-CLOCK*
X166700000Y-84300000D03*
G04 #@! TO.N,/Output Stage/DAC-D10*
X165600000Y-84300000D03*
G04 #@! TO.N,/Output Stage/DAC-D11*
X164400000Y-84500000D03*
G04 #@! TO.N,/Output Stage/DAC-D12*
X163400000Y-84900000D03*
G04 #@! TO.N,/Output Stage/DAC-D13*
X160900000Y-87500000D03*
G04 #@! TO.N,Net-(U12-Pad6)*
X132500000Y-97900000D03*
X136900000Y-116100000D03*
G04 #@! TO.N,/Overcurrent Protection/SET*
X132500000Y-100600000D03*
X122300000Y-91200000D03*
X135700000Y-103900000D03*
G04 #@! TO.N,Net-(Q2-Pad1)*
X110200000Y-68000000D03*
G04 #@! TD*
D25*
G04 #@! TO.N,GND*
X169271600Y-102650000D02*
X170350000Y-102650000D01*
X170350000Y-102650000D02*
X172000000Y-104300000D01*
X172000000Y-106900000D02*
X173870000Y-108770000D01*
X172000000Y-104300000D02*
X172000000Y-106900000D01*
D26*
X133200000Y-112900000D02*
X135700000Y-110400000D01*
X133200000Y-117600000D02*
X133200000Y-112900000D01*
X153700000Y-117200000D02*
X153750000Y-117150000D01*
X153700000Y-117200000D02*
X153700000Y-115300000D01*
X153700000Y-115300000D02*
X154250000Y-114750000D01*
X157600000Y-114750000D02*
X157850000Y-115000000D01*
X154250000Y-114750000D02*
X157600000Y-114750000D01*
X141999988Y-116500000D02*
X141999988Y-115999988D01*
X141999988Y-115999988D02*
X141500000Y-115500000D01*
D27*
G04 #@! TO.N,/Output Stage/MOSFET-OUT*
X136000000Y-70800000D02*
X136000000Y-57600000D01*
X140450000Y-53150000D02*
X140450000Y-45500000D01*
X136000000Y-57600000D02*
X140450000Y-53150000D01*
D28*
G04 #@! TO.N,Earth*
X158600000Y-46900000D02*
X158600000Y-42000000D01*
X111400000Y-46900000D02*
X111400000Y-41800000D01*
D29*
X158600000Y-42000000D02*
X158600000Y-41300000D01*
X111400000Y-41800000D02*
X111400000Y-41200000D01*
G04 #@! TD*
D30*
G04 #@! TO.N,GND*
X107735611Y-71141343D02*
X107423906Y-71893865D01*
X107265000Y-72692738D01*
X107265000Y-73507262D01*
X107423906Y-74306135D01*
X107735611Y-75058657D01*
X108188136Y-75735909D01*
X108764091Y-76311864D01*
X109441343Y-76764389D01*
X110193865Y-77076094D01*
X110992738Y-77235000D01*
X111807262Y-77235000D01*
X112606135Y-77076094D01*
X113358657Y-76764389D01*
X114035909Y-76311864D01*
X114611864Y-75735909D01*
X115064389Y-75058657D01*
X115338016Y-74398061D01*
X131165000Y-74398061D01*
X131165000Y-74601939D01*
X131204774Y-74801898D01*
X131282795Y-74990256D01*
X131396063Y-75159774D01*
X131540226Y-75303937D01*
X131709744Y-75417205D01*
X131898102Y-75495226D01*
X132098061Y-75535000D01*
X132301939Y-75535000D01*
X132501898Y-75495226D01*
X132690256Y-75417205D01*
X132859774Y-75303937D01*
X133003937Y-75159774D01*
X133117205Y-74990256D01*
X133195226Y-74801898D01*
X133235000Y-74601939D01*
X133235000Y-74398061D01*
X133195226Y-74198102D01*
X133117205Y-74009744D01*
X133003937Y-73840226D01*
X132859774Y-73696063D01*
X132690256Y-73582795D01*
X132501898Y-73504774D01*
X132301939Y-73465000D01*
X132098061Y-73465000D01*
X131898102Y-73504774D01*
X131709744Y-73582795D01*
X131540226Y-73696063D01*
X131396063Y-73840226D01*
X131282795Y-74009744D01*
X131204774Y-74198102D01*
X131165000Y-74398061D01*
X115338016Y-74398061D01*
X115376094Y-74306135D01*
X115535000Y-73507262D01*
X115535000Y-72692738D01*
X115376094Y-71893865D01*
X115064389Y-71141343D01*
X115054805Y-71127000D01*
X135015172Y-71127000D01*
X135082795Y-71290256D01*
X135196063Y-71459774D01*
X135340226Y-71603937D01*
X135509744Y-71717205D01*
X135698102Y-71795226D01*
X135898061Y-71835000D01*
X136101939Y-71835000D01*
X136301898Y-71795226D01*
X136490256Y-71717205D01*
X136659774Y-71603937D01*
X136803937Y-71459774D01*
X136917205Y-71290256D01*
X136984828Y-71127000D01*
X154945195Y-71127000D01*
X154935611Y-71141343D01*
X154623906Y-71893865D01*
X154465000Y-72692738D01*
X154465000Y-73507262D01*
X154623906Y-74306135D01*
X154935611Y-75058657D01*
X155388136Y-75735909D01*
X155964091Y-76311864D01*
X156641343Y-76764389D01*
X157393865Y-77076094D01*
X158192738Y-77235000D01*
X159007262Y-77235000D01*
X159806135Y-77076094D01*
X160558657Y-76764389D01*
X161235909Y-76311864D01*
X161811864Y-75735909D01*
X162264389Y-75058657D01*
X162576094Y-74306135D01*
X162735000Y-73507262D01*
X162735000Y-72692738D01*
X162576094Y-71893865D01*
X162264389Y-71141343D01*
X162254805Y-71127000D01*
X176365000Y-71127000D01*
X176365000Y-99474319D01*
X176280524Y-99270377D01*
X176139678Y-99059585D01*
X175960415Y-98880322D01*
X175749623Y-98739476D01*
X175515404Y-98642459D01*
X175266758Y-98593000D01*
X175013242Y-98593000D01*
X174764596Y-98642459D01*
X174530377Y-98739476D01*
X174319585Y-98880322D01*
X174140322Y-99059585D01*
X173999476Y-99270377D01*
X173902459Y-99504596D01*
X173853000Y-99753242D01*
X173853000Y-100006758D01*
X173902459Y-100255404D01*
X173999476Y-100489623D01*
X174140322Y-100700415D01*
X174319585Y-100879678D01*
X174530377Y-101020524D01*
X174764596Y-101117541D01*
X174927778Y-101150000D01*
X174764596Y-101182459D01*
X174530377Y-101279476D01*
X174319585Y-101420322D01*
X174140322Y-101599585D01*
X173999476Y-101810377D01*
X173902459Y-102044596D01*
X173853000Y-102293242D01*
X173853000Y-102546758D01*
X173902459Y-102795404D01*
X173999476Y-103029623D01*
X174140322Y-103240415D01*
X174319585Y-103419678D01*
X174530377Y-103560524D01*
X174764596Y-103657541D01*
X175013242Y-103707000D01*
X175266758Y-103707000D01*
X175515404Y-103657541D01*
X175749623Y-103560524D01*
X175960415Y-103419678D01*
X176139678Y-103240415D01*
X176280524Y-103029623D01*
X176365000Y-102825681D01*
X176365000Y-107433000D01*
X176278317Y-107433000D01*
X176020012Y-107484380D01*
X175776693Y-107585166D01*
X175557712Y-107731484D01*
X175371484Y-107917712D01*
X175225166Y-108136693D01*
X175124380Y-108380012D01*
X175073000Y-108638317D01*
X175073000Y-108901683D01*
X175124380Y-109159988D01*
X175225166Y-109403307D01*
X175371484Y-109622288D01*
X175557712Y-109808516D01*
X175776693Y-109954834D01*
X176020012Y-110055620D01*
X176278317Y-110107000D01*
X176365000Y-110107000D01*
X176365000Y-110736974D01*
X175844187Y-111257787D01*
X175377715Y-111165000D01*
X174622285Y-111165000D01*
X173881372Y-111312377D01*
X173183446Y-111601467D01*
X172555330Y-112021161D01*
X172021161Y-112555330D01*
X171601467Y-113183446D01*
X171518938Y-113382689D01*
X171535000Y-113301939D01*
X171535000Y-113098061D01*
X171495226Y-112898102D01*
X171417205Y-112709744D01*
X171343873Y-112599995D01*
X171417205Y-112490246D01*
X171495226Y-112301888D01*
X171535000Y-112101929D01*
X171535000Y-111898051D01*
X171495226Y-111698092D01*
X171417205Y-111509734D01*
X171303937Y-111340216D01*
X171159774Y-111196053D01*
X170990256Y-111082785D01*
X170801898Y-111004764D01*
X170601939Y-110964990D01*
X170398061Y-110964990D01*
X170198102Y-111004764D01*
X170009744Y-111082785D01*
X169840226Y-111196053D01*
X169696063Y-111340216D01*
X169582795Y-111509734D01*
X169504774Y-111698092D01*
X169465000Y-111898051D01*
X169465000Y-112101929D01*
X169504774Y-112301888D01*
X169582795Y-112490246D01*
X169656127Y-112599995D01*
X169582795Y-112709744D01*
X169504774Y-112898102D01*
X169465000Y-113098061D01*
X169465000Y-113301939D01*
X169504774Y-113501898D01*
X169582795Y-113690256D01*
X169696063Y-113859774D01*
X169840226Y-114003937D01*
X170009744Y-114117205D01*
X170198102Y-114195226D01*
X170398061Y-114235000D01*
X170601939Y-114235000D01*
X170801898Y-114195226D01*
X170990256Y-114117205D01*
X171159774Y-114003937D01*
X171303937Y-113859774D01*
X171349680Y-113791315D01*
X171312377Y-113881372D01*
X171165000Y-114622285D01*
X171165000Y-115377715D01*
X171257787Y-115844187D01*
X170736974Y-116365000D01*
X164584346Y-116365000D01*
X164588363Y-116360983D01*
X164822012Y-116011302D01*
X164982953Y-115622756D01*
X165065000Y-115210279D01*
X165065000Y-115198061D01*
X167665000Y-115198061D01*
X167665000Y-115401939D01*
X167704774Y-115601898D01*
X167782795Y-115790256D01*
X167896063Y-115959774D01*
X168040226Y-116103937D01*
X168209744Y-116217205D01*
X168398102Y-116295226D01*
X168598061Y-116335000D01*
X168801939Y-116335000D01*
X169001898Y-116295226D01*
X169190256Y-116217205D01*
X169359774Y-116103937D01*
X169503937Y-115959774D01*
X169617205Y-115790256D01*
X169695226Y-115601898D01*
X169735000Y-115401939D01*
X169735000Y-115198061D01*
X169695226Y-114998102D01*
X169617205Y-114809744D01*
X169503937Y-114640226D01*
X169359774Y-114496063D01*
X169190256Y-114382795D01*
X169001898Y-114304774D01*
X168801939Y-114265000D01*
X168598061Y-114265000D01*
X168398102Y-114304774D01*
X168209744Y-114382795D01*
X168040226Y-114496063D01*
X167896063Y-114640226D01*
X167782795Y-114809744D01*
X167704774Y-114998102D01*
X167665000Y-115198061D01*
X165065000Y-115198061D01*
X165065000Y-114789721D01*
X164982953Y-114377244D01*
X164822012Y-113988698D01*
X164588363Y-113639017D01*
X164290983Y-113341637D01*
X163941302Y-113107988D01*
X163552756Y-112947047D01*
X163140279Y-112865000D01*
X162719721Y-112865000D01*
X162307244Y-112947047D01*
X161918698Y-113107988D01*
X161569017Y-113341637D01*
X161271637Y-113639017D01*
X161037988Y-113988698D01*
X160877047Y-114377244D01*
X160795000Y-114789721D01*
X160795000Y-115210279D01*
X160877047Y-115622756D01*
X161037988Y-116011302D01*
X161271637Y-116360983D01*
X161275654Y-116365000D01*
X143437178Y-116365000D01*
X143419040Y-116346862D01*
X143249522Y-116233594D01*
X143061164Y-116155573D01*
X142861205Y-116115799D01*
X142657327Y-116115799D01*
X142457368Y-116155573D01*
X142269010Y-116233594D01*
X142099492Y-116346862D01*
X142081354Y-116365000D01*
X137902565Y-116365000D01*
X137935000Y-116201939D01*
X137935000Y-115998061D01*
X137895226Y-115798102D01*
X137817205Y-115609744D01*
X137703937Y-115440226D01*
X137559774Y-115296063D01*
X137390256Y-115182795D01*
X137201898Y-115104774D01*
X137001939Y-115065000D01*
X136798061Y-115065000D01*
X136598102Y-115104774D01*
X136409744Y-115182795D01*
X136240226Y-115296063D01*
X136096063Y-115440226D01*
X135982795Y-115609744D01*
X135904774Y-115798102D01*
X135865000Y-115998061D01*
X135865000Y-116201939D01*
X135897435Y-116365000D01*
X126174869Y-116365000D01*
X126290256Y-116317205D01*
X126459774Y-116203937D01*
X126603937Y-116059774D01*
X126717205Y-115890256D01*
X126795226Y-115701898D01*
X126835000Y-115501939D01*
X126835000Y-115298061D01*
X126795226Y-115098102D01*
X126717205Y-114909744D01*
X126603937Y-114740226D01*
X126459774Y-114596063D01*
X126290256Y-114482795D01*
X126101898Y-114404774D01*
X125901939Y-114365000D01*
X125698061Y-114365000D01*
X125498102Y-114404774D01*
X125309744Y-114482795D01*
X125140226Y-114596063D01*
X124996063Y-114740226D01*
X124882795Y-114909744D01*
X124804774Y-115098102D01*
X124765000Y-115298061D01*
X124765000Y-115501939D01*
X124804774Y-115701898D01*
X124882795Y-115890256D01*
X124996063Y-116059774D01*
X125140226Y-116203937D01*
X125309744Y-116317205D01*
X125425131Y-116365000D01*
X118374869Y-116365000D01*
X118490256Y-116317205D01*
X118659774Y-116203937D01*
X118803937Y-116059774D01*
X118917205Y-115890256D01*
X118995226Y-115701898D01*
X119035000Y-115501939D01*
X119035000Y-115298061D01*
X118995226Y-115098102D01*
X118917205Y-114909744D01*
X118803937Y-114740226D01*
X118659774Y-114596063D01*
X118490256Y-114482795D01*
X118301898Y-114404774D01*
X118101939Y-114365000D01*
X117898061Y-114365000D01*
X117698102Y-114404774D01*
X117509744Y-114482795D01*
X117340226Y-114596063D01*
X117196063Y-114740226D01*
X117082795Y-114909744D01*
X117004774Y-115098102D01*
X116965000Y-115298061D01*
X116965000Y-115501939D01*
X117004774Y-115701898D01*
X117037658Y-115781285D01*
X116890256Y-115682795D01*
X116701898Y-115604774D01*
X116501939Y-115565000D01*
X116298061Y-115565000D01*
X116098102Y-115604774D01*
X115909744Y-115682795D01*
X115850000Y-115722715D01*
X115790256Y-115682795D01*
X115601898Y-115604774D01*
X115401939Y-115565000D01*
X115198061Y-115565000D01*
X114998102Y-115604774D01*
X114809744Y-115682795D01*
X114640226Y-115796063D01*
X114496063Y-115940226D01*
X114382795Y-116109744D01*
X114304774Y-116298102D01*
X114291467Y-116365000D01*
X99263026Y-116365000D01*
X98742213Y-115844187D01*
X98835000Y-115377715D01*
X98835000Y-114622285D01*
X98687623Y-113881372D01*
X98590983Y-113648061D01*
X102015000Y-113648061D01*
X102015000Y-113851939D01*
X102054774Y-114051898D01*
X102132795Y-114240256D01*
X102155859Y-114274773D01*
X102104774Y-114398102D01*
X102065000Y-114598061D01*
X102065000Y-114801939D01*
X102104774Y-115001898D01*
X102182795Y-115190256D01*
X102296063Y-115359774D01*
X102440226Y-115503937D01*
X102609744Y-115617205D01*
X102798102Y-115695226D01*
X102998061Y-115735000D01*
X103201939Y-115735000D01*
X103401898Y-115695226D01*
X103590256Y-115617205D01*
X103759774Y-115503937D01*
X103903937Y-115359774D01*
X104017205Y-115190256D01*
X104095226Y-115001898D01*
X104135000Y-114801939D01*
X104135000Y-114598061D01*
X104095226Y-114398102D01*
X104017205Y-114209744D01*
X103994141Y-114175227D01*
X104045226Y-114051898D01*
X104085000Y-113851939D01*
X104085000Y-113648061D01*
X104045226Y-113448102D01*
X103967205Y-113259744D01*
X103853937Y-113090226D01*
X103709774Y-112946063D01*
X103540256Y-112832795D01*
X103456402Y-112798061D01*
X137865000Y-112798061D01*
X137865000Y-113001939D01*
X137904774Y-113201898D01*
X137982795Y-113390256D01*
X138096063Y-113559774D01*
X138240226Y-113703937D01*
X138409744Y-113817205D01*
X138598102Y-113895226D01*
X138798061Y-113935000D01*
X139001939Y-113935000D01*
X139201898Y-113895226D01*
X139390256Y-113817205D01*
X139559774Y-113703937D01*
X139703937Y-113559774D01*
X139817205Y-113390256D01*
X139895226Y-113201898D01*
X139935000Y-113001939D01*
X139935000Y-112798061D01*
X139895226Y-112598102D01*
X139853788Y-112498061D01*
X154865000Y-112498061D01*
X154865000Y-112701939D01*
X154904774Y-112901898D01*
X154982795Y-113090256D01*
X155096063Y-113259774D01*
X155240226Y-113403937D01*
X155409744Y-113517205D01*
X155598102Y-113595226D01*
X155798061Y-113635000D01*
X156001939Y-113635000D01*
X156201898Y-113595226D01*
X156390256Y-113517205D01*
X156550000Y-113410468D01*
X156709744Y-113517205D01*
X156898102Y-113595226D01*
X157098061Y-113635000D01*
X157301939Y-113635000D01*
X157501898Y-113595226D01*
X157690256Y-113517205D01*
X157850000Y-113410468D01*
X158009744Y-113517205D01*
X158198102Y-113595226D01*
X158398061Y-113635000D01*
X158601939Y-113635000D01*
X158801898Y-113595226D01*
X158990256Y-113517205D01*
X159159774Y-113403937D01*
X159303937Y-113259774D01*
X159417205Y-113090256D01*
X159495226Y-112901898D01*
X159535000Y-112701939D01*
X159535000Y-112498061D01*
X159495226Y-112298102D01*
X159417205Y-112109744D01*
X159303937Y-111940226D01*
X159159774Y-111796063D01*
X158990256Y-111682795D01*
X158801898Y-111604774D01*
X158601939Y-111565000D01*
X158398061Y-111565000D01*
X158198102Y-111604774D01*
X158009744Y-111682795D01*
X157850000Y-111789532D01*
X157690256Y-111682795D01*
X157501898Y-111604774D01*
X157301939Y-111565000D01*
X157098061Y-111565000D01*
X156898102Y-111604774D01*
X156709744Y-111682795D01*
X156550000Y-111789532D01*
X156390256Y-111682795D01*
X156201898Y-111604774D01*
X156001939Y-111565000D01*
X155798061Y-111565000D01*
X155598102Y-111604774D01*
X155409744Y-111682795D01*
X155240226Y-111796063D01*
X155096063Y-111940226D01*
X154982795Y-112109744D01*
X154904774Y-112298102D01*
X154865000Y-112498061D01*
X139853788Y-112498061D01*
X139817205Y-112409744D01*
X139703937Y-112240226D01*
X139559774Y-112096063D01*
X139390256Y-111982795D01*
X139201898Y-111904774D01*
X139001939Y-111865000D01*
X138798061Y-111865000D01*
X138598102Y-111904774D01*
X138409744Y-111982795D01*
X138240226Y-112096063D01*
X138096063Y-112240226D01*
X137982795Y-112409744D01*
X137904774Y-112598102D01*
X137865000Y-112798061D01*
X103456402Y-112798061D01*
X103351898Y-112754774D01*
X103151939Y-112715000D01*
X102948061Y-112715000D01*
X102748102Y-112754774D01*
X102559744Y-112832795D01*
X102390226Y-112946063D01*
X102246063Y-113090226D01*
X102132795Y-113259744D01*
X102054774Y-113448102D01*
X102015000Y-113648061D01*
X98590983Y-113648061D01*
X98398533Y-113183446D01*
X97978839Y-112555330D01*
X97444670Y-112021161D01*
X96816554Y-111601467D01*
X96118628Y-111312377D01*
X95377715Y-111165000D01*
X94622285Y-111165000D01*
X94155813Y-111257787D01*
X93635000Y-110736974D01*
X93635000Y-106898061D01*
X101365000Y-106898061D01*
X101365000Y-107101939D01*
X101404774Y-107301898D01*
X101482795Y-107490256D01*
X101596063Y-107659774D01*
X101740226Y-107803937D01*
X101909744Y-107917205D01*
X102098102Y-107995226D01*
X102298061Y-108035000D01*
X102501939Y-108035000D01*
X102701898Y-107995226D01*
X102890256Y-107917205D01*
X102892109Y-107915967D01*
X103023102Y-107970226D01*
X103223061Y-108010000D01*
X103426939Y-108010000D01*
X103626898Y-107970226D01*
X103815256Y-107892205D01*
X103984774Y-107778937D01*
X104128937Y-107634774D01*
X104242205Y-107465256D01*
X104320226Y-107276898D01*
X104360000Y-107076939D01*
X104360000Y-106873061D01*
X104325191Y-106698061D01*
X113165000Y-106698061D01*
X113165000Y-106901939D01*
X113204774Y-107101898D01*
X113282795Y-107290256D01*
X113396063Y-107459774D01*
X113540226Y-107603937D01*
X113709744Y-107717205D01*
X113898102Y-107795226D01*
X114098061Y-107835000D01*
X114301939Y-107835000D01*
X114501898Y-107795226D01*
X114690256Y-107717205D01*
X114859774Y-107603937D01*
X115003937Y-107459774D01*
X115117205Y-107290256D01*
X115195226Y-107101898D01*
X115235000Y-106901939D01*
X115235000Y-106698061D01*
X115195226Y-106498102D01*
X115117205Y-106309744D01*
X115003937Y-106140226D01*
X114961772Y-106098061D01*
X116265000Y-106098061D01*
X116265000Y-106301939D01*
X116304774Y-106501898D01*
X116382795Y-106690256D01*
X116496063Y-106859774D01*
X116640226Y-107003937D01*
X116809744Y-107117205D01*
X116998102Y-107195226D01*
X117198061Y-107235000D01*
X117401939Y-107235000D01*
X117601898Y-107195226D01*
X117790256Y-107117205D01*
X117959774Y-107003937D01*
X118103937Y-106859774D01*
X118217205Y-106690256D01*
X118295226Y-106501898D01*
X118335000Y-106301939D01*
X118335000Y-106098061D01*
X118295226Y-105898102D01*
X118217205Y-105709744D01*
X118103937Y-105540226D01*
X117959774Y-105396063D01*
X117790256Y-105282795D01*
X117601898Y-105204774D01*
X117401939Y-105165000D01*
X117198061Y-105165000D01*
X116998102Y-105204774D01*
X116809744Y-105282795D01*
X116640226Y-105396063D01*
X116496063Y-105540226D01*
X116382795Y-105709744D01*
X116304774Y-105898102D01*
X116265000Y-106098061D01*
X114961772Y-106098061D01*
X114859774Y-105996063D01*
X114690256Y-105882795D01*
X114501898Y-105804774D01*
X114301939Y-105765000D01*
X114098061Y-105765000D01*
X113898102Y-105804774D01*
X113709744Y-105882795D01*
X113540226Y-105996063D01*
X113396063Y-106140226D01*
X113282795Y-106309744D01*
X113204774Y-106498102D01*
X113165000Y-106698061D01*
X104325191Y-106698061D01*
X104320226Y-106673102D01*
X104242205Y-106484744D01*
X104128937Y-106315226D01*
X103984774Y-106171063D01*
X103815256Y-106057795D01*
X103626898Y-105979774D01*
X103426939Y-105940000D01*
X103223061Y-105940000D01*
X103023102Y-105979774D01*
X102834744Y-106057795D01*
X102832891Y-106059033D01*
X102701898Y-106004774D01*
X102501939Y-105965000D01*
X102298061Y-105965000D01*
X102098102Y-106004774D01*
X101909744Y-106082795D01*
X101740226Y-106196063D01*
X101596063Y-106340226D01*
X101482795Y-106509744D01*
X101404774Y-106698102D01*
X101365000Y-106898061D01*
X93635000Y-106898061D01*
X93635000Y-104098061D01*
X132665000Y-104098061D01*
X132665000Y-104301939D01*
X132704774Y-104501898D01*
X132782795Y-104690256D01*
X132896063Y-104859774D01*
X133040226Y-105003937D01*
X133209744Y-105117205D01*
X133398102Y-105195226D01*
X133598061Y-105235000D01*
X133801939Y-105235000D01*
X134001898Y-105195226D01*
X134190256Y-105117205D01*
X134359774Y-105003937D01*
X134503937Y-104859774D01*
X134617205Y-104690256D01*
X134695226Y-104501898D01*
X134735000Y-104301939D01*
X134735000Y-104274869D01*
X134782795Y-104390256D01*
X134896063Y-104559774D01*
X135040226Y-104703937D01*
X135209744Y-104817205D01*
X135398102Y-104895226D01*
X135598061Y-104935000D01*
X135801939Y-104935000D01*
X136001898Y-104895226D01*
X136190256Y-104817205D01*
X136359774Y-104703937D01*
X136465650Y-104598061D01*
X136765000Y-104598061D01*
X136765000Y-104801939D01*
X136804774Y-105001898D01*
X136882795Y-105190256D01*
X136996063Y-105359774D01*
X137140226Y-105503937D01*
X137309744Y-105617205D01*
X137498102Y-105695226D01*
X137698061Y-105735000D01*
X137901939Y-105735000D01*
X138101898Y-105695226D01*
X138290256Y-105617205D01*
X138459774Y-105503937D01*
X138603937Y-105359774D01*
X138717205Y-105190256D01*
X138795226Y-105001898D01*
X138835000Y-104801939D01*
X138835000Y-104598061D01*
X138795226Y-104398102D01*
X138717205Y-104209744D01*
X138603937Y-104040226D01*
X138459774Y-103896063D01*
X138290256Y-103782795D01*
X138101898Y-103704774D01*
X137901939Y-103665000D01*
X137698061Y-103665000D01*
X137498102Y-103704774D01*
X137309744Y-103782795D01*
X137140226Y-103896063D01*
X136996063Y-104040226D01*
X136882795Y-104209744D01*
X136804774Y-104398102D01*
X136765000Y-104598061D01*
X136465650Y-104598061D01*
X136503937Y-104559774D01*
X136617205Y-104390256D01*
X136695226Y-104201898D01*
X136735000Y-104001939D01*
X136735000Y-103798061D01*
X136695226Y-103598102D01*
X136617205Y-103409744D01*
X136503937Y-103240226D01*
X136359774Y-103096063D01*
X136190256Y-102982795D01*
X136001898Y-102904774D01*
X135801939Y-102865000D01*
X135598061Y-102865000D01*
X135398102Y-102904774D01*
X135209744Y-102982795D01*
X135040226Y-103096063D01*
X134896063Y-103240226D01*
X134782795Y-103409744D01*
X134704774Y-103598102D01*
X134665000Y-103798061D01*
X134665000Y-103825131D01*
X134617205Y-103709744D01*
X134503937Y-103540226D01*
X134359774Y-103396063D01*
X134190256Y-103282795D01*
X134001898Y-103204774D01*
X133801939Y-103165000D01*
X133598061Y-103165000D01*
X133398102Y-103204774D01*
X133209744Y-103282795D01*
X133040226Y-103396063D01*
X132896063Y-103540226D01*
X132782795Y-103709744D01*
X132704774Y-103898102D01*
X132665000Y-104098061D01*
X93635000Y-104098061D01*
X93635000Y-100598061D01*
X101865000Y-100598061D01*
X101865000Y-100801939D01*
X101904774Y-101001898D01*
X101982795Y-101190256D01*
X102096063Y-101359774D01*
X102240226Y-101503937D01*
X102409744Y-101617205D01*
X102598102Y-101695226D01*
X102798061Y-101735000D01*
X103001939Y-101735000D01*
X103201898Y-101695226D01*
X103390256Y-101617205D01*
X103559774Y-101503937D01*
X103703937Y-101359774D01*
X103817205Y-101190256D01*
X103895226Y-101001898D01*
X103935000Y-100801939D01*
X103935000Y-100598061D01*
X103915109Y-100498061D01*
X131465000Y-100498061D01*
X131465000Y-100701939D01*
X131504774Y-100901898D01*
X131582795Y-101090256D01*
X131696063Y-101259774D01*
X131840226Y-101403937D01*
X132009744Y-101517205D01*
X132198102Y-101595226D01*
X132398061Y-101635000D01*
X132601939Y-101635000D01*
X132801898Y-101595226D01*
X132990256Y-101517205D01*
X133159774Y-101403937D01*
X133303937Y-101259774D01*
X133417205Y-101090256D01*
X133495226Y-100901898D01*
X133535000Y-100701939D01*
X133535000Y-100498061D01*
X133495226Y-100298102D01*
X133417205Y-100109744D01*
X133342582Y-99998061D01*
X138065000Y-99998061D01*
X138065000Y-100201939D01*
X138104774Y-100401898D01*
X138182795Y-100590256D01*
X138296063Y-100759774D01*
X138440226Y-100903937D01*
X138609744Y-101017205D01*
X138798102Y-101095226D01*
X138998061Y-101135000D01*
X139201939Y-101135000D01*
X139401898Y-101095226D01*
X139590256Y-101017205D01*
X139759774Y-100903937D01*
X139903937Y-100759774D01*
X140017205Y-100590256D01*
X140095226Y-100401898D01*
X140135000Y-100201939D01*
X140135000Y-99998061D01*
X140095226Y-99798102D01*
X140017205Y-99609744D01*
X139903937Y-99440226D01*
X139759774Y-99296063D01*
X139590256Y-99182795D01*
X139401898Y-99104774D01*
X139201939Y-99065000D01*
X138998061Y-99065000D01*
X138798102Y-99104774D01*
X138609744Y-99182795D01*
X138440226Y-99296063D01*
X138296063Y-99440226D01*
X138182795Y-99609744D01*
X138104774Y-99798102D01*
X138065000Y-99998061D01*
X133342582Y-99998061D01*
X133303937Y-99940226D01*
X133159774Y-99796063D01*
X132990256Y-99682795D01*
X132801898Y-99604774D01*
X132601939Y-99565000D01*
X132398061Y-99565000D01*
X132198102Y-99604774D01*
X132009744Y-99682795D01*
X131840226Y-99796063D01*
X131696063Y-99940226D01*
X131582795Y-100109744D01*
X131504774Y-100298102D01*
X131465000Y-100498061D01*
X103915109Y-100498061D01*
X103895226Y-100398102D01*
X103861913Y-100317677D01*
X103920226Y-100176898D01*
X103960000Y-99976939D01*
X103960000Y-99773061D01*
X103920226Y-99573102D01*
X103842205Y-99384744D01*
X103728937Y-99215226D01*
X103584774Y-99071063D01*
X103415256Y-98957795D01*
X103226898Y-98879774D01*
X103026939Y-98840000D01*
X102823061Y-98840000D01*
X102623102Y-98879774D01*
X102434744Y-98957795D01*
X102265226Y-99071063D01*
X102121063Y-99215226D01*
X102007795Y-99384744D01*
X101929774Y-99573102D01*
X101890000Y-99773061D01*
X101890000Y-99976939D01*
X101929774Y-100176898D01*
X101963087Y-100257323D01*
X101904774Y-100398102D01*
X101865000Y-100598061D01*
X93635000Y-100598061D01*
X93635000Y-96198061D01*
X114965000Y-96198061D01*
X114965000Y-96401939D01*
X115004774Y-96601898D01*
X115082795Y-96790256D01*
X115196063Y-96959774D01*
X115340226Y-97103937D01*
X115509744Y-97217205D01*
X115619459Y-97262651D01*
X115604774Y-97298102D01*
X115565000Y-97498061D01*
X115565000Y-97701939D01*
X115604774Y-97901898D01*
X115682795Y-98090256D01*
X115796063Y-98259774D01*
X115895452Y-98359163D01*
X115840226Y-98396063D01*
X115696063Y-98540226D01*
X115582795Y-98709744D01*
X115504774Y-98898102D01*
X115465000Y-99098061D01*
X115465000Y-99301939D01*
X115504774Y-99501898D01*
X115582795Y-99690256D01*
X115696063Y-99859774D01*
X115840226Y-100003937D01*
X116009744Y-100117205D01*
X116198102Y-100195226D01*
X116398061Y-100235000D01*
X116601939Y-100235000D01*
X116801898Y-100195226D01*
X116990256Y-100117205D01*
X117159774Y-100003937D01*
X117303937Y-99859774D01*
X117417205Y-99690256D01*
X117495226Y-99501898D01*
X117535000Y-99301939D01*
X117535000Y-99098061D01*
X117495226Y-98898102D01*
X117417205Y-98709744D01*
X117303937Y-98540226D01*
X117204548Y-98440837D01*
X117259774Y-98403937D01*
X117403937Y-98259774D01*
X117517205Y-98090256D01*
X117595226Y-97901898D01*
X117615880Y-97798061D01*
X131465000Y-97798061D01*
X131465000Y-98001939D01*
X131504774Y-98201898D01*
X131582795Y-98390256D01*
X131696063Y-98559774D01*
X131840226Y-98703937D01*
X132009744Y-98817205D01*
X132198102Y-98895226D01*
X132398061Y-98935000D01*
X132601939Y-98935000D01*
X132801898Y-98895226D01*
X132990256Y-98817205D01*
X133159774Y-98703937D01*
X133303937Y-98559774D01*
X133345172Y-98498061D01*
X141065000Y-98498061D01*
X141065000Y-98701939D01*
X141104774Y-98901898D01*
X141182795Y-99090256D01*
X141296063Y-99259774D01*
X141440226Y-99403937D01*
X141609744Y-99517205D01*
X141798102Y-99595226D01*
X141998061Y-99635000D01*
X142201939Y-99635000D01*
X142401898Y-99595226D01*
X142460251Y-99571055D01*
X142537712Y-99648516D01*
X142756693Y-99794834D01*
X143000012Y-99895620D01*
X143258317Y-99947000D01*
X143521683Y-99947000D01*
X143779988Y-99895620D01*
X144023307Y-99794834D01*
X144242288Y-99648516D01*
X144428516Y-99462288D01*
X144574834Y-99243307D01*
X144590870Y-99204594D01*
X144609744Y-99217205D01*
X144798102Y-99295226D01*
X144998061Y-99335000D01*
X145201939Y-99335000D01*
X145401898Y-99295226D01*
X145590256Y-99217205D01*
X145759774Y-99103937D01*
X145903937Y-98959774D01*
X146017205Y-98790256D01*
X146095226Y-98601898D01*
X146135000Y-98401939D01*
X146135000Y-98198061D01*
X146095226Y-97998102D01*
X146017205Y-97809744D01*
X145903937Y-97640226D01*
X145759774Y-97496063D01*
X145590256Y-97382795D01*
X145401898Y-97304774D01*
X145201939Y-97265000D01*
X144998061Y-97265000D01*
X144798102Y-97304774D01*
X144609744Y-97382795D01*
X144440226Y-97496063D01*
X144303547Y-97632743D01*
X144242288Y-97571484D01*
X144023307Y-97425166D01*
X143817698Y-97340000D01*
X144023307Y-97254834D01*
X144242288Y-97108516D01*
X144428516Y-96922288D01*
X144574834Y-96703307D01*
X144675620Y-96459988D01*
X144727000Y-96201683D01*
X144727000Y-95938317D01*
X144675620Y-95680012D01*
X144574834Y-95436693D01*
X144428516Y-95217712D01*
X144242288Y-95031484D01*
X144023307Y-94885166D01*
X143817698Y-94800000D01*
X144023307Y-94714834D01*
X144242288Y-94568516D01*
X144428516Y-94382288D01*
X144574834Y-94163307D01*
X144660000Y-93957698D01*
X144745166Y-94163307D01*
X144891484Y-94382288D01*
X145077712Y-94568516D01*
X145296693Y-94714834D01*
X145540012Y-94815620D01*
X145798317Y-94867000D01*
X146061683Y-94867000D01*
X146319988Y-94815620D01*
X146563307Y-94714834D01*
X146782288Y-94568516D01*
X146968516Y-94382288D01*
X147114834Y-94163307D01*
X147200000Y-93957698D01*
X147285166Y-94163307D01*
X147431484Y-94382288D01*
X147617712Y-94568516D01*
X147836693Y-94714834D01*
X148080012Y-94815620D01*
X148129632Y-94825490D01*
X148094596Y-94832459D01*
X147860377Y-94929476D01*
X147649585Y-95070322D01*
X147470322Y-95249585D01*
X147329476Y-95460377D01*
X147232459Y-95694596D01*
X147183000Y-95943242D01*
X147183000Y-96196758D01*
X147232459Y-96445404D01*
X147329476Y-96679623D01*
X147470322Y-96890415D01*
X147649585Y-97069678D01*
X147860377Y-97210524D01*
X148094596Y-97307541D01*
X148257778Y-97340000D01*
X148094596Y-97372459D01*
X147860377Y-97469476D01*
X147649585Y-97610322D01*
X147470322Y-97789585D01*
X147329476Y-98000377D01*
X147232459Y-98234596D01*
X147183000Y-98483242D01*
X147183000Y-98736758D01*
X147232459Y-98985404D01*
X147329476Y-99219623D01*
X147470322Y-99430415D01*
X147649585Y-99609678D01*
X147860377Y-99750524D01*
X148094596Y-99847541D01*
X148257778Y-99880000D01*
X148094596Y-99912459D01*
X147860377Y-100009476D01*
X147649585Y-100150322D01*
X147470322Y-100329585D01*
X147329476Y-100540377D01*
X147232459Y-100774596D01*
X147183000Y-101023242D01*
X147183000Y-101276758D01*
X147232459Y-101525404D01*
X147329476Y-101759623D01*
X147470322Y-101970415D01*
X147649585Y-102149678D01*
X147860377Y-102290524D01*
X148094596Y-102387541D01*
X148257778Y-102420000D01*
X148094596Y-102452459D01*
X147860377Y-102549476D01*
X147649585Y-102690322D01*
X147470322Y-102869585D01*
X147329476Y-103080377D01*
X147232459Y-103314596D01*
X147183000Y-103563242D01*
X147183000Y-103816758D01*
X147232459Y-104065404D01*
X147329476Y-104299623D01*
X147470322Y-104510415D01*
X147649585Y-104689678D01*
X147860377Y-104830524D01*
X148094596Y-104927541D01*
X148257778Y-104960000D01*
X148094596Y-104992459D01*
X147860377Y-105089476D01*
X147649585Y-105230322D01*
X147470322Y-105409585D01*
X147329476Y-105620377D01*
X147232459Y-105854596D01*
X147183000Y-106103242D01*
X147183000Y-106356758D01*
X147232459Y-106605404D01*
X147329476Y-106839623D01*
X147470322Y-107050415D01*
X147649585Y-107229678D01*
X147860377Y-107370524D01*
X148094596Y-107467541D01*
X148129632Y-107474510D01*
X148080012Y-107484380D01*
X147836693Y-107585166D01*
X147617712Y-107731484D01*
X147431484Y-107917712D01*
X147285166Y-108136693D01*
X147200000Y-108342302D01*
X147114834Y-108136693D01*
X146968516Y-107917712D01*
X146782288Y-107731484D01*
X146563307Y-107585166D01*
X146319988Y-107484380D01*
X146061683Y-107433000D01*
X145798317Y-107433000D01*
X145540012Y-107484380D01*
X145296693Y-107585166D01*
X145077712Y-107731484D01*
X144891484Y-107917712D01*
X144745166Y-108136693D01*
X144660000Y-108342302D01*
X144574834Y-108136693D01*
X144428516Y-107917712D01*
X144242288Y-107731484D01*
X144023307Y-107585166D01*
X143817698Y-107500000D01*
X144023307Y-107414834D01*
X144242288Y-107268516D01*
X144428516Y-107082288D01*
X144574834Y-106863307D01*
X144675620Y-106619988D01*
X144727000Y-106361683D01*
X144727000Y-106098317D01*
X144675620Y-105840012D01*
X144574834Y-105596693D01*
X144428516Y-105377712D01*
X144242288Y-105191484D01*
X144023307Y-105045166D01*
X143817698Y-104960000D01*
X144023307Y-104874834D01*
X144242288Y-104728516D01*
X144428516Y-104542288D01*
X144574834Y-104323307D01*
X144675620Y-104079988D01*
X144727000Y-103821683D01*
X144727000Y-103558317D01*
X144675620Y-103300012D01*
X144574834Y-103056693D01*
X144428516Y-102837712D01*
X144242288Y-102651484D01*
X144023307Y-102505166D01*
X143779988Y-102404380D01*
X143521683Y-102353000D01*
X143258317Y-102353000D01*
X143000012Y-102404380D01*
X142756693Y-102505166D01*
X142537712Y-102651484D01*
X142351484Y-102837712D01*
X142205166Y-103056693D01*
X142104380Y-103300012D01*
X142053000Y-103558317D01*
X142053000Y-103821683D01*
X142104380Y-104079988D01*
X142205166Y-104323307D01*
X142351484Y-104542288D01*
X142537712Y-104728516D01*
X142756693Y-104874834D01*
X142962302Y-104960000D01*
X142756693Y-105045166D01*
X142537712Y-105191484D01*
X142351484Y-105377712D01*
X142205166Y-105596693D01*
X142104380Y-105840012D01*
X142053000Y-106098317D01*
X142053000Y-106361683D01*
X142104380Y-106619988D01*
X142205166Y-106863307D01*
X142351484Y-107082288D01*
X142537712Y-107268516D01*
X142756693Y-107414834D01*
X142962302Y-107500000D01*
X142756693Y-107585166D01*
X142537712Y-107731484D01*
X142351484Y-107917712D01*
X142205166Y-108136693D01*
X142104380Y-108380012D01*
X142053000Y-108638317D01*
X142053000Y-108901683D01*
X142104380Y-109159988D01*
X142205166Y-109403307D01*
X142351484Y-109622288D01*
X142537712Y-109808516D01*
X142756693Y-109954834D01*
X143000012Y-110055620D01*
X143258317Y-110107000D01*
X143521683Y-110107000D01*
X143779988Y-110055620D01*
X144023307Y-109954834D01*
X144242288Y-109808516D01*
X144428516Y-109622288D01*
X144574834Y-109403307D01*
X144660000Y-109197698D01*
X144745166Y-109403307D01*
X144891484Y-109622288D01*
X145077712Y-109808516D01*
X145296693Y-109954834D01*
X145540012Y-110055620D01*
X145798317Y-110107000D01*
X146061683Y-110107000D01*
X146319988Y-110055620D01*
X146563307Y-109954834D01*
X146782288Y-109808516D01*
X146968516Y-109622288D01*
X147114834Y-109403307D01*
X147200000Y-109197698D01*
X147285166Y-109403307D01*
X147431484Y-109622288D01*
X147617712Y-109808516D01*
X147836693Y-109954834D01*
X148080012Y-110055620D01*
X148338317Y-110107000D01*
X148601683Y-110107000D01*
X148859988Y-110055620D01*
X149103307Y-109954834D01*
X149322288Y-109808516D01*
X149508516Y-109622288D01*
X149654834Y-109403307D01*
X149740000Y-109197698D01*
X149825166Y-109403307D01*
X149971484Y-109622288D01*
X150157712Y-109808516D01*
X150376693Y-109954834D01*
X150620012Y-110055620D01*
X150878317Y-110107000D01*
X151141683Y-110107000D01*
X151399988Y-110055620D01*
X151643307Y-109954834D01*
X151862288Y-109808516D01*
X152048516Y-109622288D01*
X152194834Y-109403307D01*
X152280000Y-109197698D01*
X152365166Y-109403307D01*
X152511484Y-109622288D01*
X152697712Y-109808516D01*
X152916693Y-109954834D01*
X153160012Y-110055620D01*
X153418317Y-110107000D01*
X153681683Y-110107000D01*
X153939988Y-110055620D01*
X154183307Y-109954834D01*
X154402288Y-109808516D01*
X154588516Y-109622288D01*
X154734834Y-109403307D01*
X154820000Y-109197698D01*
X154905166Y-109403307D01*
X155051484Y-109622288D01*
X155237712Y-109808516D01*
X155456693Y-109954834D01*
X155700012Y-110055620D01*
X155958317Y-110107000D01*
X156221683Y-110107000D01*
X156479988Y-110055620D01*
X156723307Y-109954834D01*
X156942288Y-109808516D01*
X157128516Y-109622288D01*
X157274834Y-109403307D01*
X157360000Y-109197698D01*
X157445166Y-109403307D01*
X157591484Y-109622288D01*
X157777712Y-109808516D01*
X157996693Y-109954834D01*
X158240012Y-110055620D01*
X158498317Y-110107000D01*
X158761683Y-110107000D01*
X159019988Y-110055620D01*
X159263307Y-109954834D01*
X159482288Y-109808516D01*
X159668516Y-109622288D01*
X159814834Y-109403307D01*
X159900000Y-109197698D01*
X159985166Y-109403307D01*
X160131484Y-109622288D01*
X160317712Y-109808516D01*
X160536693Y-109954834D01*
X160780012Y-110055620D01*
X161038317Y-110107000D01*
X161301683Y-110107000D01*
X161559988Y-110055620D01*
X161803307Y-109954834D01*
X162022288Y-109808516D01*
X162208516Y-109622288D01*
X162354834Y-109403307D01*
X162440000Y-109197698D01*
X162525166Y-109403307D01*
X162671484Y-109622288D01*
X162857712Y-109808516D01*
X163076693Y-109954834D01*
X163320012Y-110055620D01*
X163578317Y-110107000D01*
X163841683Y-110107000D01*
X164099988Y-110055620D01*
X164343307Y-109954834D01*
X164562288Y-109808516D01*
X164748516Y-109622288D01*
X164894834Y-109403307D01*
X164980000Y-109197698D01*
X165065166Y-109403307D01*
X165211484Y-109622288D01*
X165397712Y-109808516D01*
X165616693Y-109954834D01*
X165860012Y-110055620D01*
X166118317Y-110107000D01*
X166381683Y-110107000D01*
X166639988Y-110055620D01*
X166883307Y-109954834D01*
X167102288Y-109808516D01*
X167288516Y-109622288D01*
X167434834Y-109403307D01*
X167520000Y-109197698D01*
X167605166Y-109403307D01*
X167751484Y-109622288D01*
X167937712Y-109808516D01*
X168156693Y-109954834D01*
X168400012Y-110055620D01*
X168658317Y-110107000D01*
X168921683Y-110107000D01*
X169179988Y-110055620D01*
X169423307Y-109954834D01*
X169642288Y-109808516D01*
X169828516Y-109622288D01*
X169974834Y-109403307D01*
X170060000Y-109197698D01*
X170145166Y-109403307D01*
X170291484Y-109622288D01*
X170477712Y-109808516D01*
X170696693Y-109954834D01*
X170940012Y-110055620D01*
X171198317Y-110107000D01*
X171461683Y-110107000D01*
X171719988Y-110055620D01*
X171963307Y-109954834D01*
X172182288Y-109808516D01*
X172368516Y-109622288D01*
X172514834Y-109403307D01*
X172615620Y-109159988D01*
X172667000Y-108901683D01*
X172667000Y-108638317D01*
X172615620Y-108380012D01*
X172514834Y-108136693D01*
X172368516Y-107917712D01*
X172182288Y-107731484D01*
X171963307Y-107585166D01*
X171719988Y-107484380D01*
X171461683Y-107433000D01*
X171198317Y-107433000D01*
X170940012Y-107484380D01*
X170696693Y-107585166D01*
X170477712Y-107731484D01*
X170291484Y-107917712D01*
X170145166Y-108136693D01*
X170060000Y-108342302D01*
X169974834Y-108136693D01*
X169828516Y-107917712D01*
X169642288Y-107731484D01*
X169423307Y-107585166D01*
X169179988Y-107484380D01*
X168921683Y-107433000D01*
X168658317Y-107433000D01*
X168400012Y-107484380D01*
X168156693Y-107585166D01*
X167937712Y-107731484D01*
X167751484Y-107917712D01*
X167605166Y-108136693D01*
X167520000Y-108342302D01*
X167434834Y-108136693D01*
X167288516Y-107917712D01*
X167102288Y-107731484D01*
X166883307Y-107585166D01*
X166639988Y-107484380D01*
X166381683Y-107433000D01*
X166118317Y-107433000D01*
X165860012Y-107484380D01*
X165616693Y-107585166D01*
X165397712Y-107731484D01*
X165211484Y-107917712D01*
X165065166Y-108136693D01*
X164980000Y-108342302D01*
X164894834Y-108136693D01*
X164748516Y-107917712D01*
X164562288Y-107731484D01*
X164343307Y-107585166D01*
X164099988Y-107484380D01*
X163841683Y-107433000D01*
X163578317Y-107433000D01*
X163320012Y-107484380D01*
X163076693Y-107585166D01*
X162857712Y-107731484D01*
X162671484Y-107917712D01*
X162525166Y-108136693D01*
X162440000Y-108342302D01*
X162354834Y-108136693D01*
X162208516Y-107917712D01*
X162022288Y-107731484D01*
X161803307Y-107585166D01*
X161559988Y-107484380D01*
X161301683Y-107433000D01*
X161038317Y-107433000D01*
X160780012Y-107484380D01*
X160536693Y-107585166D01*
X160317712Y-107731484D01*
X160131484Y-107917712D01*
X159985166Y-108136693D01*
X159900000Y-108342302D01*
X159814834Y-108136693D01*
X159668516Y-107917712D01*
X159482288Y-107731484D01*
X159263307Y-107585166D01*
X159019988Y-107484380D01*
X158761683Y-107433000D01*
X158498317Y-107433000D01*
X158240012Y-107484380D01*
X157996693Y-107585166D01*
X157777712Y-107731484D01*
X157591484Y-107917712D01*
X157445166Y-108136693D01*
X157360000Y-108342302D01*
X157274834Y-108136693D01*
X157128516Y-107917712D01*
X156942288Y-107731484D01*
X156723307Y-107585166D01*
X156479988Y-107484380D01*
X156221683Y-107433000D01*
X155958317Y-107433000D01*
X155700012Y-107484380D01*
X155456693Y-107585166D01*
X155237712Y-107731484D01*
X155051484Y-107917712D01*
X154905166Y-108136693D01*
X154820000Y-108342302D01*
X154734834Y-108136693D01*
X154588516Y-107917712D01*
X154402288Y-107731484D01*
X154183307Y-107585166D01*
X153939988Y-107484380D01*
X153681683Y-107433000D01*
X153418317Y-107433000D01*
X153160012Y-107484380D01*
X152916693Y-107585166D01*
X152697712Y-107731484D01*
X152511484Y-107917712D01*
X152365166Y-108136693D01*
X152280000Y-108342302D01*
X152194834Y-108136693D01*
X152048516Y-107917712D01*
X151862288Y-107731484D01*
X151643307Y-107585166D01*
X151399988Y-107484380D01*
X151350368Y-107474510D01*
X151385404Y-107467541D01*
X151619623Y-107370524D01*
X151830415Y-107229678D01*
X152009678Y-107050415D01*
X152150524Y-106839623D01*
X152247541Y-106605404D01*
X152297000Y-106356758D01*
X152297000Y-106103242D01*
X152296021Y-106098317D01*
X172533000Y-106098317D01*
X172533000Y-106361683D01*
X172584380Y-106619988D01*
X172685166Y-106863307D01*
X172831484Y-107082288D01*
X173017712Y-107268516D01*
X173236693Y-107414834D01*
X173480012Y-107515620D01*
X173738317Y-107567000D01*
X174001683Y-107567000D01*
X174259988Y-107515620D01*
X174503307Y-107414834D01*
X174722288Y-107268516D01*
X174908516Y-107082288D01*
X175054834Y-106863307D01*
X175155620Y-106619988D01*
X175207000Y-106361683D01*
X175207000Y-106098317D01*
X175155620Y-105840012D01*
X175054834Y-105596693D01*
X174908516Y-105377712D01*
X174722288Y-105191484D01*
X174503307Y-105045166D01*
X174259988Y-104944380D01*
X174001683Y-104893000D01*
X173738317Y-104893000D01*
X173480012Y-104944380D01*
X173236693Y-105045166D01*
X173017712Y-105191484D01*
X172831484Y-105377712D01*
X172685166Y-105596693D01*
X172584380Y-105840012D01*
X172533000Y-106098317D01*
X152296021Y-106098317D01*
X152247541Y-105854596D01*
X152150524Y-105620377D01*
X152009678Y-105409585D01*
X151830415Y-105230322D01*
X151619623Y-105089476D01*
X151385404Y-104992459D01*
X151222222Y-104960000D01*
X151385404Y-104927541D01*
X151619623Y-104830524D01*
X151830415Y-104689678D01*
X152009678Y-104510415D01*
X152150524Y-104299623D01*
X152247541Y-104065404D01*
X152297000Y-103816758D01*
X152297000Y-103563242D01*
X152247541Y-103314596D01*
X152150524Y-103080377D01*
X152009678Y-102869585D01*
X151830415Y-102690322D01*
X151619623Y-102549476D01*
X151385404Y-102452459D01*
X151222222Y-102420000D01*
X151385404Y-102387541D01*
X151619623Y-102290524D01*
X151830415Y-102149678D01*
X152009678Y-101970415D01*
X152150524Y-101759623D01*
X152247541Y-101525404D01*
X152297000Y-101276758D01*
X152297000Y-101023242D01*
X152247541Y-100774596D01*
X152150524Y-100540377D01*
X152009678Y-100329585D01*
X151830415Y-100150322D01*
X151619623Y-100009476D01*
X151385404Y-99912459D01*
X151222222Y-99880000D01*
X151385404Y-99847541D01*
X151619623Y-99750524D01*
X151830415Y-99609678D01*
X152009678Y-99430415D01*
X152150524Y-99219623D01*
X152247541Y-98985404D01*
X152297000Y-98736758D01*
X152297000Y-98483242D01*
X152247541Y-98234596D01*
X152150524Y-98000377D01*
X152009678Y-97789585D01*
X151830415Y-97610322D01*
X151736940Y-97547864D01*
X168234600Y-97547864D01*
X168234600Y-97752136D01*
X168274451Y-97952482D01*
X168352622Y-98141204D01*
X168358499Y-98150000D01*
X168352622Y-98158796D01*
X168274451Y-98347518D01*
X168234600Y-98547864D01*
X168234600Y-98752136D01*
X168274451Y-98952482D01*
X168352622Y-99141204D01*
X168358499Y-99150000D01*
X168352622Y-99158796D01*
X168274451Y-99347518D01*
X168234600Y-99547864D01*
X168234600Y-99752136D01*
X168274451Y-99952482D01*
X168352622Y-100141204D01*
X168358499Y-100150000D01*
X168352622Y-100158796D01*
X168274451Y-100347518D01*
X168234600Y-100547864D01*
X168234600Y-100752136D01*
X168274451Y-100952482D01*
X168352622Y-101141204D01*
X168358499Y-101150000D01*
X168352622Y-101158796D01*
X168274451Y-101347518D01*
X168234600Y-101547864D01*
X168234600Y-101752136D01*
X168274451Y-101952482D01*
X168352622Y-102141204D01*
X168466109Y-102311049D01*
X168610551Y-102455491D01*
X168780396Y-102568978D01*
X168969118Y-102647149D01*
X168983451Y-102650000D01*
X168969118Y-102652851D01*
X168780396Y-102731022D01*
X168610551Y-102844509D01*
X168466109Y-102988951D01*
X168352622Y-103158796D01*
X168274451Y-103347518D01*
X168234600Y-103547864D01*
X168234600Y-103752136D01*
X168274451Y-103952482D01*
X168352622Y-104141204D01*
X168358499Y-104150000D01*
X168352622Y-104158796D01*
X168274451Y-104347518D01*
X168234600Y-104547864D01*
X168234600Y-104752136D01*
X168274451Y-104952482D01*
X168352622Y-105141204D01*
X168466109Y-105311049D01*
X168610551Y-105455491D01*
X168780396Y-105568978D01*
X168969118Y-105647149D01*
X169169464Y-105687000D01*
X169373736Y-105687000D01*
X169574082Y-105647149D01*
X169762804Y-105568978D01*
X169932649Y-105455491D01*
X170077091Y-105311049D01*
X170190578Y-105141204D01*
X170268749Y-104952482D01*
X170308600Y-104752136D01*
X170308600Y-104547864D01*
X170268749Y-104347518D01*
X170190578Y-104158796D01*
X170184701Y-104150000D01*
X170190578Y-104141204D01*
X170268749Y-103952482D01*
X170308600Y-103752136D01*
X170308600Y-103547864D01*
X170268749Y-103347518D01*
X170190578Y-103158796D01*
X170077091Y-102988951D01*
X169932649Y-102844509D01*
X169762804Y-102731022D01*
X169574082Y-102652851D01*
X169559749Y-102650000D01*
X169574082Y-102647149D01*
X169762804Y-102568978D01*
X169932649Y-102455491D01*
X170077091Y-102311049D01*
X170190578Y-102141204D01*
X170268749Y-101952482D01*
X170308600Y-101752136D01*
X170308600Y-101547864D01*
X170268749Y-101347518D01*
X170190578Y-101158796D01*
X170184701Y-101150000D01*
X170190578Y-101141204D01*
X170268749Y-100952482D01*
X170308600Y-100752136D01*
X170308600Y-100547864D01*
X170268749Y-100347518D01*
X170190578Y-100158796D01*
X170184701Y-100150000D01*
X170190578Y-100141204D01*
X170268749Y-99952482D01*
X170308600Y-99752136D01*
X170308600Y-99547864D01*
X170268749Y-99347518D01*
X170190578Y-99158796D01*
X170184701Y-99150000D01*
X170190578Y-99141204D01*
X170268749Y-98952482D01*
X170308600Y-98752136D01*
X170308600Y-98547864D01*
X170268749Y-98347518D01*
X170190578Y-98158796D01*
X170184701Y-98150000D01*
X170190578Y-98141204D01*
X170268749Y-97952482D01*
X170308600Y-97752136D01*
X170308600Y-97547864D01*
X170268749Y-97347518D01*
X170190578Y-97158796D01*
X170077091Y-96988951D01*
X169932649Y-96844509D01*
X169762804Y-96731022D01*
X169574082Y-96652851D01*
X169373736Y-96613000D01*
X169169464Y-96613000D01*
X168969118Y-96652851D01*
X168780396Y-96731022D01*
X168610551Y-96844509D01*
X168466109Y-96988951D01*
X168352622Y-97158796D01*
X168274451Y-97347518D01*
X168234600Y-97547864D01*
X151736940Y-97547864D01*
X151619623Y-97469476D01*
X151385404Y-97372459D01*
X151222222Y-97340000D01*
X151385404Y-97307541D01*
X151619623Y-97210524D01*
X151830415Y-97069678D01*
X152009678Y-96890415D01*
X152150524Y-96679623D01*
X152247541Y-96445404D01*
X152297000Y-96196758D01*
X152297000Y-95943242D01*
X152247541Y-95694596D01*
X152150524Y-95460377D01*
X152009678Y-95249585D01*
X151830415Y-95070322D01*
X151619623Y-94929476D01*
X151385404Y-94832459D01*
X151350368Y-94825490D01*
X151399988Y-94815620D01*
X151643307Y-94714834D01*
X151862288Y-94568516D01*
X152048516Y-94382288D01*
X152194834Y-94163307D01*
X152280000Y-93957698D01*
X152365166Y-94163307D01*
X152511484Y-94382288D01*
X152697712Y-94568516D01*
X152916693Y-94714834D01*
X153160012Y-94815620D01*
X153418317Y-94867000D01*
X153681683Y-94867000D01*
X153939988Y-94815620D01*
X154183307Y-94714834D01*
X154402288Y-94568516D01*
X154588516Y-94382288D01*
X154734834Y-94163307D01*
X154820000Y-93957698D01*
X154905166Y-94163307D01*
X155051484Y-94382288D01*
X155237712Y-94568516D01*
X155456693Y-94714834D01*
X155700012Y-94815620D01*
X155958317Y-94867000D01*
X156221683Y-94867000D01*
X156479988Y-94815620D01*
X156723307Y-94714834D01*
X156942288Y-94568516D01*
X157128516Y-94382288D01*
X157274834Y-94163307D01*
X157360000Y-93957698D01*
X157445166Y-94163307D01*
X157591484Y-94382288D01*
X157777712Y-94568516D01*
X157996693Y-94714834D01*
X158240012Y-94815620D01*
X158498317Y-94867000D01*
X158761683Y-94867000D01*
X159019988Y-94815620D01*
X159263307Y-94714834D01*
X159482288Y-94568516D01*
X159668516Y-94382288D01*
X159814834Y-94163307D01*
X159900000Y-93957698D01*
X159985166Y-94163307D01*
X160131484Y-94382288D01*
X160317712Y-94568516D01*
X160536693Y-94714834D01*
X160780012Y-94815620D01*
X161038317Y-94867000D01*
X161301683Y-94867000D01*
X161559988Y-94815620D01*
X161803307Y-94714834D01*
X162022288Y-94568516D01*
X162208516Y-94382288D01*
X162354834Y-94163307D01*
X162440000Y-93957698D01*
X162525166Y-94163307D01*
X162671484Y-94382288D01*
X162857712Y-94568516D01*
X163076693Y-94714834D01*
X163320012Y-94815620D01*
X163578317Y-94867000D01*
X163841683Y-94867000D01*
X164099988Y-94815620D01*
X164343307Y-94714834D01*
X164562288Y-94568516D01*
X164748516Y-94382288D01*
X164894834Y-94163307D01*
X164980000Y-93957698D01*
X165065166Y-94163307D01*
X165211484Y-94382288D01*
X165397712Y-94568516D01*
X165616693Y-94714834D01*
X165860012Y-94815620D01*
X166118317Y-94867000D01*
X166381683Y-94867000D01*
X166639988Y-94815620D01*
X166883307Y-94714834D01*
X167102288Y-94568516D01*
X167288516Y-94382288D01*
X167434834Y-94163307D01*
X167520000Y-93957698D01*
X167605166Y-94163307D01*
X167751484Y-94382288D01*
X167937712Y-94568516D01*
X168156693Y-94714834D01*
X168400012Y-94815620D01*
X168658317Y-94867000D01*
X168921683Y-94867000D01*
X169179988Y-94815620D01*
X169423307Y-94714834D01*
X169642288Y-94568516D01*
X169828516Y-94382288D01*
X169974834Y-94163307D01*
X170060000Y-93957698D01*
X170145166Y-94163307D01*
X170291484Y-94382288D01*
X170477712Y-94568516D01*
X170696693Y-94714834D01*
X170940012Y-94815620D01*
X171198317Y-94867000D01*
X171461683Y-94867000D01*
X171719988Y-94815620D01*
X171963307Y-94714834D01*
X172182288Y-94568516D01*
X172368516Y-94382288D01*
X172514834Y-94163307D01*
X172600000Y-93957698D01*
X172685166Y-94163307D01*
X172831484Y-94382288D01*
X173017712Y-94568516D01*
X173236693Y-94714834D01*
X173480012Y-94815620D01*
X173738317Y-94867000D01*
X174001683Y-94867000D01*
X174259988Y-94815620D01*
X174503307Y-94714834D01*
X174722288Y-94568516D01*
X174908516Y-94382288D01*
X175054834Y-94163307D01*
X175155620Y-93919988D01*
X175207000Y-93661683D01*
X175207000Y-93398317D01*
X175155620Y-93140012D01*
X175054834Y-92896693D01*
X174908516Y-92677712D01*
X174722288Y-92491484D01*
X174503307Y-92345166D01*
X174259988Y-92244380D01*
X174001683Y-92193000D01*
X173738317Y-92193000D01*
X173480012Y-92244380D01*
X173236693Y-92345166D01*
X173017712Y-92491484D01*
X172831484Y-92677712D01*
X172685166Y-92896693D01*
X172600000Y-93102302D01*
X172514834Y-92896693D01*
X172368516Y-92677712D01*
X172182288Y-92491484D01*
X171963307Y-92345166D01*
X171719988Y-92244380D01*
X171461683Y-92193000D01*
X171198317Y-92193000D01*
X170940012Y-92244380D01*
X170696693Y-92345166D01*
X170477712Y-92491484D01*
X170291484Y-92677712D01*
X170145166Y-92896693D01*
X170060000Y-93102302D01*
X169974834Y-92896693D01*
X169828516Y-92677712D01*
X169642288Y-92491484D01*
X169423307Y-92345166D01*
X169179988Y-92244380D01*
X168921683Y-92193000D01*
X168658317Y-92193000D01*
X168400012Y-92244380D01*
X168156693Y-92345166D01*
X167937712Y-92491484D01*
X167751484Y-92677712D01*
X167605166Y-92896693D01*
X167520000Y-93102302D01*
X167434834Y-92896693D01*
X167288516Y-92677712D01*
X167102288Y-92491484D01*
X166883307Y-92345166D01*
X166639988Y-92244380D01*
X166381683Y-92193000D01*
X166118317Y-92193000D01*
X165860012Y-92244380D01*
X165616693Y-92345166D01*
X165397712Y-92491484D01*
X165211484Y-92677712D01*
X165065166Y-92896693D01*
X164980000Y-93102302D01*
X164894834Y-92896693D01*
X164748516Y-92677712D01*
X164562288Y-92491484D01*
X164343307Y-92345166D01*
X164099988Y-92244380D01*
X163841683Y-92193000D01*
X163578317Y-92193000D01*
X163320012Y-92244380D01*
X163076693Y-92345166D01*
X162857712Y-92491484D01*
X162671484Y-92677712D01*
X162525166Y-92896693D01*
X162440000Y-93102302D01*
X162354834Y-92896693D01*
X162208516Y-92677712D01*
X162022288Y-92491484D01*
X161803307Y-92345166D01*
X161559988Y-92244380D01*
X161301683Y-92193000D01*
X161038317Y-92193000D01*
X160780012Y-92244380D01*
X160536693Y-92345166D01*
X160317712Y-92491484D01*
X160131484Y-92677712D01*
X159985166Y-92896693D01*
X159900000Y-93102302D01*
X159814834Y-92896693D01*
X159668516Y-92677712D01*
X159482288Y-92491484D01*
X159263307Y-92345166D01*
X159019988Y-92244380D01*
X158761683Y-92193000D01*
X158498317Y-92193000D01*
X158240012Y-92244380D01*
X157996693Y-92345166D01*
X157777712Y-92491484D01*
X157591484Y-92677712D01*
X157445166Y-92896693D01*
X157360000Y-93102302D01*
X157274834Y-92896693D01*
X157128516Y-92677712D01*
X156942288Y-92491484D01*
X156723307Y-92345166D01*
X156479988Y-92244380D01*
X156221683Y-92193000D01*
X155958317Y-92193000D01*
X155700012Y-92244380D01*
X155456693Y-92345166D01*
X155237712Y-92491484D01*
X155051484Y-92677712D01*
X154905166Y-92896693D01*
X154820000Y-93102302D01*
X154734834Y-92896693D01*
X154588516Y-92677712D01*
X154402288Y-92491484D01*
X154183307Y-92345166D01*
X153939988Y-92244380D01*
X153681683Y-92193000D01*
X153418317Y-92193000D01*
X153160012Y-92244380D01*
X152916693Y-92345166D01*
X152697712Y-92491484D01*
X152511484Y-92677712D01*
X152365166Y-92896693D01*
X152280000Y-93102302D01*
X152194834Y-92896693D01*
X152048516Y-92677712D01*
X151862288Y-92491484D01*
X151643307Y-92345166D01*
X151399988Y-92244380D01*
X151141683Y-92193000D01*
X150878317Y-92193000D01*
X150620012Y-92244380D01*
X150376693Y-92345166D01*
X150157712Y-92491484D01*
X149971484Y-92677712D01*
X149825166Y-92896693D01*
X149740000Y-93102302D01*
X149654834Y-92896693D01*
X149508516Y-92677712D01*
X149322288Y-92491484D01*
X149103307Y-92345166D01*
X148859988Y-92244380D01*
X148601683Y-92193000D01*
X148338317Y-92193000D01*
X148080012Y-92244380D01*
X147836693Y-92345166D01*
X147617712Y-92491484D01*
X147431484Y-92677712D01*
X147285166Y-92896693D01*
X147200000Y-93102302D01*
X147114834Y-92896693D01*
X146968516Y-92677712D01*
X146782288Y-92491484D01*
X146563307Y-92345166D01*
X146319988Y-92244380D01*
X146061683Y-92193000D01*
X145798317Y-92193000D01*
X145540012Y-92244380D01*
X145296693Y-92345166D01*
X145077712Y-92491484D01*
X144891484Y-92677712D01*
X144745166Y-92896693D01*
X144660000Y-93102302D01*
X144574834Y-92896693D01*
X144428516Y-92677712D01*
X144242288Y-92491484D01*
X144023307Y-92345166D01*
X143779988Y-92244380D01*
X143521683Y-92193000D01*
X143258317Y-92193000D01*
X143000012Y-92244380D01*
X142756693Y-92345166D01*
X142537712Y-92491484D01*
X142351484Y-92677712D01*
X142205166Y-92896693D01*
X142104380Y-93140012D01*
X142053000Y-93398317D01*
X142053000Y-93661683D01*
X142104380Y-93919988D01*
X142205166Y-94163307D01*
X142351484Y-94382288D01*
X142537712Y-94568516D01*
X142756693Y-94714834D01*
X142962302Y-94800000D01*
X142756693Y-94885166D01*
X142537712Y-95031484D01*
X142351484Y-95217712D01*
X142205166Y-95436693D01*
X142104380Y-95680012D01*
X142053000Y-95938317D01*
X142053000Y-96201683D01*
X142104380Y-96459988D01*
X142205166Y-96703307D01*
X142351484Y-96922288D01*
X142537712Y-97108516D01*
X142756693Y-97254834D01*
X142962302Y-97340000D01*
X142756693Y-97425166D01*
X142537712Y-97571484D01*
X142474393Y-97634803D01*
X142401898Y-97604774D01*
X142201939Y-97565000D01*
X141998061Y-97565000D01*
X141798102Y-97604774D01*
X141609744Y-97682795D01*
X141440226Y-97796063D01*
X141296063Y-97940226D01*
X141182795Y-98109744D01*
X141104774Y-98298102D01*
X141065000Y-98498061D01*
X133345172Y-98498061D01*
X133417205Y-98390256D01*
X133495226Y-98201898D01*
X133535000Y-98001939D01*
X133535000Y-97798061D01*
X133495226Y-97598102D01*
X133417205Y-97409744D01*
X133303937Y-97240226D01*
X133159774Y-97096063D01*
X132990256Y-96982795D01*
X132801898Y-96904774D01*
X132601939Y-96865000D01*
X132398061Y-96865000D01*
X132198102Y-96904774D01*
X132009744Y-96982795D01*
X131840226Y-97096063D01*
X131696063Y-97240226D01*
X131582795Y-97409744D01*
X131504774Y-97598102D01*
X131465000Y-97798061D01*
X117615880Y-97798061D01*
X117635000Y-97701939D01*
X117635000Y-97498061D01*
X117595226Y-97298102D01*
X117517205Y-97109744D01*
X117403937Y-96940226D01*
X117259774Y-96796063D01*
X117090256Y-96682795D01*
X116980541Y-96637349D01*
X116995226Y-96601898D01*
X117035000Y-96401939D01*
X117035000Y-96198061D01*
X116995226Y-95998102D01*
X116917205Y-95809744D01*
X116803937Y-95640226D01*
X116659774Y-95496063D01*
X116513104Y-95398061D01*
X131765000Y-95398061D01*
X131765000Y-95601939D01*
X131804774Y-95801898D01*
X131882795Y-95990256D01*
X131996063Y-96159774D01*
X132140226Y-96303937D01*
X132309744Y-96417205D01*
X132498102Y-96495226D01*
X132698061Y-96535000D01*
X132901939Y-96535000D01*
X133101898Y-96495226D01*
X133290256Y-96417205D01*
X133459774Y-96303937D01*
X133465000Y-96298711D01*
X133465000Y-96501939D01*
X133504774Y-96701898D01*
X133582795Y-96890256D01*
X133696063Y-97059774D01*
X133840226Y-97203937D01*
X134009744Y-97317205D01*
X134198102Y-97395226D01*
X134398061Y-97435000D01*
X134601939Y-97435000D01*
X134801898Y-97395226D01*
X134990256Y-97317205D01*
X135159774Y-97203937D01*
X135303937Y-97059774D01*
X135417205Y-96890256D01*
X135495226Y-96701898D01*
X135535000Y-96501939D01*
X135535000Y-96298061D01*
X135495226Y-96098102D01*
X135417205Y-95909744D01*
X135303937Y-95740226D01*
X135159774Y-95596063D01*
X134990256Y-95482795D01*
X134801898Y-95404774D01*
X134601939Y-95365000D01*
X134398061Y-95365000D01*
X134198102Y-95404774D01*
X134009744Y-95482795D01*
X133840226Y-95596063D01*
X133835000Y-95601289D01*
X133835000Y-95398061D01*
X133795226Y-95198102D01*
X133717205Y-95009744D01*
X133603937Y-94840226D01*
X133459774Y-94696063D01*
X133290256Y-94582795D01*
X133101898Y-94504774D01*
X132901939Y-94465000D01*
X132698061Y-94465000D01*
X132498102Y-94504774D01*
X132309744Y-94582795D01*
X132140226Y-94696063D01*
X131996063Y-94840226D01*
X131882795Y-95009744D01*
X131804774Y-95198102D01*
X131765000Y-95398061D01*
X116513104Y-95398061D01*
X116490256Y-95382795D01*
X116301898Y-95304774D01*
X116101939Y-95265000D01*
X115898061Y-95265000D01*
X115698102Y-95304774D01*
X115509744Y-95382795D01*
X115340226Y-95496063D01*
X115196063Y-95640226D01*
X115082795Y-95809744D01*
X115004774Y-95998102D01*
X114965000Y-96198061D01*
X93635000Y-96198061D01*
X93635000Y-88998061D01*
X98065000Y-88998061D01*
X98065000Y-89201939D01*
X98104774Y-89401898D01*
X98182795Y-89590256D01*
X98189306Y-89600000D01*
X98182795Y-89609744D01*
X98104774Y-89798102D01*
X98065000Y-89998061D01*
X98065000Y-90201939D01*
X98104774Y-90401898D01*
X98182795Y-90590256D01*
X98296063Y-90759774D01*
X98440226Y-90903937D01*
X98609744Y-91017205D01*
X98798102Y-91095226D01*
X98998061Y-91135000D01*
X99201939Y-91135000D01*
X99387645Y-91098061D01*
X121265000Y-91098061D01*
X121265000Y-91301939D01*
X121304774Y-91501898D01*
X121382795Y-91690256D01*
X121496063Y-91859774D01*
X121640226Y-92003937D01*
X121809744Y-92117205D01*
X121998102Y-92195226D01*
X122081233Y-92211762D01*
X121909744Y-92282795D01*
X121740226Y-92396063D01*
X121596063Y-92540226D01*
X121482795Y-92709744D01*
X121404774Y-92898102D01*
X121365000Y-93098061D01*
X121365000Y-93301939D01*
X121404774Y-93501898D01*
X121482795Y-93690256D01*
X121596063Y-93859774D01*
X121740226Y-94003937D01*
X121909744Y-94117205D01*
X122098102Y-94195226D01*
X122298061Y-94235000D01*
X122501939Y-94235000D01*
X122701898Y-94195226D01*
X122890256Y-94117205D01*
X123059774Y-94003937D01*
X123203937Y-93859774D01*
X123317205Y-93690256D01*
X123395226Y-93501898D01*
X123435000Y-93301939D01*
X123435000Y-93098061D01*
X123395226Y-92898102D01*
X123317205Y-92709744D01*
X123203937Y-92540226D01*
X123059774Y-92396063D01*
X122913104Y-92298061D01*
X128265000Y-92298061D01*
X128265000Y-92501939D01*
X128304774Y-92701898D01*
X128382795Y-92890256D01*
X128496063Y-93059774D01*
X128640226Y-93203937D01*
X128809744Y-93317205D01*
X128998102Y-93395226D01*
X129198061Y-93435000D01*
X129401939Y-93435000D01*
X129601898Y-93395226D01*
X129790256Y-93317205D01*
X129959774Y-93203937D01*
X130103937Y-93059774D01*
X130217205Y-92890256D01*
X130295226Y-92701898D01*
X130335000Y-92501939D01*
X130335000Y-92298061D01*
X130295226Y-92098102D01*
X130217205Y-91909744D01*
X130103937Y-91740226D01*
X129959774Y-91596063D01*
X129790256Y-91482795D01*
X129601898Y-91404774D01*
X129401939Y-91365000D01*
X129198061Y-91365000D01*
X128998102Y-91404774D01*
X128809744Y-91482795D01*
X128640226Y-91596063D01*
X128496063Y-91740226D01*
X128382795Y-91909744D01*
X128304774Y-92098102D01*
X128265000Y-92298061D01*
X122913104Y-92298061D01*
X122890256Y-92282795D01*
X122701898Y-92204774D01*
X122618767Y-92188238D01*
X122790256Y-92117205D01*
X122959774Y-92003937D01*
X123103937Y-91859774D01*
X123217205Y-91690256D01*
X123295226Y-91501898D01*
X123335000Y-91301939D01*
X123335000Y-91098061D01*
X123295226Y-90898102D01*
X123295210Y-90898061D01*
X136565000Y-90898061D01*
X136565000Y-91101939D01*
X136604774Y-91301898D01*
X136682795Y-91490256D01*
X136796063Y-91659774D01*
X136940226Y-91803937D01*
X137109744Y-91917205D01*
X137298102Y-91995226D01*
X137498061Y-92035000D01*
X137701939Y-92035000D01*
X137901898Y-91995226D01*
X138090256Y-91917205D01*
X138259774Y-91803937D01*
X138403937Y-91659774D01*
X138480892Y-91544603D01*
X138540226Y-91603937D01*
X138709744Y-91717205D01*
X138898102Y-91795226D01*
X139098061Y-91835000D01*
X139301939Y-91835000D01*
X139501898Y-91795226D01*
X139690256Y-91717205D01*
X139859774Y-91603937D01*
X140003937Y-91459774D01*
X140117205Y-91290256D01*
X140195226Y-91101898D01*
X140235000Y-90901939D01*
X140235000Y-90698061D01*
X140195226Y-90498102D01*
X140117205Y-90309744D01*
X140003937Y-90140226D01*
X139859774Y-89996063D01*
X139690256Y-89882795D01*
X139501898Y-89804774D01*
X139301939Y-89765000D01*
X139098061Y-89765000D01*
X138898102Y-89804774D01*
X138709744Y-89882795D01*
X138540226Y-89996063D01*
X138396063Y-90140226D01*
X138319108Y-90255397D01*
X138259774Y-90196063D01*
X138090256Y-90082795D01*
X137901898Y-90004774D01*
X137701939Y-89965000D01*
X137498061Y-89965000D01*
X137298102Y-90004774D01*
X137109744Y-90082795D01*
X136940226Y-90196063D01*
X136796063Y-90340226D01*
X136682795Y-90509744D01*
X136604774Y-90698102D01*
X136565000Y-90898061D01*
X123295210Y-90898061D01*
X123217205Y-90709744D01*
X123103937Y-90540226D01*
X122959774Y-90396063D01*
X122790256Y-90282795D01*
X122601898Y-90204774D01*
X122401939Y-90165000D01*
X122198061Y-90165000D01*
X121998102Y-90204774D01*
X121809744Y-90282795D01*
X121640226Y-90396063D01*
X121496063Y-90540226D01*
X121382795Y-90709744D01*
X121304774Y-90898102D01*
X121265000Y-91098061D01*
X99387645Y-91098061D01*
X99401898Y-91095226D01*
X99590256Y-91017205D01*
X99759774Y-90903937D01*
X99903937Y-90759774D01*
X100017205Y-90590256D01*
X100095226Y-90401898D01*
X100135000Y-90201939D01*
X100135000Y-89998061D01*
X100095226Y-89798102D01*
X100017205Y-89609744D01*
X100010694Y-89600000D01*
X100017205Y-89590256D01*
X100095226Y-89401898D01*
X100135000Y-89201939D01*
X100135000Y-88998061D01*
X100095226Y-88798102D01*
X100017205Y-88609744D01*
X99903937Y-88440226D01*
X99759774Y-88296063D01*
X99590256Y-88182795D01*
X99401898Y-88104774D01*
X99201939Y-88065000D01*
X98998061Y-88065000D01*
X98798102Y-88104774D01*
X98609744Y-88182795D01*
X98440226Y-88296063D01*
X98296063Y-88440226D01*
X98182795Y-88609744D01*
X98104774Y-88798102D01*
X98065000Y-88998061D01*
X93635000Y-88998061D01*
X93635000Y-87600000D01*
X100257573Y-87600000D01*
X100287210Y-87900913D01*
X100374983Y-88190261D01*
X100517519Y-88456927D01*
X100709339Y-88690661D01*
X100943073Y-88882481D01*
X101209739Y-89025017D01*
X101499087Y-89112790D01*
X101724592Y-89135000D01*
X104075408Y-89135000D01*
X104300913Y-89112790D01*
X104590261Y-89025017D01*
X104856927Y-88882481D01*
X105090661Y-88690661D01*
X105282481Y-88456927D01*
X105425017Y-88190261D01*
X105452985Y-88098061D01*
X109165000Y-88098061D01*
X109165000Y-88301939D01*
X109204774Y-88501898D01*
X109282795Y-88690256D01*
X109396063Y-88859774D01*
X109540226Y-89003937D01*
X109709744Y-89117205D01*
X109898102Y-89195226D01*
X110098061Y-89235000D01*
X110301939Y-89235000D01*
X110501898Y-89195226D01*
X110690256Y-89117205D01*
X110859774Y-89003937D01*
X111003937Y-88859774D01*
X111117205Y-88690256D01*
X111195226Y-88501898D01*
X111235000Y-88301939D01*
X111235000Y-88098061D01*
X118965000Y-88098061D01*
X118965000Y-88301939D01*
X119004774Y-88501898D01*
X119082795Y-88690256D01*
X119196063Y-88859774D01*
X119340226Y-89003937D01*
X119509744Y-89117205D01*
X119698102Y-89195226D01*
X119898061Y-89235000D01*
X120101939Y-89235000D01*
X120301898Y-89195226D01*
X120490256Y-89117205D01*
X120659774Y-89003937D01*
X120803937Y-88859774D01*
X120917205Y-88690256D01*
X120995226Y-88501898D01*
X121035000Y-88301939D01*
X121035000Y-88098061D01*
X120995226Y-87898102D01*
X120917205Y-87709744D01*
X120803937Y-87540226D01*
X120761772Y-87498061D01*
X129265000Y-87498061D01*
X129265000Y-87701939D01*
X129304774Y-87901898D01*
X129382795Y-88090256D01*
X129496063Y-88259774D01*
X129640226Y-88403937D01*
X129759164Y-88483409D01*
X129740226Y-88496063D01*
X129596063Y-88640226D01*
X129482795Y-88809744D01*
X129404774Y-88998102D01*
X129365000Y-89198061D01*
X129365000Y-89401939D01*
X129404774Y-89601898D01*
X129482795Y-89790256D01*
X129596063Y-89959774D01*
X129740226Y-90103937D01*
X129909744Y-90217205D01*
X130098102Y-90295226D01*
X130298061Y-90335000D01*
X130501939Y-90335000D01*
X130701898Y-90295226D01*
X130890256Y-90217205D01*
X131059774Y-90103937D01*
X131203937Y-89959774D01*
X131317205Y-89790256D01*
X131395226Y-89601898D01*
X131435000Y-89401939D01*
X131435000Y-89198061D01*
X131395226Y-88998102D01*
X131317205Y-88809744D01*
X131203937Y-88640226D01*
X131059774Y-88496063D01*
X130940836Y-88416591D01*
X130959774Y-88403937D01*
X131103937Y-88259774D01*
X131217205Y-88090256D01*
X131295226Y-87901898D01*
X131335000Y-87701939D01*
X131335000Y-87498061D01*
X131295226Y-87298102D01*
X131217205Y-87109744D01*
X131103937Y-86940226D01*
X131061772Y-86898061D01*
X144665000Y-86898061D01*
X144665000Y-87101939D01*
X144704774Y-87301898D01*
X144782795Y-87490256D01*
X144896063Y-87659774D01*
X145040226Y-87803937D01*
X145209744Y-87917205D01*
X145398102Y-87995226D01*
X145598061Y-88035000D01*
X145801939Y-88035000D01*
X146001898Y-87995226D01*
X146190256Y-87917205D01*
X146359774Y-87803937D01*
X146503937Y-87659774D01*
X146617205Y-87490256D01*
X146655393Y-87398061D01*
X159865000Y-87398061D01*
X159865000Y-87601939D01*
X159904774Y-87801898D01*
X159982795Y-87990256D01*
X160096063Y-88159774D01*
X160240226Y-88303937D01*
X160409744Y-88417205D01*
X160598102Y-88495226D01*
X160798061Y-88535000D01*
X161001939Y-88535000D01*
X161201898Y-88495226D01*
X161390256Y-88417205D01*
X161559774Y-88303937D01*
X161703937Y-88159774D01*
X161817205Y-87990256D01*
X161895226Y-87801898D01*
X161935000Y-87601939D01*
X161935000Y-87398061D01*
X161895226Y-87198102D01*
X161817205Y-87009744D01*
X161703937Y-86840226D01*
X161559774Y-86696063D01*
X161390256Y-86582795D01*
X161201898Y-86504774D01*
X161001939Y-86465000D01*
X160798061Y-86465000D01*
X160598102Y-86504774D01*
X160409744Y-86582795D01*
X160240226Y-86696063D01*
X160096063Y-86840226D01*
X159982795Y-87009744D01*
X159904774Y-87198102D01*
X159865000Y-87398061D01*
X146655393Y-87398061D01*
X146695226Y-87301898D01*
X146735000Y-87101939D01*
X146735000Y-86898061D01*
X146695226Y-86698102D01*
X146617205Y-86509744D01*
X146503937Y-86340226D01*
X146359774Y-86196063D01*
X146190256Y-86082795D01*
X146001898Y-86004774D01*
X145801939Y-85965000D01*
X145598061Y-85965000D01*
X145398102Y-86004774D01*
X145209744Y-86082795D01*
X145040226Y-86196063D01*
X144896063Y-86340226D01*
X144782795Y-86509744D01*
X144704774Y-86698102D01*
X144665000Y-86898061D01*
X131061772Y-86898061D01*
X130959774Y-86796063D01*
X130790256Y-86682795D01*
X130601898Y-86604774D01*
X130401939Y-86565000D01*
X130198061Y-86565000D01*
X129998102Y-86604774D01*
X129809744Y-86682795D01*
X129640226Y-86796063D01*
X129496063Y-86940226D01*
X129382795Y-87109744D01*
X129304774Y-87298102D01*
X129265000Y-87498061D01*
X120761772Y-87498061D01*
X120659774Y-87396063D01*
X120490256Y-87282795D01*
X120301898Y-87204774D01*
X120101939Y-87165000D01*
X119898061Y-87165000D01*
X119698102Y-87204774D01*
X119509744Y-87282795D01*
X119340226Y-87396063D01*
X119196063Y-87540226D01*
X119082795Y-87709744D01*
X119004774Y-87898102D01*
X118965000Y-88098061D01*
X111235000Y-88098061D01*
X111195226Y-87898102D01*
X111117205Y-87709744D01*
X111003937Y-87540226D01*
X110859774Y-87396063D01*
X110690256Y-87282795D01*
X110501898Y-87204774D01*
X110301939Y-87165000D01*
X110098061Y-87165000D01*
X109898102Y-87204774D01*
X109709744Y-87282795D01*
X109540226Y-87396063D01*
X109396063Y-87540226D01*
X109282795Y-87709744D01*
X109204774Y-87898102D01*
X109165000Y-88098061D01*
X105452985Y-88098061D01*
X105512790Y-87900913D01*
X105542427Y-87600000D01*
X105512790Y-87299087D01*
X105425017Y-87009739D01*
X105282481Y-86743073D01*
X105090661Y-86509339D01*
X104856927Y-86317519D01*
X104590261Y-86174983D01*
X104300913Y-86087210D01*
X104075408Y-86065000D01*
X101724592Y-86065000D01*
X101499087Y-86087210D01*
X101209739Y-86174983D01*
X100943073Y-86317519D01*
X100709339Y-86509339D01*
X100517519Y-86743073D01*
X100374983Y-87009739D01*
X100287210Y-87299087D01*
X100257573Y-87600000D01*
X93635000Y-87600000D01*
X93635000Y-85998061D01*
X111965000Y-85998061D01*
X111965000Y-86201939D01*
X112004774Y-86401898D01*
X112082795Y-86590256D01*
X112196063Y-86759774D01*
X112340226Y-86903937D01*
X112509744Y-87017205D01*
X112698102Y-87095226D01*
X112898061Y-87135000D01*
X113101939Y-87135000D01*
X113301898Y-87095226D01*
X113490256Y-87017205D01*
X113659774Y-86903937D01*
X113803937Y-86759774D01*
X113917205Y-86590256D01*
X113995226Y-86401898D01*
X114035000Y-86201939D01*
X114035000Y-85998061D01*
X113995226Y-85798102D01*
X113917205Y-85609744D01*
X113803937Y-85440226D01*
X113659774Y-85296063D01*
X113490256Y-85182795D01*
X113301898Y-85104774D01*
X113101939Y-85065000D01*
X112898061Y-85065000D01*
X112698102Y-85104774D01*
X112509744Y-85182795D01*
X112340226Y-85296063D01*
X112196063Y-85440226D01*
X112082795Y-85609744D01*
X112004774Y-85798102D01*
X111965000Y-85998061D01*
X93635000Y-85998061D01*
X93635000Y-80600000D01*
X104361928Y-80600000D01*
X104361928Y-85000000D01*
X104374188Y-85124482D01*
X104410498Y-85244180D01*
X104469463Y-85354494D01*
X104548815Y-85451185D01*
X104645506Y-85530537D01*
X104755820Y-85589502D01*
X104875518Y-85625812D01*
X105000000Y-85638072D01*
X106800000Y-85638072D01*
X106924482Y-85625812D01*
X107044180Y-85589502D01*
X107154494Y-85530537D01*
X107251185Y-85451185D01*
X107330537Y-85354494D01*
X107389502Y-85244180D01*
X107425812Y-85124482D01*
X107438072Y-85000000D01*
X107438072Y-83698061D01*
X119065000Y-83698061D01*
X119065000Y-83901939D01*
X119104774Y-84101898D01*
X119182795Y-84290256D01*
X119296063Y-84459774D01*
X119440226Y-84603937D01*
X119609744Y-84717205D01*
X119798102Y-84795226D01*
X119998061Y-84835000D01*
X120201939Y-84835000D01*
X120387645Y-84798061D01*
X162365000Y-84798061D01*
X162365000Y-85001939D01*
X162404774Y-85201898D01*
X162482795Y-85390256D01*
X162596063Y-85559774D01*
X162740226Y-85703937D01*
X162909744Y-85817205D01*
X163098102Y-85895226D01*
X163298061Y-85935000D01*
X163501939Y-85935000D01*
X163701898Y-85895226D01*
X163890256Y-85817205D01*
X164059774Y-85703937D01*
X164203937Y-85559774D01*
X164229591Y-85521381D01*
X164298061Y-85535000D01*
X164501939Y-85535000D01*
X164701898Y-85495226D01*
X164890256Y-85417205D01*
X165059774Y-85303937D01*
X165135739Y-85227972D01*
X165298102Y-85295226D01*
X165498061Y-85335000D01*
X165701939Y-85335000D01*
X165901898Y-85295226D01*
X166090256Y-85217205D01*
X166150000Y-85177285D01*
X166209744Y-85217205D01*
X166398102Y-85295226D01*
X166598061Y-85335000D01*
X166801939Y-85335000D01*
X167001898Y-85295226D01*
X167190256Y-85217205D01*
X167359774Y-85103937D01*
X167503937Y-84959774D01*
X167617205Y-84790256D01*
X167695226Y-84601898D01*
X167735000Y-84401939D01*
X167735000Y-84198061D01*
X167695226Y-83998102D01*
X167617205Y-83809744D01*
X167503937Y-83640226D01*
X167359774Y-83496063D01*
X167190256Y-83382795D01*
X167001898Y-83304774D01*
X166801939Y-83265000D01*
X166598061Y-83265000D01*
X166398102Y-83304774D01*
X166209744Y-83382795D01*
X166150000Y-83422715D01*
X166090256Y-83382795D01*
X165901898Y-83304774D01*
X165701939Y-83265000D01*
X165498061Y-83265000D01*
X165298102Y-83304774D01*
X165109744Y-83382795D01*
X164940226Y-83496063D01*
X164864261Y-83572028D01*
X164701898Y-83504774D01*
X164501939Y-83465000D01*
X164298061Y-83465000D01*
X164098102Y-83504774D01*
X163909744Y-83582795D01*
X163740226Y-83696063D01*
X163596063Y-83840226D01*
X163570409Y-83878619D01*
X163501939Y-83865000D01*
X163298061Y-83865000D01*
X163098102Y-83904774D01*
X162909744Y-83982795D01*
X162740226Y-84096063D01*
X162596063Y-84240226D01*
X162482795Y-84409744D01*
X162404774Y-84598102D01*
X162365000Y-84798061D01*
X120387645Y-84798061D01*
X120401898Y-84795226D01*
X120590256Y-84717205D01*
X120759774Y-84603937D01*
X120903937Y-84459774D01*
X121017205Y-84290256D01*
X121095226Y-84101898D01*
X121135000Y-83901939D01*
X121135000Y-83698061D01*
X121095226Y-83498102D01*
X121017205Y-83309744D01*
X120903937Y-83140226D01*
X120759774Y-82996063D01*
X120590256Y-82882795D01*
X120401898Y-82804774D01*
X120201939Y-82765000D01*
X119998061Y-82765000D01*
X119798102Y-82804774D01*
X119609744Y-82882795D01*
X119440226Y-82996063D01*
X119296063Y-83140226D01*
X119182795Y-83309744D01*
X119104774Y-83498102D01*
X119065000Y-83698061D01*
X107438072Y-83698061D01*
X107438072Y-82498061D01*
X136265000Y-82498061D01*
X136265000Y-82701939D01*
X136304774Y-82901898D01*
X136382795Y-83090256D01*
X136496063Y-83259774D01*
X136640226Y-83403937D01*
X136809744Y-83517205D01*
X136998102Y-83595226D01*
X137198061Y-83635000D01*
X137401939Y-83635000D01*
X137601898Y-83595226D01*
X137790256Y-83517205D01*
X137959774Y-83403937D01*
X138103937Y-83259774D01*
X138217205Y-83090256D01*
X138295226Y-82901898D01*
X138335000Y-82701939D01*
X138335000Y-82498061D01*
X138295226Y-82298102D01*
X138217205Y-82109744D01*
X138103937Y-81940226D01*
X137959774Y-81796063D01*
X137790256Y-81682795D01*
X137601898Y-81604774D01*
X137401939Y-81565000D01*
X137198061Y-81565000D01*
X136998102Y-81604774D01*
X136809744Y-81682795D01*
X136640226Y-81796063D01*
X136496063Y-81940226D01*
X136382795Y-82109744D01*
X136304774Y-82298102D01*
X136265000Y-82498061D01*
X107438072Y-82498061D01*
X107438072Y-81398061D01*
X157865000Y-81398061D01*
X157865000Y-81601939D01*
X157904774Y-81801898D01*
X157982795Y-81990256D01*
X158096063Y-82159774D01*
X158240226Y-82303937D01*
X158409744Y-82417205D01*
X158598102Y-82495226D01*
X158798061Y-82535000D01*
X159001939Y-82535000D01*
X159201898Y-82495226D01*
X159390256Y-82417205D01*
X159559774Y-82303937D01*
X159703937Y-82159774D01*
X159817205Y-81990256D01*
X159895226Y-81801898D01*
X159935000Y-81601939D01*
X159935000Y-81398061D01*
X159895226Y-81198102D01*
X159817205Y-81009744D01*
X159703937Y-80840226D01*
X159559774Y-80696063D01*
X159390256Y-80582795D01*
X159201898Y-80504774D01*
X159001939Y-80465000D01*
X158798061Y-80465000D01*
X158598102Y-80504774D01*
X158409744Y-80582795D01*
X158240226Y-80696063D01*
X158096063Y-80840226D01*
X157982795Y-81009744D01*
X157904774Y-81198102D01*
X157865000Y-81398061D01*
X107438072Y-81398061D01*
X107438072Y-80600000D01*
X107425812Y-80475518D01*
X107389502Y-80355820D01*
X107330537Y-80245506D01*
X107251185Y-80148815D01*
X107154494Y-80069463D01*
X107044180Y-80010498D01*
X106924482Y-79974188D01*
X106800000Y-79961928D01*
X105000000Y-79961928D01*
X104875518Y-79974188D01*
X104755820Y-80010498D01*
X104645506Y-80069463D01*
X104548815Y-80148815D01*
X104469463Y-80245506D01*
X104410498Y-80355820D01*
X104374188Y-80475518D01*
X104361928Y-80600000D01*
X93635000Y-80600000D01*
X93635000Y-78598061D01*
X163365000Y-78598061D01*
X163365000Y-78801939D01*
X163404774Y-79001898D01*
X163482795Y-79190256D01*
X163596063Y-79359774D01*
X163740226Y-79503937D01*
X163909744Y-79617205D01*
X164098102Y-79695226D01*
X164298061Y-79735000D01*
X164501939Y-79735000D01*
X164701898Y-79695226D01*
X164890256Y-79617205D01*
X165059774Y-79503937D01*
X165203937Y-79359774D01*
X165317205Y-79190256D01*
X165395226Y-79001898D01*
X165435000Y-78801939D01*
X165435000Y-78598061D01*
X165395226Y-78398102D01*
X165317205Y-78209744D01*
X165203937Y-78040226D01*
X165059774Y-77896063D01*
X164890256Y-77782795D01*
X164701898Y-77704774D01*
X164501939Y-77665000D01*
X164298061Y-77665000D01*
X164098102Y-77704774D01*
X163909744Y-77782795D01*
X163740226Y-77896063D01*
X163596063Y-78040226D01*
X163482795Y-78209744D01*
X163404774Y-78398102D01*
X163365000Y-78598061D01*
X93635000Y-78598061D01*
X93635000Y-77398061D01*
X147065000Y-77398061D01*
X147065000Y-77601939D01*
X147104774Y-77801898D01*
X147182795Y-77990256D01*
X147296063Y-78159774D01*
X147440226Y-78303937D01*
X147609744Y-78417205D01*
X147798102Y-78495226D01*
X147998061Y-78535000D01*
X148201939Y-78535000D01*
X148401898Y-78495226D01*
X148590256Y-78417205D01*
X148759774Y-78303937D01*
X148903937Y-78159774D01*
X149017205Y-77990256D01*
X149095226Y-77801898D01*
X149135000Y-77601939D01*
X149135000Y-77398061D01*
X149095226Y-77198102D01*
X149017205Y-77009744D01*
X148903937Y-76840226D01*
X148759774Y-76696063D01*
X148590256Y-76582795D01*
X148401898Y-76504774D01*
X148201939Y-76465000D01*
X147998061Y-76465000D01*
X147798102Y-76504774D01*
X147609744Y-76582795D01*
X147440226Y-76696063D01*
X147296063Y-76840226D01*
X147182795Y-77009744D01*
X147104774Y-77198102D01*
X147065000Y-77398061D01*
X93635000Y-77398061D01*
X93635000Y-71127000D01*
X107745195Y-71127000D01*
X107735611Y-71141343D01*
G04 #@! TA.AperFunction,Conductor*
D31*
G36*
X107735611Y-71141343D02*
G01*
X107423906Y-71893865D01*
X107265000Y-72692738D01*
X107265000Y-73507262D01*
X107423906Y-74306135D01*
X107735611Y-75058657D01*
X108188136Y-75735909D01*
X108764091Y-76311864D01*
X109441343Y-76764389D01*
X110193865Y-77076094D01*
X110992738Y-77235000D01*
X111807262Y-77235000D01*
X112606135Y-77076094D01*
X113358657Y-76764389D01*
X114035909Y-76311864D01*
X114611864Y-75735909D01*
X115064389Y-75058657D01*
X115338016Y-74398061D01*
X131165000Y-74398061D01*
X131165000Y-74601939D01*
X131204774Y-74801898D01*
X131282795Y-74990256D01*
X131396063Y-75159774D01*
X131540226Y-75303937D01*
X131709744Y-75417205D01*
X131898102Y-75495226D01*
X132098061Y-75535000D01*
X132301939Y-75535000D01*
X132501898Y-75495226D01*
X132690256Y-75417205D01*
X132859774Y-75303937D01*
X133003937Y-75159774D01*
X133117205Y-74990256D01*
X133195226Y-74801898D01*
X133235000Y-74601939D01*
X133235000Y-74398061D01*
X133195226Y-74198102D01*
X133117205Y-74009744D01*
X133003937Y-73840226D01*
X132859774Y-73696063D01*
X132690256Y-73582795D01*
X132501898Y-73504774D01*
X132301939Y-73465000D01*
X132098061Y-73465000D01*
X131898102Y-73504774D01*
X131709744Y-73582795D01*
X131540226Y-73696063D01*
X131396063Y-73840226D01*
X131282795Y-74009744D01*
X131204774Y-74198102D01*
X131165000Y-74398061D01*
X115338016Y-74398061D01*
X115376094Y-74306135D01*
X115535000Y-73507262D01*
X115535000Y-72692738D01*
X115376094Y-71893865D01*
X115064389Y-71141343D01*
X115054805Y-71127000D01*
X135015172Y-71127000D01*
X135082795Y-71290256D01*
X135196063Y-71459774D01*
X135340226Y-71603937D01*
X135509744Y-71717205D01*
X135698102Y-71795226D01*
X135898061Y-71835000D01*
X136101939Y-71835000D01*
X136301898Y-71795226D01*
X136490256Y-71717205D01*
X136659774Y-71603937D01*
X136803937Y-71459774D01*
X136917205Y-71290256D01*
X136984828Y-71127000D01*
X154945195Y-71127000D01*
X154935611Y-71141343D01*
X154623906Y-71893865D01*
X154465000Y-72692738D01*
X154465000Y-73507262D01*
X154623906Y-74306135D01*
X154935611Y-75058657D01*
X155388136Y-75735909D01*
X155964091Y-76311864D01*
X156641343Y-76764389D01*
X157393865Y-77076094D01*
X158192738Y-77235000D01*
X159007262Y-77235000D01*
X159806135Y-77076094D01*
X160558657Y-76764389D01*
X161235909Y-76311864D01*
X161811864Y-75735909D01*
X162264389Y-75058657D01*
X162576094Y-74306135D01*
X162735000Y-73507262D01*
X162735000Y-72692738D01*
X162576094Y-71893865D01*
X162264389Y-71141343D01*
X162254805Y-71127000D01*
X176365000Y-71127000D01*
X176365000Y-99474319D01*
X176280524Y-99270377D01*
X176139678Y-99059585D01*
X175960415Y-98880322D01*
X175749623Y-98739476D01*
X175515404Y-98642459D01*
X175266758Y-98593000D01*
X175013242Y-98593000D01*
X174764596Y-98642459D01*
X174530377Y-98739476D01*
X174319585Y-98880322D01*
X174140322Y-99059585D01*
X173999476Y-99270377D01*
X173902459Y-99504596D01*
X173853000Y-99753242D01*
X173853000Y-100006758D01*
X173902459Y-100255404D01*
X173999476Y-100489623D01*
X174140322Y-100700415D01*
X174319585Y-100879678D01*
X174530377Y-101020524D01*
X174764596Y-101117541D01*
X174927778Y-101150000D01*
X174764596Y-101182459D01*
X174530377Y-101279476D01*
X174319585Y-101420322D01*
X174140322Y-101599585D01*
X173999476Y-101810377D01*
X173902459Y-102044596D01*
X173853000Y-102293242D01*
X173853000Y-102546758D01*
X173902459Y-102795404D01*
X173999476Y-103029623D01*
X174140322Y-103240415D01*
X174319585Y-103419678D01*
X174530377Y-103560524D01*
X174764596Y-103657541D01*
X175013242Y-103707000D01*
X175266758Y-103707000D01*
X175515404Y-103657541D01*
X175749623Y-103560524D01*
X175960415Y-103419678D01*
X176139678Y-103240415D01*
X176280524Y-103029623D01*
X176365000Y-102825681D01*
X176365000Y-107433000D01*
X176278317Y-107433000D01*
X176020012Y-107484380D01*
X175776693Y-107585166D01*
X175557712Y-107731484D01*
X175371484Y-107917712D01*
X175225166Y-108136693D01*
X175124380Y-108380012D01*
X175073000Y-108638317D01*
X175073000Y-108901683D01*
X175124380Y-109159988D01*
X175225166Y-109403307D01*
X175371484Y-109622288D01*
X175557712Y-109808516D01*
X175776693Y-109954834D01*
X176020012Y-110055620D01*
X176278317Y-110107000D01*
X176365000Y-110107000D01*
X176365000Y-110736974D01*
X175844187Y-111257787D01*
X175377715Y-111165000D01*
X174622285Y-111165000D01*
X173881372Y-111312377D01*
X173183446Y-111601467D01*
X172555330Y-112021161D01*
X172021161Y-112555330D01*
X171601467Y-113183446D01*
X171518938Y-113382689D01*
X171535000Y-113301939D01*
X171535000Y-113098061D01*
X171495226Y-112898102D01*
X171417205Y-112709744D01*
X171343873Y-112599995D01*
X171417205Y-112490246D01*
X171495226Y-112301888D01*
X171535000Y-112101929D01*
X171535000Y-111898051D01*
X171495226Y-111698092D01*
X171417205Y-111509734D01*
X171303937Y-111340216D01*
X171159774Y-111196053D01*
X170990256Y-111082785D01*
X170801898Y-111004764D01*
X170601939Y-110964990D01*
X170398061Y-110964990D01*
X170198102Y-111004764D01*
X170009744Y-111082785D01*
X169840226Y-111196053D01*
X169696063Y-111340216D01*
X169582795Y-111509734D01*
X169504774Y-111698092D01*
X169465000Y-111898051D01*
X169465000Y-112101929D01*
X169504774Y-112301888D01*
X169582795Y-112490246D01*
X169656127Y-112599995D01*
X169582795Y-112709744D01*
X169504774Y-112898102D01*
X169465000Y-113098061D01*
X169465000Y-113301939D01*
X169504774Y-113501898D01*
X169582795Y-113690256D01*
X169696063Y-113859774D01*
X169840226Y-114003937D01*
X170009744Y-114117205D01*
X170198102Y-114195226D01*
X170398061Y-114235000D01*
X170601939Y-114235000D01*
X170801898Y-114195226D01*
X170990256Y-114117205D01*
X171159774Y-114003937D01*
X171303937Y-113859774D01*
X171349680Y-113791315D01*
X171312377Y-113881372D01*
X171165000Y-114622285D01*
X171165000Y-115377715D01*
X171257787Y-115844187D01*
X170736974Y-116365000D01*
X164584346Y-116365000D01*
X164588363Y-116360983D01*
X164822012Y-116011302D01*
X164982953Y-115622756D01*
X165065000Y-115210279D01*
X165065000Y-115198061D01*
X167665000Y-115198061D01*
X167665000Y-115401939D01*
X167704774Y-115601898D01*
X167782795Y-115790256D01*
X167896063Y-115959774D01*
X168040226Y-116103937D01*
X168209744Y-116217205D01*
X168398102Y-116295226D01*
X168598061Y-116335000D01*
X168801939Y-116335000D01*
X169001898Y-116295226D01*
X169190256Y-116217205D01*
X169359774Y-116103937D01*
X169503937Y-115959774D01*
X169617205Y-115790256D01*
X169695226Y-115601898D01*
X169735000Y-115401939D01*
X169735000Y-115198061D01*
X169695226Y-114998102D01*
X169617205Y-114809744D01*
X169503937Y-114640226D01*
X169359774Y-114496063D01*
X169190256Y-114382795D01*
X169001898Y-114304774D01*
X168801939Y-114265000D01*
X168598061Y-114265000D01*
X168398102Y-114304774D01*
X168209744Y-114382795D01*
X168040226Y-114496063D01*
X167896063Y-114640226D01*
X167782795Y-114809744D01*
X167704774Y-114998102D01*
X167665000Y-115198061D01*
X165065000Y-115198061D01*
X165065000Y-114789721D01*
X164982953Y-114377244D01*
X164822012Y-113988698D01*
X164588363Y-113639017D01*
X164290983Y-113341637D01*
X163941302Y-113107988D01*
X163552756Y-112947047D01*
X163140279Y-112865000D01*
X162719721Y-112865000D01*
X162307244Y-112947047D01*
X161918698Y-113107988D01*
X161569017Y-113341637D01*
X161271637Y-113639017D01*
X161037988Y-113988698D01*
X160877047Y-114377244D01*
X160795000Y-114789721D01*
X160795000Y-115210279D01*
X160877047Y-115622756D01*
X161037988Y-116011302D01*
X161271637Y-116360983D01*
X161275654Y-116365000D01*
X143437178Y-116365000D01*
X143419040Y-116346862D01*
X143249522Y-116233594D01*
X143061164Y-116155573D01*
X142861205Y-116115799D01*
X142657327Y-116115799D01*
X142457368Y-116155573D01*
X142269010Y-116233594D01*
X142099492Y-116346862D01*
X142081354Y-116365000D01*
X137902565Y-116365000D01*
X137935000Y-116201939D01*
X137935000Y-115998061D01*
X137895226Y-115798102D01*
X137817205Y-115609744D01*
X137703937Y-115440226D01*
X137559774Y-115296063D01*
X137390256Y-115182795D01*
X137201898Y-115104774D01*
X137001939Y-115065000D01*
X136798061Y-115065000D01*
X136598102Y-115104774D01*
X136409744Y-115182795D01*
X136240226Y-115296063D01*
X136096063Y-115440226D01*
X135982795Y-115609744D01*
X135904774Y-115798102D01*
X135865000Y-115998061D01*
X135865000Y-116201939D01*
X135897435Y-116365000D01*
X126174869Y-116365000D01*
X126290256Y-116317205D01*
X126459774Y-116203937D01*
X126603937Y-116059774D01*
X126717205Y-115890256D01*
X126795226Y-115701898D01*
X126835000Y-115501939D01*
X126835000Y-115298061D01*
X126795226Y-115098102D01*
X126717205Y-114909744D01*
X126603937Y-114740226D01*
X126459774Y-114596063D01*
X126290256Y-114482795D01*
X126101898Y-114404774D01*
X125901939Y-114365000D01*
X125698061Y-114365000D01*
X125498102Y-114404774D01*
X125309744Y-114482795D01*
X125140226Y-114596063D01*
X124996063Y-114740226D01*
X124882795Y-114909744D01*
X124804774Y-115098102D01*
X124765000Y-115298061D01*
X124765000Y-115501939D01*
X124804774Y-115701898D01*
X124882795Y-115890256D01*
X124996063Y-116059774D01*
X125140226Y-116203937D01*
X125309744Y-116317205D01*
X125425131Y-116365000D01*
X118374869Y-116365000D01*
X118490256Y-116317205D01*
X118659774Y-116203937D01*
X118803937Y-116059774D01*
X118917205Y-115890256D01*
X118995226Y-115701898D01*
X119035000Y-115501939D01*
X119035000Y-115298061D01*
X118995226Y-115098102D01*
X118917205Y-114909744D01*
X118803937Y-114740226D01*
X118659774Y-114596063D01*
X118490256Y-114482795D01*
X118301898Y-114404774D01*
X118101939Y-114365000D01*
X117898061Y-114365000D01*
X117698102Y-114404774D01*
X117509744Y-114482795D01*
X117340226Y-114596063D01*
X117196063Y-114740226D01*
X117082795Y-114909744D01*
X117004774Y-115098102D01*
X116965000Y-115298061D01*
X116965000Y-115501939D01*
X117004774Y-115701898D01*
X117037658Y-115781285D01*
X116890256Y-115682795D01*
X116701898Y-115604774D01*
X116501939Y-115565000D01*
X116298061Y-115565000D01*
X116098102Y-115604774D01*
X115909744Y-115682795D01*
X115850000Y-115722715D01*
X115790256Y-115682795D01*
X115601898Y-115604774D01*
X115401939Y-115565000D01*
X115198061Y-115565000D01*
X114998102Y-115604774D01*
X114809744Y-115682795D01*
X114640226Y-115796063D01*
X114496063Y-115940226D01*
X114382795Y-116109744D01*
X114304774Y-116298102D01*
X114291467Y-116365000D01*
X99263026Y-116365000D01*
X98742213Y-115844187D01*
X98835000Y-115377715D01*
X98835000Y-114622285D01*
X98687623Y-113881372D01*
X98590983Y-113648061D01*
X102015000Y-113648061D01*
X102015000Y-113851939D01*
X102054774Y-114051898D01*
X102132795Y-114240256D01*
X102155859Y-114274773D01*
X102104774Y-114398102D01*
X102065000Y-114598061D01*
X102065000Y-114801939D01*
X102104774Y-115001898D01*
X102182795Y-115190256D01*
X102296063Y-115359774D01*
X102440226Y-115503937D01*
X102609744Y-115617205D01*
X102798102Y-115695226D01*
X102998061Y-115735000D01*
X103201939Y-115735000D01*
X103401898Y-115695226D01*
X103590256Y-115617205D01*
X103759774Y-115503937D01*
X103903937Y-115359774D01*
X104017205Y-115190256D01*
X104095226Y-115001898D01*
X104135000Y-114801939D01*
X104135000Y-114598061D01*
X104095226Y-114398102D01*
X104017205Y-114209744D01*
X103994141Y-114175227D01*
X104045226Y-114051898D01*
X104085000Y-113851939D01*
X104085000Y-113648061D01*
X104045226Y-113448102D01*
X103967205Y-113259744D01*
X103853937Y-113090226D01*
X103709774Y-112946063D01*
X103540256Y-112832795D01*
X103456402Y-112798061D01*
X137865000Y-112798061D01*
X137865000Y-113001939D01*
X137904774Y-113201898D01*
X137982795Y-113390256D01*
X138096063Y-113559774D01*
X138240226Y-113703937D01*
X138409744Y-113817205D01*
X138598102Y-113895226D01*
X138798061Y-113935000D01*
X139001939Y-113935000D01*
X139201898Y-113895226D01*
X139390256Y-113817205D01*
X139559774Y-113703937D01*
X139703937Y-113559774D01*
X139817205Y-113390256D01*
X139895226Y-113201898D01*
X139935000Y-113001939D01*
X139935000Y-112798061D01*
X139895226Y-112598102D01*
X139853788Y-112498061D01*
X154865000Y-112498061D01*
X154865000Y-112701939D01*
X154904774Y-112901898D01*
X154982795Y-113090256D01*
X155096063Y-113259774D01*
X155240226Y-113403937D01*
X155409744Y-113517205D01*
X155598102Y-113595226D01*
X155798061Y-113635000D01*
X156001939Y-113635000D01*
X156201898Y-113595226D01*
X156390256Y-113517205D01*
X156550000Y-113410468D01*
X156709744Y-113517205D01*
X156898102Y-113595226D01*
X157098061Y-113635000D01*
X157301939Y-113635000D01*
X157501898Y-113595226D01*
X157690256Y-113517205D01*
X157850000Y-113410468D01*
X158009744Y-113517205D01*
X158198102Y-113595226D01*
X158398061Y-113635000D01*
X158601939Y-113635000D01*
X158801898Y-113595226D01*
X158990256Y-113517205D01*
X159159774Y-113403937D01*
X159303937Y-113259774D01*
X159417205Y-113090256D01*
X159495226Y-112901898D01*
X159535000Y-112701939D01*
X159535000Y-112498061D01*
X159495226Y-112298102D01*
X159417205Y-112109744D01*
X159303937Y-111940226D01*
X159159774Y-111796063D01*
X158990256Y-111682795D01*
X158801898Y-111604774D01*
X158601939Y-111565000D01*
X158398061Y-111565000D01*
X158198102Y-111604774D01*
X158009744Y-111682795D01*
X157850000Y-111789532D01*
X157690256Y-111682795D01*
X157501898Y-111604774D01*
X157301939Y-111565000D01*
X157098061Y-111565000D01*
X156898102Y-111604774D01*
X156709744Y-111682795D01*
X156550000Y-111789532D01*
X156390256Y-111682795D01*
X156201898Y-111604774D01*
X156001939Y-111565000D01*
X155798061Y-111565000D01*
X155598102Y-111604774D01*
X155409744Y-111682795D01*
X155240226Y-111796063D01*
X155096063Y-111940226D01*
X154982795Y-112109744D01*
X154904774Y-112298102D01*
X154865000Y-112498061D01*
X139853788Y-112498061D01*
X139817205Y-112409744D01*
X139703937Y-112240226D01*
X139559774Y-112096063D01*
X139390256Y-111982795D01*
X139201898Y-111904774D01*
X139001939Y-111865000D01*
X138798061Y-111865000D01*
X138598102Y-111904774D01*
X138409744Y-111982795D01*
X138240226Y-112096063D01*
X138096063Y-112240226D01*
X137982795Y-112409744D01*
X137904774Y-112598102D01*
X137865000Y-112798061D01*
X103456402Y-112798061D01*
X103351898Y-112754774D01*
X103151939Y-112715000D01*
X102948061Y-112715000D01*
X102748102Y-112754774D01*
X102559744Y-112832795D01*
X102390226Y-112946063D01*
X102246063Y-113090226D01*
X102132795Y-113259744D01*
X102054774Y-113448102D01*
X102015000Y-113648061D01*
X98590983Y-113648061D01*
X98398533Y-113183446D01*
X97978839Y-112555330D01*
X97444670Y-112021161D01*
X96816554Y-111601467D01*
X96118628Y-111312377D01*
X95377715Y-111165000D01*
X94622285Y-111165000D01*
X94155813Y-111257787D01*
X93635000Y-110736974D01*
X93635000Y-106898061D01*
X101365000Y-106898061D01*
X101365000Y-107101939D01*
X101404774Y-107301898D01*
X101482795Y-107490256D01*
X101596063Y-107659774D01*
X101740226Y-107803937D01*
X101909744Y-107917205D01*
X102098102Y-107995226D01*
X102298061Y-108035000D01*
X102501939Y-108035000D01*
X102701898Y-107995226D01*
X102890256Y-107917205D01*
X102892109Y-107915967D01*
X103023102Y-107970226D01*
X103223061Y-108010000D01*
X103426939Y-108010000D01*
X103626898Y-107970226D01*
X103815256Y-107892205D01*
X103984774Y-107778937D01*
X104128937Y-107634774D01*
X104242205Y-107465256D01*
X104320226Y-107276898D01*
X104360000Y-107076939D01*
X104360000Y-106873061D01*
X104325191Y-106698061D01*
X113165000Y-106698061D01*
X113165000Y-106901939D01*
X113204774Y-107101898D01*
X113282795Y-107290256D01*
X113396063Y-107459774D01*
X113540226Y-107603937D01*
X113709744Y-107717205D01*
X113898102Y-107795226D01*
X114098061Y-107835000D01*
X114301939Y-107835000D01*
X114501898Y-107795226D01*
X114690256Y-107717205D01*
X114859774Y-107603937D01*
X115003937Y-107459774D01*
X115117205Y-107290256D01*
X115195226Y-107101898D01*
X115235000Y-106901939D01*
X115235000Y-106698061D01*
X115195226Y-106498102D01*
X115117205Y-106309744D01*
X115003937Y-106140226D01*
X114961772Y-106098061D01*
X116265000Y-106098061D01*
X116265000Y-106301939D01*
X116304774Y-106501898D01*
X116382795Y-106690256D01*
X116496063Y-106859774D01*
X116640226Y-107003937D01*
X116809744Y-107117205D01*
X116998102Y-107195226D01*
X117198061Y-107235000D01*
X117401939Y-107235000D01*
X117601898Y-107195226D01*
X117790256Y-107117205D01*
X117959774Y-107003937D01*
X118103937Y-106859774D01*
X118217205Y-106690256D01*
X118295226Y-106501898D01*
X118335000Y-106301939D01*
X118335000Y-106098061D01*
X118295226Y-105898102D01*
X118217205Y-105709744D01*
X118103937Y-105540226D01*
X117959774Y-105396063D01*
X117790256Y-105282795D01*
X117601898Y-105204774D01*
X117401939Y-105165000D01*
X117198061Y-105165000D01*
X116998102Y-105204774D01*
X116809744Y-105282795D01*
X116640226Y-105396063D01*
X116496063Y-105540226D01*
X116382795Y-105709744D01*
X116304774Y-105898102D01*
X116265000Y-106098061D01*
X114961772Y-106098061D01*
X114859774Y-105996063D01*
X114690256Y-105882795D01*
X114501898Y-105804774D01*
X114301939Y-105765000D01*
X114098061Y-105765000D01*
X113898102Y-105804774D01*
X113709744Y-105882795D01*
X113540226Y-105996063D01*
X113396063Y-106140226D01*
X113282795Y-106309744D01*
X113204774Y-106498102D01*
X113165000Y-106698061D01*
X104325191Y-106698061D01*
X104320226Y-106673102D01*
X104242205Y-106484744D01*
X104128937Y-106315226D01*
X103984774Y-106171063D01*
X103815256Y-106057795D01*
X103626898Y-105979774D01*
X103426939Y-105940000D01*
X103223061Y-105940000D01*
X103023102Y-105979774D01*
X102834744Y-106057795D01*
X102832891Y-106059033D01*
X102701898Y-106004774D01*
X102501939Y-105965000D01*
X102298061Y-105965000D01*
X102098102Y-106004774D01*
X101909744Y-106082795D01*
X101740226Y-106196063D01*
X101596063Y-106340226D01*
X101482795Y-106509744D01*
X101404774Y-106698102D01*
X101365000Y-106898061D01*
X93635000Y-106898061D01*
X93635000Y-104098061D01*
X132665000Y-104098061D01*
X132665000Y-104301939D01*
X132704774Y-104501898D01*
X132782795Y-104690256D01*
X132896063Y-104859774D01*
X133040226Y-105003937D01*
X133209744Y-105117205D01*
X133398102Y-105195226D01*
X133598061Y-105235000D01*
X133801939Y-105235000D01*
X134001898Y-105195226D01*
X134190256Y-105117205D01*
X134359774Y-105003937D01*
X134503937Y-104859774D01*
X134617205Y-104690256D01*
X134695226Y-104501898D01*
X134735000Y-104301939D01*
X134735000Y-104274869D01*
X134782795Y-104390256D01*
X134896063Y-104559774D01*
X135040226Y-104703937D01*
X135209744Y-104817205D01*
X135398102Y-104895226D01*
X135598061Y-104935000D01*
X135801939Y-104935000D01*
X136001898Y-104895226D01*
X136190256Y-104817205D01*
X136359774Y-104703937D01*
X136465650Y-104598061D01*
X136765000Y-104598061D01*
X136765000Y-104801939D01*
X136804774Y-105001898D01*
X136882795Y-105190256D01*
X136996063Y-105359774D01*
X137140226Y-105503937D01*
X137309744Y-105617205D01*
X137498102Y-105695226D01*
X137698061Y-105735000D01*
X137901939Y-105735000D01*
X138101898Y-105695226D01*
X138290256Y-105617205D01*
X138459774Y-105503937D01*
X138603937Y-105359774D01*
X138717205Y-105190256D01*
X138795226Y-105001898D01*
X138835000Y-104801939D01*
X138835000Y-104598061D01*
X138795226Y-104398102D01*
X138717205Y-104209744D01*
X138603937Y-104040226D01*
X138459774Y-103896063D01*
X138290256Y-103782795D01*
X138101898Y-103704774D01*
X137901939Y-103665000D01*
X137698061Y-103665000D01*
X137498102Y-103704774D01*
X137309744Y-103782795D01*
X137140226Y-103896063D01*
X136996063Y-104040226D01*
X136882795Y-104209744D01*
X136804774Y-104398102D01*
X136765000Y-104598061D01*
X136465650Y-104598061D01*
X136503937Y-104559774D01*
X136617205Y-104390256D01*
X136695226Y-104201898D01*
X136735000Y-104001939D01*
X136735000Y-103798061D01*
X136695226Y-103598102D01*
X136617205Y-103409744D01*
X136503937Y-103240226D01*
X136359774Y-103096063D01*
X136190256Y-102982795D01*
X136001898Y-102904774D01*
X135801939Y-102865000D01*
X135598061Y-102865000D01*
X135398102Y-102904774D01*
X135209744Y-102982795D01*
X135040226Y-103096063D01*
X134896063Y-103240226D01*
X134782795Y-103409744D01*
X134704774Y-103598102D01*
X134665000Y-103798061D01*
X134665000Y-103825131D01*
X134617205Y-103709744D01*
X134503937Y-103540226D01*
X134359774Y-103396063D01*
X134190256Y-103282795D01*
X134001898Y-103204774D01*
X133801939Y-103165000D01*
X133598061Y-103165000D01*
X133398102Y-103204774D01*
X133209744Y-103282795D01*
X133040226Y-103396063D01*
X132896063Y-103540226D01*
X132782795Y-103709744D01*
X132704774Y-103898102D01*
X132665000Y-104098061D01*
X93635000Y-104098061D01*
X93635000Y-100598061D01*
X101865000Y-100598061D01*
X101865000Y-100801939D01*
X101904774Y-101001898D01*
X101982795Y-101190256D01*
X102096063Y-101359774D01*
X102240226Y-101503937D01*
X102409744Y-101617205D01*
X102598102Y-101695226D01*
X102798061Y-101735000D01*
X103001939Y-101735000D01*
X103201898Y-101695226D01*
X103390256Y-101617205D01*
X103559774Y-101503937D01*
X103703937Y-101359774D01*
X103817205Y-101190256D01*
X103895226Y-101001898D01*
X103935000Y-100801939D01*
X103935000Y-100598061D01*
X103915109Y-100498061D01*
X131465000Y-100498061D01*
X131465000Y-100701939D01*
X131504774Y-100901898D01*
X131582795Y-101090256D01*
X131696063Y-101259774D01*
X131840226Y-101403937D01*
X132009744Y-101517205D01*
X132198102Y-101595226D01*
X132398061Y-101635000D01*
X132601939Y-101635000D01*
X132801898Y-101595226D01*
X132990256Y-101517205D01*
X133159774Y-101403937D01*
X133303937Y-101259774D01*
X133417205Y-101090256D01*
X133495226Y-100901898D01*
X133535000Y-100701939D01*
X133535000Y-100498061D01*
X133495226Y-100298102D01*
X133417205Y-100109744D01*
X133342582Y-99998061D01*
X138065000Y-99998061D01*
X138065000Y-100201939D01*
X138104774Y-100401898D01*
X138182795Y-100590256D01*
X138296063Y-100759774D01*
X138440226Y-100903937D01*
X138609744Y-101017205D01*
X138798102Y-101095226D01*
X138998061Y-101135000D01*
X139201939Y-101135000D01*
X139401898Y-101095226D01*
X139590256Y-101017205D01*
X139759774Y-100903937D01*
X139903937Y-100759774D01*
X140017205Y-100590256D01*
X140095226Y-100401898D01*
X140135000Y-100201939D01*
X140135000Y-99998061D01*
X140095226Y-99798102D01*
X140017205Y-99609744D01*
X139903937Y-99440226D01*
X139759774Y-99296063D01*
X139590256Y-99182795D01*
X139401898Y-99104774D01*
X139201939Y-99065000D01*
X138998061Y-99065000D01*
X138798102Y-99104774D01*
X138609744Y-99182795D01*
X138440226Y-99296063D01*
X138296063Y-99440226D01*
X138182795Y-99609744D01*
X138104774Y-99798102D01*
X138065000Y-99998061D01*
X133342582Y-99998061D01*
X133303937Y-99940226D01*
X133159774Y-99796063D01*
X132990256Y-99682795D01*
X132801898Y-99604774D01*
X132601939Y-99565000D01*
X132398061Y-99565000D01*
X132198102Y-99604774D01*
X132009744Y-99682795D01*
X131840226Y-99796063D01*
X131696063Y-99940226D01*
X131582795Y-100109744D01*
X131504774Y-100298102D01*
X131465000Y-100498061D01*
X103915109Y-100498061D01*
X103895226Y-100398102D01*
X103861913Y-100317677D01*
X103920226Y-100176898D01*
X103960000Y-99976939D01*
X103960000Y-99773061D01*
X103920226Y-99573102D01*
X103842205Y-99384744D01*
X103728937Y-99215226D01*
X103584774Y-99071063D01*
X103415256Y-98957795D01*
X103226898Y-98879774D01*
X103026939Y-98840000D01*
X102823061Y-98840000D01*
X102623102Y-98879774D01*
X102434744Y-98957795D01*
X102265226Y-99071063D01*
X102121063Y-99215226D01*
X102007795Y-99384744D01*
X101929774Y-99573102D01*
X101890000Y-99773061D01*
X101890000Y-99976939D01*
X101929774Y-100176898D01*
X101963087Y-100257323D01*
X101904774Y-100398102D01*
X101865000Y-100598061D01*
X93635000Y-100598061D01*
X93635000Y-96198061D01*
X114965000Y-96198061D01*
X114965000Y-96401939D01*
X115004774Y-96601898D01*
X115082795Y-96790256D01*
X115196063Y-96959774D01*
X115340226Y-97103937D01*
X115509744Y-97217205D01*
X115619459Y-97262651D01*
X115604774Y-97298102D01*
X115565000Y-97498061D01*
X115565000Y-97701939D01*
X115604774Y-97901898D01*
X115682795Y-98090256D01*
X115796063Y-98259774D01*
X115895452Y-98359163D01*
X115840226Y-98396063D01*
X115696063Y-98540226D01*
X115582795Y-98709744D01*
X115504774Y-98898102D01*
X115465000Y-99098061D01*
X115465000Y-99301939D01*
X115504774Y-99501898D01*
X115582795Y-99690256D01*
X115696063Y-99859774D01*
X115840226Y-100003937D01*
X116009744Y-100117205D01*
X116198102Y-100195226D01*
X116398061Y-100235000D01*
X116601939Y-100235000D01*
X116801898Y-100195226D01*
X116990256Y-100117205D01*
X117159774Y-100003937D01*
X117303937Y-99859774D01*
X117417205Y-99690256D01*
X117495226Y-99501898D01*
X117535000Y-99301939D01*
X117535000Y-99098061D01*
X117495226Y-98898102D01*
X117417205Y-98709744D01*
X117303937Y-98540226D01*
X117204548Y-98440837D01*
X117259774Y-98403937D01*
X117403937Y-98259774D01*
X117517205Y-98090256D01*
X117595226Y-97901898D01*
X117615880Y-97798061D01*
X131465000Y-97798061D01*
X131465000Y-98001939D01*
X131504774Y-98201898D01*
X131582795Y-98390256D01*
X131696063Y-98559774D01*
X131840226Y-98703937D01*
X132009744Y-98817205D01*
X132198102Y-98895226D01*
X132398061Y-98935000D01*
X132601939Y-98935000D01*
X132801898Y-98895226D01*
X132990256Y-98817205D01*
X133159774Y-98703937D01*
X133303937Y-98559774D01*
X133345172Y-98498061D01*
X141065000Y-98498061D01*
X141065000Y-98701939D01*
X141104774Y-98901898D01*
X141182795Y-99090256D01*
X141296063Y-99259774D01*
X141440226Y-99403937D01*
X141609744Y-99517205D01*
X141798102Y-99595226D01*
X141998061Y-99635000D01*
X142201939Y-99635000D01*
X142401898Y-99595226D01*
X142460251Y-99571055D01*
X142537712Y-99648516D01*
X142756693Y-99794834D01*
X143000012Y-99895620D01*
X143258317Y-99947000D01*
X143521683Y-99947000D01*
X143779988Y-99895620D01*
X144023307Y-99794834D01*
X144242288Y-99648516D01*
X144428516Y-99462288D01*
X144574834Y-99243307D01*
X144590870Y-99204594D01*
X144609744Y-99217205D01*
X144798102Y-99295226D01*
X144998061Y-99335000D01*
X145201939Y-99335000D01*
X145401898Y-99295226D01*
X145590256Y-99217205D01*
X145759774Y-99103937D01*
X145903937Y-98959774D01*
X146017205Y-98790256D01*
X146095226Y-98601898D01*
X146135000Y-98401939D01*
X146135000Y-98198061D01*
X146095226Y-97998102D01*
X146017205Y-97809744D01*
X145903937Y-97640226D01*
X145759774Y-97496063D01*
X145590256Y-97382795D01*
X145401898Y-97304774D01*
X145201939Y-97265000D01*
X144998061Y-97265000D01*
X144798102Y-97304774D01*
X144609744Y-97382795D01*
X144440226Y-97496063D01*
X144303547Y-97632743D01*
X144242288Y-97571484D01*
X144023307Y-97425166D01*
X143817698Y-97340000D01*
X144023307Y-97254834D01*
X144242288Y-97108516D01*
X144428516Y-96922288D01*
X144574834Y-96703307D01*
X144675620Y-96459988D01*
X144727000Y-96201683D01*
X144727000Y-95938317D01*
X144675620Y-95680012D01*
X144574834Y-95436693D01*
X144428516Y-95217712D01*
X144242288Y-95031484D01*
X144023307Y-94885166D01*
X143817698Y-94800000D01*
X144023307Y-94714834D01*
X144242288Y-94568516D01*
X144428516Y-94382288D01*
X144574834Y-94163307D01*
X144660000Y-93957698D01*
X144745166Y-94163307D01*
X144891484Y-94382288D01*
X145077712Y-94568516D01*
X145296693Y-94714834D01*
X145540012Y-94815620D01*
X145798317Y-94867000D01*
X146061683Y-94867000D01*
X146319988Y-94815620D01*
X146563307Y-94714834D01*
X146782288Y-94568516D01*
X146968516Y-94382288D01*
X147114834Y-94163307D01*
X147200000Y-93957698D01*
X147285166Y-94163307D01*
X147431484Y-94382288D01*
X147617712Y-94568516D01*
X147836693Y-94714834D01*
X148080012Y-94815620D01*
X148129632Y-94825490D01*
X148094596Y-94832459D01*
X147860377Y-94929476D01*
X147649585Y-95070322D01*
X147470322Y-95249585D01*
X147329476Y-95460377D01*
X147232459Y-95694596D01*
X147183000Y-95943242D01*
X147183000Y-96196758D01*
X147232459Y-96445404D01*
X147329476Y-96679623D01*
X147470322Y-96890415D01*
X147649585Y-97069678D01*
X147860377Y-97210524D01*
X148094596Y-97307541D01*
X148257778Y-97340000D01*
X148094596Y-97372459D01*
X147860377Y-97469476D01*
X147649585Y-97610322D01*
X147470322Y-97789585D01*
X147329476Y-98000377D01*
X147232459Y-98234596D01*
X147183000Y-98483242D01*
X147183000Y-98736758D01*
X147232459Y-98985404D01*
X147329476Y-99219623D01*
X147470322Y-99430415D01*
X147649585Y-99609678D01*
X147860377Y-99750524D01*
X148094596Y-99847541D01*
X148257778Y-99880000D01*
X148094596Y-99912459D01*
X147860377Y-100009476D01*
X147649585Y-100150322D01*
X147470322Y-100329585D01*
X147329476Y-100540377D01*
X147232459Y-100774596D01*
X147183000Y-101023242D01*
X147183000Y-101276758D01*
X147232459Y-101525404D01*
X147329476Y-101759623D01*
X147470322Y-101970415D01*
X147649585Y-102149678D01*
X147860377Y-102290524D01*
X148094596Y-102387541D01*
X148257778Y-102420000D01*
X148094596Y-102452459D01*
X147860377Y-102549476D01*
X147649585Y-102690322D01*
X147470322Y-102869585D01*
X147329476Y-103080377D01*
X147232459Y-103314596D01*
X147183000Y-103563242D01*
X147183000Y-103816758D01*
X147232459Y-104065404D01*
X147329476Y-104299623D01*
X147470322Y-104510415D01*
X147649585Y-104689678D01*
X147860377Y-104830524D01*
X148094596Y-104927541D01*
X148257778Y-104960000D01*
X148094596Y-104992459D01*
X147860377Y-105089476D01*
X147649585Y-105230322D01*
X147470322Y-105409585D01*
X147329476Y-105620377D01*
X147232459Y-105854596D01*
X147183000Y-106103242D01*
X147183000Y-106356758D01*
X147232459Y-106605404D01*
X147329476Y-106839623D01*
X147470322Y-107050415D01*
X147649585Y-107229678D01*
X147860377Y-107370524D01*
X148094596Y-107467541D01*
X148129632Y-107474510D01*
X148080012Y-107484380D01*
X147836693Y-107585166D01*
X147617712Y-107731484D01*
X147431484Y-107917712D01*
X147285166Y-108136693D01*
X147200000Y-108342302D01*
X147114834Y-108136693D01*
X146968516Y-107917712D01*
X146782288Y-107731484D01*
X146563307Y-107585166D01*
X146319988Y-107484380D01*
X146061683Y-107433000D01*
X145798317Y-107433000D01*
X145540012Y-107484380D01*
X145296693Y-107585166D01*
X145077712Y-107731484D01*
X144891484Y-107917712D01*
X144745166Y-108136693D01*
X144660000Y-108342302D01*
X144574834Y-108136693D01*
X144428516Y-107917712D01*
X144242288Y-107731484D01*
X144023307Y-107585166D01*
X143817698Y-107500000D01*
X144023307Y-107414834D01*
X144242288Y-107268516D01*
X144428516Y-107082288D01*
X144574834Y-106863307D01*
X144675620Y-106619988D01*
X144727000Y-106361683D01*
X144727000Y-106098317D01*
X144675620Y-105840012D01*
X144574834Y-105596693D01*
X144428516Y-105377712D01*
X144242288Y-105191484D01*
X144023307Y-105045166D01*
X143817698Y-104960000D01*
X144023307Y-104874834D01*
X144242288Y-104728516D01*
X144428516Y-104542288D01*
X144574834Y-104323307D01*
X144675620Y-104079988D01*
X144727000Y-103821683D01*
X144727000Y-103558317D01*
X144675620Y-103300012D01*
X144574834Y-103056693D01*
X144428516Y-102837712D01*
X144242288Y-102651484D01*
X144023307Y-102505166D01*
X143779988Y-102404380D01*
X143521683Y-102353000D01*
X143258317Y-102353000D01*
X143000012Y-102404380D01*
X142756693Y-102505166D01*
X142537712Y-102651484D01*
X142351484Y-102837712D01*
X142205166Y-103056693D01*
X142104380Y-103300012D01*
X142053000Y-103558317D01*
X142053000Y-103821683D01*
X142104380Y-104079988D01*
X142205166Y-104323307D01*
X142351484Y-104542288D01*
X142537712Y-104728516D01*
X142756693Y-104874834D01*
X142962302Y-104960000D01*
X142756693Y-105045166D01*
X142537712Y-105191484D01*
X142351484Y-105377712D01*
X142205166Y-105596693D01*
X142104380Y-105840012D01*
X142053000Y-106098317D01*
X142053000Y-106361683D01*
X142104380Y-106619988D01*
X142205166Y-106863307D01*
X142351484Y-107082288D01*
X142537712Y-107268516D01*
X142756693Y-107414834D01*
X142962302Y-107500000D01*
X142756693Y-107585166D01*
X142537712Y-107731484D01*
X142351484Y-107917712D01*
X142205166Y-108136693D01*
X142104380Y-108380012D01*
X142053000Y-108638317D01*
X142053000Y-108901683D01*
X142104380Y-109159988D01*
X142205166Y-109403307D01*
X142351484Y-109622288D01*
X142537712Y-109808516D01*
X142756693Y-109954834D01*
X143000012Y-110055620D01*
X143258317Y-110107000D01*
X143521683Y-110107000D01*
X143779988Y-110055620D01*
X144023307Y-109954834D01*
X144242288Y-109808516D01*
X144428516Y-109622288D01*
X144574834Y-109403307D01*
X144660000Y-109197698D01*
X144745166Y-109403307D01*
X144891484Y-109622288D01*
X145077712Y-109808516D01*
X145296693Y-109954834D01*
X145540012Y-110055620D01*
X145798317Y-110107000D01*
X146061683Y-110107000D01*
X146319988Y-110055620D01*
X146563307Y-109954834D01*
X146782288Y-109808516D01*
X146968516Y-109622288D01*
X147114834Y-109403307D01*
X147200000Y-109197698D01*
X147285166Y-109403307D01*
X147431484Y-109622288D01*
X147617712Y-109808516D01*
X147836693Y-109954834D01*
X148080012Y-110055620D01*
X148338317Y-110107000D01*
X148601683Y-110107000D01*
X148859988Y-110055620D01*
X149103307Y-109954834D01*
X149322288Y-109808516D01*
X149508516Y-109622288D01*
X149654834Y-109403307D01*
X149740000Y-109197698D01*
X149825166Y-109403307D01*
X149971484Y-109622288D01*
X150157712Y-109808516D01*
X150376693Y-109954834D01*
X150620012Y-110055620D01*
X150878317Y-110107000D01*
X151141683Y-110107000D01*
X151399988Y-110055620D01*
X151643307Y-109954834D01*
X151862288Y-109808516D01*
X152048516Y-109622288D01*
X152194834Y-109403307D01*
X152280000Y-109197698D01*
X152365166Y-109403307D01*
X152511484Y-109622288D01*
X152697712Y-109808516D01*
X152916693Y-109954834D01*
X153160012Y-110055620D01*
X153418317Y-110107000D01*
X153681683Y-110107000D01*
X153939988Y-110055620D01*
X154183307Y-109954834D01*
X154402288Y-109808516D01*
X154588516Y-109622288D01*
X154734834Y-109403307D01*
X154820000Y-109197698D01*
X154905166Y-109403307D01*
X155051484Y-109622288D01*
X155237712Y-109808516D01*
X155456693Y-109954834D01*
X155700012Y-110055620D01*
X155958317Y-110107000D01*
X156221683Y-110107000D01*
X156479988Y-110055620D01*
X156723307Y-109954834D01*
X156942288Y-109808516D01*
X157128516Y-109622288D01*
X157274834Y-109403307D01*
X157360000Y-109197698D01*
X157445166Y-109403307D01*
X157591484Y-109622288D01*
X157777712Y-109808516D01*
X157996693Y-109954834D01*
X158240012Y-110055620D01*
X158498317Y-110107000D01*
X158761683Y-110107000D01*
X159019988Y-110055620D01*
X159263307Y-109954834D01*
X159482288Y-109808516D01*
X159668516Y-109622288D01*
X159814834Y-109403307D01*
X159900000Y-109197698D01*
X159985166Y-109403307D01*
X160131484Y-109622288D01*
X160317712Y-109808516D01*
X160536693Y-109954834D01*
X160780012Y-110055620D01*
X161038317Y-110107000D01*
X161301683Y-110107000D01*
X161559988Y-110055620D01*
X161803307Y-109954834D01*
X162022288Y-109808516D01*
X162208516Y-109622288D01*
X162354834Y-109403307D01*
X162440000Y-109197698D01*
X162525166Y-109403307D01*
X162671484Y-109622288D01*
X162857712Y-109808516D01*
X163076693Y-109954834D01*
X163320012Y-110055620D01*
X163578317Y-110107000D01*
X163841683Y-110107000D01*
X164099988Y-110055620D01*
X164343307Y-109954834D01*
X164562288Y-109808516D01*
X164748516Y-109622288D01*
X164894834Y-109403307D01*
X164980000Y-109197698D01*
X165065166Y-109403307D01*
X165211484Y-109622288D01*
X165397712Y-109808516D01*
X165616693Y-109954834D01*
X165860012Y-110055620D01*
X166118317Y-110107000D01*
X166381683Y-110107000D01*
X166639988Y-110055620D01*
X166883307Y-109954834D01*
X167102288Y-109808516D01*
X167288516Y-109622288D01*
X167434834Y-109403307D01*
X167520000Y-109197698D01*
X167605166Y-109403307D01*
X167751484Y-109622288D01*
X167937712Y-109808516D01*
X168156693Y-109954834D01*
X168400012Y-110055620D01*
X168658317Y-110107000D01*
X168921683Y-110107000D01*
X169179988Y-110055620D01*
X169423307Y-109954834D01*
X169642288Y-109808516D01*
X169828516Y-109622288D01*
X169974834Y-109403307D01*
X170060000Y-109197698D01*
X170145166Y-109403307D01*
X170291484Y-109622288D01*
X170477712Y-109808516D01*
X170696693Y-109954834D01*
X170940012Y-110055620D01*
X171198317Y-110107000D01*
X171461683Y-110107000D01*
X171719988Y-110055620D01*
X171963307Y-109954834D01*
X172182288Y-109808516D01*
X172368516Y-109622288D01*
X172514834Y-109403307D01*
X172615620Y-109159988D01*
X172667000Y-108901683D01*
X172667000Y-108638317D01*
X172615620Y-108380012D01*
X172514834Y-108136693D01*
X172368516Y-107917712D01*
X172182288Y-107731484D01*
X171963307Y-107585166D01*
X171719988Y-107484380D01*
X171461683Y-107433000D01*
X171198317Y-107433000D01*
X170940012Y-107484380D01*
X170696693Y-107585166D01*
X170477712Y-107731484D01*
X170291484Y-107917712D01*
X170145166Y-108136693D01*
X170060000Y-108342302D01*
X169974834Y-108136693D01*
X169828516Y-107917712D01*
X169642288Y-107731484D01*
X169423307Y-107585166D01*
X169179988Y-107484380D01*
X168921683Y-107433000D01*
X168658317Y-107433000D01*
X168400012Y-107484380D01*
X168156693Y-107585166D01*
X167937712Y-107731484D01*
X167751484Y-107917712D01*
X167605166Y-108136693D01*
X167520000Y-108342302D01*
X167434834Y-108136693D01*
X167288516Y-107917712D01*
X167102288Y-107731484D01*
X166883307Y-107585166D01*
X166639988Y-107484380D01*
X166381683Y-107433000D01*
X166118317Y-107433000D01*
X165860012Y-107484380D01*
X165616693Y-107585166D01*
X165397712Y-107731484D01*
X165211484Y-107917712D01*
X165065166Y-108136693D01*
X164980000Y-108342302D01*
X164894834Y-108136693D01*
X164748516Y-107917712D01*
X164562288Y-107731484D01*
X164343307Y-107585166D01*
X164099988Y-107484380D01*
X163841683Y-107433000D01*
X163578317Y-107433000D01*
X163320012Y-107484380D01*
X163076693Y-107585166D01*
X162857712Y-107731484D01*
X162671484Y-107917712D01*
X162525166Y-108136693D01*
X162440000Y-108342302D01*
X162354834Y-108136693D01*
X162208516Y-107917712D01*
X162022288Y-107731484D01*
X161803307Y-107585166D01*
X161559988Y-107484380D01*
X161301683Y-107433000D01*
X161038317Y-107433000D01*
X160780012Y-107484380D01*
X160536693Y-107585166D01*
X160317712Y-107731484D01*
X160131484Y-107917712D01*
X159985166Y-108136693D01*
X159900000Y-108342302D01*
X159814834Y-108136693D01*
X159668516Y-107917712D01*
X159482288Y-107731484D01*
X159263307Y-107585166D01*
X159019988Y-107484380D01*
X158761683Y-107433000D01*
X158498317Y-107433000D01*
X158240012Y-107484380D01*
X157996693Y-107585166D01*
X157777712Y-107731484D01*
X157591484Y-107917712D01*
X157445166Y-108136693D01*
X157360000Y-108342302D01*
X157274834Y-108136693D01*
X157128516Y-107917712D01*
X156942288Y-107731484D01*
X156723307Y-107585166D01*
X156479988Y-107484380D01*
X156221683Y-107433000D01*
X155958317Y-107433000D01*
X155700012Y-107484380D01*
X155456693Y-107585166D01*
X155237712Y-107731484D01*
X155051484Y-107917712D01*
X154905166Y-108136693D01*
X154820000Y-108342302D01*
X154734834Y-108136693D01*
X154588516Y-107917712D01*
X154402288Y-107731484D01*
X154183307Y-107585166D01*
X153939988Y-107484380D01*
X153681683Y-107433000D01*
X153418317Y-107433000D01*
X153160012Y-107484380D01*
X152916693Y-107585166D01*
X152697712Y-107731484D01*
X152511484Y-107917712D01*
X152365166Y-108136693D01*
X152280000Y-108342302D01*
X152194834Y-108136693D01*
X152048516Y-107917712D01*
X151862288Y-107731484D01*
X151643307Y-107585166D01*
X151399988Y-107484380D01*
X151350368Y-107474510D01*
X151385404Y-107467541D01*
X151619623Y-107370524D01*
X151830415Y-107229678D01*
X152009678Y-107050415D01*
X152150524Y-106839623D01*
X152247541Y-106605404D01*
X152297000Y-106356758D01*
X152297000Y-106103242D01*
X152296021Y-106098317D01*
X172533000Y-106098317D01*
X172533000Y-106361683D01*
X172584380Y-106619988D01*
X172685166Y-106863307D01*
X172831484Y-107082288D01*
X173017712Y-107268516D01*
X173236693Y-107414834D01*
X173480012Y-107515620D01*
X173738317Y-107567000D01*
X174001683Y-107567000D01*
X174259988Y-107515620D01*
X174503307Y-107414834D01*
X174722288Y-107268516D01*
X174908516Y-107082288D01*
X175054834Y-106863307D01*
X175155620Y-106619988D01*
X175207000Y-106361683D01*
X175207000Y-106098317D01*
X175155620Y-105840012D01*
X175054834Y-105596693D01*
X174908516Y-105377712D01*
X174722288Y-105191484D01*
X174503307Y-105045166D01*
X174259988Y-104944380D01*
X174001683Y-104893000D01*
X173738317Y-104893000D01*
X173480012Y-104944380D01*
X173236693Y-105045166D01*
X173017712Y-105191484D01*
X172831484Y-105377712D01*
X172685166Y-105596693D01*
X172584380Y-105840012D01*
X172533000Y-106098317D01*
X152296021Y-106098317D01*
X152247541Y-105854596D01*
X152150524Y-105620377D01*
X152009678Y-105409585D01*
X151830415Y-105230322D01*
X151619623Y-105089476D01*
X151385404Y-104992459D01*
X151222222Y-104960000D01*
X151385404Y-104927541D01*
X151619623Y-104830524D01*
X151830415Y-104689678D01*
X152009678Y-104510415D01*
X152150524Y-104299623D01*
X152247541Y-104065404D01*
X152297000Y-103816758D01*
X152297000Y-103563242D01*
X152247541Y-103314596D01*
X152150524Y-103080377D01*
X152009678Y-102869585D01*
X151830415Y-102690322D01*
X151619623Y-102549476D01*
X151385404Y-102452459D01*
X151222222Y-102420000D01*
X151385404Y-102387541D01*
X151619623Y-102290524D01*
X151830415Y-102149678D01*
X152009678Y-101970415D01*
X152150524Y-101759623D01*
X152247541Y-101525404D01*
X152297000Y-101276758D01*
X152297000Y-101023242D01*
X152247541Y-100774596D01*
X152150524Y-100540377D01*
X152009678Y-100329585D01*
X151830415Y-100150322D01*
X151619623Y-100009476D01*
X151385404Y-99912459D01*
X151222222Y-99880000D01*
X151385404Y-99847541D01*
X151619623Y-99750524D01*
X151830415Y-99609678D01*
X152009678Y-99430415D01*
X152150524Y-99219623D01*
X152247541Y-98985404D01*
X152297000Y-98736758D01*
X152297000Y-98483242D01*
X152247541Y-98234596D01*
X152150524Y-98000377D01*
X152009678Y-97789585D01*
X151830415Y-97610322D01*
X151736940Y-97547864D01*
X168234600Y-97547864D01*
X168234600Y-97752136D01*
X168274451Y-97952482D01*
X168352622Y-98141204D01*
X168358499Y-98150000D01*
X168352622Y-98158796D01*
X168274451Y-98347518D01*
X168234600Y-98547864D01*
X168234600Y-98752136D01*
X168274451Y-98952482D01*
X168352622Y-99141204D01*
X168358499Y-99150000D01*
X168352622Y-99158796D01*
X168274451Y-99347518D01*
X168234600Y-99547864D01*
X168234600Y-99752136D01*
X168274451Y-99952482D01*
X168352622Y-100141204D01*
X168358499Y-100150000D01*
X168352622Y-100158796D01*
X168274451Y-100347518D01*
X168234600Y-100547864D01*
X168234600Y-100752136D01*
X168274451Y-100952482D01*
X168352622Y-101141204D01*
X168358499Y-101150000D01*
X168352622Y-101158796D01*
X168274451Y-101347518D01*
X168234600Y-101547864D01*
X168234600Y-101752136D01*
X168274451Y-101952482D01*
X168352622Y-102141204D01*
X168466109Y-102311049D01*
X168610551Y-102455491D01*
X168780396Y-102568978D01*
X168969118Y-102647149D01*
X168983451Y-102650000D01*
X168969118Y-102652851D01*
X168780396Y-102731022D01*
X168610551Y-102844509D01*
X168466109Y-102988951D01*
X168352622Y-103158796D01*
X168274451Y-103347518D01*
X168234600Y-103547864D01*
X168234600Y-103752136D01*
X168274451Y-103952482D01*
X168352622Y-104141204D01*
X168358499Y-104150000D01*
X168352622Y-104158796D01*
X168274451Y-104347518D01*
X168234600Y-104547864D01*
X168234600Y-104752136D01*
X168274451Y-104952482D01*
X168352622Y-105141204D01*
X168466109Y-105311049D01*
X168610551Y-105455491D01*
X168780396Y-105568978D01*
X168969118Y-105647149D01*
X169169464Y-105687000D01*
X169373736Y-105687000D01*
X169574082Y-105647149D01*
X169762804Y-105568978D01*
X169932649Y-105455491D01*
X170077091Y-105311049D01*
X170190578Y-105141204D01*
X170268749Y-104952482D01*
X170308600Y-104752136D01*
X170308600Y-104547864D01*
X170268749Y-104347518D01*
X170190578Y-104158796D01*
X170184701Y-104150000D01*
X170190578Y-104141204D01*
X170268749Y-103952482D01*
X170308600Y-103752136D01*
X170308600Y-103547864D01*
X170268749Y-103347518D01*
X170190578Y-103158796D01*
X170077091Y-102988951D01*
X169932649Y-102844509D01*
X169762804Y-102731022D01*
X169574082Y-102652851D01*
X169559749Y-102650000D01*
X169574082Y-102647149D01*
X169762804Y-102568978D01*
X169932649Y-102455491D01*
X170077091Y-102311049D01*
X170190578Y-102141204D01*
X170268749Y-101952482D01*
X170308600Y-101752136D01*
X170308600Y-101547864D01*
X170268749Y-101347518D01*
X170190578Y-101158796D01*
X170184701Y-101150000D01*
X170190578Y-101141204D01*
X170268749Y-100952482D01*
X170308600Y-100752136D01*
X170308600Y-100547864D01*
X170268749Y-100347518D01*
X170190578Y-100158796D01*
X170184701Y-100150000D01*
X170190578Y-100141204D01*
X170268749Y-99952482D01*
X170308600Y-99752136D01*
X170308600Y-99547864D01*
X170268749Y-99347518D01*
X170190578Y-99158796D01*
X170184701Y-99150000D01*
X170190578Y-99141204D01*
X170268749Y-98952482D01*
X170308600Y-98752136D01*
X170308600Y-98547864D01*
X170268749Y-98347518D01*
X170190578Y-98158796D01*
X170184701Y-98150000D01*
X170190578Y-98141204D01*
X170268749Y-97952482D01*
X170308600Y-97752136D01*
X170308600Y-97547864D01*
X170268749Y-97347518D01*
X170190578Y-97158796D01*
X170077091Y-96988951D01*
X169932649Y-96844509D01*
X169762804Y-96731022D01*
X169574082Y-96652851D01*
X169373736Y-96613000D01*
X169169464Y-96613000D01*
X168969118Y-96652851D01*
X168780396Y-96731022D01*
X168610551Y-96844509D01*
X168466109Y-96988951D01*
X168352622Y-97158796D01*
X168274451Y-97347518D01*
X168234600Y-97547864D01*
X151736940Y-97547864D01*
X151619623Y-97469476D01*
X151385404Y-97372459D01*
X151222222Y-97340000D01*
X151385404Y-97307541D01*
X151619623Y-97210524D01*
X151830415Y-97069678D01*
X152009678Y-96890415D01*
X152150524Y-96679623D01*
X152247541Y-96445404D01*
X152297000Y-96196758D01*
X152297000Y-95943242D01*
X152247541Y-95694596D01*
X152150524Y-95460377D01*
X152009678Y-95249585D01*
X151830415Y-95070322D01*
X151619623Y-94929476D01*
X151385404Y-94832459D01*
X151350368Y-94825490D01*
X151399988Y-94815620D01*
X151643307Y-94714834D01*
X151862288Y-94568516D01*
X152048516Y-94382288D01*
X152194834Y-94163307D01*
X152280000Y-93957698D01*
X152365166Y-94163307D01*
X152511484Y-94382288D01*
X152697712Y-94568516D01*
X152916693Y-94714834D01*
X153160012Y-94815620D01*
X153418317Y-94867000D01*
X153681683Y-94867000D01*
X153939988Y-94815620D01*
X154183307Y-94714834D01*
X154402288Y-94568516D01*
X154588516Y-94382288D01*
X154734834Y-94163307D01*
X154820000Y-93957698D01*
X154905166Y-94163307D01*
X155051484Y-94382288D01*
X155237712Y-94568516D01*
X155456693Y-94714834D01*
X155700012Y-94815620D01*
X155958317Y-94867000D01*
X156221683Y-94867000D01*
X156479988Y-94815620D01*
X156723307Y-94714834D01*
X156942288Y-94568516D01*
X157128516Y-94382288D01*
X157274834Y-94163307D01*
X157360000Y-93957698D01*
X157445166Y-94163307D01*
X157591484Y-94382288D01*
X157777712Y-94568516D01*
X157996693Y-94714834D01*
X158240012Y-94815620D01*
X158498317Y-94867000D01*
X158761683Y-94867000D01*
X159019988Y-94815620D01*
X159263307Y-94714834D01*
X159482288Y-94568516D01*
X159668516Y-94382288D01*
X159814834Y-94163307D01*
X159900000Y-93957698D01*
X159985166Y-94163307D01*
X160131484Y-94382288D01*
X160317712Y-94568516D01*
X160536693Y-94714834D01*
X160780012Y-94815620D01*
X161038317Y-94867000D01*
X161301683Y-94867000D01*
X161559988Y-94815620D01*
X161803307Y-94714834D01*
X162022288Y-94568516D01*
X162208516Y-94382288D01*
X162354834Y-94163307D01*
X162440000Y-93957698D01*
X162525166Y-94163307D01*
X162671484Y-94382288D01*
X162857712Y-94568516D01*
X163076693Y-94714834D01*
X163320012Y-94815620D01*
X163578317Y-94867000D01*
X163841683Y-94867000D01*
X164099988Y-94815620D01*
X164343307Y-94714834D01*
X164562288Y-94568516D01*
X164748516Y-94382288D01*
X164894834Y-94163307D01*
X164980000Y-93957698D01*
X165065166Y-94163307D01*
X165211484Y-94382288D01*
X165397712Y-94568516D01*
X165616693Y-94714834D01*
X165860012Y-94815620D01*
X166118317Y-94867000D01*
X166381683Y-94867000D01*
X166639988Y-94815620D01*
X166883307Y-94714834D01*
X167102288Y-94568516D01*
X167288516Y-94382288D01*
X167434834Y-94163307D01*
X167520000Y-93957698D01*
X167605166Y-94163307D01*
X167751484Y-94382288D01*
X167937712Y-94568516D01*
X168156693Y-94714834D01*
X168400012Y-94815620D01*
X168658317Y-94867000D01*
X168921683Y-94867000D01*
X169179988Y-94815620D01*
X169423307Y-94714834D01*
X169642288Y-94568516D01*
X169828516Y-94382288D01*
X169974834Y-94163307D01*
X170060000Y-93957698D01*
X170145166Y-94163307D01*
X170291484Y-94382288D01*
X170477712Y-94568516D01*
X170696693Y-94714834D01*
X170940012Y-94815620D01*
X171198317Y-94867000D01*
X171461683Y-94867000D01*
X171719988Y-94815620D01*
X171963307Y-94714834D01*
X172182288Y-94568516D01*
X172368516Y-94382288D01*
X172514834Y-94163307D01*
X172600000Y-93957698D01*
X172685166Y-94163307D01*
X172831484Y-94382288D01*
X173017712Y-94568516D01*
X173236693Y-94714834D01*
X173480012Y-94815620D01*
X173738317Y-94867000D01*
X174001683Y-94867000D01*
X174259988Y-94815620D01*
X174503307Y-94714834D01*
X174722288Y-94568516D01*
X174908516Y-94382288D01*
X175054834Y-94163307D01*
X175155620Y-93919988D01*
X175207000Y-93661683D01*
X175207000Y-93398317D01*
X175155620Y-93140012D01*
X175054834Y-92896693D01*
X174908516Y-92677712D01*
X174722288Y-92491484D01*
X174503307Y-92345166D01*
X174259988Y-92244380D01*
X174001683Y-92193000D01*
X173738317Y-92193000D01*
X173480012Y-92244380D01*
X173236693Y-92345166D01*
X173017712Y-92491484D01*
X172831484Y-92677712D01*
X172685166Y-92896693D01*
X172600000Y-93102302D01*
X172514834Y-92896693D01*
X172368516Y-92677712D01*
X172182288Y-92491484D01*
X171963307Y-92345166D01*
X171719988Y-92244380D01*
X171461683Y-92193000D01*
X171198317Y-92193000D01*
X170940012Y-92244380D01*
X170696693Y-92345166D01*
X170477712Y-92491484D01*
X170291484Y-92677712D01*
X170145166Y-92896693D01*
X170060000Y-93102302D01*
X169974834Y-92896693D01*
X169828516Y-92677712D01*
X169642288Y-92491484D01*
X169423307Y-92345166D01*
X169179988Y-92244380D01*
X168921683Y-92193000D01*
X168658317Y-92193000D01*
X168400012Y-92244380D01*
X168156693Y-92345166D01*
X167937712Y-92491484D01*
X167751484Y-92677712D01*
X167605166Y-92896693D01*
X167520000Y-93102302D01*
X167434834Y-92896693D01*
X167288516Y-92677712D01*
X167102288Y-92491484D01*
X166883307Y-92345166D01*
X166639988Y-92244380D01*
X166381683Y-92193000D01*
X166118317Y-92193000D01*
X165860012Y-92244380D01*
X165616693Y-92345166D01*
X165397712Y-92491484D01*
X165211484Y-92677712D01*
X165065166Y-92896693D01*
X164980000Y-93102302D01*
X164894834Y-92896693D01*
X164748516Y-92677712D01*
X164562288Y-92491484D01*
X164343307Y-92345166D01*
X164099988Y-92244380D01*
X163841683Y-92193000D01*
X163578317Y-92193000D01*
X163320012Y-92244380D01*
X163076693Y-92345166D01*
X162857712Y-92491484D01*
X162671484Y-92677712D01*
X162525166Y-92896693D01*
X162440000Y-93102302D01*
X162354834Y-92896693D01*
X162208516Y-92677712D01*
X162022288Y-92491484D01*
X161803307Y-92345166D01*
X161559988Y-92244380D01*
X161301683Y-92193000D01*
X161038317Y-92193000D01*
X160780012Y-92244380D01*
X160536693Y-92345166D01*
X160317712Y-92491484D01*
X160131484Y-92677712D01*
X159985166Y-92896693D01*
X159900000Y-93102302D01*
X159814834Y-92896693D01*
X159668516Y-92677712D01*
X159482288Y-92491484D01*
X159263307Y-92345166D01*
X159019988Y-92244380D01*
X158761683Y-92193000D01*
X158498317Y-92193000D01*
X158240012Y-92244380D01*
X157996693Y-92345166D01*
X157777712Y-92491484D01*
X157591484Y-92677712D01*
X157445166Y-92896693D01*
X157360000Y-93102302D01*
X157274834Y-92896693D01*
X157128516Y-92677712D01*
X156942288Y-92491484D01*
X156723307Y-92345166D01*
X156479988Y-92244380D01*
X156221683Y-92193000D01*
X155958317Y-92193000D01*
X155700012Y-92244380D01*
X155456693Y-92345166D01*
X155237712Y-92491484D01*
X155051484Y-92677712D01*
X154905166Y-92896693D01*
X154820000Y-93102302D01*
X154734834Y-92896693D01*
X154588516Y-92677712D01*
X154402288Y-92491484D01*
X154183307Y-92345166D01*
X153939988Y-92244380D01*
X153681683Y-92193000D01*
X153418317Y-92193000D01*
X153160012Y-92244380D01*
X152916693Y-92345166D01*
X152697712Y-92491484D01*
X152511484Y-92677712D01*
X152365166Y-92896693D01*
X152280000Y-93102302D01*
X152194834Y-92896693D01*
X152048516Y-92677712D01*
X151862288Y-92491484D01*
X151643307Y-92345166D01*
X151399988Y-92244380D01*
X151141683Y-92193000D01*
X150878317Y-92193000D01*
X150620012Y-92244380D01*
X150376693Y-92345166D01*
X150157712Y-92491484D01*
X149971484Y-92677712D01*
X149825166Y-92896693D01*
X149740000Y-93102302D01*
X149654834Y-92896693D01*
X149508516Y-92677712D01*
X149322288Y-92491484D01*
X149103307Y-92345166D01*
X148859988Y-92244380D01*
X148601683Y-92193000D01*
X148338317Y-92193000D01*
X148080012Y-92244380D01*
X147836693Y-92345166D01*
X147617712Y-92491484D01*
X147431484Y-92677712D01*
X147285166Y-92896693D01*
X147200000Y-93102302D01*
X147114834Y-92896693D01*
X146968516Y-92677712D01*
X146782288Y-92491484D01*
X146563307Y-92345166D01*
X146319988Y-92244380D01*
X146061683Y-92193000D01*
X145798317Y-92193000D01*
X145540012Y-92244380D01*
X145296693Y-92345166D01*
X145077712Y-92491484D01*
X144891484Y-92677712D01*
X144745166Y-92896693D01*
X144660000Y-93102302D01*
X144574834Y-92896693D01*
X144428516Y-92677712D01*
X144242288Y-92491484D01*
X144023307Y-92345166D01*
X143779988Y-92244380D01*
X143521683Y-92193000D01*
X143258317Y-92193000D01*
X143000012Y-92244380D01*
X142756693Y-92345166D01*
X142537712Y-92491484D01*
X142351484Y-92677712D01*
X142205166Y-92896693D01*
X142104380Y-93140012D01*
X142053000Y-93398317D01*
X142053000Y-93661683D01*
X142104380Y-93919988D01*
X142205166Y-94163307D01*
X142351484Y-94382288D01*
X142537712Y-94568516D01*
X142756693Y-94714834D01*
X142962302Y-94800000D01*
X142756693Y-94885166D01*
X142537712Y-95031484D01*
X142351484Y-95217712D01*
X142205166Y-95436693D01*
X142104380Y-95680012D01*
X142053000Y-95938317D01*
X142053000Y-96201683D01*
X142104380Y-96459988D01*
X142205166Y-96703307D01*
X142351484Y-96922288D01*
X142537712Y-97108516D01*
X142756693Y-97254834D01*
X142962302Y-97340000D01*
X142756693Y-97425166D01*
X142537712Y-97571484D01*
X142474393Y-97634803D01*
X142401898Y-97604774D01*
X142201939Y-97565000D01*
X141998061Y-97565000D01*
X141798102Y-97604774D01*
X141609744Y-97682795D01*
X141440226Y-97796063D01*
X141296063Y-97940226D01*
X141182795Y-98109744D01*
X141104774Y-98298102D01*
X141065000Y-98498061D01*
X133345172Y-98498061D01*
X133417205Y-98390256D01*
X133495226Y-98201898D01*
X133535000Y-98001939D01*
X133535000Y-97798061D01*
X133495226Y-97598102D01*
X133417205Y-97409744D01*
X133303937Y-97240226D01*
X133159774Y-97096063D01*
X132990256Y-96982795D01*
X132801898Y-96904774D01*
X132601939Y-96865000D01*
X132398061Y-96865000D01*
X132198102Y-96904774D01*
X132009744Y-96982795D01*
X131840226Y-97096063D01*
X131696063Y-97240226D01*
X131582795Y-97409744D01*
X131504774Y-97598102D01*
X131465000Y-97798061D01*
X117615880Y-97798061D01*
X117635000Y-97701939D01*
X117635000Y-97498061D01*
X117595226Y-97298102D01*
X117517205Y-97109744D01*
X117403937Y-96940226D01*
X117259774Y-96796063D01*
X117090256Y-96682795D01*
X116980541Y-96637349D01*
X116995226Y-96601898D01*
X117035000Y-96401939D01*
X117035000Y-96198061D01*
X116995226Y-95998102D01*
X116917205Y-95809744D01*
X116803937Y-95640226D01*
X116659774Y-95496063D01*
X116513104Y-95398061D01*
X131765000Y-95398061D01*
X131765000Y-95601939D01*
X131804774Y-95801898D01*
X131882795Y-95990256D01*
X131996063Y-96159774D01*
X132140226Y-96303937D01*
X132309744Y-96417205D01*
X132498102Y-96495226D01*
X132698061Y-96535000D01*
X132901939Y-96535000D01*
X133101898Y-96495226D01*
X133290256Y-96417205D01*
X133459774Y-96303937D01*
X133465000Y-96298711D01*
X133465000Y-96501939D01*
X133504774Y-96701898D01*
X133582795Y-96890256D01*
X133696063Y-97059774D01*
X133840226Y-97203937D01*
X134009744Y-97317205D01*
X134198102Y-97395226D01*
X134398061Y-97435000D01*
X134601939Y-97435000D01*
X134801898Y-97395226D01*
X134990256Y-97317205D01*
X135159774Y-97203937D01*
X135303937Y-97059774D01*
X135417205Y-96890256D01*
X135495226Y-96701898D01*
X135535000Y-96501939D01*
X135535000Y-96298061D01*
X135495226Y-96098102D01*
X135417205Y-95909744D01*
X135303937Y-95740226D01*
X135159774Y-95596063D01*
X134990256Y-95482795D01*
X134801898Y-95404774D01*
X134601939Y-95365000D01*
X134398061Y-95365000D01*
X134198102Y-95404774D01*
X134009744Y-95482795D01*
X133840226Y-95596063D01*
X133835000Y-95601289D01*
X133835000Y-95398061D01*
X133795226Y-95198102D01*
X133717205Y-95009744D01*
X133603937Y-94840226D01*
X133459774Y-94696063D01*
X133290256Y-94582795D01*
X133101898Y-94504774D01*
X132901939Y-94465000D01*
X132698061Y-94465000D01*
X132498102Y-94504774D01*
X132309744Y-94582795D01*
X132140226Y-94696063D01*
X131996063Y-94840226D01*
X131882795Y-95009744D01*
X131804774Y-95198102D01*
X131765000Y-95398061D01*
X116513104Y-95398061D01*
X116490256Y-95382795D01*
X116301898Y-95304774D01*
X116101939Y-95265000D01*
X115898061Y-95265000D01*
X115698102Y-95304774D01*
X115509744Y-95382795D01*
X115340226Y-95496063D01*
X115196063Y-95640226D01*
X115082795Y-95809744D01*
X115004774Y-95998102D01*
X114965000Y-96198061D01*
X93635000Y-96198061D01*
X93635000Y-88998061D01*
X98065000Y-88998061D01*
X98065000Y-89201939D01*
X98104774Y-89401898D01*
X98182795Y-89590256D01*
X98189306Y-89600000D01*
X98182795Y-89609744D01*
X98104774Y-89798102D01*
X98065000Y-89998061D01*
X98065000Y-90201939D01*
X98104774Y-90401898D01*
X98182795Y-90590256D01*
X98296063Y-90759774D01*
X98440226Y-90903937D01*
X98609744Y-91017205D01*
X98798102Y-91095226D01*
X98998061Y-91135000D01*
X99201939Y-91135000D01*
X99387645Y-91098061D01*
X121265000Y-91098061D01*
X121265000Y-91301939D01*
X121304774Y-91501898D01*
X121382795Y-91690256D01*
X121496063Y-91859774D01*
X121640226Y-92003937D01*
X121809744Y-92117205D01*
X121998102Y-92195226D01*
X122081233Y-92211762D01*
X121909744Y-92282795D01*
X121740226Y-92396063D01*
X121596063Y-92540226D01*
X121482795Y-92709744D01*
X121404774Y-92898102D01*
X121365000Y-93098061D01*
X121365000Y-93301939D01*
X121404774Y-93501898D01*
X121482795Y-93690256D01*
X121596063Y-93859774D01*
X121740226Y-94003937D01*
X121909744Y-94117205D01*
X122098102Y-94195226D01*
X122298061Y-94235000D01*
X122501939Y-94235000D01*
X122701898Y-94195226D01*
X122890256Y-94117205D01*
X123059774Y-94003937D01*
X123203937Y-93859774D01*
X123317205Y-93690256D01*
X123395226Y-93501898D01*
X123435000Y-93301939D01*
X123435000Y-93098061D01*
X123395226Y-92898102D01*
X123317205Y-92709744D01*
X123203937Y-92540226D01*
X123059774Y-92396063D01*
X122913104Y-92298061D01*
X128265000Y-92298061D01*
X128265000Y-92501939D01*
X128304774Y-92701898D01*
X128382795Y-92890256D01*
X128496063Y-93059774D01*
X128640226Y-93203937D01*
X128809744Y-93317205D01*
X128998102Y-93395226D01*
X129198061Y-93435000D01*
X129401939Y-93435000D01*
X129601898Y-93395226D01*
X129790256Y-93317205D01*
X129959774Y-93203937D01*
X130103937Y-93059774D01*
X130217205Y-92890256D01*
X130295226Y-92701898D01*
X130335000Y-92501939D01*
X130335000Y-92298061D01*
X130295226Y-92098102D01*
X130217205Y-91909744D01*
X130103937Y-91740226D01*
X129959774Y-91596063D01*
X129790256Y-91482795D01*
X129601898Y-91404774D01*
X129401939Y-91365000D01*
X129198061Y-91365000D01*
X128998102Y-91404774D01*
X128809744Y-91482795D01*
X128640226Y-91596063D01*
X128496063Y-91740226D01*
X128382795Y-91909744D01*
X128304774Y-92098102D01*
X128265000Y-92298061D01*
X122913104Y-92298061D01*
X122890256Y-92282795D01*
X122701898Y-92204774D01*
X122618767Y-92188238D01*
X122790256Y-92117205D01*
X122959774Y-92003937D01*
X123103937Y-91859774D01*
X123217205Y-91690256D01*
X123295226Y-91501898D01*
X123335000Y-91301939D01*
X123335000Y-91098061D01*
X123295226Y-90898102D01*
X123295210Y-90898061D01*
X136565000Y-90898061D01*
X136565000Y-91101939D01*
X136604774Y-91301898D01*
X136682795Y-91490256D01*
X136796063Y-91659774D01*
X136940226Y-91803937D01*
X137109744Y-91917205D01*
X137298102Y-91995226D01*
X137498061Y-92035000D01*
X137701939Y-92035000D01*
X137901898Y-91995226D01*
X138090256Y-91917205D01*
X138259774Y-91803937D01*
X138403937Y-91659774D01*
X138480892Y-91544603D01*
X138540226Y-91603937D01*
X138709744Y-91717205D01*
X138898102Y-91795226D01*
X139098061Y-91835000D01*
X139301939Y-91835000D01*
X139501898Y-91795226D01*
X139690256Y-91717205D01*
X139859774Y-91603937D01*
X140003937Y-91459774D01*
X140117205Y-91290256D01*
X140195226Y-91101898D01*
X140235000Y-90901939D01*
X140235000Y-90698061D01*
X140195226Y-90498102D01*
X140117205Y-90309744D01*
X140003937Y-90140226D01*
X139859774Y-89996063D01*
X139690256Y-89882795D01*
X139501898Y-89804774D01*
X139301939Y-89765000D01*
X139098061Y-89765000D01*
X138898102Y-89804774D01*
X138709744Y-89882795D01*
X138540226Y-89996063D01*
X138396063Y-90140226D01*
X138319108Y-90255397D01*
X138259774Y-90196063D01*
X138090256Y-90082795D01*
X137901898Y-90004774D01*
X137701939Y-89965000D01*
X137498061Y-89965000D01*
X137298102Y-90004774D01*
X137109744Y-90082795D01*
X136940226Y-90196063D01*
X136796063Y-90340226D01*
X136682795Y-90509744D01*
X136604774Y-90698102D01*
X136565000Y-90898061D01*
X123295210Y-90898061D01*
X123217205Y-90709744D01*
X123103937Y-90540226D01*
X122959774Y-90396063D01*
X122790256Y-90282795D01*
X122601898Y-90204774D01*
X122401939Y-90165000D01*
X122198061Y-90165000D01*
X121998102Y-90204774D01*
X121809744Y-90282795D01*
X121640226Y-90396063D01*
X121496063Y-90540226D01*
X121382795Y-90709744D01*
X121304774Y-90898102D01*
X121265000Y-91098061D01*
X99387645Y-91098061D01*
X99401898Y-91095226D01*
X99590256Y-91017205D01*
X99759774Y-90903937D01*
X99903937Y-90759774D01*
X100017205Y-90590256D01*
X100095226Y-90401898D01*
X100135000Y-90201939D01*
X100135000Y-89998061D01*
X100095226Y-89798102D01*
X100017205Y-89609744D01*
X100010694Y-89600000D01*
X100017205Y-89590256D01*
X100095226Y-89401898D01*
X100135000Y-89201939D01*
X100135000Y-88998061D01*
X100095226Y-88798102D01*
X100017205Y-88609744D01*
X99903937Y-88440226D01*
X99759774Y-88296063D01*
X99590256Y-88182795D01*
X99401898Y-88104774D01*
X99201939Y-88065000D01*
X98998061Y-88065000D01*
X98798102Y-88104774D01*
X98609744Y-88182795D01*
X98440226Y-88296063D01*
X98296063Y-88440226D01*
X98182795Y-88609744D01*
X98104774Y-88798102D01*
X98065000Y-88998061D01*
X93635000Y-88998061D01*
X93635000Y-87600000D01*
X100257573Y-87600000D01*
X100287210Y-87900913D01*
X100374983Y-88190261D01*
X100517519Y-88456927D01*
X100709339Y-88690661D01*
X100943073Y-88882481D01*
X101209739Y-89025017D01*
X101499087Y-89112790D01*
X101724592Y-89135000D01*
X104075408Y-89135000D01*
X104300913Y-89112790D01*
X104590261Y-89025017D01*
X104856927Y-88882481D01*
X105090661Y-88690661D01*
X105282481Y-88456927D01*
X105425017Y-88190261D01*
X105452985Y-88098061D01*
X109165000Y-88098061D01*
X109165000Y-88301939D01*
X109204774Y-88501898D01*
X109282795Y-88690256D01*
X109396063Y-88859774D01*
X109540226Y-89003937D01*
X109709744Y-89117205D01*
X109898102Y-89195226D01*
X110098061Y-89235000D01*
X110301939Y-89235000D01*
X110501898Y-89195226D01*
X110690256Y-89117205D01*
X110859774Y-89003937D01*
X111003937Y-88859774D01*
X111117205Y-88690256D01*
X111195226Y-88501898D01*
X111235000Y-88301939D01*
X111235000Y-88098061D01*
X118965000Y-88098061D01*
X118965000Y-88301939D01*
X119004774Y-88501898D01*
X119082795Y-88690256D01*
X119196063Y-88859774D01*
X119340226Y-89003937D01*
X119509744Y-89117205D01*
X119698102Y-89195226D01*
X119898061Y-89235000D01*
X120101939Y-89235000D01*
X120301898Y-89195226D01*
X120490256Y-89117205D01*
X120659774Y-89003937D01*
X120803937Y-88859774D01*
X120917205Y-88690256D01*
X120995226Y-88501898D01*
X121035000Y-88301939D01*
X121035000Y-88098061D01*
X120995226Y-87898102D01*
X120917205Y-87709744D01*
X120803937Y-87540226D01*
X120761772Y-87498061D01*
X129265000Y-87498061D01*
X129265000Y-87701939D01*
X129304774Y-87901898D01*
X129382795Y-88090256D01*
X129496063Y-88259774D01*
X129640226Y-88403937D01*
X129759164Y-88483409D01*
X129740226Y-88496063D01*
X129596063Y-88640226D01*
X129482795Y-88809744D01*
X129404774Y-88998102D01*
X129365000Y-89198061D01*
X129365000Y-89401939D01*
X129404774Y-89601898D01*
X129482795Y-89790256D01*
X129596063Y-89959774D01*
X129740226Y-90103937D01*
X129909744Y-90217205D01*
X130098102Y-90295226D01*
X130298061Y-90335000D01*
X130501939Y-90335000D01*
X130701898Y-90295226D01*
X130890256Y-90217205D01*
X131059774Y-90103937D01*
X131203937Y-89959774D01*
X131317205Y-89790256D01*
X131395226Y-89601898D01*
X131435000Y-89401939D01*
X131435000Y-89198061D01*
X131395226Y-88998102D01*
X131317205Y-88809744D01*
X131203937Y-88640226D01*
X131059774Y-88496063D01*
X130940836Y-88416591D01*
X130959774Y-88403937D01*
X131103937Y-88259774D01*
X131217205Y-88090256D01*
X131295226Y-87901898D01*
X131335000Y-87701939D01*
X131335000Y-87498061D01*
X131295226Y-87298102D01*
X131217205Y-87109744D01*
X131103937Y-86940226D01*
X131061772Y-86898061D01*
X144665000Y-86898061D01*
X144665000Y-87101939D01*
X144704774Y-87301898D01*
X144782795Y-87490256D01*
X144896063Y-87659774D01*
X145040226Y-87803937D01*
X145209744Y-87917205D01*
X145398102Y-87995226D01*
X145598061Y-88035000D01*
X145801939Y-88035000D01*
X146001898Y-87995226D01*
X146190256Y-87917205D01*
X146359774Y-87803937D01*
X146503937Y-87659774D01*
X146617205Y-87490256D01*
X146655393Y-87398061D01*
X159865000Y-87398061D01*
X159865000Y-87601939D01*
X159904774Y-87801898D01*
X159982795Y-87990256D01*
X160096063Y-88159774D01*
X160240226Y-88303937D01*
X160409744Y-88417205D01*
X160598102Y-88495226D01*
X160798061Y-88535000D01*
X161001939Y-88535000D01*
X161201898Y-88495226D01*
X161390256Y-88417205D01*
X161559774Y-88303937D01*
X161703937Y-88159774D01*
X161817205Y-87990256D01*
X161895226Y-87801898D01*
X161935000Y-87601939D01*
X161935000Y-87398061D01*
X161895226Y-87198102D01*
X161817205Y-87009744D01*
X161703937Y-86840226D01*
X161559774Y-86696063D01*
X161390256Y-86582795D01*
X161201898Y-86504774D01*
X161001939Y-86465000D01*
X160798061Y-86465000D01*
X160598102Y-86504774D01*
X160409744Y-86582795D01*
X160240226Y-86696063D01*
X160096063Y-86840226D01*
X159982795Y-87009744D01*
X159904774Y-87198102D01*
X159865000Y-87398061D01*
X146655393Y-87398061D01*
X146695226Y-87301898D01*
X146735000Y-87101939D01*
X146735000Y-86898061D01*
X146695226Y-86698102D01*
X146617205Y-86509744D01*
X146503937Y-86340226D01*
X146359774Y-86196063D01*
X146190256Y-86082795D01*
X146001898Y-86004774D01*
X145801939Y-85965000D01*
X145598061Y-85965000D01*
X145398102Y-86004774D01*
X145209744Y-86082795D01*
X145040226Y-86196063D01*
X144896063Y-86340226D01*
X144782795Y-86509744D01*
X144704774Y-86698102D01*
X144665000Y-86898061D01*
X131061772Y-86898061D01*
X130959774Y-86796063D01*
X130790256Y-86682795D01*
X130601898Y-86604774D01*
X130401939Y-86565000D01*
X130198061Y-86565000D01*
X129998102Y-86604774D01*
X129809744Y-86682795D01*
X129640226Y-86796063D01*
X129496063Y-86940226D01*
X129382795Y-87109744D01*
X129304774Y-87298102D01*
X129265000Y-87498061D01*
X120761772Y-87498061D01*
X120659774Y-87396063D01*
X120490256Y-87282795D01*
X120301898Y-87204774D01*
X120101939Y-87165000D01*
X119898061Y-87165000D01*
X119698102Y-87204774D01*
X119509744Y-87282795D01*
X119340226Y-87396063D01*
X119196063Y-87540226D01*
X119082795Y-87709744D01*
X119004774Y-87898102D01*
X118965000Y-88098061D01*
X111235000Y-88098061D01*
X111195226Y-87898102D01*
X111117205Y-87709744D01*
X111003937Y-87540226D01*
X110859774Y-87396063D01*
X110690256Y-87282795D01*
X110501898Y-87204774D01*
X110301939Y-87165000D01*
X110098061Y-87165000D01*
X109898102Y-87204774D01*
X109709744Y-87282795D01*
X109540226Y-87396063D01*
X109396063Y-87540226D01*
X109282795Y-87709744D01*
X109204774Y-87898102D01*
X109165000Y-88098061D01*
X105452985Y-88098061D01*
X105512790Y-87900913D01*
X105542427Y-87600000D01*
X105512790Y-87299087D01*
X105425017Y-87009739D01*
X105282481Y-86743073D01*
X105090661Y-86509339D01*
X104856927Y-86317519D01*
X104590261Y-86174983D01*
X104300913Y-86087210D01*
X104075408Y-86065000D01*
X101724592Y-86065000D01*
X101499087Y-86087210D01*
X101209739Y-86174983D01*
X100943073Y-86317519D01*
X100709339Y-86509339D01*
X100517519Y-86743073D01*
X100374983Y-87009739D01*
X100287210Y-87299087D01*
X100257573Y-87600000D01*
X93635000Y-87600000D01*
X93635000Y-85998061D01*
X111965000Y-85998061D01*
X111965000Y-86201939D01*
X112004774Y-86401898D01*
X112082795Y-86590256D01*
X112196063Y-86759774D01*
X112340226Y-86903937D01*
X112509744Y-87017205D01*
X112698102Y-87095226D01*
X112898061Y-87135000D01*
X113101939Y-87135000D01*
X113301898Y-87095226D01*
X113490256Y-87017205D01*
X113659774Y-86903937D01*
X113803937Y-86759774D01*
X113917205Y-86590256D01*
X113995226Y-86401898D01*
X114035000Y-86201939D01*
X114035000Y-85998061D01*
X113995226Y-85798102D01*
X113917205Y-85609744D01*
X113803937Y-85440226D01*
X113659774Y-85296063D01*
X113490256Y-85182795D01*
X113301898Y-85104774D01*
X113101939Y-85065000D01*
X112898061Y-85065000D01*
X112698102Y-85104774D01*
X112509744Y-85182795D01*
X112340226Y-85296063D01*
X112196063Y-85440226D01*
X112082795Y-85609744D01*
X112004774Y-85798102D01*
X111965000Y-85998061D01*
X93635000Y-85998061D01*
X93635000Y-80600000D01*
X104361928Y-80600000D01*
X104361928Y-85000000D01*
X104374188Y-85124482D01*
X104410498Y-85244180D01*
X104469463Y-85354494D01*
X104548815Y-85451185D01*
X104645506Y-85530537D01*
X104755820Y-85589502D01*
X104875518Y-85625812D01*
X105000000Y-85638072D01*
X106800000Y-85638072D01*
X106924482Y-85625812D01*
X107044180Y-85589502D01*
X107154494Y-85530537D01*
X107251185Y-85451185D01*
X107330537Y-85354494D01*
X107389502Y-85244180D01*
X107425812Y-85124482D01*
X107438072Y-85000000D01*
X107438072Y-83698061D01*
X119065000Y-83698061D01*
X119065000Y-83901939D01*
X119104774Y-84101898D01*
X119182795Y-84290256D01*
X119296063Y-84459774D01*
X119440226Y-84603937D01*
X119609744Y-84717205D01*
X119798102Y-84795226D01*
X119998061Y-84835000D01*
X120201939Y-84835000D01*
X120387645Y-84798061D01*
X162365000Y-84798061D01*
X162365000Y-85001939D01*
X162404774Y-85201898D01*
X162482795Y-85390256D01*
X162596063Y-85559774D01*
X162740226Y-85703937D01*
X162909744Y-85817205D01*
X163098102Y-85895226D01*
X163298061Y-85935000D01*
X163501939Y-85935000D01*
X163701898Y-85895226D01*
X163890256Y-85817205D01*
X164059774Y-85703937D01*
X164203937Y-85559774D01*
X164229591Y-85521381D01*
X164298061Y-85535000D01*
X164501939Y-85535000D01*
X164701898Y-85495226D01*
X164890256Y-85417205D01*
X165059774Y-85303937D01*
X165135739Y-85227972D01*
X165298102Y-85295226D01*
X165498061Y-85335000D01*
X165701939Y-85335000D01*
X165901898Y-85295226D01*
X166090256Y-85217205D01*
X166150000Y-85177285D01*
X166209744Y-85217205D01*
X166398102Y-85295226D01*
X166598061Y-85335000D01*
X166801939Y-85335000D01*
X167001898Y-85295226D01*
X167190256Y-85217205D01*
X167359774Y-85103937D01*
X167503937Y-84959774D01*
X167617205Y-84790256D01*
X167695226Y-84601898D01*
X167735000Y-84401939D01*
X167735000Y-84198061D01*
X167695226Y-83998102D01*
X167617205Y-83809744D01*
X167503937Y-83640226D01*
X167359774Y-83496063D01*
X167190256Y-83382795D01*
X167001898Y-83304774D01*
X166801939Y-83265000D01*
X166598061Y-83265000D01*
X166398102Y-83304774D01*
X166209744Y-83382795D01*
X166150000Y-83422715D01*
X166090256Y-83382795D01*
X165901898Y-83304774D01*
X165701939Y-83265000D01*
X165498061Y-83265000D01*
X165298102Y-83304774D01*
X165109744Y-83382795D01*
X164940226Y-83496063D01*
X164864261Y-83572028D01*
X164701898Y-83504774D01*
X164501939Y-83465000D01*
X164298061Y-83465000D01*
X164098102Y-83504774D01*
X163909744Y-83582795D01*
X163740226Y-83696063D01*
X163596063Y-83840226D01*
X163570409Y-83878619D01*
X163501939Y-83865000D01*
X163298061Y-83865000D01*
X163098102Y-83904774D01*
X162909744Y-83982795D01*
X162740226Y-84096063D01*
X162596063Y-84240226D01*
X162482795Y-84409744D01*
X162404774Y-84598102D01*
X162365000Y-84798061D01*
X120387645Y-84798061D01*
X120401898Y-84795226D01*
X120590256Y-84717205D01*
X120759774Y-84603937D01*
X120903937Y-84459774D01*
X121017205Y-84290256D01*
X121095226Y-84101898D01*
X121135000Y-83901939D01*
X121135000Y-83698061D01*
X121095226Y-83498102D01*
X121017205Y-83309744D01*
X120903937Y-83140226D01*
X120759774Y-82996063D01*
X120590256Y-82882795D01*
X120401898Y-82804774D01*
X120201939Y-82765000D01*
X119998061Y-82765000D01*
X119798102Y-82804774D01*
X119609744Y-82882795D01*
X119440226Y-82996063D01*
X119296063Y-83140226D01*
X119182795Y-83309744D01*
X119104774Y-83498102D01*
X119065000Y-83698061D01*
X107438072Y-83698061D01*
X107438072Y-82498061D01*
X136265000Y-82498061D01*
X136265000Y-82701939D01*
X136304774Y-82901898D01*
X136382795Y-83090256D01*
X136496063Y-83259774D01*
X136640226Y-83403937D01*
X136809744Y-83517205D01*
X136998102Y-83595226D01*
X137198061Y-83635000D01*
X137401939Y-83635000D01*
X137601898Y-83595226D01*
X137790256Y-83517205D01*
X137959774Y-83403937D01*
X138103937Y-83259774D01*
X138217205Y-83090256D01*
X138295226Y-82901898D01*
X138335000Y-82701939D01*
X138335000Y-82498061D01*
X138295226Y-82298102D01*
X138217205Y-82109744D01*
X138103937Y-81940226D01*
X137959774Y-81796063D01*
X137790256Y-81682795D01*
X137601898Y-81604774D01*
X137401939Y-81565000D01*
X137198061Y-81565000D01*
X136998102Y-81604774D01*
X136809744Y-81682795D01*
X136640226Y-81796063D01*
X136496063Y-81940226D01*
X136382795Y-82109744D01*
X136304774Y-82298102D01*
X136265000Y-82498061D01*
X107438072Y-82498061D01*
X107438072Y-81398061D01*
X157865000Y-81398061D01*
X157865000Y-81601939D01*
X157904774Y-81801898D01*
X157982795Y-81990256D01*
X158096063Y-82159774D01*
X158240226Y-82303937D01*
X158409744Y-82417205D01*
X158598102Y-82495226D01*
X158798061Y-82535000D01*
X159001939Y-82535000D01*
X159201898Y-82495226D01*
X159390256Y-82417205D01*
X159559774Y-82303937D01*
X159703937Y-82159774D01*
X159817205Y-81990256D01*
X159895226Y-81801898D01*
X159935000Y-81601939D01*
X159935000Y-81398061D01*
X159895226Y-81198102D01*
X159817205Y-81009744D01*
X159703937Y-80840226D01*
X159559774Y-80696063D01*
X159390256Y-80582795D01*
X159201898Y-80504774D01*
X159001939Y-80465000D01*
X158798061Y-80465000D01*
X158598102Y-80504774D01*
X158409744Y-80582795D01*
X158240226Y-80696063D01*
X158096063Y-80840226D01*
X157982795Y-81009744D01*
X157904774Y-81198102D01*
X157865000Y-81398061D01*
X107438072Y-81398061D01*
X107438072Y-80600000D01*
X107425812Y-80475518D01*
X107389502Y-80355820D01*
X107330537Y-80245506D01*
X107251185Y-80148815D01*
X107154494Y-80069463D01*
X107044180Y-80010498D01*
X106924482Y-79974188D01*
X106800000Y-79961928D01*
X105000000Y-79961928D01*
X104875518Y-79974188D01*
X104755820Y-80010498D01*
X104645506Y-80069463D01*
X104548815Y-80148815D01*
X104469463Y-80245506D01*
X104410498Y-80355820D01*
X104374188Y-80475518D01*
X104361928Y-80600000D01*
X93635000Y-80600000D01*
X93635000Y-78598061D01*
X163365000Y-78598061D01*
X163365000Y-78801939D01*
X163404774Y-79001898D01*
X163482795Y-79190256D01*
X163596063Y-79359774D01*
X163740226Y-79503937D01*
X163909744Y-79617205D01*
X164098102Y-79695226D01*
X164298061Y-79735000D01*
X164501939Y-79735000D01*
X164701898Y-79695226D01*
X164890256Y-79617205D01*
X165059774Y-79503937D01*
X165203937Y-79359774D01*
X165317205Y-79190256D01*
X165395226Y-79001898D01*
X165435000Y-78801939D01*
X165435000Y-78598061D01*
X165395226Y-78398102D01*
X165317205Y-78209744D01*
X165203937Y-78040226D01*
X165059774Y-77896063D01*
X164890256Y-77782795D01*
X164701898Y-77704774D01*
X164501939Y-77665000D01*
X164298061Y-77665000D01*
X164098102Y-77704774D01*
X163909744Y-77782795D01*
X163740226Y-77896063D01*
X163596063Y-78040226D01*
X163482795Y-78209744D01*
X163404774Y-78398102D01*
X163365000Y-78598061D01*
X93635000Y-78598061D01*
X93635000Y-77398061D01*
X147065000Y-77398061D01*
X147065000Y-77601939D01*
X147104774Y-77801898D01*
X147182795Y-77990256D01*
X147296063Y-78159774D01*
X147440226Y-78303937D01*
X147609744Y-78417205D01*
X147798102Y-78495226D01*
X147998061Y-78535000D01*
X148201939Y-78535000D01*
X148401898Y-78495226D01*
X148590256Y-78417205D01*
X148759774Y-78303937D01*
X148903937Y-78159774D01*
X149017205Y-77990256D01*
X149095226Y-77801898D01*
X149135000Y-77601939D01*
X149135000Y-77398061D01*
X149095226Y-77198102D01*
X149017205Y-77009744D01*
X148903937Y-76840226D01*
X148759774Y-76696063D01*
X148590256Y-76582795D01*
X148401898Y-76504774D01*
X148201939Y-76465000D01*
X147998061Y-76465000D01*
X147798102Y-76504774D01*
X147609744Y-76582795D01*
X147440226Y-76696063D01*
X147296063Y-76840226D01*
X147182795Y-77009744D01*
X147104774Y-77198102D01*
X147065000Y-77398061D01*
X93635000Y-77398061D01*
X93635000Y-71127000D01*
X107745195Y-71127000D01*
X107735611Y-71141343D01*
G37*
G04 #@! TD.AperFunction*
G04 #@! TD*
D30*
G04 #@! TO.N,Net-(J2-Pad1)*
X156765001Y-43184390D02*
X156641343Y-43235611D01*
X155964091Y-43688136D01*
X155388136Y-44264091D01*
X154935611Y-44941343D01*
X154623906Y-45693865D01*
X154465000Y-46492738D01*
X154465000Y-47307262D01*
X154623906Y-48106135D01*
X154935611Y-48858657D01*
X155388136Y-49535909D01*
X155964091Y-50111864D01*
X156641343Y-50564389D01*
X157393865Y-50876094D01*
X158192738Y-51035000D01*
X159007262Y-51035000D01*
X159806135Y-50876094D01*
X160558657Y-50564389D01*
X161235909Y-50111864D01*
X161811864Y-49535909D01*
X162264389Y-48858657D01*
X162576094Y-48106135D01*
X162735000Y-47307262D01*
X162735000Y-46492738D01*
X162576094Y-45693865D01*
X162264389Y-44941343D01*
X161811864Y-44264091D01*
X161235909Y-43688136D01*
X160558657Y-43235611D01*
X160435000Y-43184391D01*
X160435000Y-42435000D01*
X170799381Y-42435000D01*
X171538084Y-43336467D01*
X171312377Y-43881372D01*
X171165000Y-44622285D01*
X171165000Y-45377715D01*
X171312377Y-46118628D01*
X171601467Y-46816554D01*
X172021161Y-47444670D01*
X172555330Y-47978839D01*
X173183446Y-48398533D01*
X173881372Y-48687623D01*
X174622285Y-48835000D01*
X175377715Y-48835000D01*
X175950468Y-48721072D01*
X176365000Y-49226942D01*
X176365000Y-69873000D01*
X161213256Y-69873000D01*
X160558657Y-69435611D01*
X159806135Y-69123906D01*
X159007262Y-68965000D01*
X158192738Y-68965000D01*
X157393865Y-69123906D01*
X156641343Y-69435611D01*
X155986744Y-69873000D01*
X136785000Y-69873000D01*
X136785000Y-57925157D01*
X140977817Y-53732341D01*
X141007764Y-53707764D01*
X141105862Y-53588233D01*
X141178754Y-53451860D01*
X141223641Y-53303887D01*
X141235000Y-53188561D01*
X141235000Y-53188554D01*
X141238797Y-53150001D01*
X141235000Y-53111448D01*
X141235000Y-48388072D01*
X141700000Y-48388072D01*
X141824482Y-48375812D01*
X141944180Y-48339502D01*
X142054494Y-48280537D01*
X142151185Y-48201185D01*
X142230537Y-48104494D01*
X142289502Y-47994180D01*
X142325812Y-47874482D01*
X142338072Y-47750000D01*
X142338072Y-43250000D01*
X142325812Y-43125518D01*
X142289502Y-43005820D01*
X142230537Y-42895506D01*
X142151185Y-42798815D01*
X142054494Y-42719463D01*
X141944180Y-42660498D01*
X141824482Y-42624188D01*
X141700000Y-42611928D01*
X139200000Y-42611928D01*
X139075518Y-42624188D01*
X138955820Y-42660498D01*
X138845506Y-42719463D01*
X138748815Y-42798815D01*
X138669463Y-42895506D01*
X138610498Y-43005820D01*
X138574188Y-43125518D01*
X138561928Y-43250000D01*
X138561928Y-47750000D01*
X138574188Y-47874482D01*
X138610498Y-47994180D01*
X138669463Y-48104494D01*
X138748815Y-48201185D01*
X138845506Y-48280537D01*
X138955820Y-48339502D01*
X139075518Y-48375812D01*
X139200000Y-48388072D01*
X139665001Y-48388072D01*
X139665000Y-52824842D01*
X135472185Y-57017658D01*
X135442237Y-57042236D01*
X135417659Y-57072184D01*
X135417655Y-57072188D01*
X135384690Y-57112356D01*
X135344139Y-57161767D01*
X135305177Y-57234660D01*
X135271246Y-57298141D01*
X135226359Y-57446114D01*
X135211203Y-57600000D01*
X135215001Y-57638563D01*
X135215000Y-69873000D01*
X132627000Y-69873000D01*
X132627000Y-42435000D01*
X156765001Y-42435000D01*
X156765001Y-43184390D01*
G04 #@! TA.AperFunction,Conductor*
D31*
G36*
X156765001Y-43184390D02*
G01*
X156641343Y-43235611D01*
X155964091Y-43688136D01*
X155388136Y-44264091D01*
X154935611Y-44941343D01*
X154623906Y-45693865D01*
X154465000Y-46492738D01*
X154465000Y-47307262D01*
X154623906Y-48106135D01*
X154935611Y-48858657D01*
X155388136Y-49535909D01*
X155964091Y-50111864D01*
X156641343Y-50564389D01*
X157393865Y-50876094D01*
X158192738Y-51035000D01*
X159007262Y-51035000D01*
X159806135Y-50876094D01*
X160558657Y-50564389D01*
X161235909Y-50111864D01*
X161811864Y-49535909D01*
X162264389Y-48858657D01*
X162576094Y-48106135D01*
X162735000Y-47307262D01*
X162735000Y-46492738D01*
X162576094Y-45693865D01*
X162264389Y-44941343D01*
X161811864Y-44264091D01*
X161235909Y-43688136D01*
X160558657Y-43235611D01*
X160435000Y-43184391D01*
X160435000Y-42435000D01*
X170799381Y-42435000D01*
X171538084Y-43336467D01*
X171312377Y-43881372D01*
X171165000Y-44622285D01*
X171165000Y-45377715D01*
X171312377Y-46118628D01*
X171601467Y-46816554D01*
X172021161Y-47444670D01*
X172555330Y-47978839D01*
X173183446Y-48398533D01*
X173881372Y-48687623D01*
X174622285Y-48835000D01*
X175377715Y-48835000D01*
X175950468Y-48721072D01*
X176365000Y-49226942D01*
X176365000Y-69873000D01*
X161213256Y-69873000D01*
X160558657Y-69435611D01*
X159806135Y-69123906D01*
X159007262Y-68965000D01*
X158192738Y-68965000D01*
X157393865Y-69123906D01*
X156641343Y-69435611D01*
X155986744Y-69873000D01*
X136785000Y-69873000D01*
X136785000Y-57925157D01*
X140977817Y-53732341D01*
X141007764Y-53707764D01*
X141105862Y-53588233D01*
X141178754Y-53451860D01*
X141223641Y-53303887D01*
X141235000Y-53188561D01*
X141235000Y-53188554D01*
X141238797Y-53150001D01*
X141235000Y-53111448D01*
X141235000Y-48388072D01*
X141700000Y-48388072D01*
X141824482Y-48375812D01*
X141944180Y-48339502D01*
X142054494Y-48280537D01*
X142151185Y-48201185D01*
X142230537Y-48104494D01*
X142289502Y-47994180D01*
X142325812Y-47874482D01*
X142338072Y-47750000D01*
X142338072Y-43250000D01*
X142325812Y-43125518D01*
X142289502Y-43005820D01*
X142230537Y-42895506D01*
X142151185Y-42798815D01*
X142054494Y-42719463D01*
X141944180Y-42660498D01*
X141824482Y-42624188D01*
X141700000Y-42611928D01*
X139200000Y-42611928D01*
X139075518Y-42624188D01*
X138955820Y-42660498D01*
X138845506Y-42719463D01*
X138748815Y-42798815D01*
X138669463Y-42895506D01*
X138610498Y-43005820D01*
X138574188Y-43125518D01*
X138561928Y-43250000D01*
X138561928Y-47750000D01*
X138574188Y-47874482D01*
X138610498Y-47994180D01*
X138669463Y-48104494D01*
X138748815Y-48201185D01*
X138845506Y-48280537D01*
X138955820Y-48339502D01*
X139075518Y-48375812D01*
X139200000Y-48388072D01*
X139665001Y-48388072D01*
X139665000Y-52824842D01*
X135472185Y-57017658D01*
X135442237Y-57042236D01*
X135417659Y-57072184D01*
X135417655Y-57072188D01*
X135384690Y-57112356D01*
X135344139Y-57161767D01*
X135305177Y-57234660D01*
X135271246Y-57298141D01*
X135226359Y-57446114D01*
X135211203Y-57600000D01*
X135215001Y-57638563D01*
X135215000Y-69873000D01*
X132627000Y-69873000D01*
X132627000Y-42435000D01*
X156765001Y-42435000D01*
X156765001Y-43184390D01*
G37*
G04 #@! TD.AperFunction*
G04 #@! TD*
D30*
G04 #@! TO.N,Net-(Q1-Pad3)*
X131865000Y-69873000D02*
X116727000Y-69873000D01*
X116727000Y-42435000D01*
X131865000Y-42435000D01*
X131865000Y-69873000D01*
G04 #@! TA.AperFunction,Conductor*
D31*
G36*
X131865000Y-69873000D02*
G01*
X116727000Y-69873000D01*
X116727000Y-42435000D01*
X131865000Y-42435000D01*
X131865000Y-69873000D01*
G37*
G04 #@! TD.AperFunction*
G04 #@! TD*
D30*
G04 #@! TO.N,Net-(Q2-Pad1)*
X115573000Y-69873000D02*
X114013256Y-69873000D01*
X113358657Y-69435611D01*
X112606135Y-69123906D01*
X111807262Y-68965000D01*
X110992738Y-68965000D01*
X110193865Y-69123906D01*
X109627000Y-69358709D01*
X109627000Y-50641291D01*
X110193865Y-50876094D01*
X110992738Y-51035000D01*
X111807262Y-51035000D01*
X112606135Y-50876094D01*
X113358657Y-50564389D01*
X114035909Y-50111864D01*
X114611864Y-49535909D01*
X115064389Y-48858657D01*
X115376094Y-48106135D01*
X115535000Y-47307262D01*
X115535000Y-46492738D01*
X115376094Y-45693865D01*
X115064389Y-44941343D01*
X114611864Y-44264091D01*
X114035909Y-43688136D01*
X113358657Y-43235611D01*
X113235000Y-43184391D01*
X113235000Y-42435000D01*
X115573000Y-42435000D01*
X115573000Y-69873000D01*
G04 #@! TA.AperFunction,Conductor*
D31*
G36*
X115573000Y-69873000D02*
G01*
X114013256Y-69873000D01*
X113358657Y-69435611D01*
X112606135Y-69123906D01*
X111807262Y-68965000D01*
X110992738Y-68965000D01*
X110193865Y-69123906D01*
X109627000Y-69358709D01*
X109627000Y-50641291D01*
X110193865Y-50876094D01*
X110992738Y-51035000D01*
X111807262Y-51035000D01*
X112606135Y-50876094D01*
X113358657Y-50564389D01*
X114035909Y-50111864D01*
X114611864Y-49535909D01*
X115064389Y-48858657D01*
X115376094Y-48106135D01*
X115535000Y-47307262D01*
X115535000Y-46492738D01*
X115376094Y-45693865D01*
X115064389Y-44941343D01*
X114611864Y-44264091D01*
X114035909Y-43688136D01*
X113358657Y-43235611D01*
X113235000Y-43184391D01*
X113235000Y-42435000D01*
X115573000Y-42435000D01*
X115573000Y-69873000D01*
G37*
G04 #@! TD.AperFunction*
G04 #@! TD*
D30*
G04 #@! TO.N,GND*
X107123000Y-71373000D02*
X93635000Y-71373000D01*
X93635000Y-49232830D01*
X94065827Y-48724313D01*
X94622285Y-48835000D01*
X95377715Y-48835000D01*
X96118628Y-48687623D01*
X96816554Y-48398533D01*
X97444670Y-47978839D01*
X97978839Y-47444670D01*
X98398533Y-46816554D01*
X98687623Y-46118628D01*
X98835000Y-45377715D01*
X98835000Y-44622285D01*
X98687623Y-43881372D01*
X98517283Y-43470135D01*
X99394272Y-42435000D01*
X107123000Y-42435000D01*
X107123000Y-71373000D01*
G04 #@! TA.AperFunction,Conductor*
D31*
G36*
X107123000Y-71373000D02*
G01*
X93635000Y-71373000D01*
X93635000Y-49232830D01*
X94065827Y-48724313D01*
X94622285Y-48835000D01*
X95377715Y-48835000D01*
X96118628Y-48687623D01*
X96816554Y-48398533D01*
X97444670Y-47978839D01*
X97978839Y-47444670D01*
X98398533Y-46816554D01*
X98687623Y-46118628D01*
X98835000Y-45377715D01*
X98835000Y-44622285D01*
X98687623Y-43881372D01*
X98517283Y-43470135D01*
X99394272Y-42435000D01*
X107123000Y-42435000D01*
X107123000Y-71373000D01*
G37*
G04 #@! TD.AperFunction*
G04 #@! TD*
D30*
G04 #@! TO.N,Earth*
X179315000Y-49966353D02*
X179315000Y-69873000D01*
X177127000Y-69873000D01*
X177127000Y-64478072D01*
X177810000Y-64478072D01*
X177934482Y-64465812D01*
X178054180Y-64429502D01*
X178164494Y-64370537D01*
X178261185Y-64291185D01*
X178340537Y-64194494D01*
X178399502Y-64084180D01*
X178435812Y-63964482D01*
X178448072Y-63840000D01*
X178448072Y-61240000D01*
X178435812Y-61115518D01*
X178399502Y-60995820D01*
X178340537Y-60885506D01*
X178261185Y-60788815D01*
X178164494Y-60709463D01*
X178054180Y-60650498D01*
X177934482Y-60614188D01*
X177810000Y-60601928D01*
X177127000Y-60601928D01*
X177127000Y-56858072D01*
X177810000Y-56858072D01*
X177934482Y-56845812D01*
X178054180Y-56809502D01*
X178164494Y-56750537D01*
X178261185Y-56671185D01*
X178340537Y-56574494D01*
X178399502Y-56464180D01*
X178435812Y-56344482D01*
X178448072Y-56220000D01*
X178448072Y-53620000D01*
X178435812Y-53495518D01*
X178399502Y-53375820D01*
X178340537Y-53265506D01*
X178261185Y-53168815D01*
X178164494Y-53089463D01*
X178054180Y-53030498D01*
X177934482Y-52994188D01*
X177810000Y-52981928D01*
X177127000Y-52981928D01*
X177127000Y-49000000D01*
X177124560Y-48975224D01*
X177117333Y-48951399D01*
X177098232Y-48919505D01*
X171198232Y-41719505D01*
X171180640Y-41701887D01*
X171159950Y-41688040D01*
X171136956Y-41678496D01*
X171112541Y-41673621D01*
X171100000Y-41673000D01*
X99100000Y-41673000D01*
X99075224Y-41675440D01*
X99051399Y-41682667D01*
X99029443Y-41694403D01*
X99003101Y-41717905D01*
X92903101Y-48917905D01*
X92888947Y-48938387D01*
X92879061Y-48961236D01*
X92873822Y-48985575D01*
X92873000Y-49000000D01*
X92873000Y-52981928D01*
X92190000Y-52981928D01*
X92065518Y-52994188D01*
X91945820Y-53030498D01*
X91835506Y-53089463D01*
X91738815Y-53168815D01*
X91659463Y-53265506D01*
X91600498Y-53375820D01*
X91564188Y-53495518D01*
X91551928Y-53620000D01*
X91551928Y-56220000D01*
X91564188Y-56344482D01*
X91600498Y-56464180D01*
X91659463Y-56574494D01*
X91738815Y-56671185D01*
X91835506Y-56750537D01*
X91945820Y-56809502D01*
X92065518Y-56845812D01*
X92190000Y-56858072D01*
X92873000Y-56858072D01*
X92873000Y-60601928D01*
X92190000Y-60601928D01*
X92065518Y-60614188D01*
X91945820Y-60650498D01*
X91835506Y-60709463D01*
X91738815Y-60788815D01*
X91659463Y-60885506D01*
X91600498Y-60995820D01*
X91564188Y-61115518D01*
X91551928Y-61240000D01*
X91551928Y-63840000D01*
X91564188Y-63964482D01*
X91600498Y-64084180D01*
X91659463Y-64194494D01*
X91738815Y-64291185D01*
X91835506Y-64370537D01*
X91945820Y-64429502D01*
X92065518Y-64465812D01*
X92190000Y-64478072D01*
X92873000Y-64478072D01*
X92873000Y-111000000D01*
X92875440Y-111024776D01*
X92882667Y-111048601D01*
X92894403Y-111070557D01*
X92910197Y-111089803D01*
X98910197Y-117089803D01*
X98929443Y-117105597D01*
X98951399Y-117117333D01*
X98975224Y-117124560D01*
X99000000Y-117127000D01*
X114407346Y-117127000D01*
X114496063Y-117259774D01*
X114640226Y-117403937D01*
X114809744Y-117517205D01*
X114998102Y-117595226D01*
X115198061Y-117635000D01*
X115401939Y-117635000D01*
X115601898Y-117595226D01*
X115790256Y-117517205D01*
X115850000Y-117477285D01*
X115909744Y-117517205D01*
X116098102Y-117595226D01*
X116298061Y-117635000D01*
X116501939Y-117635000D01*
X116701898Y-117595226D01*
X116890256Y-117517205D01*
X117059774Y-117403937D01*
X117203937Y-117259774D01*
X117292654Y-117127000D01*
X132165000Y-117127000D01*
X132165000Y-117701939D01*
X132174969Y-117752058D01*
X132179976Y-117802894D01*
X132194804Y-117851774D01*
X132204774Y-117901898D01*
X132224332Y-117949116D01*
X132239159Y-117997992D01*
X132263237Y-118043039D01*
X132282795Y-118090256D01*
X132311186Y-118132747D01*
X132335266Y-118177797D01*
X132367672Y-118217284D01*
X132396063Y-118259774D01*
X132432197Y-118295908D01*
X132464604Y-118335396D01*
X132504092Y-118367803D01*
X132540226Y-118403937D01*
X132582716Y-118432328D01*
X132622203Y-118464734D01*
X132667254Y-118488814D01*
X132709744Y-118517205D01*
X132756958Y-118536762D01*
X132802007Y-118560841D01*
X132850887Y-118575669D01*
X132898102Y-118595226D01*
X132948223Y-118605196D01*
X132997105Y-118620024D01*
X133047943Y-118625031D01*
X133098061Y-118635000D01*
X133149162Y-118635000D01*
X133200000Y-118640007D01*
X133250838Y-118635000D01*
X133301939Y-118635000D01*
X133352058Y-118625031D01*
X133402894Y-118620024D01*
X133451774Y-118605196D01*
X133501898Y-118595226D01*
X133549116Y-118575668D01*
X133597992Y-118560841D01*
X133643039Y-118536763D01*
X133690256Y-118517205D01*
X133732747Y-118488814D01*
X133777797Y-118464734D01*
X133817284Y-118432328D01*
X133859774Y-118403937D01*
X133895908Y-118367803D01*
X133935396Y-118335396D01*
X133967803Y-118295908D01*
X134003937Y-118259774D01*
X134032328Y-118217284D01*
X134064734Y-118177797D01*
X134088814Y-118132746D01*
X134117205Y-118090256D01*
X134136762Y-118043042D01*
X134160841Y-117997993D01*
X134175669Y-117949113D01*
X134195226Y-117901898D01*
X134205196Y-117851777D01*
X134220024Y-117802895D01*
X134225031Y-117752057D01*
X134235000Y-117701939D01*
X134235000Y-117127000D01*
X136757842Y-117127000D01*
X136798061Y-117135000D01*
X137001939Y-117135000D01*
X137042158Y-117127000D01*
X141174152Y-117127000D01*
X141196051Y-117159774D01*
X141232185Y-117195908D01*
X141264592Y-117235396D01*
X141304080Y-117267803D01*
X141340214Y-117303937D01*
X141382704Y-117332328D01*
X141422191Y-117364734D01*
X141467242Y-117388814D01*
X141509732Y-117417205D01*
X141556946Y-117436762D01*
X141601995Y-117460841D01*
X141650875Y-117475669D01*
X141698090Y-117495226D01*
X141748211Y-117505196D01*
X141791186Y-117518232D01*
X141842061Y-117641055D01*
X141955329Y-117810573D01*
X142099492Y-117954736D01*
X142269010Y-118068004D01*
X142457368Y-118146025D01*
X142657327Y-118185799D01*
X142861205Y-118185799D01*
X143061164Y-118146025D01*
X143249522Y-118068004D01*
X143419040Y-117954736D01*
X143563203Y-117810573D01*
X143676471Y-117641055D01*
X143754492Y-117452697D01*
X143794266Y-117252738D01*
X143794266Y-117127000D01*
X152665000Y-117127000D01*
X152665000Y-117149172D01*
X152659994Y-117200000D01*
X152665000Y-117250828D01*
X152665000Y-117301939D01*
X152674969Y-117352058D01*
X152679976Y-117402894D01*
X152694804Y-117451774D01*
X152704774Y-117501898D01*
X152724332Y-117549116D01*
X152739159Y-117597992D01*
X152763237Y-117643039D01*
X152782795Y-117690256D01*
X152811186Y-117732747D01*
X152835266Y-117777797D01*
X152867672Y-117817284D01*
X152896063Y-117859774D01*
X152932197Y-117895908D01*
X152964604Y-117935396D01*
X153004092Y-117967803D01*
X153040226Y-118003937D01*
X153082716Y-118032328D01*
X153122203Y-118064734D01*
X153167254Y-118088814D01*
X153209744Y-118117205D01*
X153256958Y-118136762D01*
X153302007Y-118160841D01*
X153350887Y-118175669D01*
X153398102Y-118195226D01*
X153448223Y-118205196D01*
X153497105Y-118220024D01*
X153547943Y-118225031D01*
X153598061Y-118235000D01*
X153649162Y-118235000D01*
X153700000Y-118240007D01*
X153750838Y-118235000D01*
X153801939Y-118235000D01*
X153852058Y-118225031D01*
X153902894Y-118220024D01*
X153951774Y-118205196D01*
X154001898Y-118195226D01*
X154049116Y-118175668D01*
X154097992Y-118160841D01*
X154143039Y-118136763D01*
X154190256Y-118117205D01*
X154232747Y-118088814D01*
X154277797Y-118064734D01*
X154317284Y-118032328D01*
X154359774Y-118003937D01*
X154395908Y-117967803D01*
X154435396Y-117935396D01*
X154467803Y-117895908D01*
X154503937Y-117859774D01*
X154503939Y-117859771D01*
X154517803Y-117845907D01*
X154614734Y-117727797D01*
X154710840Y-117547993D01*
X154770023Y-117352894D01*
X154790007Y-117150000D01*
X154787742Y-117127000D01*
X155109289Y-117127000D01*
X155096063Y-117140226D01*
X154982795Y-117309744D01*
X154904774Y-117498102D01*
X154865000Y-117698061D01*
X154865000Y-117901939D01*
X154904774Y-118101898D01*
X154982795Y-118290256D01*
X155096063Y-118459774D01*
X155240226Y-118603937D01*
X155409744Y-118717205D01*
X155598102Y-118795226D01*
X155798061Y-118835000D01*
X156001939Y-118835000D01*
X156201898Y-118795226D01*
X156390256Y-118717205D01*
X156550000Y-118610468D01*
X156709744Y-118717205D01*
X156898102Y-118795226D01*
X157098061Y-118835000D01*
X157301939Y-118835000D01*
X157501898Y-118795226D01*
X157690256Y-118717205D01*
X157850000Y-118610468D01*
X158009744Y-118717205D01*
X158198102Y-118795226D01*
X158398061Y-118835000D01*
X158601939Y-118835000D01*
X158801898Y-118795226D01*
X158990256Y-118717205D01*
X159159774Y-118603937D01*
X159303937Y-118459774D01*
X159417205Y-118290256D01*
X159495226Y-118101898D01*
X159535000Y-117901939D01*
X159535000Y-117698061D01*
X159495226Y-117498102D01*
X159417205Y-117309744D01*
X159303937Y-117140226D01*
X159301783Y-117138072D01*
X159350000Y-117138072D01*
X159462420Y-117127000D01*
X162679502Y-117127000D01*
X162719721Y-117135000D01*
X163140279Y-117135000D01*
X163180498Y-117127000D01*
X171000000Y-117127000D01*
X171024776Y-117124560D01*
X171048601Y-117117333D01*
X171070557Y-117105597D01*
X171089803Y-117089803D01*
X177089803Y-111089803D01*
X177105597Y-111070557D01*
X177117333Y-111048601D01*
X177124560Y-111024776D01*
X177127000Y-111000000D01*
X177127000Y-109898912D01*
X177262288Y-109808516D01*
X177448516Y-109622288D01*
X177594834Y-109403307D01*
X177695620Y-109159988D01*
X177747000Y-108901683D01*
X177747000Y-108638317D01*
X177695620Y-108380012D01*
X177594834Y-108136693D01*
X177448516Y-107917712D01*
X177262288Y-107731484D01*
X177127000Y-107641088D01*
X177127000Y-94658912D01*
X177262288Y-94568516D01*
X177448516Y-94382288D01*
X177594834Y-94163307D01*
X177695620Y-93919988D01*
X177747000Y-93661683D01*
X177747000Y-93398317D01*
X177695620Y-93140012D01*
X177594834Y-92896693D01*
X177448516Y-92677712D01*
X177262288Y-92491484D01*
X177127000Y-92401088D01*
X177127000Y-71127000D01*
X179315000Y-71127000D01*
X179315001Y-119315000D01*
X90685000Y-119315000D01*
X90685000Y-40685000D01*
X179315001Y-40685000D01*
X179315000Y-49966353D01*
G04 #@! TA.AperFunction,Conductor*
D31*
G36*
X179315000Y-49966353D02*
G01*
X179315000Y-69873000D01*
X177127000Y-69873000D01*
X177127000Y-64478072D01*
X177810000Y-64478072D01*
X177934482Y-64465812D01*
X178054180Y-64429502D01*
X178164494Y-64370537D01*
X178261185Y-64291185D01*
X178340537Y-64194494D01*
X178399502Y-64084180D01*
X178435812Y-63964482D01*
X178448072Y-63840000D01*
X178448072Y-61240000D01*
X178435812Y-61115518D01*
X178399502Y-60995820D01*
X178340537Y-60885506D01*
X178261185Y-60788815D01*
X178164494Y-60709463D01*
X178054180Y-60650498D01*
X177934482Y-60614188D01*
X177810000Y-60601928D01*
X177127000Y-60601928D01*
X177127000Y-56858072D01*
X177810000Y-56858072D01*
X177934482Y-56845812D01*
X178054180Y-56809502D01*
X178164494Y-56750537D01*
X178261185Y-56671185D01*
X178340537Y-56574494D01*
X178399502Y-56464180D01*
X178435812Y-56344482D01*
X178448072Y-56220000D01*
X178448072Y-53620000D01*
X178435812Y-53495518D01*
X178399502Y-53375820D01*
X178340537Y-53265506D01*
X178261185Y-53168815D01*
X178164494Y-53089463D01*
X178054180Y-53030498D01*
X177934482Y-52994188D01*
X177810000Y-52981928D01*
X177127000Y-52981928D01*
X177127000Y-49000000D01*
X177124560Y-48975224D01*
X177117333Y-48951399D01*
X177098232Y-48919505D01*
X171198232Y-41719505D01*
X171180640Y-41701887D01*
X171159950Y-41688040D01*
X171136956Y-41678496D01*
X171112541Y-41673621D01*
X171100000Y-41673000D01*
X99100000Y-41673000D01*
X99075224Y-41675440D01*
X99051399Y-41682667D01*
X99029443Y-41694403D01*
X99003101Y-41717905D01*
X92903101Y-48917905D01*
X92888947Y-48938387D01*
X92879061Y-48961236D01*
X92873822Y-48985575D01*
X92873000Y-49000000D01*
X92873000Y-52981928D01*
X92190000Y-52981928D01*
X92065518Y-52994188D01*
X91945820Y-53030498D01*
X91835506Y-53089463D01*
X91738815Y-53168815D01*
X91659463Y-53265506D01*
X91600498Y-53375820D01*
X91564188Y-53495518D01*
X91551928Y-53620000D01*
X91551928Y-56220000D01*
X91564188Y-56344482D01*
X91600498Y-56464180D01*
X91659463Y-56574494D01*
X91738815Y-56671185D01*
X91835506Y-56750537D01*
X91945820Y-56809502D01*
X92065518Y-56845812D01*
X92190000Y-56858072D01*
X92873000Y-56858072D01*
X92873000Y-60601928D01*
X92190000Y-60601928D01*
X92065518Y-60614188D01*
X91945820Y-60650498D01*
X91835506Y-60709463D01*
X91738815Y-60788815D01*
X91659463Y-60885506D01*
X91600498Y-60995820D01*
X91564188Y-61115518D01*
X91551928Y-61240000D01*
X91551928Y-63840000D01*
X91564188Y-63964482D01*
X91600498Y-64084180D01*
X91659463Y-64194494D01*
X91738815Y-64291185D01*
X91835506Y-64370537D01*
X91945820Y-64429502D01*
X92065518Y-64465812D01*
X92190000Y-64478072D01*
X92873000Y-64478072D01*
X92873000Y-111000000D01*
X92875440Y-111024776D01*
X92882667Y-111048601D01*
X92894403Y-111070557D01*
X92910197Y-111089803D01*
X98910197Y-117089803D01*
X98929443Y-117105597D01*
X98951399Y-117117333D01*
X98975224Y-117124560D01*
X99000000Y-117127000D01*
X114407346Y-117127000D01*
X114496063Y-117259774D01*
X114640226Y-117403937D01*
X114809744Y-117517205D01*
X114998102Y-117595226D01*
X115198061Y-117635000D01*
X115401939Y-117635000D01*
X115601898Y-117595226D01*
X115790256Y-117517205D01*
X115850000Y-117477285D01*
X115909744Y-117517205D01*
X116098102Y-117595226D01*
X116298061Y-117635000D01*
X116501939Y-117635000D01*
X116701898Y-117595226D01*
X116890256Y-117517205D01*
X117059774Y-117403937D01*
X117203937Y-117259774D01*
X117292654Y-117127000D01*
X132165000Y-117127000D01*
X132165000Y-117701939D01*
X132174969Y-117752058D01*
X132179976Y-117802894D01*
X132194804Y-117851774D01*
X132204774Y-117901898D01*
X132224332Y-117949116D01*
X132239159Y-117997992D01*
X132263237Y-118043039D01*
X132282795Y-118090256D01*
X132311186Y-118132747D01*
X132335266Y-118177797D01*
X132367672Y-118217284D01*
X132396063Y-118259774D01*
X132432197Y-118295908D01*
X132464604Y-118335396D01*
X132504092Y-118367803D01*
X132540226Y-118403937D01*
X132582716Y-118432328D01*
X132622203Y-118464734D01*
X132667254Y-118488814D01*
X132709744Y-118517205D01*
X132756958Y-118536762D01*
X132802007Y-118560841D01*
X132850887Y-118575669D01*
X132898102Y-118595226D01*
X132948223Y-118605196D01*
X132997105Y-118620024D01*
X133047943Y-118625031D01*
X133098061Y-118635000D01*
X133149162Y-118635000D01*
X133200000Y-118640007D01*
X133250838Y-118635000D01*
X133301939Y-118635000D01*
X133352058Y-118625031D01*
X133402894Y-118620024D01*
X133451774Y-118605196D01*
X133501898Y-118595226D01*
X133549116Y-118575668D01*
X133597992Y-118560841D01*
X133643039Y-118536763D01*
X133690256Y-118517205D01*
X133732747Y-118488814D01*
X133777797Y-118464734D01*
X133817284Y-118432328D01*
X133859774Y-118403937D01*
X133895908Y-118367803D01*
X133935396Y-118335396D01*
X133967803Y-118295908D01*
X134003937Y-118259774D01*
X134032328Y-118217284D01*
X134064734Y-118177797D01*
X134088814Y-118132746D01*
X134117205Y-118090256D01*
X134136762Y-118043042D01*
X134160841Y-117997993D01*
X134175669Y-117949113D01*
X134195226Y-117901898D01*
X134205196Y-117851777D01*
X134220024Y-117802895D01*
X134225031Y-117752057D01*
X134235000Y-117701939D01*
X134235000Y-117127000D01*
X136757842Y-117127000D01*
X136798061Y-117135000D01*
X137001939Y-117135000D01*
X137042158Y-117127000D01*
X141174152Y-117127000D01*
X141196051Y-117159774D01*
X141232185Y-117195908D01*
X141264592Y-117235396D01*
X141304080Y-117267803D01*
X141340214Y-117303937D01*
X141382704Y-117332328D01*
X141422191Y-117364734D01*
X141467242Y-117388814D01*
X141509732Y-117417205D01*
X141556946Y-117436762D01*
X141601995Y-117460841D01*
X141650875Y-117475669D01*
X141698090Y-117495226D01*
X141748211Y-117505196D01*
X141791186Y-117518232D01*
X141842061Y-117641055D01*
X141955329Y-117810573D01*
X142099492Y-117954736D01*
X142269010Y-118068004D01*
X142457368Y-118146025D01*
X142657327Y-118185799D01*
X142861205Y-118185799D01*
X143061164Y-118146025D01*
X143249522Y-118068004D01*
X143419040Y-117954736D01*
X143563203Y-117810573D01*
X143676471Y-117641055D01*
X143754492Y-117452697D01*
X143794266Y-117252738D01*
X143794266Y-117127000D01*
X152665000Y-117127000D01*
X152665000Y-117149172D01*
X152659994Y-117200000D01*
X152665000Y-117250828D01*
X152665000Y-117301939D01*
X152674969Y-117352058D01*
X152679976Y-117402894D01*
X152694804Y-117451774D01*
X152704774Y-117501898D01*
X152724332Y-117549116D01*
X152739159Y-117597992D01*
X152763237Y-117643039D01*
X152782795Y-117690256D01*
X152811186Y-117732747D01*
X152835266Y-117777797D01*
X152867672Y-117817284D01*
X152896063Y-117859774D01*
X152932197Y-117895908D01*
X152964604Y-117935396D01*
X153004092Y-117967803D01*
X153040226Y-118003937D01*
X153082716Y-118032328D01*
X153122203Y-118064734D01*
X153167254Y-118088814D01*
X153209744Y-118117205D01*
X153256958Y-118136762D01*
X153302007Y-118160841D01*
X153350887Y-118175669D01*
X153398102Y-118195226D01*
X153448223Y-118205196D01*
X153497105Y-118220024D01*
X153547943Y-118225031D01*
X153598061Y-118235000D01*
X153649162Y-118235000D01*
X153700000Y-118240007D01*
X153750838Y-118235000D01*
X153801939Y-118235000D01*
X153852058Y-118225031D01*
X153902894Y-118220024D01*
X153951774Y-118205196D01*
X154001898Y-118195226D01*
X154049116Y-118175668D01*
X154097992Y-118160841D01*
X154143039Y-118136763D01*
X154190256Y-118117205D01*
X154232747Y-118088814D01*
X154277797Y-118064734D01*
X154317284Y-118032328D01*
X154359774Y-118003937D01*
X154395908Y-117967803D01*
X154435396Y-117935396D01*
X154467803Y-117895908D01*
X154503937Y-117859774D01*
X154503939Y-117859771D01*
X154517803Y-117845907D01*
X154614734Y-117727797D01*
X154710840Y-117547993D01*
X154770023Y-117352894D01*
X154790007Y-117150000D01*
X154787742Y-117127000D01*
X155109289Y-117127000D01*
X155096063Y-117140226D01*
X154982795Y-117309744D01*
X154904774Y-117498102D01*
X154865000Y-117698061D01*
X154865000Y-117901939D01*
X154904774Y-118101898D01*
X154982795Y-118290256D01*
X155096063Y-118459774D01*
X155240226Y-118603937D01*
X155409744Y-118717205D01*
X155598102Y-118795226D01*
X155798061Y-118835000D01*
X156001939Y-118835000D01*
X156201898Y-118795226D01*
X156390256Y-118717205D01*
X156550000Y-118610468D01*
X156709744Y-118717205D01*
X156898102Y-118795226D01*
X157098061Y-118835000D01*
X157301939Y-118835000D01*
X157501898Y-118795226D01*
X157690256Y-118717205D01*
X157850000Y-118610468D01*
X158009744Y-118717205D01*
X158198102Y-118795226D01*
X158398061Y-118835000D01*
X158601939Y-118835000D01*
X158801898Y-118795226D01*
X158990256Y-118717205D01*
X159159774Y-118603937D01*
X159303937Y-118459774D01*
X159417205Y-118290256D01*
X159495226Y-118101898D01*
X159535000Y-117901939D01*
X159535000Y-117698061D01*
X159495226Y-117498102D01*
X159417205Y-117309744D01*
X159303937Y-117140226D01*
X159301783Y-117138072D01*
X159350000Y-117138072D01*
X159462420Y-117127000D01*
X162679502Y-117127000D01*
X162719721Y-117135000D01*
X163140279Y-117135000D01*
X163180498Y-117127000D01*
X171000000Y-117127000D01*
X171024776Y-117124560D01*
X171048601Y-117117333D01*
X171070557Y-117105597D01*
X171089803Y-117089803D01*
X177089803Y-111089803D01*
X177105597Y-111070557D01*
X177117333Y-111048601D01*
X177124560Y-111024776D01*
X177127000Y-111000000D01*
X177127000Y-109898912D01*
X177262288Y-109808516D01*
X177448516Y-109622288D01*
X177594834Y-109403307D01*
X177695620Y-109159988D01*
X177747000Y-108901683D01*
X177747000Y-108638317D01*
X177695620Y-108380012D01*
X177594834Y-108136693D01*
X177448516Y-107917712D01*
X177262288Y-107731484D01*
X177127000Y-107641088D01*
X177127000Y-94658912D01*
X177262288Y-94568516D01*
X177448516Y-94382288D01*
X177594834Y-94163307D01*
X177695620Y-93919988D01*
X177747000Y-93661683D01*
X177747000Y-93398317D01*
X177695620Y-93140012D01*
X177594834Y-92896693D01*
X177448516Y-92677712D01*
X177262288Y-92491484D01*
X177127000Y-92401088D01*
X177127000Y-71127000D01*
X179315000Y-71127000D01*
X179315001Y-119315000D01*
X90685000Y-119315000D01*
X90685000Y-40685000D01*
X179315001Y-40685000D01*
X179315000Y-49966353D01*
G37*
G04 #@! TD.AperFunction*
G04 #@! TD*
M02*
