M48
; DRILL file {KiCad 5.1.7-a382d34a8~87~ubuntu18.04.1} date Thu Feb 18 22:44:45 2021
; FORMAT={-:-/ absolute / metric / decimal}
; #@! TF.CreationDate,2021-02-18T22:44:45+00:00
; #@! TF.GenerationSoftware,Kicad,Pcbnew,5.1.7-a382d34a8~87~ubuntu18.04.1
; #@! TF.FileFunction,Plated,1,4,PTH
FMAT,2
METRIC
T1C0.400
T2C0.500
T3C0.800
T4C1.000
T5C1.100
T6C1.500
T7C1.520
T8C1.600
T9C3.200
T10C3.400
%
G90
G05
T1
X94.4Y-101.3
X99.1Y-89.1
X99.1Y-90.1
X100.2Y-95.3
X100.2Y-97.4
X100.9Y-91.6
X101.1Y-113.5
X101.5Y-50.0
X101.5Y-52.0
X101.5Y-58.0
X101.5Y-60.0
X101.5Y-66.0
X101.5Y-68.0
X102.3Y-109.6
X102.4Y-107.0
X102.5Y-49.0
X102.5Y-51.0
X102.5Y-59.0
X102.5Y-67.0
X102.9Y-100.7
X102.925Y-99.875
X103.05Y-113.75
X103.1Y-114.7
X103.325Y-106.975
X103.5Y-50.0
X103.5Y-52.0
X103.5Y-54.0
X103.5Y-56.0
X103.5Y-58.0
X103.5Y-60.0
X103.5Y-62.0
X103.5Y-64.0
X103.5Y-66.0
X103.5Y-68.0
X104.2Y-90.8
X104.3Y-104.4
X104.5Y-49.0
X104.5Y-51.0
X105.5Y-50.0
X105.5Y-68.0
X106.5Y-49.0
X106.9Y-99.3
X108.2Y-106.2
X110.2Y-68.0
X110.2Y-88.2
X110.2Y-91.9
X111.0Y-99.2
X111.8Y-68.0
X113.0Y-86.1
X113.5Y-52.0
X113.5Y-54.0
X113.5Y-56.0
X113.5Y-58.0
X113.5Y-60.0
X113.5Y-62.0
X113.5Y-64.0
X113.5Y-66.0
X113.5Y-68.0
X114.2Y-105.2
X114.2Y-106.8
X114.5Y-53.0
X114.5Y-55.0
X114.5Y-63.0
X114.5Y-65.0
X114.5Y-67.0
X115.3Y-116.6
X116.0Y-96.3
X116.4Y-116.6
X116.5Y-99.2
X116.6Y-97.6
X117.3Y-106.2
X118.0Y-112.3
X118.0Y-115.4
X118.2Y-50.9
X118.2Y-52.9
X118.2Y-54.9
X118.2Y-62.9
X118.2Y-64.9
X118.5Y-108.5
X119.2Y-51.9
X119.2Y-53.9
X119.2Y-61.9
X119.2Y-63.9
X119.5Y-111.5
X120.0Y-88.2
X120.1Y-83.8
X120.2Y-50.9
X120.2Y-52.9
X120.2Y-54.9
X120.2Y-62.9
X120.2Y-64.9
X121.1Y-94.1
X121.2Y-51.9
X121.2Y-53.9
X121.2Y-61.9
X121.2Y-63.9
X121.2Y-81.1
X121.6Y-88.2
X122.2Y-50.9
X122.2Y-52.9
X122.2Y-54.9
X122.2Y-56.9
X122.2Y-58.9
X122.2Y-60.9
X122.2Y-62.9
X122.2Y-64.9
X122.3Y-91.2
X122.4Y-93.2
X123.2Y-51.9
X123.2Y-53.9
X123.2Y-55.9
X123.2Y-57.9
X123.2Y-59.9
X123.2Y-61.9
X123.2Y-63.9
X123.4Y-88.1
X124.1Y-98.0
X124.2Y-50.9
X124.2Y-52.9
X124.2Y-54.9
X124.2Y-56.9
X124.2Y-58.9
X124.2Y-60.9
X124.2Y-62.9
X124.2Y-64.9
X124.4Y-108.1
X125.8Y-115.4
X126.8Y-76.6
X126.8Y-84.9
X126.8Y-108.1
X129.2Y-75.9
X129.3Y-92.4
X129.6Y-106.3
X130.3Y-87.6
X130.4Y-89.3
X132.2Y-74.5
X132.5Y-97.9
X132.5Y-100.6
X132.8Y-95.5
X133.2Y-117.6
X133.7Y-104.2
X134.5Y-96.4
X134.5Y-102.2
X134.6Y-84.9
X134.8Y-89.6
X135.7Y-103.9
X135.7Y-110.4
X135.8Y-85.3
X136.0Y-70.8
X136.9Y-116.1
X137.3Y-82.6
X137.5Y-77.3
X137.6Y-91.0
X137.8Y-104.7
X138.9Y-112.9
X139.1Y-100.1
X139.2Y-90.8
X142.0Y-116.5
X142.1Y-98.6
X142.759Y-117.151
X144.3Y-89.0
X145.1Y-98.3
X145.7Y-87.0
X145.9Y-79.7
X148.1Y-76.1
X148.1Y-77.5
X149.2Y-85.05
X153.6Y-77.5
X153.7Y-117.2
X155.9Y-112.6
X155.9Y-117.8
X157.2Y-112.6
X157.2Y-117.8
X158.5Y-112.6
X158.5Y-117.8
X158.9Y-81.5
X158.9Y-83.0
X160.9Y-87.5
X162.8Y-78.7
X163.4Y-84.9
X164.4Y-78.7
X164.4Y-84.5
X165.6Y-84.3
X166.7Y-84.3
X166.7Y-113.6
X167.1Y-115.3
X167.125Y-80.4
X168.2Y-76.9
X168.7Y-115.3
X169.7Y-83.3
X169.8Y-76.9
X170.5Y-112.0
X170.5Y-113.2
X173.2Y-75.3
X173.2Y-77.0
T2
X92.6Y-115.0
X93.303Y-113.303
X93.303Y-116.697
X95.0Y-112.6
X95.0Y-117.4
X96.697Y-113.303
X96.697Y-116.697
X97.4Y-115.0
X172.6Y-45.0
X173.303Y-43.303
X173.303Y-46.697
X175.0Y-42.6
X175.0Y-47.4
X176.697Y-43.303
X176.697Y-46.697
X177.4Y-45.0
X172.6Y-115.0
X173.303Y-113.303
X173.303Y-116.697
X175.0Y-112.6
X175.0Y-117.4
X176.697Y-113.303
X176.697Y-116.697
X177.4Y-115.0
X169.272Y-97.65
X169.272Y-98.65
X169.272Y-99.65
X169.272Y-100.65
X169.272Y-101.65
X169.272Y-102.65
X169.272Y-103.65
X169.272Y-104.65
X92.6Y-45.0
X93.303Y-43.303
X93.303Y-46.697
X95.0Y-42.6
X95.0Y-47.4
X96.697Y-43.303
X96.697Y-46.697
X97.4Y-45.0
T4
X148.47Y-96.07
X148.47Y-98.61
X148.47Y-101.15
X148.47Y-103.69
X148.47Y-106.23
X151.01Y-96.07
X151.01Y-98.61
X151.01Y-101.15
X151.01Y-103.69
X151.01Y-106.23
X175.14Y-99.88
X175.14Y-102.42
T5
X143.39Y-93.53
X143.39Y-96.07
X143.39Y-98.61
X143.39Y-101.15
X143.39Y-103.69
X143.39Y-106.23
X143.39Y-108.77
X145.93Y-93.53
X145.93Y-108.77
X148.47Y-93.53
X148.47Y-108.77
X151.01Y-93.53
X151.01Y-108.77
X153.55Y-93.53
X153.55Y-108.77
X156.09Y-93.53
X156.09Y-108.77
X158.63Y-93.53
X158.63Y-108.77
X161.17Y-93.53
X161.17Y-108.77
X163.71Y-93.53
X163.71Y-108.77
X166.25Y-93.53
X166.25Y-108.77
X168.79Y-93.53
X168.79Y-108.77
X171.33Y-93.53
X171.33Y-108.77
X173.87Y-93.53
X173.87Y-106.23
X173.87Y-108.77
X176.41Y-93.53
X176.41Y-108.77
T6
X129.55Y-45.5
X135.0Y-45.5
X140.45Y-45.5
T7
X157.85Y-115.0
X162.93Y-115.0
T8
X169.19Y-54.92
X169.19Y-62.54
X171.73Y-54.92
X171.73Y-62.54
X174.27Y-54.92
X174.27Y-62.54
X176.81Y-54.92
X176.81Y-62.54
X93.19Y-54.92
X93.19Y-62.54
X95.73Y-54.92
X95.73Y-62.54
X98.27Y-54.92
X98.27Y-62.54
X100.81Y-54.92
X100.81Y-62.54
T9
X175.0Y-45.0
X175.0Y-115.0
X95.0Y-45.0
X95.0Y-115.0
T10
X111.4Y-46.9
X111.4Y-73.1
X158.6Y-46.9
X158.6Y-73.1
T3
G00X100.1Y-81.7
M15
G01X100.1Y-83.9
M16
G05
G00X101.8Y-87.6
M15
G01X104.0Y-87.6
M16
G05
G00X105.9Y-81.5
M15
G01X105.9Y-84.1
M16
G05
T0
M30
